M48
T1C00.024
T2C00.024
T3C00.035
T4C00.094
T5C00.118
%
T001
X00807Y01374
X00807Y01214
X00807Y01134
X00808Y01294
X00907Y01334
X00907Y01174
X00908Y01413
X00908Y01254
X00997Y00586
X00997Y00427
X00998Y00666
X00998Y00506
X01007Y01971
X01007Y01812
X01008Y02051
X01008Y01891
X01097Y00546
X01098Y00706
X01098Y00626
X01098Y00466
X01107Y01931
X01108Y02091
X01108Y02011
X01108Y01851
X02647Y01374
X02647Y01214
X02647Y01134
X02648Y01294
X02747Y01334
X02747Y01174
X02748Y01413
X02748Y01254
X02837Y00586
X02837Y00427
X02838Y00666
X02838Y00506
X02847Y01971
X02847Y01812
X02848Y02051
X02848Y01891
X02937Y00546
X02938Y00706
X02938Y00626
X02938Y00466
X02947Y01931
X02948Y02091
X02948Y02011
X02948Y01851
X04487Y01374
X04487Y01214
X04487Y01134
X04488Y01294
X04587Y01334
X04587Y01174
X04588Y01413
X04588Y01254
X04677Y00586
X04677Y00427
X04678Y00666
X04678Y00506
X04687Y01971
X04687Y01812
X04688Y02051
X04688Y01891
X04777Y00546
X04778Y00706
X04778Y00626
X04778Y00466
X04787Y01931
X04788Y02091
X04788Y02011
X04788Y01851
X06327Y01374
X06327Y01214
X06327Y01134
X06328Y01294
X06427Y01334
X06427Y01174
X06428Y01413
X06428Y01254
X06517Y00586
X06517Y00427
X06518Y00666
X06518Y00506
X06527Y01971
X06527Y01812
X06528Y02051
X06528Y01891
X06617Y00546
X06618Y00706
X06618Y00626
X06618Y00466
X06627Y01931
X06628Y02091
X06628Y02011
X06628Y01851
T002
X00188Y01130
X00613Y01360
X00878Y01600
X02027Y01130
X02453Y01360
X02718Y01600
X03868Y01130
X04293Y01360
X04558Y01600
X05708Y01130
X06133Y01360
X06397Y01600
T003
X00113Y00710
X00113Y00910
X00113Y00810
X01953Y00710
X01953Y00910
X01953Y00810
X03793Y00710
X03793Y00910
X03793Y00810
X05633Y00710
X05633Y00910
X05633Y00810
T004
X00716Y00961
X00716Y01571
X01189Y00269
X01189Y00879
X01199Y01654
X01199Y02264
X02556Y00961
X02556Y01571
X03029Y00269
X03029Y00879
X03039Y01654
X03039Y02264
X04396Y00961
X04396Y01571
X04869Y00269
X04869Y00879
X04879Y01654
X04879Y02264
X06236Y00961
X06236Y01571
X06709Y00269
X06709Y00879
X06719Y01654
X06719Y02264
T005
X00332Y00413
X00332Y00708
X00335Y02132
X00335Y01837
X00490Y02182
X00490Y01788
X00491Y00757
X00492Y00363
X00647Y00708
X00647Y00413
X00650Y01837
X00650Y02132
X01277Y01423
X01277Y01128
X01432Y01473
X01433Y01079
X01592Y01128
X01592Y01423
X02172Y00413
X02172Y00708
X02175Y02132
X02175Y01837
X02330Y02182
X02330Y01788
X02331Y00757
X02332Y00363
X02487Y00708
X02487Y00413
X02490Y01837
X02490Y02132
X03117Y01423
X03117Y01128
X03272Y01473
X03273Y01079
X03432Y01128
X03432Y01423
X04012Y00413
X04012Y00708
X04015Y02132
X04015Y01837
X04170Y02182
X04170Y01788
X04171Y00757
X04172Y00363
X04327Y00708
X04327Y00413
X04330Y01837
X04330Y02132
X04957Y01423
X04957Y01128
X05112Y01473
X05113Y01079
X05272Y01128
X05272Y01423
X05852Y00413
X05852Y00708
X05855Y02132
X05855Y01837
X06010Y02182
X06010Y01788
X06011Y00757
X06012Y00363
X06167Y00708
X06167Y00413
X06170Y01837
X06170Y02132
X06797Y01423
X06797Y01128
X06952Y01473
X06953Y01079
X07112Y01128
X07112Y01423
M30
