%FSLAX23Y23*%
%MOIN*%
%ADD16O,0.07874X0.03937*%
%ADD19O,0.13780X0.23622*%
%ADD17R,0.01000X0.02000*%
%ADD14R,0.08000X0.08000*%
%ADD15C,0.01969*%
%ADD70C,0.04000*%
%ADD11C,0.06000*%
%ADD12C,0.09449*%
X000Y000D02*
D02*
D11*
X807Y1374D03*
X807Y1214D03*
X807Y1134D03*
X808Y1294D03*
X907Y1334D03*
X907Y1174D03*
X908Y1413D03*
X908Y1254D03*
X997Y586D03*
X997Y427D03*
X998Y666D03*
X998Y506D03*
X1007Y1971D03*
X1007Y1812D03*
X1008Y2051D03*
X1008Y1891D03*
X1097Y546D03*
X1098Y706D03*
X1098Y626D03*
X1098Y466D03*
X1107Y1931D03*
X1108Y2091D03*
X1108Y2011D03*
X1108Y1851D03*
X2647Y1374D03*
X2647Y1214D03*
X2647Y1134D03*
X2648Y1294D03*
X2747Y1334D03*
X2747Y1174D03*
X2748Y1413D03*
X2748Y1254D03*
X2837Y586D03*
X2837Y427D03*
X2838Y666D03*
X2838Y506D03*
X2847Y1971D03*
X2847Y1812D03*
X2848Y2051D03*
X2848Y1891D03*
X2937Y546D03*
X2938Y706D03*
X2938Y626D03*
X2938Y466D03*
X2947Y1931D03*
X2948Y2091D03*
X2948Y2011D03*
X2948Y1851D03*
X4487Y1374D03*
X4487Y1214D03*
X4487Y1134D03*
X4488Y1294D03*
X4587Y1334D03*
X4587Y1174D03*
X4588Y1413D03*
X4588Y1254D03*
X4677Y586D03*
X4677Y427D03*
X4678Y666D03*
X4678Y506D03*
X4687Y1971D03*
X4687Y1812D03*
X4688Y2051D03*
X4688Y1891D03*
X4777Y546D03*
X4778Y706D03*
X4778Y626D03*
X4778Y466D03*
X4787Y1931D03*
X4788Y2091D03*
X4788Y2011D03*
X4788Y1851D03*
X6327Y1374D03*
X6327Y1214D03*
X6327Y1134D03*
X6328Y1294D03*
X6427Y1334D03*
X6427Y1174D03*
X6428Y1413D03*
X6428Y1254D03*
X6517Y586D03*
X6517Y427D03*
X6518Y666D03*
X6518Y506D03*
X6527Y1971D03*
X6527Y1812D03*
X6528Y2051D03*
X6528Y1891D03*
X6617Y546D03*
X6618Y706D03*
X6618Y626D03*
X6618Y466D03*
X6627Y1931D03*
X6628Y2091D03*
X6628Y2011D03*
X6628Y1851D03*
D02*
D12*
X716Y961D03*
Y1571D03*
X1189Y269D03*
Y879D03*
X1199Y1654D03*
Y2264D03*
X2556Y961D03*
Y1571D03*
X3029Y269D03*
Y879D03*
X3039Y1654D03*
Y2264D03*
X4396Y961D03*
Y1571D03*
X4869Y269D03*
Y879D03*
X4879Y1654D03*
Y2264D03*
X6236Y961D03*
Y1571D03*
X6709Y269D03*
Y879D03*
X6719Y1654D03*
Y2264D03*
D02*
D14*
X113Y710D03*
Y910D03*
X113Y810D03*
X1952Y710D03*
Y910D03*
X1953Y810D03*
X3793Y710D03*
Y910D03*
X3793Y810D03*
X5633Y710D03*
Y910D03*
X5633Y810D03*
D02*
D15*
X113D02*
X043D01*
X022Y790*
Y485*
X287Y220*
X953*
X1168Y435*
Y485*
X1113Y540*
X1097Y546*
X490Y2182D02*
Y2237D01*
X443Y2285*
X172*
X048Y2160*
Y1265*
X188Y1125*
Y1130*
X613Y1360D02*
X492Y1240D01*
Y755*
X491Y757*
X807Y1374D02*
Y1375D01*
X813*
X757Y1431*
X573*
X282Y1140*
Y940*
X207Y865*
Y515*
X333Y390*
X332Y413*
X877Y1600D02*
X873D01*
X823Y1650*
Y1960*
X677Y2105*
X650Y2132*
X908Y1413D02*
X989D01*
X1063Y1340*
Y1045*
X728Y710*
X652*
X647Y708*
X997Y586D02*
X948D01*
X917Y555*
Y457*
X948Y427*
X997*
X997Y586D02*
Y585D01*
X998Y585*
X998Y666*
X1097Y546D02*
X1117D01*
X1117Y545*
X1173*
X1178Y550*
X1180Y547*
Y598D02*
Y647D01*
X1123Y705*
X1098Y706*
X1433Y1079D02*
X1438Y965D01*
Y950*
X1423Y935*
X1222*
X1123Y1035*
Y1520*
X1083Y1560*
Y1705*
X1232Y1855*
Y2140*
X1192Y2180*
X1058*
X1008Y2130*
X1008Y2051*
X1953Y810D02*
X1883D01*
X1863Y790*
Y485*
X2127Y220*
X2793*
X3007Y435*
Y485*
X2953Y540*
X2937Y546*
X2330Y2182D02*
Y2237D01*
X2283Y2285*
X2013*
X1888Y2160*
Y1265*
X2027Y1125*
Y1130*
X2453Y1360D02*
X2333Y1240D01*
Y755*
X2331Y757*
X2647Y1374D02*
Y1375D01*
X2652*
X2597Y1431*
X2413*
X2123Y1140*
Y940*
X2047Y865*
Y515*
X2172Y390*
X2172Y413*
X2717Y1600D02*
X2712D01*
X2663Y1650*
Y1960*
X2518Y2105*
X2490Y2132*
X2748Y1413D02*
X2829D01*
X2902Y1340*
Y1045*
X2567Y710*
X2493*
X2487Y708*
X2837Y586D02*
X2788D01*
X2757Y555*
Y457*
X2788Y427*
X2837*
X2837Y586D02*
Y585D01*
X2837Y585*
X2838Y666*
X2937Y546D02*
X2957D01*
X2958Y545*
X3013*
X3018Y550*
X3020Y547*
Y598D02*
Y647D01*
X2962Y705*
X2938Y706*
X3273Y1079D02*
X3277Y965D01*
Y950*
X3263Y935*
X3063*
X2962Y1035*
Y1520*
X2922Y1560*
Y1705*
X3072Y1855*
Y2140*
X3033Y2180*
X2898*
X2848Y2130*
X2848Y2051*
X3793Y810D02*
X3723D01*
X3703Y790*
Y485*
X3967Y220*
X4633*
X4848Y435*
Y485*
X4793Y540*
X4777Y546*
X4170Y2182D02*
Y2237D01*
X4122Y2285*
X3853*
X3728Y2160*
Y1265*
X3868Y1125*
Y1130*
X4293Y1360D02*
X4173Y1240D01*
Y755*
X4171Y757*
X4487Y1374D02*
Y1375D01*
X4492*
X4437Y1431*
X4253*
X3962Y1140*
Y940*
X3888Y865*
Y515*
X4013Y390*
X4012Y413*
X4558Y1600D02*
X4553D01*
X4503Y1650*
Y1960*
X4357Y2105*
X4330Y2132*
X4588Y1413D02*
X4669D01*
X4742Y1340*
Y1045*
X4407Y710*
X4332*
X4327Y708*
X4677Y586D02*
X4628D01*
X4598Y555*
Y457*
X4628Y427*
X4677*
X4677Y586D02*
Y585D01*
X4678Y585*
X4678Y666*
X4777Y546D02*
X4797D01*
X4798Y545*
X4853*
X4857Y550*
X4860Y547*
Y598D02*
Y647D01*
X4803Y705*
X4778Y706*
X5113Y1079D02*
X5117Y965D01*
Y950*
X5103Y935*
X4902*
X4803Y1035*
Y1520*
X4763Y1560*
Y1705*
X4912Y1855*
Y2140*
X4872Y2180*
X4737*
X4688Y2130*
X4688Y2051*
X5633Y810D02*
X5563D01*
X5543Y790*
Y485*
X5808Y220*
X6473*
X6688Y435*
Y485*
X6633Y540*
X6617Y546*
X6010Y2182D02*
Y2237D01*
X5963Y2285*
X5692*
X5567Y2160*
Y1265*
X5707Y1125*
Y1130*
X6133Y1360D02*
X6013Y1240D01*
Y755*
X6011Y757*
X6327Y1374D02*
Y1375D01*
X6332*
X6277Y1431*
X6093*
X5803Y1140*
Y940*
X5728Y865*
Y515*
X5853Y390*
X5852Y413*
X6398Y1600D02*
X6393D01*
X6343Y1650*
Y1960*
X6197Y2105*
X6170Y2132*
X6428Y1413D02*
X6509D01*
X6582Y1340*
Y1045*
X6247Y710*
X6173*
X6167Y708*
X6517Y586D02*
X6468D01*
X6438Y555*
Y457*
X6468Y427*
X6517*
X6517Y586D02*
Y585D01*
X6518Y585*
X6518Y666*
X6617Y546D02*
X6637D01*
X6638Y545*
X6692*
X6697Y550*
X6700Y547*
Y598D02*
Y647D01*
X6643Y705*
X6618Y706*
X6953Y1079D02*
X6957Y965D01*
Y950*
X6942Y935*
X6742*
X6643Y1035*
Y1520*
X6603Y1560*
Y1705*
X6753Y1855*
Y2140*
X6713Y2180*
X6577*
X6527Y2130*
X6528Y2051*
D02*
D16*
X1180Y547D03*
Y598D03*
X3020Y547D03*
Y598D03*
X4860Y547D03*
Y598D03*
X6700Y547D03*
Y598D03*
D02*
D17*
X1181Y572D03*
X3021D03*
X4861D03*
X6701D03*
D02*
D19*
X332Y413D03*
Y708D03*
X335Y2132D03*
X335Y1837D03*
X490Y2182D03*
X490Y1788D03*
X491Y757D03*
X492Y363D03*
X647Y708D03*
X647Y413D03*
X650Y1837D03*
Y2132D03*
X1277Y1423D03*
X1277Y1128D03*
X1432Y1473D03*
X1433Y1079D03*
X1592Y1128D03*
Y1423D03*
X2172Y413D03*
Y708D03*
X2175Y2132D03*
X2175Y1837D03*
X2330Y2182D03*
X2330Y1788D03*
X2331Y757D03*
X2332Y363D03*
X2487Y708D03*
X2487Y413D03*
X2490Y1837D03*
Y2132D03*
X3117Y1423D03*
X3117Y1128D03*
X3272Y1473D03*
X3273Y1079D03*
X3432Y1128D03*
Y1423D03*
X4012Y413D03*
Y708D03*
X4015Y2132D03*
X4015Y1837D03*
X4170Y2182D03*
X4170Y1788D03*
X4171Y757D03*
X4172Y363D03*
X4327Y708D03*
X4327Y413D03*
X4330Y1837D03*
Y2132D03*
X4957Y1423D03*
X4957Y1128D03*
X5112Y1473D03*
X5113Y1079D03*
X5272Y1128D03*
Y1423D03*
X5852Y413D03*
Y708D03*
X5855Y2132D03*
X5855Y1837D03*
X6010Y2182D03*
X6010Y1788D03*
X6011Y757D03*
X6012Y363D03*
X6167Y708D03*
X6167Y413D03*
X6170Y1837D03*
Y2132D03*
X6797Y1423D03*
X6797Y1128D03*
X6952Y1473D03*
X6953Y1079D03*
X7112Y1128D03*
Y1423D03*
D02*
D70*
X188Y1130D03*
X613Y1360D03*
X877Y1600D03*
X2027Y1130D03*
X2453Y1360D03*
X2717Y1600D03*
X3868Y1130D03*
X4293Y1360D03*
X4558Y1600D03*
X5707Y1130D03*
X6133Y1360D03*
X6398Y1600D03*
X000Y000D02*
M02*
