M48
T1C00.030
T2C00.035
T3C00.039
T4C00.059
%
T001
X00063Y01028
X00113Y01028
X00163Y01028
X00300Y01028
X00350Y01028
X00400Y01028
X00550Y01028
X00600Y01028
X00650Y01028
X01300Y01025
X01350Y01025
X01400Y01025
X01538Y01025
X01588Y01025
X01638Y01025
X01788Y01025
X01838Y01025
X01888Y01025
X02550Y01028
X02600Y01028
X02650Y01028
X02788Y01028
X02837Y01028
X02888Y01028
X03038Y01028
X03087Y01028
X03138Y01028
X03788Y01025
X03837Y01025
X03888Y01025
X04025Y01025
X04075Y01025
X04125Y01025
X04275Y01025
X04325Y01025
X04375Y01025
X05025Y01025
X05075Y01025
X05125Y01025
X05263Y01025
X05313Y01025
X05362Y01025
X05513Y01025
X05563Y01025
X05612Y01025
X06250Y01025
X06300Y01025
X06350Y01025
X06487Y01025
X06538Y01025
X06588Y01025
X06737Y01025
X06788Y01025
X06838Y01025
X07487Y01025
X07538Y01025
X07588Y01025
X07725Y01025
X07775Y01025
X07825Y01025
X07975Y01025
X08025Y01025
X08075Y01025
X08725Y01025
X08775Y01025
X08825Y01025
X08963Y01025
X09013Y01025
X09063Y01025
X09213Y01025
X09263Y01025
X09313Y01025
X09963Y01025
X10013Y01025
X10063Y01025
X10200Y01025
X10250Y01025
X10300Y01025
X10450Y01025
X10500Y01025
X10550Y01025
X11200Y01025
X11250Y01025
X11300Y01025
X11438Y01025
X11488Y01025
X11537Y01025
X11688Y01025
X11738Y01025
X11787Y01025
T002
X00180Y00080
X00280Y00080
X00380Y00080
X00480Y00080
X00580Y00080
X00680Y00080
X00780Y00080
X00880Y00080
X01418Y00078
X01518Y00078
X01617Y00078
X01718Y00078
X01818Y00078
X01918Y00078
X02018Y00078
X02118Y00078
X02668Y00080
X02768Y00080
X02868Y00080
X02968Y00080
X03067Y00080
X03167Y00080
X03268Y00080
X03368Y00080
X03905Y00078
X04005Y00078
X04105Y00078
X04205Y00078
X04305Y00078
X04405Y00078
X04505Y00078
X04605Y00078
X05143Y00078
X05242Y00078
X05343Y00078
X05442Y00078
X05543Y00078
X05643Y00078
X05742Y00078
X05843Y00078
X06367Y00078
X06468Y00078
X06567Y00078
X06668Y00078
X06768Y00078
X06867Y00078
X06968Y00078
X07067Y00078
X07605Y00078
X07705Y00078
X07805Y00078
X07905Y00078
X08005Y00078
X08105Y00078
X08205Y00078
X08305Y00078
X08842Y00078
X08943Y00078
X09043Y00078
X09143Y00078
X09242Y00078
X09342Y00078
X09443Y00078
X09543Y00078
X10080Y00078
X10180Y00078
X10280Y00078
X10380Y00078
X10480Y00078
X10580Y00078
X10680Y00078
X10780Y00078
X11318Y00078
X11418Y00078
X11518Y00078
X11617Y00078
X11717Y00078
X11818Y00078
X11918Y00078
X12018Y00078
T003
X00847Y01143
X01023Y01143
X02085Y01141
X02261Y01141
X03335Y01143
X03511Y01143
X04572Y01141
X04748Y01141
X05810Y01141
X05986Y01141
X07035Y01141
X07211Y01141
X08272Y01141
X08448Y01141
X09510Y01141
X09686Y01141
X10747Y01141
X10923Y01141
X11985Y01141
X12161Y01141
T004
X00797Y01046
X01073Y01046
X02035Y01043
X02311Y01043
X03285Y01046
X03561Y01046
X04522Y01043
X04798Y01043
X05760Y01043
X06036Y01043
X06985Y01043
X07261Y01043
X08222Y01043
X08498Y01043
X09460Y01043
X09736Y01043
X10697Y01043
X10973Y01043
X11935Y01043
X12211Y01043
M30
