%FSLAX23Y23*%
%MOIN*%
%ADD81R,0.03937X0.12598*%
%ADD82R,0.04016X0.12992*%
%ADD79R,0.04000X0.08000X0.03000*%
%ADD10C,0.00500*%
%ADD80C,0.02953*%
%ADD76R,0.08000X0.08000X0.03543*%
%ADD77C,0.07874X0.03937*%
%ADD78C,0.09843X0.05906*%
X000Y000D02*
D02*
D10*
X037Y052D02*
X128D01*
Y133*
X933*
Y052*
X1100*
Y990*
X1087Y986*
X1074Y984*
X1060Y985*
X1047Y990*
X1036Y997*
X1026Y1006*
X1018Y1017*
X1013Y1030*
X1012Y1044*
X1013Y1057*
X1017Y1070*
X1023Y1082*
X1032Y1092*
X1021Y1091*
X1009Y1093*
X999Y1098*
X989Y1104*
X981Y1113*
X976Y1123*
X972Y1134*
X972Y1146*
X974Y1157*
X978Y1168*
X985Y1178*
X886*
X893Y1168*
X897Y1157*
X899Y1146*
X898Y1134*
X895Y1123*
X889Y1113*
X881Y1104*
X872Y1098*
X861Y1093*
X850Y1091*
X838Y1092*
X847Y1082*
X853Y1071*
X857Y1059*
X859Y1046*
X857Y1032*
X853Y1019*
X845Y1007*
X836Y998*
X824Y990*
X811Y986*
X797Y984*
X783Y986*
X770Y990*
X759Y998*
X749Y1007*
X741Y1019*
X737Y1032*
X735Y1046*
X737Y1060*
X741Y1073*
X749Y1084*
X759Y1094*
X770Y1101*
X783Y1106*
X797Y1108*
X811Y1106*
X804Y1115*
X799Y1125*
X796Y1136*
X795Y1147*
X797Y1158*
X802Y1168*
X808Y1178*
X683*
Y1050*
X683*
Y975*
X517*
Y1050*
X517*
Y1178*
X433*
Y1050*
X433*
Y975*
X268*
Y1050*
X267*
Y1178*
X195*
Y1050*
X195*
Y975*
X037*
Y052*
G36*
X128*
Y133*
X933*
Y052*
X1100*
Y990*
X1087Y986*
X1074Y984*
X1060Y985*
X1047Y990*
X1036Y997*
X1026Y1006*
X1018Y1017*
X1013Y1030*
X1012Y1044*
X1013Y1057*
X1017Y1070*
X1023Y1082*
X1032Y1092*
X1021Y1091*
X1009Y1093*
X999Y1098*
X989Y1104*
X981Y1113*
X976Y1123*
X972Y1134*
X972Y1146*
X974Y1157*
X978Y1168*
X985Y1178*
X886*
X893Y1168*
X897Y1157*
X899Y1146*
X898Y1134*
X895Y1123*
X889Y1113*
X881Y1104*
X872Y1098*
X861Y1093*
X850Y1091*
X838Y1092*
X847Y1082*
X853Y1071*
X857Y1059*
X859Y1046*
X857Y1032*
X853Y1019*
X845Y1007*
X836Y998*
X824Y990*
X811Y986*
X797Y984*
X783Y986*
X770Y990*
X759Y998*
X749Y1007*
X741Y1019*
X737Y1032*
X735Y1046*
X737Y1060*
X741Y1073*
X749Y1084*
X759Y1094*
X770Y1101*
X783Y1106*
X797Y1108*
X811Y1106*
X804Y1115*
X799Y1125*
X796Y1136*
X795Y1147*
X797Y1158*
X802Y1168*
X808Y1178*
X683*
Y1050*
X683*
Y975*
X517*
Y1050*
X517*
Y1178*
X433*
Y1050*
X433*
Y975*
X268*
Y1050*
X267*
Y1178*
X195*
Y1050*
X195*
Y975*
X037*
Y052*
G37*
X095Y1080D02*
X130D01*
Y1178*
X095*
Y1080*
G36*
X130*
Y1178*
X095*
Y1080*
G37*
X333D02*
X367D01*
Y1178*
X333*
Y1080*
G36*
X367*
Y1178*
X333*
Y1080*
G37*
X583D02*
X617D01*
Y1178*
X583*
Y1080*
G36*
X617*
Y1178*
X583*
Y1080*
G37*
X1060Y1106D02*
X1070Y1107D01*
X1081Y1107*
X1092Y1104*
X1102Y1100*
X1106Y1106*
X1111Y1111*
X1118Y1114*
X1125Y1115*
X1250*
X1257Y1114*
X1263Y1112*
X1268Y1108*
Y1178*
X1062*
X1069Y1168*
X1073Y1158*
X1075Y1147*
X1075Y1136*
X1072Y1125*
X1067Y1115*
X1060Y1106*
G36*
X1070Y1107*
X1081Y1107*
X1092Y1104*
X1102Y1100*
X1106Y1106*
X1111Y1111*
X1118Y1114*
X1125Y1115*
X1250*
X1257Y1114*
X1263Y1112*
X1268Y1108*
Y1178*
X1062*
X1069Y1168*
X1073Y1158*
X1075Y1147*
X1075Y1136*
X1072Y1125*
X1067Y1115*
X1060Y1106*
G37*
X1275Y973D02*
Y052D01*
X1365*
Y130*
X2170*
Y052*
X2337*
Y988*
X2325Y983*
X2311Y981*
X2298Y983*
X2285Y987*
X2273Y994*
X2263Y1004*
X2256Y1015*
X2251Y1028*
X2249Y1041*
X2250Y1055*
X2254Y1068*
X2261Y1079*
X2270Y1090*
X2258Y1089*
X2246Y1091*
X2235Y1096*
X2226Y1103*
X2218Y1112*
X2212Y1122*
X2210Y1134*
X2209Y1146*
X2212Y1157*
X2217Y1168*
X2224Y1178*
X2121*
X2129Y1168*
X2134Y1157*
X2136Y1146*
X2136Y1134*
X2133Y1122*
X2128Y1112*
X2120Y1103*
X2110Y1095*
X2099Y1091*
X2087Y1089*
X2075Y1090*
X2084Y1080*
X2091Y1069*
X2095Y1056*
X2096Y1043*
X2095Y1030*
X2090Y1017*
X2083Y1005*
X2073Y995*
X2061Y988*
X2048Y983*
X2035Y982*
X2021Y983*
X2008Y988*
X1996Y995*
X1986Y1005*
X1979Y1017*
X1974Y1030*
X1973Y1043*
X1974Y1057*
X1979Y1070*
X1986Y1082*
X1996Y1092*
X2008Y1099*
X2021Y1104*
X2035Y1105*
X2048Y1103*
X2041Y1113*
X2036Y1123*
X2033Y1135*
X2033Y1146*
X2036Y1158*
X2041Y1168*
X2048Y1178*
X1920*
Y1048*
X1920*
Y973*
X1755*
Y1048*
X1755*
Y1178*
X1670*
Y1048*
X1670*
Y973*
X1505*
Y1048*
X1505*
Y1178*
X1433*
Y1048*
X1433*
Y973*
X1275*
G36*
Y052*
X1365*
Y130*
X2170*
Y052*
X2337*
Y988*
X2325Y983*
X2311Y981*
X2298Y983*
X2285Y987*
X2273Y994*
X2263Y1004*
X2256Y1015*
X2251Y1028*
X2249Y1041*
X2250Y1055*
X2254Y1068*
X2261Y1079*
X2270Y1090*
X2258Y1089*
X2246Y1091*
X2235Y1096*
X2226Y1103*
X2218Y1112*
X2212Y1122*
X2210Y1134*
X2209Y1146*
X2212Y1157*
X2217Y1168*
X2224Y1178*
X2121*
X2129Y1168*
X2134Y1157*
X2136Y1146*
X2136Y1134*
X2133Y1122*
X2128Y1112*
X2120Y1103*
X2110Y1095*
X2099Y1091*
X2087Y1089*
X2075Y1090*
X2084Y1080*
X2091Y1069*
X2095Y1056*
X2096Y1043*
X2095Y1030*
X2090Y1017*
X2083Y1005*
X2073Y995*
X2061Y988*
X2048Y983*
X2035Y982*
X2021Y983*
X2008Y988*
X1996Y995*
X1986Y1005*
X1979Y1017*
X1974Y1030*
X1973Y1043*
X1974Y1057*
X1979Y1070*
X1986Y1082*
X1996Y1092*
X2008Y1099*
X2021Y1104*
X2035Y1105*
X2048Y1103*
X2041Y1113*
X2036Y1123*
X2033Y1135*
X2033Y1146*
X2036Y1158*
X2041Y1168*
X2048Y1178*
X1920*
Y1048*
X1920*
Y973*
X1755*
Y1048*
X1755*
Y1178*
X1670*
Y1048*
X1670*
Y973*
X1505*
Y1048*
X1505*
Y1178*
X1433*
Y1048*
X1433*
Y973*
X1275*
G37*
X1332Y1077D02*
X1367D01*
Y1178*
X1332*
Y1077*
G36*
X1367*
Y1178*
X1332*
Y1077*
G37*
X1570D02*
X1605D01*
Y1178*
X1570*
Y1077*
G36*
X1605*
Y1178*
X1570*
Y1077*
G37*
X1820D02*
X1855D01*
Y1178*
X1820*
Y1077*
G36*
X1855*
Y1178*
X1820*
Y1077*
G37*
X2297Y1103D02*
X2308Y1105D01*
X2318Y1104*
X2329Y1102*
X2339Y1098*
X2342Y1105*
X2348Y1110*
X2355Y1114*
X2362Y1115*
X2500*
X2507Y1114*
X2513Y1112*
X2518Y1108*
Y1178*
X2297*
X2305Y1168*
X2310Y1158*
X2313Y1146*
X2312Y1135*
X2310Y1123*
X2305Y1113*
X2297Y1103*
G36*
X2308Y1105*
X2318Y1104*
X2329Y1102*
X2339Y1098*
X2342Y1105*
X2348Y1110*
X2355Y1114*
X2362Y1115*
X2500*
X2507Y1114*
X2513Y1112*
X2518Y1108*
Y1178*
X2297*
X2305Y1168*
X2310Y1158*
X2313Y1146*
X2312Y1135*
X2310Y1123*
X2305Y1113*
X2297Y1103*
G37*
X2525Y975D02*
Y052D01*
X2615*
Y133*
X3420*
Y052*
X3587*
Y990*
X3575Y986*
X3561Y984*
X3548Y985*
X3535Y990*
X3523Y997*
X3513Y1006*
X3506Y1017*
X3501Y1030*
X3499Y1044*
X3500Y1057*
X3504Y1070*
X3511Y1082*
X3520Y1092*
X3508Y1091*
X3497Y1093*
X3486Y1098*
X3477Y1104*
X3469Y1113*
X3463Y1123*
X3460Y1134*
X3459Y1146*
X3461Y1157*
X3465Y1168*
X3472Y1178*
X3373*
X3380Y1168*
X3385Y1157*
X3386Y1146*
X3386Y1134*
X3382Y1123*
X3377Y1113*
X3369Y1104*
X3359Y1098*
X3349Y1093*
X3337Y1091*
X3325Y1092*
X3334Y1082*
X3341Y1071*
X3345Y1059*
X3346Y1046*
X3345Y1032*
X3340Y1019*
X3333Y1007*
X3323Y998*
X3311Y990*
X3298Y986*
X3285Y984*
X3271Y986*
X3258Y990*
X3246Y998*
X3236Y1007*
X3229Y1019*
X3224Y1032*
X3223Y1046*
X3224Y1060*
X3229Y1073*
X3236Y1084*
X3246Y1094*
X3258Y1101*
X3271Y1106*
X3285Y1108*
X3298Y1106*
X3291Y1115*
X3286Y1125*
X3283Y1136*
X3283Y1147*
X3285Y1158*
X3289Y1168*
X3296Y1178*
X3170*
Y1050*
X3170*
Y975*
X3005*
Y1050*
X3005*
Y1178*
X2920*
Y1050*
X2920*
Y975*
X2755*
Y1050*
X2755*
Y1178*
X2683*
Y1050*
X2683*
Y975*
X2525*
G36*
Y052*
X2615*
Y133*
X3420*
Y052*
X3587*
Y990*
X3575Y986*
X3561Y984*
X3548Y985*
X3535Y990*
X3523Y997*
X3513Y1006*
X3506Y1017*
X3501Y1030*
X3499Y1044*
X3500Y1057*
X3504Y1070*
X3511Y1082*
X3520Y1092*
X3508Y1091*
X3497Y1093*
X3486Y1098*
X3477Y1104*
X3469Y1113*
X3463Y1123*
X3460Y1134*
X3459Y1146*
X3461Y1157*
X3465Y1168*
X3472Y1178*
X3373*
X3380Y1168*
X3385Y1157*
X3386Y1146*
X3386Y1134*
X3382Y1123*
X3377Y1113*
X3369Y1104*
X3359Y1098*
X3349Y1093*
X3337Y1091*
X3325Y1092*
X3334Y1082*
X3341Y1071*
X3345Y1059*
X3346Y1046*
X3345Y1032*
X3340Y1019*
X3333Y1007*
X3323Y998*
X3311Y990*
X3298Y986*
X3285Y984*
X3271Y986*
X3258Y990*
X3246Y998*
X3236Y1007*
X3229Y1019*
X3224Y1032*
X3223Y1046*
X3224Y1060*
X3229Y1073*
X3236Y1084*
X3246Y1094*
X3258Y1101*
X3271Y1106*
X3285Y1108*
X3298Y1106*
X3291Y1115*
X3286Y1125*
X3283Y1136*
X3283Y1147*
X3285Y1158*
X3289Y1168*
X3296Y1178*
X3170*
Y1050*
X3170*
Y975*
X3005*
Y1050*
X3005*
Y1178*
X2920*
Y1050*
X2920*
Y975*
X2755*
Y1050*
X2755*
Y1178*
X2683*
Y1050*
X2683*
Y975*
X2525*
G37*
X2582Y1080D02*
X2617D01*
Y1178*
X2582*
Y1080*
G36*
X2617*
Y1178*
X2582*
Y1080*
G37*
X2820D02*
X2855D01*
Y1178*
X2820*
Y1080*
G36*
X2855*
Y1178*
X2820*
Y1080*
G37*
X3070D02*
X3105D01*
Y1178*
X3070*
Y1080*
G36*
X3105*
Y1178*
X3070*
Y1080*
G37*
X3547Y1106D02*
X3558Y1107D01*
X3569Y1107*
X3580Y1104*
X3590Y1100*
X3594Y1106*
X3599Y1111*
X3605Y1114*
X3612Y1115*
X3737*
X3744Y1114*
X3750Y1112*
X3755Y1108*
Y1178*
X3550*
X3556Y1168*
X3561Y1158*
X3563Y1147*
X3562Y1136*
X3559Y1125*
X3554Y1115*
X3547Y1106*
G36*
X3558Y1107*
X3569Y1107*
X3580Y1104*
X3590Y1100*
X3594Y1106*
X3599Y1111*
X3605Y1114*
X3612Y1115*
X3737*
X3744Y1114*
X3750Y1112*
X3755Y1108*
Y1178*
X3550*
X3556Y1168*
X3561Y1158*
X3563Y1147*
X3562Y1136*
X3559Y1125*
X3554Y1115*
X3547Y1106*
G37*
X3763Y973D02*
Y052D01*
X3853*
Y130*
X4657*
Y052*
X4825*
Y988*
X4812Y983*
X4799Y981*
X4785Y983*
X4772Y987*
X4761Y994*
X4751Y1004*
X4743Y1015*
X4738Y1028*
X4737Y1041*
X4738Y1055*
X4742Y1068*
X4748Y1079*
X4757Y1090*
X4746Y1089*
X4734Y1091*
X4723Y1096*
X4713Y1103*
X4705Y1112*
X4700Y1122*
X4697Y1134*
X4697Y1146*
X4699Y1157*
X4705Y1168*
X4712Y1178*
X4609*
X4616Y1168*
X4621Y1157*
X4624Y1146*
X4624Y1134*
X4621Y1122*
X4615Y1112*
X4607Y1103*
X4598Y1095*
X4587Y1091*
X4575Y1089*
X4563Y1090*
X4572Y1080*
X4578Y1069*
X4582Y1056*
X4584Y1043*
X4582Y1030*
X4578Y1017*
X4570Y1005*
X4561Y995*
X4549Y988*
X4536Y983*
X4522Y982*
X4508Y983*
X4495Y988*
X4484Y995*
X4474Y1005*
X4466Y1017*
X4462Y1030*
X4460Y1043*
X4462Y1057*
X4466Y1070*
X4474Y1082*
X4484Y1092*
X4495Y1099*
X4508Y1104*
X4522Y1105*
X4536Y1103*
X4528Y1113*
X4523Y1123*
X4521Y1135*
X4521Y1146*
X4523Y1158*
X4528Y1168*
X4536Y1178*
X4408*
Y1048*
X4407*
Y973*
X4242*
Y1048*
X4242*
Y1178*
X4158*
Y1048*
X4157*
Y973*
X3993*
Y1048*
X3992*
Y1178*
X3920*
Y1048*
X3920*
Y973*
X3763*
G36*
Y052*
X3853*
Y130*
X4657*
Y052*
X4825*
Y988*
X4812Y983*
X4799Y981*
X4785Y983*
X4772Y987*
X4761Y994*
X4751Y1004*
X4743Y1015*
X4738Y1028*
X4737Y1041*
X4738Y1055*
X4742Y1068*
X4748Y1079*
X4757Y1090*
X4746Y1089*
X4734Y1091*
X4723Y1096*
X4713Y1103*
X4705Y1112*
X4700Y1122*
X4697Y1134*
X4697Y1146*
X4699Y1157*
X4705Y1168*
X4712Y1178*
X4609*
X4616Y1168*
X4621Y1157*
X4624Y1146*
X4624Y1134*
X4621Y1122*
X4615Y1112*
X4607Y1103*
X4598Y1095*
X4587Y1091*
X4575Y1089*
X4563Y1090*
X4572Y1080*
X4578Y1069*
X4582Y1056*
X4584Y1043*
X4582Y1030*
X4578Y1017*
X4570Y1005*
X4561Y995*
X4549Y988*
X4536Y983*
X4522Y982*
X4508Y983*
X4495Y988*
X4484Y995*
X4474Y1005*
X4466Y1017*
X4462Y1030*
X4460Y1043*
X4462Y1057*
X4466Y1070*
X4474Y1082*
X4484Y1092*
X4495Y1099*
X4508Y1104*
X4522Y1105*
X4536Y1103*
X4528Y1113*
X4523Y1123*
X4521Y1135*
X4521Y1146*
X4523Y1158*
X4528Y1168*
X4536Y1178*
X4408*
Y1048*
X4407*
Y973*
X4242*
Y1048*
X4242*
Y1178*
X4158*
Y1048*
X4157*
Y973*
X3993*
Y1048*
X3992*
Y1178*
X3920*
Y1048*
X3920*
Y973*
X3763*
G37*
X3820Y1077D02*
X3855D01*
Y1178*
X3820*
Y1077*
G36*
X3855*
Y1178*
X3820*
Y1077*
G37*
X4058D02*
X4092D01*
Y1178*
X4058*
Y1077*
G36*
X4092*
Y1178*
X4058*
Y1077*
G37*
X4308D02*
X4342D01*
Y1178*
X4308*
Y1077*
G36*
X4342*
Y1178*
X4308*
Y1077*
G37*
X4785Y1103D02*
X4795Y1105D01*
X4806Y1104*
X4816Y1102*
X4826Y1098*
X4830Y1105*
X4835Y1110*
X4842Y1114*
X4850Y1115*
X4975*
X4982Y1114*
X4988Y1112*
X4993Y1108*
Y1178*
X4785*
X4792Y1168*
X4797Y1158*
X4800Y1146*
X4800Y1135*
X4797Y1123*
X4792Y1113*
X4785Y1103*
G36*
X4795Y1105*
X4806Y1104*
X4816Y1102*
X4826Y1098*
X4830Y1105*
X4835Y1110*
X4842Y1114*
X4850Y1115*
X4975*
X4982Y1114*
X4988Y1112*
X4993Y1108*
Y1178*
X4785*
X4792Y1168*
X4797Y1158*
X4800Y1146*
X4800Y1135*
X4797Y1123*
X4792Y1113*
X4785Y1103*
G37*
X5000Y973D02*
Y052D01*
X5090*
Y130*
X5895*
Y052*
X6063*
Y988*
X6050Y983*
X6036Y981*
X6023Y983*
X6010Y987*
X5998Y994*
X5988Y1004*
X5981Y1015*
X5976Y1028*
X5974Y1041*
X5975Y1055*
X5979Y1068*
X5986Y1079*
X5995Y1090*
X5983Y1089*
X5971Y1091*
X5960Y1096*
X5951Y1103*
X5943Y1112*
X5937Y1122*
X5935Y1134*
X5934Y1146*
X5937Y1157*
X5942Y1168*
X5949Y1178*
X5846*
X5854Y1168*
X5859Y1157*
X5861Y1146*
X5861Y1134*
X5858Y1122*
X5853Y1112*
X5845Y1103*
X5835Y1095*
X5824Y1091*
X5812Y1089*
X5800Y1090*
X5809Y1080*
X5816Y1069*
X5820Y1056*
X5821Y1043*
X5820Y1030*
X5815Y1017*
X5808Y1005*
X5798Y995*
X5786Y988*
X5773Y983*
X5760Y982*
X5746Y983*
X5733Y988*
X5721Y995*
X5711Y1005*
X5704Y1017*
X5699Y1030*
X5698Y1043*
X5699Y1057*
X5704Y1070*
X5711Y1082*
X5721Y1092*
X5733Y1099*
X5746Y1104*
X5760Y1105*
X5773Y1103*
X5766Y1113*
X5761Y1123*
X5758Y1135*
X5758Y1146*
X5761Y1158*
X5766Y1168*
X5773Y1178*
X5645*
Y1048*
X5645*
Y973*
X5480*
Y1048*
X5480*
Y1178*
X5395*
Y1048*
X5395*
Y973*
X5230*
Y1048*
X5230*
Y1178*
X5158*
Y1048*
X5157*
Y973*
X5000*
G36*
Y052*
X5090*
Y130*
X5895*
Y052*
X6063*
Y988*
X6050Y983*
X6036Y981*
X6023Y983*
X6010Y987*
X5998Y994*
X5988Y1004*
X5981Y1015*
X5976Y1028*
X5974Y1041*
X5975Y1055*
X5979Y1068*
X5986Y1079*
X5995Y1090*
X5983Y1089*
X5971Y1091*
X5960Y1096*
X5951Y1103*
X5943Y1112*
X5937Y1122*
X5935Y1134*
X5934Y1146*
X5937Y1157*
X5942Y1168*
X5949Y1178*
X5846*
X5854Y1168*
X5859Y1157*
X5861Y1146*
X5861Y1134*
X5858Y1122*
X5853Y1112*
X5845Y1103*
X5835Y1095*
X5824Y1091*
X5812Y1089*
X5800Y1090*
X5809Y1080*
X5816Y1069*
X5820Y1056*
X5821Y1043*
X5820Y1030*
X5815Y1017*
X5808Y1005*
X5798Y995*
X5786Y988*
X5773Y983*
X5760Y982*
X5746Y983*
X5733Y988*
X5721Y995*
X5711Y1005*
X5704Y1017*
X5699Y1030*
X5698Y1043*
X5699Y1057*
X5704Y1070*
X5711Y1082*
X5721Y1092*
X5733Y1099*
X5746Y1104*
X5760Y1105*
X5773Y1103*
X5766Y1113*
X5761Y1123*
X5758Y1135*
X5758Y1146*
X5761Y1158*
X5766Y1168*
X5773Y1178*
X5645*
Y1048*
X5645*
Y973*
X5480*
Y1048*
X5480*
Y1178*
X5395*
Y1048*
X5395*
Y973*
X5230*
Y1048*
X5230*
Y1178*
X5158*
Y1048*
X5157*
Y973*
X5000*
G37*
X5057Y1077D02*
X5092D01*
Y1178*
X5057*
Y1077*
G36*
X5092*
Y1178*
X5057*
Y1077*
G37*
X5295D02*
X5330D01*
Y1178*
X5295*
Y1077*
G36*
X5330*
Y1178*
X5295*
Y1077*
G37*
X5545D02*
X5580D01*
Y1178*
X5545*
Y1077*
G36*
X5580*
Y1178*
X5545*
Y1077*
G37*
X6022Y1103D02*
X6033Y1105D01*
X6043Y1104*
X6054Y1102*
X6064Y1098*
X6067Y1105*
X6073Y1110*
X6080Y1114*
X6088Y1115*
X6213*
X6218Y1114*
Y1178*
X6022*
X6030Y1168*
X6035Y1158*
X6038Y1146*
X6037Y1135*
X6035Y1123*
X6030Y1113*
X6022Y1103*
G36*
X6033Y1105*
X6043Y1104*
X6054Y1102*
X6064Y1098*
X6067Y1105*
X6073Y1110*
X6080Y1114*
X6088Y1115*
X6213*
X6218Y1114*
Y1178*
X6022*
X6030Y1168*
X6035Y1158*
X6038Y1146*
X6037Y1135*
X6035Y1123*
X6030Y1113*
X6022Y1103*
G37*
X6237Y973D02*
Y052D01*
X6315*
Y130*
X7120*
Y052*
X7287*
Y988*
X7275Y983*
X7261Y981*
X7248Y983*
X7235Y987*
X7223Y994*
X7213Y1004*
X7206Y1015*
X7201Y1028*
X7199Y1041*
X7200Y1055*
X7204Y1068*
X7211Y1079*
X7220Y1090*
X7208Y1089*
X7196Y1091*
X7185Y1096*
X7176Y1103*
X7168Y1112*
X7162Y1122*
X7160Y1134*
X7159Y1146*
X7162Y1157*
X7167Y1168*
X7174Y1178*
X7071*
X7079Y1168*
X7084Y1157*
X7086Y1146*
X7086Y1134*
X7083Y1122*
X7078Y1112*
X7070Y1103*
X7060Y1095*
X7049Y1091*
X7037Y1089*
X7025Y1090*
X7034Y1080*
X7041Y1069*
X7045Y1056*
X7046Y1043*
X7045Y1030*
X7040Y1017*
X7033Y1005*
X7023Y995*
X7011Y988*
X6998Y983*
X6985Y982*
X6971Y983*
X6958Y988*
X6946Y995*
X6936Y1005*
X6929Y1017*
X6924Y1030*
X6923Y1043*
X6924Y1057*
X6929Y1070*
X6936Y1082*
X6946Y1092*
X6958Y1099*
X6971Y1104*
X6985Y1105*
X6998Y1103*
X6991Y1113*
X6986Y1123*
X6983Y1135*
X6983Y1146*
X6986Y1158*
X6991Y1168*
X6998Y1178*
X6870*
Y1048*
X6870*
Y973*
X6705*
Y1048*
X6705*
Y1178*
X6620*
Y1048*
X6620*
Y973*
X6455*
Y1048*
X6455*
Y1178*
X6383*
Y1048*
X6383*
Y973*
X6237*
G36*
Y052*
X6315*
Y130*
X7120*
Y052*
X7287*
Y988*
X7275Y983*
X7261Y981*
X7248Y983*
X7235Y987*
X7223Y994*
X7213Y1004*
X7206Y1015*
X7201Y1028*
X7199Y1041*
X7200Y1055*
X7204Y1068*
X7211Y1079*
X7220Y1090*
X7208Y1089*
X7196Y1091*
X7185Y1096*
X7176Y1103*
X7168Y1112*
X7162Y1122*
X7160Y1134*
X7159Y1146*
X7162Y1157*
X7167Y1168*
X7174Y1178*
X7071*
X7079Y1168*
X7084Y1157*
X7086Y1146*
X7086Y1134*
X7083Y1122*
X7078Y1112*
X7070Y1103*
X7060Y1095*
X7049Y1091*
X7037Y1089*
X7025Y1090*
X7034Y1080*
X7041Y1069*
X7045Y1056*
X7046Y1043*
X7045Y1030*
X7040Y1017*
X7033Y1005*
X7023Y995*
X7011Y988*
X6998Y983*
X6985Y982*
X6971Y983*
X6958Y988*
X6946Y995*
X6936Y1005*
X6929Y1017*
X6924Y1030*
X6923Y1043*
X6924Y1057*
X6929Y1070*
X6936Y1082*
X6946Y1092*
X6958Y1099*
X6971Y1104*
X6985Y1105*
X6998Y1103*
X6991Y1113*
X6986Y1123*
X6983Y1135*
X6983Y1146*
X6986Y1158*
X6991Y1168*
X6998Y1178*
X6870*
Y1048*
X6870*
Y973*
X6705*
Y1048*
X6705*
Y1178*
X6620*
Y1048*
X6620*
Y973*
X6455*
Y1048*
X6455*
Y1178*
X6383*
Y1048*
X6383*
Y973*
X6237*
G37*
X6282Y1077D02*
X6317D01*
Y1178*
X6282*
Y1077*
G36*
X6317*
Y1178*
X6282*
Y1077*
G37*
X6520D02*
X6555D01*
Y1178*
X6520*
Y1077*
G36*
X6555*
Y1178*
X6520*
Y1077*
G37*
X6770D02*
X6805D01*
Y1178*
X6770*
Y1077*
G36*
X6805*
Y1178*
X6770*
Y1077*
G37*
X7247Y1103D02*
X7258Y1105D01*
X7268Y1104*
X7279Y1102*
X7289Y1098*
X7292Y1105*
X7298Y1110*
X7305Y1114*
X7313Y1115*
X7438*
X7444Y1114*
X7450Y1112*
X7455Y1108*
Y1178*
X7247*
X7255Y1168*
X7260Y1158*
X7263Y1146*
X7262Y1135*
X7260Y1123*
X7255Y1113*
X7247Y1103*
G36*
X7258Y1105*
X7268Y1104*
X7279Y1102*
X7289Y1098*
X7292Y1105*
X7298Y1110*
X7305Y1114*
X7313Y1115*
X7438*
X7444Y1114*
X7450Y1112*
X7455Y1108*
Y1178*
X7247*
X7255Y1168*
X7260Y1158*
X7263Y1146*
X7262Y1135*
X7260Y1123*
X7255Y1113*
X7247Y1103*
G37*
X7463Y973D02*
Y052D01*
X7553*
Y130*
X8357*
Y052*
X8525*
Y988*
X8512Y983*
X8499Y981*
X8485Y983*
X8472Y987*
X8461Y994*
X8451Y1004*
X8443Y1015*
X8438Y1028*
X8437Y1041*
X8438Y1055*
X8442Y1068*
X8448Y1079*
X8457Y1090*
X8446Y1089*
X8434Y1091*
X8423Y1096*
X8413Y1103*
X8405Y1112*
X8400Y1122*
X8397Y1134*
X8397Y1146*
X8399Y1157*
X8405Y1168*
X8412Y1178*
X8309*
X8316Y1168*
X8321Y1157*
X8324Y1146*
X8324Y1134*
X8321Y1122*
X8315Y1112*
X8307Y1103*
X8298Y1095*
X8287Y1091*
X8275Y1089*
X8263Y1090*
X8272Y1080*
X8278Y1069*
X8282Y1056*
X8284Y1043*
X8282Y1030*
X8278Y1017*
X8270Y1005*
X8261Y995*
X8249Y988*
X8236Y983*
X8222Y982*
X8208Y983*
X8195Y988*
X8184Y995*
X8174Y1005*
X8166Y1017*
X8162Y1030*
X8160Y1043*
X8162Y1057*
X8166Y1070*
X8174Y1082*
X8184Y1092*
X8195Y1099*
X8208Y1104*
X8222Y1105*
X8236Y1103*
X8228Y1113*
X8223Y1123*
X8221Y1135*
X8221Y1146*
X8223Y1158*
X8228Y1168*
X8236Y1178*
X8108*
Y1048*
X8107*
Y973*
X7942*
Y1048*
X7942*
Y1178*
X7858*
Y1048*
X7857*
Y973*
X7692*
Y1048*
X7692*
Y1178*
X7620*
Y1048*
X7620*
Y973*
X7463*
G36*
Y052*
X7553*
Y130*
X8357*
Y052*
X8525*
Y988*
X8512Y983*
X8499Y981*
X8485Y983*
X8472Y987*
X8461Y994*
X8451Y1004*
X8443Y1015*
X8438Y1028*
X8437Y1041*
X8438Y1055*
X8442Y1068*
X8448Y1079*
X8457Y1090*
X8446Y1089*
X8434Y1091*
X8423Y1096*
X8413Y1103*
X8405Y1112*
X8400Y1122*
X8397Y1134*
X8397Y1146*
X8399Y1157*
X8405Y1168*
X8412Y1178*
X8309*
X8316Y1168*
X8321Y1157*
X8324Y1146*
X8324Y1134*
X8321Y1122*
X8315Y1112*
X8307Y1103*
X8298Y1095*
X8287Y1091*
X8275Y1089*
X8263Y1090*
X8272Y1080*
X8278Y1069*
X8282Y1056*
X8284Y1043*
X8282Y1030*
X8278Y1017*
X8270Y1005*
X8261Y995*
X8249Y988*
X8236Y983*
X8222Y982*
X8208Y983*
X8195Y988*
X8184Y995*
X8174Y1005*
X8166Y1017*
X8162Y1030*
X8160Y1043*
X8162Y1057*
X8166Y1070*
X8174Y1082*
X8184Y1092*
X8195Y1099*
X8208Y1104*
X8222Y1105*
X8236Y1103*
X8228Y1113*
X8223Y1123*
X8221Y1135*
X8221Y1146*
X8223Y1158*
X8228Y1168*
X8236Y1178*
X8108*
Y1048*
X8107*
Y973*
X7942*
Y1048*
X7942*
Y1178*
X7858*
Y1048*
X7857*
Y973*
X7692*
Y1048*
X7692*
Y1178*
X7620*
Y1048*
X7620*
Y973*
X7463*
G37*
X7520Y1077D02*
X7555D01*
Y1178*
X7520*
Y1077*
G36*
X7555*
Y1178*
X7520*
Y1077*
G37*
X7758D02*
X7792D01*
Y1178*
X7758*
Y1077*
G36*
X7792*
Y1178*
X7758*
Y1077*
G37*
X8008D02*
X8042D01*
Y1178*
X8008*
Y1077*
G36*
X8042*
Y1178*
X8008*
Y1077*
G37*
X8485Y1103D02*
X8495Y1105D01*
X8506Y1104*
X8516Y1102*
X8526Y1098*
X8530Y1105*
X8535Y1110*
X8542Y1114*
X8550Y1115*
X8675*
X8682Y1114*
X8688Y1112*
X8693Y1108*
Y1178*
X8485*
X8492Y1168*
X8497Y1158*
X8500Y1146*
X8500Y1135*
X8497Y1123*
X8492Y1113*
X8485Y1103*
G36*
X8495Y1105*
X8506Y1104*
X8516Y1102*
X8526Y1098*
X8530Y1105*
X8535Y1110*
X8542Y1114*
X8550Y1115*
X8675*
X8682Y1114*
X8688Y1112*
X8693Y1108*
Y1178*
X8485*
X8492Y1168*
X8497Y1158*
X8500Y1146*
X8500Y1135*
X8497Y1123*
X8492Y1113*
X8485Y1103*
G37*
X8700Y973D02*
Y052D01*
X8790*
Y130*
X9595*
Y052*
X9762*
Y988*
X9750Y983*
X9736Y981*
X9723Y983*
X9710Y987*
X9698Y994*
X9688Y1004*
X9681Y1015*
X9676Y1028*
X9674Y1041*
X9675Y1055*
X9679Y1068*
X9686Y1079*
X9695Y1090*
X9683Y1089*
X9671Y1091*
X9660Y1096*
X9651Y1103*
X9643Y1112*
X9637Y1122*
X9635Y1134*
X9634Y1146*
X9637Y1157*
X9642Y1168*
X9649Y1178*
X9546*
X9554Y1168*
X9559Y1157*
X9561Y1146*
X9561Y1134*
X9558Y1122*
X9553Y1112*
X9545Y1103*
X9535Y1095*
X9524Y1091*
X9512Y1089*
X9500Y1090*
X9509Y1080*
X9516Y1069*
X9520Y1056*
X9521Y1043*
X9520Y1030*
X9515Y1017*
X9508Y1005*
X9498Y995*
X9486Y988*
X9473Y983*
X9460Y982*
X9446Y983*
X9433Y988*
X9421Y995*
X9411Y1005*
X9404Y1017*
X9399Y1030*
X9398Y1043*
X9399Y1057*
X9404Y1070*
X9411Y1082*
X9421Y1092*
X9433Y1099*
X9446Y1104*
X9460Y1105*
X9473Y1103*
X9466Y1113*
X9461Y1123*
X9458Y1135*
X9458Y1146*
X9461Y1158*
X9466Y1168*
X9473Y1178*
X9345*
Y1048*
X9345*
Y973*
X9180*
Y1048*
X9180*
Y1178*
X9095*
Y1048*
X9095*
Y973*
X8930*
Y1048*
X8930*
Y1178*
X8858*
Y1048*
X8857*
Y973*
X8700*
G36*
Y052*
X8790*
Y130*
X9595*
Y052*
X9762*
Y988*
X9750Y983*
X9736Y981*
X9723Y983*
X9710Y987*
X9698Y994*
X9688Y1004*
X9681Y1015*
X9676Y1028*
X9674Y1041*
X9675Y1055*
X9679Y1068*
X9686Y1079*
X9695Y1090*
X9683Y1089*
X9671Y1091*
X9660Y1096*
X9651Y1103*
X9643Y1112*
X9637Y1122*
X9635Y1134*
X9634Y1146*
X9637Y1157*
X9642Y1168*
X9649Y1178*
X9546*
X9554Y1168*
X9559Y1157*
X9561Y1146*
X9561Y1134*
X9558Y1122*
X9553Y1112*
X9545Y1103*
X9535Y1095*
X9524Y1091*
X9512Y1089*
X9500Y1090*
X9509Y1080*
X9516Y1069*
X9520Y1056*
X9521Y1043*
X9520Y1030*
X9515Y1017*
X9508Y1005*
X9498Y995*
X9486Y988*
X9473Y983*
X9460Y982*
X9446Y983*
X9433Y988*
X9421Y995*
X9411Y1005*
X9404Y1017*
X9399Y1030*
X9398Y1043*
X9399Y1057*
X9404Y1070*
X9411Y1082*
X9421Y1092*
X9433Y1099*
X9446Y1104*
X9460Y1105*
X9473Y1103*
X9466Y1113*
X9461Y1123*
X9458Y1135*
X9458Y1146*
X9461Y1158*
X9466Y1168*
X9473Y1178*
X9345*
Y1048*
X9345*
Y973*
X9180*
Y1048*
X9180*
Y1178*
X9095*
Y1048*
X9095*
Y973*
X8930*
Y1048*
X8930*
Y1178*
X8858*
Y1048*
X8857*
Y973*
X8700*
G37*
X8757Y1077D02*
X8792D01*
Y1178*
X8757*
Y1077*
G36*
X8792*
Y1178*
X8757*
Y1077*
G37*
X8995D02*
X9030D01*
Y1178*
X8995*
Y1077*
G36*
X9030*
Y1178*
X8995*
Y1077*
G37*
X9245D02*
X9280D01*
Y1178*
X9245*
Y1077*
G36*
X9280*
Y1178*
X9245*
Y1077*
G37*
X9722Y1103D02*
X9733Y1105D01*
X9743Y1104*
X9754Y1102*
X9764Y1098*
X9767Y1105*
X9773Y1110*
X9780Y1114*
X9787Y1115*
X9912*
X9919Y1114*
X9925Y1112*
X9930Y1108*
Y1178*
X9722*
X9730Y1168*
X9735Y1158*
X9738Y1146*
X9737Y1135*
X9735Y1123*
X9730Y1113*
X9722Y1103*
G36*
X9733Y1105*
X9743Y1104*
X9754Y1102*
X9764Y1098*
X9767Y1105*
X9773Y1110*
X9780Y1114*
X9787Y1115*
X9912*
X9919Y1114*
X9925Y1112*
X9930Y1108*
Y1178*
X9722*
X9730Y1168*
X9735Y1158*
X9738Y1146*
X9737Y1135*
X9735Y1123*
X9730Y1113*
X9722Y1103*
G37*
X9938Y973D02*
Y052D01*
X10028*
Y130*
X10833*
Y052*
X11000*
Y988*
X10987Y983*
X10974Y981*
X10960Y983*
X10947Y987*
X10936Y994*
X10926Y1004*
X10918Y1015*
X10913Y1028*
X10912Y1041*
X10913Y1055*
X10917Y1068*
X10923Y1079*
X10932Y1090*
X10921Y1089*
X10909Y1091*
X10898Y1096*
X10888Y1103*
X10880Y1112*
X10875Y1122*
X10872Y1134*
X10872Y1146*
X10874Y1157*
X10880Y1168*
X10887Y1178*
X10784*
X10791Y1168*
X10796Y1157*
X10799Y1146*
X10799Y1134*
X10796Y1122*
X10790Y1112*
X10782Y1103*
X10773Y1095*
X10762Y1091*
X10750Y1089*
X10738Y1090*
X10747Y1080*
X10753Y1069*
X10757Y1056*
X10759Y1043*
X10757Y1030*
X10753Y1017*
X10745Y1005*
X10736Y995*
X10724Y988*
X10711Y983*
X10697Y982*
X10683Y983*
X10670Y988*
X10659Y995*
X10649Y1005*
X10641Y1017*
X10637Y1030*
X10635Y1043*
X10637Y1057*
X10641Y1070*
X10649Y1082*
X10659Y1092*
X10670Y1099*
X10683Y1104*
X10697Y1105*
X10711Y1103*
X10703Y1113*
X10698Y1123*
X10696Y1135*
X10696Y1146*
X10698Y1158*
X10703Y1168*
X10711Y1178*
X10583*
Y1048*
X10583*
Y973*
X10418*
Y1048*
X10417*
Y1178*
X10333*
Y1048*
X10333*
Y973*
X10168*
Y1048*
X10167*
Y1178*
X10095*
Y1048*
X10095*
Y973*
X9938*
G36*
Y052*
X10028*
Y130*
X10833*
Y052*
X11000*
Y988*
X10987Y983*
X10974Y981*
X10960Y983*
X10947Y987*
X10936Y994*
X10926Y1004*
X10918Y1015*
X10913Y1028*
X10912Y1041*
X10913Y1055*
X10917Y1068*
X10923Y1079*
X10932Y1090*
X10921Y1089*
X10909Y1091*
X10898Y1096*
X10888Y1103*
X10880Y1112*
X10875Y1122*
X10872Y1134*
X10872Y1146*
X10874Y1157*
X10880Y1168*
X10887Y1178*
X10784*
X10791Y1168*
X10796Y1157*
X10799Y1146*
X10799Y1134*
X10796Y1122*
X10790Y1112*
X10782Y1103*
X10773Y1095*
X10762Y1091*
X10750Y1089*
X10738Y1090*
X10747Y1080*
X10753Y1069*
X10757Y1056*
X10759Y1043*
X10757Y1030*
X10753Y1017*
X10745Y1005*
X10736Y995*
X10724Y988*
X10711Y983*
X10697Y982*
X10683Y983*
X10670Y988*
X10659Y995*
X10649Y1005*
X10641Y1017*
X10637Y1030*
X10635Y1043*
X10637Y1057*
X10641Y1070*
X10649Y1082*
X10659Y1092*
X10670Y1099*
X10683Y1104*
X10697Y1105*
X10711Y1103*
X10703Y1113*
X10698Y1123*
X10696Y1135*
X10696Y1146*
X10698Y1158*
X10703Y1168*
X10711Y1178*
X10583*
Y1048*
X10583*
Y973*
X10418*
Y1048*
X10417*
Y1178*
X10333*
Y1048*
X10333*
Y973*
X10168*
Y1048*
X10167*
Y1178*
X10095*
Y1048*
X10095*
Y973*
X9938*
G37*
X9995Y1077D02*
X10030D01*
Y1178*
X9995*
Y1077*
G36*
X10030*
Y1178*
X9995*
Y1077*
G37*
X10233D02*
X10267D01*
Y1178*
X10233*
Y1077*
G36*
X10267*
Y1178*
X10233*
Y1077*
G37*
X10483D02*
X10517D01*
Y1178*
X10483*
Y1077*
G36*
X10517*
Y1178*
X10483*
Y1077*
G37*
X10960Y1103D02*
X10970Y1105D01*
X10981Y1104*
X10991Y1102*
X11001Y1098*
X11005Y1105*
X11010Y1110*
X11017Y1114*
X11025Y1115*
X11150*
X11157Y1114*
X11163Y1112*
X11168Y1108*
Y1178*
X10960*
X10967Y1168*
X10972Y1158*
X10975Y1146*
X10975Y1135*
X10972Y1123*
X10967Y1113*
X10960Y1103*
G36*
X10970Y1105*
X10981Y1104*
X10991Y1102*
X11001Y1098*
X11005Y1105*
X11010Y1110*
X11017Y1114*
X11025Y1115*
X11150*
X11157Y1114*
X11163Y1112*
X11168Y1108*
Y1178*
X10960*
X10967Y1168*
X10972Y1158*
X10975Y1146*
X10975Y1135*
X10972Y1123*
X10967Y1113*
X10960Y1103*
G37*
X11175Y973D02*
Y052D01*
X11265*
Y130*
X12070*
Y052*
X12238*
Y988*
X12225Y983*
X12211Y981*
X12198Y983*
X12185Y987*
X12173Y994*
X12163Y1004*
X12156Y1015*
X12151Y1028*
X12149Y1041*
X12150Y1055*
X12154Y1068*
X12161Y1079*
X12170Y1090*
X12158Y1089*
X12146Y1091*
X12135Y1096*
X12126Y1103*
X12118Y1112*
X12112Y1122*
X12110Y1134*
X12109Y1146*
X12112Y1157*
X12117Y1168*
X12124Y1178*
X12021*
X12029Y1168*
X12034Y1157*
X12036Y1146*
X12036Y1134*
X12033Y1122*
X12028Y1112*
X12020Y1103*
X12010Y1095*
X11999Y1091*
X11987Y1089*
X11975Y1090*
X11984Y1080*
X11991Y1069*
X11995Y1056*
X11996Y1043*
X11995Y1030*
X11990Y1017*
X11983Y1005*
X11973Y995*
X11961Y988*
X11948Y983*
X11935Y982*
X11921Y983*
X11908Y988*
X11896Y995*
X11886Y1005*
X11879Y1017*
X11874Y1030*
X11873Y1043*
X11874Y1057*
X11879Y1070*
X11886Y1082*
X11896Y1092*
X11908Y1099*
X11921Y1104*
X11935Y1105*
X11948Y1103*
X11941Y1113*
X11936Y1123*
X11933Y1135*
X11933Y1146*
X11936Y1158*
X11941Y1168*
X11948Y1178*
X11820*
Y1048*
X11820*
Y973*
X11655*
Y1048*
X11655*
Y1178*
X11570*
Y1048*
X11570*
Y973*
X11405*
Y1048*
X11405*
Y1178*
X11333*
Y1048*
X11333*
Y973*
X11175*
G36*
Y052*
X11265*
Y130*
X12070*
Y052*
X12238*
Y988*
X12225Y983*
X12211Y981*
X12198Y983*
X12185Y987*
X12173Y994*
X12163Y1004*
X12156Y1015*
X12151Y1028*
X12149Y1041*
X12150Y1055*
X12154Y1068*
X12161Y1079*
X12170Y1090*
X12158Y1089*
X12146Y1091*
X12135Y1096*
X12126Y1103*
X12118Y1112*
X12112Y1122*
X12110Y1134*
X12109Y1146*
X12112Y1157*
X12117Y1168*
X12124Y1178*
X12021*
X12029Y1168*
X12034Y1157*
X12036Y1146*
X12036Y1134*
X12033Y1122*
X12028Y1112*
X12020Y1103*
X12010Y1095*
X11999Y1091*
X11987Y1089*
X11975Y1090*
X11984Y1080*
X11991Y1069*
X11995Y1056*
X11996Y1043*
X11995Y1030*
X11990Y1017*
X11983Y1005*
X11973Y995*
X11961Y988*
X11948Y983*
X11935Y982*
X11921Y983*
X11908Y988*
X11896Y995*
X11886Y1005*
X11879Y1017*
X11874Y1030*
X11873Y1043*
X11874Y1057*
X11879Y1070*
X11886Y1082*
X11896Y1092*
X11908Y1099*
X11921Y1104*
X11935Y1105*
X11948Y1103*
X11941Y1113*
X11936Y1123*
X11933Y1135*
X11933Y1146*
X11936Y1158*
X11941Y1168*
X11948Y1178*
X11820*
Y1048*
X11820*
Y973*
X11655*
Y1048*
X11655*
Y1178*
X11570*
Y1048*
X11570*
Y973*
X11405*
Y1048*
X11405*
Y1178*
X11333*
Y1048*
X11333*
Y973*
X11175*
G37*
X11232Y1077D02*
X11267D01*
Y1178*
X11232*
Y1077*
G36*
X11267*
Y1178*
X11232*
Y1077*
G37*
X11470D02*
X11505D01*
Y1178*
X11470*
Y1077*
G36*
X11505*
Y1178*
X11470*
Y1077*
G37*
X11720D02*
X11755D01*
Y1178*
X11720*
Y1077*
G36*
X11755*
Y1178*
X11720*
Y1077*
G37*
D02*
D76*
X180Y080D03*
X280D03*
X380D03*
X480D03*
X580D03*
X680D03*
X780D03*
X880D03*
X1418Y077D03*
X1518D03*
X1617D03*
X1718D03*
X1817D03*
X1918D03*
X2018D03*
X2118D03*
X2668Y080D03*
X2768D03*
X2868D03*
X2967D03*
X3067D03*
X3168D03*
X3268D03*
X3368D03*
X3905Y077D03*
X4005D03*
X4105D03*
X4205D03*
X4305D03*
X4405D03*
X4505D03*
X4605D03*
X5143D03*
X5242D03*
X5343D03*
X5442D03*
X5543D03*
X5643D03*
X5742D03*
X5843D03*
X6367D03*
X6468D03*
X6567D03*
X6668D03*
X6768D03*
X6867D03*
X6968D03*
X7067D03*
X7605D03*
X7705D03*
X7805D03*
X7905D03*
X8005D03*
X8105D03*
X8205D03*
X8305D03*
X8842D03*
X8943D03*
X9043D03*
X9143D03*
X9242D03*
X9342D03*
X9443D03*
X9543D03*
X10080D03*
X10180D03*
X10280D03*
X10380D03*
X10480D03*
X10580D03*
X10680D03*
X10780D03*
X11318D03*
X11418D03*
X11518D03*
X11618D03*
X11717D03*
X11818D03*
X11918D03*
X12018D03*
D02*
D77*
X847Y1143D03*
X1023D03*
X2085Y1141D03*
X2261D03*
X3335Y1143D03*
X3511D03*
X4572Y1141D03*
X4748D03*
X5810D03*
X5986D03*
X7035D03*
X7211D03*
X8272D03*
X8448D03*
X9510D03*
X9686D03*
X10747D03*
X10923D03*
X11985D03*
X12161D03*
D02*
D78*
X797Y1046D03*
X1073Y1046D03*
X2035Y1043D03*
X2311Y1043D03*
X3285Y1046D03*
X3561Y1046D03*
X4522Y1043D03*
X4798Y1043D03*
X5760Y1043D03*
X6036Y1043D03*
X6985Y1043D03*
X7261Y1043D03*
X8222Y1043D03*
X8498Y1043D03*
X9460Y1043D03*
X9736Y1043D03*
X10697Y1043D03*
X10973Y1043D03*
X11935Y1043D03*
X12211Y1043D03*
D02*
D79*
X063Y1028D03*
X113D03*
X163D03*
X300D03*
X350D03*
X400D03*
X550D03*
X600D03*
X650D03*
X1300Y1025D03*
X1350D03*
X1400D03*
X1538D03*
X1587D03*
X1638D03*
X1788D03*
X1837D03*
X1888D03*
X2550Y1028D03*
X2600D03*
X2650D03*
X2788D03*
X2837D03*
X2888D03*
X3038D03*
X3087D03*
X3138D03*
X3788Y1025D03*
X3837D03*
X3888D03*
X4025D03*
X4075D03*
X4125D03*
X4275D03*
X4325D03*
X4375D03*
X5025D03*
X5075D03*
X5125D03*
X5263D03*
X5313D03*
X5362D03*
X5513D03*
X5563D03*
X5612D03*
X6250D03*
X6300D03*
X6350D03*
X6487D03*
X6537D03*
X6588D03*
X6737D03*
X6787D03*
X6838D03*
X7487D03*
X7537D03*
X7588D03*
X7725D03*
X7775D03*
X7825D03*
X7975D03*
X8025D03*
X8075D03*
X8725D03*
X8775D03*
X8825D03*
X8963D03*
X9012D03*
X9063D03*
X9213D03*
X9262D03*
X9313D03*
X9963D03*
X10012D03*
X10063D03*
X10200D03*
X10250D03*
X10300D03*
X10450D03*
X10500D03*
X10550D03*
X11200D03*
X11250D03*
X11300D03*
X11438D03*
X11488D03*
X11538D03*
X11688D03*
X11738D03*
X11788D03*
D02*
D80*
X113Y1028D02*
Y902D01*
X350Y1028D02*
Y915D01*
X600Y1028D02*
Y877D01*
X613*
X800Y1002D02*
Y953D01*
X880Y112D02*
Y190D01*
X887*
X1023Y1109D02*
Y1090D01*
X1000*
X1073Y1001D02*
Y940D01*
X1075*
X1350Y1025D02*
Y915D01*
X1337*
X1587Y1025D02*
Y902D01*
X1837Y1025D02*
Y927D01*
X2035Y999D02*
Y890D01*
X2038*
X2112Y110D02*
Y190D01*
X2261Y1106D02*
Y902D01*
X2275*
X2311Y999D02*
Y927D01*
X2313*
X2600Y1028D02*
Y890D01*
X2837Y1028D02*
Y902D01*
X3087Y1028D02*
Y902D01*
X3285Y1002D02*
Y940D01*
X3288*
X3368Y112D02*
Y215D01*
X3362*
X3511Y1109D02*
Y953D01*
X3500*
X3561Y1001D02*
Y890D01*
X3563*
X3837Y1025D02*
Y915D01*
X4075Y1025D02*
Y902D01*
X4325Y1025D02*
Y902D01*
X4313*
X4522Y999D02*
Y927D01*
X4525*
X4605Y110D02*
Y215D01*
X4612*
X4748Y1106D02*
Y940D01*
X4737*
X4800Y999D02*
Y902D01*
X5075Y1025D02*
Y902D01*
X5313Y1025D02*
Y927D01*
X5563Y1025D02*
Y915D01*
X5760Y999D02*
Y902D01*
X5775*
X5838Y110D02*
Y215D01*
X5986Y1106D02*
Y865D01*
X6000*
X6036Y999D02*
Y902D01*
X6037*
X6300Y1025D02*
Y890D01*
X6537Y1025D02*
Y902D01*
X6787Y1025D02*
Y877D01*
X6775*
X6985Y999D02*
Y890D01*
X6987*
X7067Y110D02*
Y228D01*
X7075*
X7211Y1106D02*
Y953D01*
X7213*
X7261Y999D02*
Y927D01*
X7263*
X7537Y1025D02*
Y902D01*
X7775Y1025D02*
Y927D01*
X8025Y1025D02*
Y915D01*
X8037*
X8222Y999D02*
Y915D01*
X8238*
X8305Y110D02*
Y203D01*
X8300*
X8448Y1106D02*
Y902D01*
X8463*
X8498Y999D02*
Y902D01*
X8500*
X8775Y1025D02*
Y877D01*
X8762*
X9012Y1025D02*
Y915D01*
X9262Y1025D02*
Y890D01*
X9463Y999D02*
Y765D01*
X9543Y110D02*
Y190D01*
X9550*
X9686Y1106D02*
Y828D01*
X9700*
X9736Y999D02*
Y853D01*
X9725*
X10012Y1025D02*
Y915D01*
X10025*
X10250Y1025D02*
Y902D01*
X10500Y1025D02*
Y877D01*
X10700Y999D02*
Y853D01*
X10788Y109D02*
Y190D01*
X10923Y1106D02*
Y890D01*
X10925*
X10975Y999D02*
Y840D01*
X11250Y1025D02*
Y915D01*
X11488Y1025D02*
Y915D01*
X11475*
X11738Y1025D02*
Y902D01*
X11935Y999D02*
Y865D01*
X11925*
X12018Y110D02*
Y215D01*
X12000*
X12161Y1106D02*
Y940D01*
X12163*
X12211Y999D02*
Y927D01*
X12213*
D02*
D81*
X063Y1127D03*
X1300Y1125D03*
X2550Y1127D03*
X3788Y1125D03*
X5025D03*
X6250D03*
X7487D03*
X8725D03*
X9963D03*
X11200D03*
D02*
D82*
X163Y1127D03*
X300D03*
X400D03*
X550D03*
X650D03*
X1400Y1125D03*
X1538D03*
X1638D03*
X1788D03*
X1888D03*
X2650Y1127D03*
X2788D03*
X2888D03*
X3038D03*
X3138D03*
X3888Y1125D03*
X4025D03*
X4125D03*
X4275D03*
X4375D03*
X5125D03*
X5263D03*
X5362D03*
X5513D03*
X5612D03*
X6350D03*
X6487D03*
X6588D03*
X6737D03*
X6838D03*
X7588D03*
X7725D03*
X7825D03*
X7975D03*
X8075D03*
X8825D03*
X8963D03*
X9063D03*
X9213D03*
X9313D03*
X10063D03*
X10200D03*
X10300D03*
X10450D03*
X10550D03*
X11300D03*
X11438D03*
X11538D03*
X11688D03*
X11788D03*
X000Y000D02*
M02*
