M48
T1C00.024
T2C00.030
T3C00.031
T4C00.032
T5C00.039
T6C00.043
T7C00.047
T8C00.051
T9C00.087
T10C00.126
T11C00.157
T12C00.197
T13C00.256
T14C00.472
%
T001
X02468Y02593
X02703Y01268
X02963Y03047
T002
X02013Y01528
X02013Y01628
X03053Y01518
X03053Y01617
T003
X02228Y02041
X02228Y02174
X02558Y01861
X02558Y01994
X02883Y02041
X02883Y02174
T004
X02248Y03458
X02248Y03808
X02668Y00173
X02668Y00523
X03118Y03607
X03118Y03958
X03268Y03607
X03268Y03958
T005
X02130Y02292
X02130Y02655
X02130Y03178
X02232Y02714
X02232Y03237
X02232Y02351
X02334Y02410
X02334Y02773
X02334Y03296
X02790Y02292
X02790Y02655
X02790Y03178
X02828Y03837
X02892Y02714
X02892Y03237
X02892Y02351
X02994Y02410
X02994Y02773
X02994Y03296
T006
X03543Y00452
X03543Y00590
X03543Y00728
X03543Y00865
X03543Y01003
X03543Y01141
T007
X00368Y04697
X00368Y04898
X00368Y05098
X00368Y05697
X00668Y04697
X00668Y04898
X00668Y05098
X00668Y05697
X01043Y04697
X01043Y04898
X01043Y05098
X01043Y05697
X01343Y04697
X01343Y04898
X01343Y05098
X01343Y05697
X01738Y04692
X01738Y04893
X01738Y05093
X01738Y05692
X02038Y04692
X02038Y04893
X02038Y05093
X02038Y05692
X02141Y00190
X02141Y00790
X02141Y00990
X02141Y01190
X02393Y04692
X02393Y04893
X02393Y05093
X02393Y05692
X02441Y00190
X02441Y00790
X02441Y00990
X02441Y01190
X02693Y04692
X02693Y04893
X02693Y05093
X02693Y05692
X03058Y04692
X03058Y04893
X03058Y05093
X03058Y05692
X03358Y04692
X03358Y04893
X03358Y05093
X03358Y05692
T008
X02438Y04348
X02638Y04348
X02838Y04348
X03038Y04348
X03727Y03248
X03727Y03448
X03727Y03648
X03738Y04258
X03738Y05157
T009
X02379Y01578
X02552Y01578
X02737Y01578
T010
X00723Y01203
X00723Y03567
T011
X00423Y02263
X00748Y02083
X01083Y02263
T012
X00208Y01738
X01248Y01732
T013
X00746Y01735
T014
X00418Y02948
X01078Y02942
M30
