%FSLAX23Y23*%
%MOIN*%
%AMT146*0 Bullet Pad at angle 120*21,1,0.11811,0.05906,0,0,120*%
%ADD146T146*%
%AMT147*0 Bullet Pad at angle 300*21,1,0.11811,0.05906,0,0,300*%
%ADD147T147*%
%ADD142O,0.11811X0.07087*%
%ADD22O,0.07874X0.11811*%
%ADD16O,0.07874X0.15748*%
%ADD143O,0.15748X0.07874*%
%ADD148O,0.11811X0.15748*%
%AMT145*0 Finger Pad at angle 120*1,1,0.11811,-0.10229,-0.05906*1,1,0.11811,0.10229,0.05906*21,1,0.11811,0.23622,0,0,120*%
%ADD145T145*%
%ADD88R,0.06000X0.08000*%
%ADD144R,0.08000X0.06000*%
%ADD92C,0.01000*%
%ADD94C,0.02500*%
%ADD149C,0.04800*%
%ADD155C,0.04803*%
%ADD95C,0.06693*%
%ADD141C,0.07500*%
%ADD91C,0.07874*%
%ADD100C,0.11811*%
%ADD26C,0.11811*%
%ADD98C,0.15748*%
%ADD139C,0.19685*%
%ADD140C,0.25591*%
%ADD138C,0.47244*%
X000Y000D02*
D02*
D16*
X2438Y4348D03*
X2638D03*
X2838D03*
X3038D03*
D02*
D22*
X368Y4697D03*
Y4898D03*
Y5098D03*
Y5697D03*
X668Y4697D03*
Y4898D03*
Y5098D03*
Y5697D03*
X1043Y4697D03*
Y4898D03*
Y5098D03*
Y5697D03*
X1343Y4697D03*
Y4898D03*
Y5098D03*
Y5697D03*
X1738Y4692D03*
Y4893D03*
Y5093D03*
Y5692D03*
X2038Y4692D03*
Y4893D03*
Y5093D03*
Y5692D03*
X2141Y190D03*
Y790D03*
Y990D03*
Y1190D03*
X2393Y4692D03*
Y4893D03*
Y5093D03*
Y5692D03*
X2441Y190D03*
Y790D03*
Y990D03*
Y1190D03*
X2693Y4692D03*
Y4893D03*
Y5093D03*
Y5692D03*
X3058Y4692D03*
Y4893D03*
Y5093D03*
Y5692D03*
X3358Y4692D03*
Y4893D03*
Y5093D03*
Y5692D03*
D02*
D26*
X3738Y4258D03*
Y5157D03*
D02*
D88*
X3169Y281D03*
X3291Y282D03*
D02*
D91*
X2228Y2041D03*
Y2174D03*
X2393Y4898D02*
X2693D01*
X2393Y5093D02*
X2693D01*
X2558Y1861D03*
Y1994D03*
X2693Y4692D02*
X2393D01*
X2828Y3837D03*
X2883Y2041D03*
Y2174D03*
X3358Y4893D02*
X3058D01*
X3358Y5093D02*
Y5173D01*
X3213Y5317*
X2948*
X2863Y5232*
Y4968*
X2788Y4893*
X2693*
X3738Y4258D02*
Y3648D01*
Y5157D02*
Y5013D01*
X3618Y4893*
X3358*
D02*
D92*
X2013Y1528D02*
X2018D01*
X2013Y1533*
Y1528*
D02*
D94*
X368Y5697D02*
Y5675D01*
X441Y5603*
X1248*
X1343Y5697*
Y5692*
X1433Y5603*
X1963*
X2048Y5692*
X2038*
X1738D02*
Y5732D01*
X1683Y5787*
X1113*
X1028Y5702*
Y5692*
X1043Y5697*
X2141Y990D02*
X2133D01*
Y993*
X2278Y848*
Y735*
X2346Y667*
X2533*
X2688Y823*
Y1173*
X2398Y1462*
X2379Y1577*
X2393Y5692D02*
X2423D01*
X2513Y5603*
X2953*
X3043Y5692*
X3058*
X2393D02*
X2038D01*
X2441Y190D02*
Y153D01*
X2378Y090*
X2036*
X1898Y228*
Y3967*
X1693Y4173*
X1243*
X1148Y4268*
X248*
X163Y4353*
X158*
Y5497*
X358Y5697*
X368*
X2441Y790D02*
X2403Y858D01*
X2293Y968*
Y1313*
X2078Y1528*
X2013*
X2468Y2592D02*
Y3382D01*
X2393Y3458*
X2248*
X2883Y2174D02*
X2873Y2172D01*
X2703*
X2633Y2243*
Y2393*
X2668Y2428*
Y2752*
X2963Y3047*
X3038Y4348D02*
X3083D01*
X3118Y4313*
Y3958*
X3053Y1518D02*
Y1323D01*
X2998Y1268*
X2703*
X3053Y1617D02*
X3118D01*
X3543Y1192*
X3543Y1141*
X3291Y282D02*
Y282D01*
X3463*
X3543Y362*
Y438*
X3548Y448*
X3543*
X3543Y452*
X3358Y5692D02*
Y5697D01*
X3268Y5787*
X1808*
X1738Y5718*
Y5692*
X3543Y590D02*
X3578Y590D01*
X3641*
X3716Y515*
Y133*
X3616Y033*
X1953*
X1853Y133*
Y3947*
X1693Y4107*
X1193*
X1128Y4173*
X191*
X108Y4255*
Y5725*
X171Y5787*
X568*
X658Y5697*
X668*
X3543Y1141D02*
X3477D01*
X3173Y838*
X3169Y281*
D02*
D95*
X368Y5098D02*
X668D01*
Y4697D02*
Y4695D01*
X683*
X738Y4692*
X783*
X838Y4747*
Y5018*
X903Y5082*
X1043*
Y5098*
X668Y4697D02*
X368D01*
X668Y4898D02*
X368D01*
X1343D02*
X1403D01*
X1528Y5023*
Y5152*
X1678Y5303*
X2063*
X2203Y5162*
Y4582*
X2438Y4348*
X1343Y5098D02*
X1213Y5228D01*
X741*
X666Y5152*
X668Y5098*
X2038Y4692D02*
X2053D01*
Y4518*
X2733Y3837*
X2828*
X2232Y2351D02*
X2278D01*
Y2393*
X2468*
X2563Y2487*
Y3643*
X1723Y4482*
X1568*
X1348Y4702*
X1343Y4697*
X2393Y4893D02*
Y4898D01*
X2693D02*
Y4893D01*
X2892Y3237D02*
X2908D01*
Y3473*
X1738Y4643*
Y4692*
X3358D02*
X3363D01*
X3408Y4648*
Y3438*
X3103Y3132*
Y2982*
X2928Y2808*
X2923Y2703*
Y2752*
X2892Y2714*
X3727Y3248D02*
X3878D01*
Y3112*
X3818Y3053*
X3333*
X3143Y2862*
Y2523*
X3263Y2402*
Y1952*
X3068Y1758*
X2053*
X1993Y1817*
Y4003*
X1698Y4298*
X1241*
X1171Y4367*
X353*
X243Y4478*
Y5270*
X466Y5492*
X3878*
X3738Y3648D02*
X3727Y3648D01*
X3878Y5492D02*
Y5657D01*
X3673Y5862*
X078*
X033Y5817*
Y4008*
X058Y3982*
X1688*
X1703Y3967*
X1718*
X3878Y5492D02*
Y3263D01*
X3868Y3252*
X3713*
D02*
D98*
X423Y2263D03*
X748Y2083D03*
X1083Y2263D03*
D02*
D100*
X723Y1202D03*
Y3567D03*
D02*
D138*
X418Y2947D03*
X1078Y2942D03*
D02*
D139*
X208Y1738D03*
X1248Y1732D03*
D02*
D140*
X746Y1735D03*
D02*
D141*
X2248Y3458D03*
Y3808D03*
X2668Y172D03*
Y522D03*
X3118Y3607D03*
Y3958D03*
X3268Y3607D03*
Y3958D03*
D02*
D142*
X3543Y452D03*
Y590D03*
Y728D03*
Y865D03*
Y1003D03*
Y1141D03*
D02*
D143*
X3727Y3248D03*
Y3448D03*
Y3648D03*
D02*
D144*
X2013Y1528D03*
Y1627D03*
X3053Y1518D03*
Y1617D03*
D02*
D145*
X2232Y2714D03*
Y3237D03*
X2232Y2351D03*
X2892Y2714D03*
Y3237D03*
X2892Y2351D03*
D02*
D146*
X2155Y2307D03*
D02*
D100*
X2130Y2292D03*
D02*
D146*
X2155Y2669D03*
D02*
D100*
X2130Y2655D03*
D02*
D146*
X2155Y3193D03*
D02*
D100*
X2130Y3178D03*
D02*
D146*
X2815Y2307D03*
D02*
D100*
X2790Y2292D03*
D02*
D146*
X2815Y2669D03*
D02*
D100*
X2790Y2655D03*
D02*
D146*
X2815Y3193D03*
D02*
D100*
X2790Y3178D03*
D02*
D147*
X2309Y2396D03*
D02*
D100*
X2334Y2410D03*
D02*
D147*
X2309Y2758D03*
D02*
D100*
X2334Y2773D03*
D02*
D147*
X2309Y3282D03*
D02*
D100*
X2334Y3296D03*
D02*
D147*
X2969Y2396D03*
D02*
D100*
X2994Y2410D03*
D02*
D147*
X2969Y2758D03*
D02*
D100*
X2994Y2773D03*
D02*
D147*
X2969Y3282D03*
D02*
D100*
X2994Y3296D03*
D02*
D148*
X2379Y1577D03*
X2552D03*
X2737D03*
D02*
D149*
X2468Y2592D03*
X2963Y3047D03*
D02*
D155*
X2703Y1268D03*
X000Y000D02*
M02*
