%FSLAX23Y23*%
%MOIN*%
%AMT146*0 Bullet Pad at angle 120*21,1,0.11811,0.05906,0,0,120*%
%ADD146T146*%
%AMT147*0 Bullet Pad at angle 300*21,1,0.11811,0.05906,0,0,300*%
%ADD147T147*%
%ADD142O,0.11811X0.07087*%
%ADD22O,0.07874X0.11811*%
%ADD16O,0.07874X0.15748*%
%ADD143O,0.15748X0.07874*%
%ADD148O,0.11811X0.15748*%
%AMT145*0 Finger Pad at angle 120*1,1,0.11811,-0.10229,-0.05906*1,1,0.11811,0.10229,0.05906*21,1,0.11811,0.23622,0,0,120*%
%ADD145T145*%
%ADD88R,0.06000X0.08000*%
%ADD144R,0.08000X0.06000*%
%ADD149C,0.04800*%
%ADD155C,0.04803*%
%ADD141C,0.07500*%
%ADD91C,0.07874*%
%ADD100C,0.11811*%
%ADD26C,0.11811*%
%ADD98C,0.15748*%
%ADD139C,0.19685*%
%ADD140C,0.25591*%
%ADD138C,0.47244*%
X000Y000D02*
D02*
D16*
X2438Y4348D03*
X2638D03*
X2838D03*
X3038D03*
D02*
D22*
X368Y4697D03*
Y4898D03*
Y5098D03*
Y5697D03*
X668Y4697D03*
Y4898D03*
Y5098D03*
Y5697D03*
X1043Y4697D03*
Y4898D03*
Y5098D03*
Y5697D03*
X1343Y4697D03*
Y4898D03*
Y5098D03*
Y5697D03*
X1738Y4692D03*
Y4893D03*
Y5093D03*
Y5692D03*
X2038Y4692D03*
Y4893D03*
Y5093D03*
Y5692D03*
X2141Y190D03*
Y790D03*
Y990D03*
Y1190D03*
X2393Y4692D03*
Y4893D03*
Y5093D03*
Y5692D03*
X2441Y190D03*
Y790D03*
Y990D03*
Y1190D03*
X2693Y4692D03*
Y4893D03*
Y5093D03*
Y5692D03*
X3058Y4692D03*
Y4893D03*
Y5093D03*
Y5692D03*
X3358Y4692D03*
Y4893D03*
Y5093D03*
Y5692D03*
D02*
D26*
X3738Y4258D03*
Y5157D03*
D02*
D88*
X3169Y281D03*
X3291Y282D03*
D02*
D91*
X2228Y2041D03*
Y2174D03*
X2558Y1861D03*
Y1994D03*
X2828Y3837D03*
X2883Y2041D03*
Y2174D03*
D02*
D98*
X423Y2263D03*
X748Y2083D03*
X1083Y2263D03*
D02*
D100*
X723Y1202D03*
Y3567D03*
D02*
D138*
X418Y2947D03*
X1078Y2942D03*
D02*
D139*
X208Y1738D03*
X1248Y1732D03*
D02*
D140*
X746Y1735D03*
D02*
D141*
X2248Y3458D03*
Y3808D03*
X2668Y172D03*
Y522D03*
X3118Y3607D03*
Y3958D03*
X3268Y3607D03*
Y3958D03*
D02*
D142*
X3543Y452D03*
Y590D03*
Y728D03*
Y865D03*
Y1003D03*
Y1141D03*
D02*
D143*
X3727Y3248D03*
Y3448D03*
Y3648D03*
D02*
D144*
X2013Y1528D03*
Y1627D03*
X3053Y1518D03*
Y1617D03*
D02*
D145*
X2232Y2714D03*
Y3237D03*
X2232Y2351D03*
X2892Y2714D03*
Y3237D03*
X2892Y2351D03*
D02*
D146*
X2155Y2307D03*
D02*
D100*
X2130Y2292D03*
D02*
D146*
X2155Y2669D03*
D02*
D100*
X2130Y2655D03*
D02*
D146*
X2155Y3193D03*
D02*
D100*
X2130Y3178D03*
D02*
D146*
X2815Y2307D03*
D02*
D100*
X2790Y2292D03*
D02*
D146*
X2815Y2669D03*
D02*
D100*
X2790Y2655D03*
D02*
D146*
X2815Y3193D03*
D02*
D100*
X2790Y3178D03*
D02*
D147*
X2309Y2396D03*
D02*
D100*
X2334Y2410D03*
D02*
D147*
X2309Y2758D03*
D02*
D100*
X2334Y2773D03*
D02*
D147*
X2309Y3282D03*
D02*
D100*
X2334Y3296D03*
D02*
D147*
X2969Y2396D03*
D02*
D100*
X2994Y2410D03*
D02*
D147*
X2969Y2758D03*
D02*
D100*
X2994Y2773D03*
D02*
D147*
X2969Y3282D03*
D02*
D100*
X2994Y3296D03*
D02*
D148*
X2379Y1577D03*
X2552D03*
X2737D03*
D02*
D149*
X2468Y2592D03*
X2963Y3047D03*
D02*
D155*
X2703Y1268D03*
X000Y000D02*
M02*
