%FSLAX23Y23*%
%MOIN*%
%AMT135*0 Bullet Pad at angle 45*21,1,0.11811,0.25591,0,0,45*%
%ADD135T135*%
%ADD70O,0.07087X0.11811*%
%ADD147O,0.11811X0.19685*%
%ADD22R,0.08000X0.02000*%
%ADD23R,0.08200X0.02000*%
%ADD146R,0.02362X0.06299*%
%ADD19R,0.08000X0.02500*%
%ADD15R,0.03500X0.03500*%
%ADD11R,0.03500X0.03500*%
%ADD20R,0.04500X0.04000*%
%ADD137R,0.04000X0.04800*%
%ADD145R,0.04800X0.04000*%
%ADD21R,0.04500X0.05118*%
%ADD144R,0.05118X0.04500*%
%ADD14R,0.05512X0.07874*%
%ADD142R,0.07874X0.05512*%
%ADD139R,0.05906X0.09843*%
%ADD12R,0.06000X0.08000*%
%ADD17R,0.08000X0.06000*%
%ADD71R,0.07874X0.15748*%
%ADD13R,0.15748X0.07874*%
%AMT81*0 Rectangle Pad at angle 45*21,1,0.07874,0.68898,0,0,45*%
%ADD81T81*%
%ADD186R,0.10000X0.16929*%
%ADD185R,0.20000X0.10000*%
%ADD133R,0.11811X0.19685*%
%AMT120*0 Rectangle Pad at angle 135*21,1,0.11811,0.31496,0,0,135*%
%ADD120T120*%
%ADD130R,0.11811X0.39370*%
%ADD134R,0.11811X1.23622*%
%AMT129*0 Rectangle Pad at angle 45*21,1,0.13780,0.51181,0,0,45*%
%ADD129T129*%
%ADD119R,0.13780X0.98425*%
%ADD187R,0.20000X0.15000*%
%ADD125R,0.15748X0.19685*%
%ADD128R,0.15748X0.23622*%
%ADD131R,0.23622X0.15748*%
%AMT127*0 Rectangle Pad at angle 45*21,1,0.15748,0.27559,0,0,45*%
%ADD127T127*%
%ADD126R,0.29528X0.15748*%
%ADD136R,0.15748X0.66929*%
%ADD123R,0.15748X0.78740*%
%AMT124*0 Rectangle Pad at angle 45*21,1,0.19685,0.27559,0,0,45*%
%ADD124T124*%
%AMT122*0 Rectangle Pad at angle 45*21,1,0.19685,0.39370,0,0,45*%
%ADD122T122*%
%ADD121R,0.51181X0.19685*%
%ADD149R,0.20000X0.20000*%
%ADD140R,0.07874X0.07874*%
%ADD18R,0.08000X0.08000*%
%ADD138R,0.27559X0.27559*%
%ADD25C,0.04000*%
%ADD24C,0.04724*%
%ADD148C,0.06000*%
%ADD16C,0.09843*%
%ADD141C,0.10630*%
%ADD10C,0.11811*%
%ADD143C,0.15000*%
%ADD117C,0.17500*%
%ADD118C,0.20000*%
X000Y000D02*
D02*
D11*
X211Y1355D03*
X271D03*
X309Y2156D03*
X310Y1559D03*
X310Y2060D03*
X310Y1659D03*
Y1764D03*
Y1859D03*
Y1964D03*
X311Y1461D03*
X369Y2156D03*
X370Y1559D03*
X370Y2060D03*
X370Y1659D03*
Y1764D03*
Y1859D03*
Y1964D03*
X371Y1461D03*
X434Y297D03*
X460Y1546D03*
X494Y297D03*
X520Y1546D03*
X588Y1548D03*
X648D03*
X852Y1408D03*
X912D03*
X1247Y1565D03*
Y1718D03*
X1247Y1765D03*
X1247Y1818D03*
Y1869D03*
X1248Y1669D03*
X1250Y1615D03*
X1290Y1167D03*
X1307Y1565D03*
Y1718D03*
X1307Y1765D03*
X1307Y1818D03*
Y1869D03*
X1308Y1669D03*
X1310Y1615D03*
X1350Y1167D03*
X1501Y445D03*
X1561D03*
X1616Y2267D03*
X1676D03*
X2056Y453D03*
X2116D03*
X2702Y1106D03*
X2762D03*
D02*
D12*
X599Y302D03*
X699Y304D03*
D02*
D13*
X612Y716D03*
D02*
D14*
X518Y471D03*
X612D03*
X707D03*
D02*
D15*
X330Y2716D03*
Y2776D03*
X397Y1178D03*
Y1238D03*
X397Y3052D03*
Y3112D03*
X653Y1390D03*
Y1450D03*
X1734Y1215D03*
Y1275D03*
X1763Y1826D03*
Y1886D03*
X1833Y1826D03*
Y1886D03*
X1838Y1155D03*
Y1215D03*
X1838Y654D03*
Y714D03*
X2354Y1838D03*
Y1898D03*
X2355Y1980D03*
Y2040D03*
X2357Y2163D03*
Y2223D03*
X2513Y1926D03*
Y1986D03*
X2748Y1887D03*
Y1947D03*
X2762Y2215D03*
Y2275D03*
D02*
D16*
X1026Y2402D03*
X1341D03*
X2320Y708D03*
X2620D03*
X3029Y2380D03*
Y2695D03*
D02*
D17*
X2119Y773D03*
X2119Y651D03*
D02*
D18*
X206Y1458D03*
Y1558D03*
Y1658D03*
Y1758D03*
Y1858D03*
Y1958D03*
Y2058D03*
Y2158D03*
X206Y2480D03*
Y2580D03*
Y2680D03*
Y2780D03*
Y2880D03*
Y2980D03*
D02*
D19*
X749Y1468D03*
Y1518D03*
Y1568D03*
Y1618D03*
Y1668D03*
Y1718D03*
Y1768D03*
Y1818D03*
Y1868D03*
Y1918D03*
X1129Y1468D03*
Y1518D03*
Y1568D03*
Y1618D03*
Y1668D03*
Y1718D03*
Y1768D03*
Y1818D03*
Y1868D03*
Y1918D03*
D02*
D70*
X1194Y321D03*
X1332D03*
X1470D03*
X1608D03*
X1746D03*
X1883D03*
X2021D03*
X2159D03*
X2297D03*
X2435D03*
X2572D03*
X2710D03*
D02*
D71*
X1754Y698D03*
X2166Y1112D03*
D02*
D20*
X1439Y1222D03*
Y1297D03*
X1509Y1262D03*
D02*
D21*
X1074Y1215D03*
X1155Y1215D03*
X1222Y668D03*
X1303Y668D03*
D02*
D22*
X1128Y747D03*
Y797D03*
Y847D03*
Y947D03*
Y997D03*
Y1047D03*
X1128Y1098D03*
X1327Y747D03*
Y797D03*
Y847D03*
Y897D03*
Y947D03*
Y997D03*
Y1047D03*
Y1097D03*
D02*
D23*
X1128Y897D03*
D02*
D24*
X312Y1406D03*
X326Y1345D03*
X335Y2848D03*
X387Y2247D03*
X411Y2060D03*
X427Y1659D03*
X516Y1993D03*
X524Y1460D03*
X532Y1850D03*
X548Y1610D03*
X581Y2245D03*
X608Y578D03*
X618Y1818D03*
X813Y1409D03*
X834Y1621D03*
X921Y1606D03*
X963Y2227D03*
X985Y1486D03*
X1223Y2086D03*
X1235Y936D03*
X1245Y1494D03*
X1290Y1213D03*
X1305Y604D03*
X1308Y1934D03*
X1353Y1615D03*
X1359Y1767D03*
X1394Y2131D03*
X1429Y937D03*
X1502Y1344D03*
X1502Y1945D03*
X1551Y1147D03*
X1766Y1014D03*
X1840Y602D03*
X1885Y1909D03*
X1938Y2039D03*
X1950Y1817D03*
X2076Y1786D03*
X2078Y1221D03*
X2083Y2083D03*
X2102Y2229D03*
X2258Y2037D03*
X2354Y1786D03*
X2469Y1621D03*
X2512Y1882D03*
X2522Y2232D03*
X2670Y2049D03*
X2749Y1786D03*
X2770Y2325D03*
D02*
D25*
X400Y3173D03*
X1768Y2267D03*
X2009Y2223D03*
X2825Y2077D03*
X2825Y2195D03*
D02*
D81*
X2462Y3028D03*
D02*
D117*
X253Y793D03*
X3639Y2754D03*
D02*
D118*
X1638Y2551D03*
X2038Y2551D03*
X2459Y2552D03*
D02*
D119*
X3811Y2245D03*
X3812Y2558D03*
D02*
D120*
X3728Y1701D03*
D02*
D121*
X3345Y3229D03*
D02*
D122*
X3674Y3124D03*
D02*
D123*
X3378Y2489D03*
D02*
D124*
X3287Y2915D03*
D02*
D125*
X2856Y3224D03*
D02*
D126*
X3120Y3000D03*
X3340Y1396D03*
X3367Y1962D03*
X3545Y2177D03*
D02*
D127*
X2935Y3082D03*
D02*
D128*
X2250Y3200D03*
X2568Y3210D03*
D02*
D129*
X2731Y2962D03*
D02*
D130*
X2896Y2639D03*
D02*
D131*
X2955Y2368D03*
D02*
D133*
X2677Y2715D03*
D02*
D134*
X3194Y1938D03*
D02*
D135*
X3127Y2601D03*
D02*
D10*
X3036Y2692D03*
D02*
D136*
X3299Y1673D03*
D02*
D137*
X194Y1258D03*
X234Y1171D03*
X274Y1258D03*
D02*
D138*
X525Y2666D03*
X815D03*
D02*
D139*
X434Y2938D03*
X615D03*
X723D03*
X904D03*
D02*
D140*
X1847Y2451D03*
Y2551D03*
Y2651D03*
X2247Y2451D03*
Y2551D03*
Y2651D03*
X2669Y2451D03*
Y2551D03*
Y2651D03*
D02*
D141*
X1184Y2402D03*
X3029Y2538D03*
D02*
D142*
X1509Y603D03*
Y697D03*
Y792D03*
X1921Y1017D03*
Y1112D03*
Y1206D03*
D02*
D143*
X710Y2128D03*
X1710D03*
D02*
D144*
X995Y1106D03*
X995Y1025D03*
X996Y917D03*
X996Y836D03*
X1425Y1091D03*
X1425Y1010D03*
X2078Y1611D03*
X2078Y1530D03*
D02*
D145*
X1916Y720D03*
X2003Y680D03*
Y760D03*
D02*
D146*
X1838Y1980D03*
Y2224D03*
X1940Y1980D03*
Y2224D03*
X2147Y1980D03*
Y2224D03*
X2249Y1980D03*
Y2224D03*
X2568Y1986D03*
Y2230D03*
X2670Y1986D03*
Y2230D03*
D02*
D147*
X749Y3220D03*
X1049D03*
X1349D03*
X1648D03*
X1948D03*
X2248D03*
X2548D03*
X2848D03*
X3148D03*
D02*
D148*
X2231Y1672D03*
X2231Y1469D03*
X2534Y1672D03*
X2535Y1376D03*
D02*
D149*
X3575Y1962D03*
X3575Y1397D03*
D02*
D185*
X3575Y2162D03*
X3575Y1597D03*
D02*
D186*
X2390Y1108D03*
X2594D03*
D02*
D187*
X3571Y917D03*
Y1117D03*
X000Y000D02*
M02*
