%FSLAX23Y23*%
%MOIN*%
%AMT28*0 Bullet Pad at angle 225*21,1,0.11811,0.19685,0,0,225*%
%ADD28T28*%
%ADD70O,0.07087X0.11811*%
%ADD147O,0.11811X0.19685*%
%ADD13R,0.15748X0.07874*%
%ADD185R,0.20000X0.10000*%
%ADD26R,0.11811X0.27559*%
%ADD187R,0.20000X0.15000*%
%ADD27R,0.70866X0.15748*%
%ADD149R,0.20000X0.20000*%
%ADD140R,0.07874X0.07874*%
%ADD18R,0.08000X0.08000*%
%ADD115C,0.00004*%
%ADD116C,0.01181*%
%ADD188C,0.01969*%
%ADD73C,0.03937*%
%ADD25C,0.04000*%
%ADD24C,0.04724*%
%ADD148C,0.06000*%
%ADD74C,0.07874*%
%ADD16C,0.09843*%
%ADD141C,0.10630*%
%ADD10C,0.11811*%
%ADD143C,0.15000*%
%ADD72C,0.15748*%
%ADD117C,0.17500*%
%ADD118C,0.20000*%
%ADD29C,0.23622*%
X000Y000D02*
D02*
D13*
X1796Y2551D03*
X1896D03*
X2177Y2551D03*
D02*
D16*
X1026Y2402D03*
X1341D03*
X2320Y708D03*
X2620D03*
X3029Y2380D03*
Y2695D03*
D02*
D18*
X206Y1458D03*
Y1558D03*
Y1658D03*
Y1758D03*
Y1858D03*
Y1958D03*
Y2058D03*
Y2158D03*
X206Y2480D03*
Y2580D03*
Y2680D03*
Y2780D03*
Y2880D03*
Y2980D03*
D02*
D70*
X1194Y321D03*
X1332D03*
X1470D03*
X1608D03*
X1746D03*
X1883D03*
X2021D03*
X2159D03*
X2297D03*
X2435D03*
X2572D03*
X2710D03*
D02*
D24*
X312Y1406D03*
X326Y1345D03*
X335Y2848D03*
X387Y2247D03*
X411Y2060D03*
X427Y1659D03*
X516Y1993D03*
X524Y1460D03*
X532Y1850D03*
X548Y1610D03*
X581Y2245D03*
X608Y578D03*
X618Y1818D03*
X813Y1409D03*
X834Y1621D03*
X921Y1606D03*
X963Y2227D03*
X985Y1486D03*
X1223Y2086D03*
X1235Y936D03*
X1245Y1494D03*
X1290Y1213D03*
X1305Y604D03*
X1308Y1934D03*
X1353Y1615D03*
X1359Y1767D03*
X1394Y2131D03*
X1429Y937D03*
X1502Y1344D03*
X1502Y1945D03*
X1551Y1147D03*
X1766Y1014D03*
X1840Y602D03*
X1885Y1909D03*
X1938Y2039D03*
X1950Y1817D03*
X2076Y1786D03*
X2078Y1221D03*
X2083Y2083D03*
X2102Y2229D03*
X2258Y2037D03*
X2354Y1786D03*
X2469Y1621D03*
X2512Y1882D03*
X2522Y2232D03*
X2670Y2049D03*
X2749Y1786D03*
X2770Y2325D03*
D02*
D25*
X400Y3173D03*
X1768Y2267D03*
X2009Y2223D03*
X2825Y2077D03*
X2825Y2195D03*
D02*
D26*
X2246Y2754D03*
D02*
D27*
X2565Y2814D03*
D02*
D28*
X2944Y2779D03*
D02*
D10*
X3013Y2710D03*
D02*
D29*
X749Y3220D02*
X1355Y3220D01*
X1354Y3220D02*
X1645D01*
D02*
D72*
X1355Y3220D02*
X1354Y3220D01*
X1645D02*
X1647Y3219D01*
X1049Y3220*
D02*
D73*
X1710Y2128D02*
Y1590D01*
X2078Y1221*
X1766Y1014D02*
Y1313D01*
X1613Y1466*
Y1993*
X1612Y1995*
Y1997*
X1611Y1995*
X1555Y2051*
Y2278*
X1638Y2362*
Y2551*
D02*
D74*
X1847Y2551D02*
X1639D01*
X1847D02*
X2247D01*
X2247Y2651D02*
Y2681D01*
X2355Y2789*
X2935*
X3026Y2704*
X3042*
X3029Y2695*
D02*
D115*
X025Y195D02*
X3876D01*
Y1536*
X3687*
Y1536*
X3463*
Y1542*
X3462Y1545*
X3462Y1548*
Y1549*
X2198*
X2192Y1550*
X2187Y1552*
X2183Y1556*
X1956Y1782*
X1946Y1782*
X1936Y1784*
X1927Y1790*
X1921Y1797*
X1916Y1806*
X1914Y1816*
X1916Y1827*
X1920Y1836*
X1903Y1819*
Y1719*
X2193Y1430*
X2202Y1439*
X2195Y1448*
X2191Y1458*
X2190Y1469*
X2191Y1480*
X2195Y1490*
X2202Y1498*
X2211Y1505*
X2221Y1509*
X2231Y1511*
X2242Y1509*
X2252Y1505*
X2261Y1498*
X2268Y1490*
X2272Y1480*
X2273Y1469*
X2272Y1458*
X2268Y1448*
X2261Y1439*
X2252Y1433*
X2242Y1428*
X2231Y1427*
X2221Y1428*
X2211Y1433*
X2202Y1439*
X2193Y1430*
X2353Y1269*
X2535*
Y1336*
X2524Y1337*
X2515Y1341*
X2506Y1347*
X2500Y1356*
X2496Y1365*
X2495Y1376*
X2496Y1386*
X2500Y1395*
X2506Y1404*
X2515Y1410*
X2524Y1414*
X2535Y1415*
X2545Y1414*
X2555Y1410*
X2563Y1404*
X2569Y1395*
X2573Y1386*
X2575Y1376*
X2573Y1365*
X2569Y1356*
X2563Y1347*
X2555Y1341*
X2545Y1337*
X2535Y1336*
Y1269*
X3687*
Y1286*
X3463*
Y1509*
X3687*
Y1269*
X3716*
X3721Y1268*
X3727Y1266*
X3731Y1263*
X3774Y1220*
X3777Y1216*
X3779Y1210*
X3780Y1205*
Y989*
X3779Y983*
X3777Y978*
X3774Y974*
X3702Y902*
X3697Y899*
X3692Y896*
X3687Y896*
X3683*
Y831*
X3459*
Y1004*
X3683*
Y945*
X3737Y998*
Y1196*
X3707Y1226*
X3459*
Y1204*
X3683*
Y1031*
X3459*
Y1087*
X2332*
X2327Y1088*
X2321Y1090*
X2317Y1094*
X1765Y1646*
X1762Y1650*
X1759Y1655*
X1759Y1661*
X1757Y1916*
X1758Y1922*
X1760Y1927*
X1763Y1932*
X1815Y1983*
Y2165*
X1781Y2199*
X1771Y2189*
X1781Y2177*
X1789Y2163*
X1794Y2149*
X1796Y2133*
X1796Y2118*
X1793Y2102*
X1787Y2088*
X1778Y2075*
X1768Y2063*
X1755Y2054*
X1741Y2047*
Y1603*
X2089Y1255*
X2097Y1251*
X2104Y1246*
X2109Y1239*
X2113Y1230*
X2114Y1221*
X2112Y1211*
X2108Y1202*
X2102Y1195*
X2093Y1189*
X2084Y1186*
X2074Y1186*
X2064Y1189*
X2056Y1194*
X2049Y1202*
X2045Y1211*
X1688Y1568*
X1682Y1574*
X1679Y1582*
X1678Y1590*
Y2047*
X1664Y2054*
X1651Y2064*
X1640Y2075*
X1632Y2089*
X1626Y2104*
X1623Y2120*
X1623Y2136*
X1626Y2152*
X1632Y2166*
X1641Y2180*
X1651Y2192*
X1664Y2202*
X1678Y2209*
X1694Y2213*
X1710Y2214*
X1723Y2213*
X1737Y2210*
X1749Y2205*
X1761Y2198*
X1771Y2189*
X1781Y2199*
X1752Y2228*
X1749Y2232*
X1747Y2237*
X1746Y2243*
Y2244*
X1740Y2250*
X1737Y2258*
X1736Y2267*
X1737Y2277*
X1742Y2286*
X1749Y2293*
X1758Y2297*
X1768Y2299*
X1777Y2297*
X1786Y2293*
X1793Y2286*
X1798Y2277*
X1799Y2267*
X1799Y2260*
X1797Y2254*
X1793Y2248*
X1852Y2189*
X1855Y2185*
X1857Y2180*
X1858Y2174*
Y1974*
X1857Y1969*
X1855Y1963*
X1852Y1959*
X1800Y1907*
X1802Y1670*
X2341Y1131*
X3459*
Y1226*
X2344*
X2339Y1226*
X2334Y1229*
X2329Y1232*
X1866Y1695*
X1863Y1700*
X1861Y1705*
X1860Y1710*
Y1828*
X1861Y1834*
X1863Y1839*
X1866Y1843*
X1903Y1880*
X1894Y1876*
X1884Y1875*
X1874Y1877*
X1865Y1882*
X1858Y1890*
X1853Y1899*
X1852Y1909*
X1853Y1918*
X1857Y1927*
X1863Y1934*
X1871Y1939*
X1881Y1942*
X1890*
X1899Y1939*
X1907Y1934*
X1914Y1927*
X1918Y1918*
X1919Y1909*
X1918Y1900*
X1914Y1891*
X1925Y1902*
X1929Y1905*
X1934Y1908*
X1940Y1908*
X1945*
X1987Y1951*
Y2039*
X1971*
X1970Y2030*
X1966Y2021*
X1960Y2014*
X1952Y2009*
X1943Y2006*
X1933*
X1924Y2009*
X1916Y2014*
X1910Y2021*
X1906Y2030*
X1904Y2039*
X1906Y2049*
X1910Y2057*
X1916Y2064*
X1924Y2070*
X1933Y2072*
X1942*
X1952Y2070*
X1960Y2064*
X1966Y2057*
X1970Y2049*
X1971Y2039*
X1987*
Y2199*
X1982Y2206*
X1978Y2214*
X1977Y2223*
X1979Y2232*
X1983Y2241*
X1990Y2248*
X1998Y2253*
X2008Y2254*
X2018Y2253*
X2026Y2249*
X2034Y2243*
X2039Y2234*
X2041Y2225*
X2067Y2227*
X2068Y2236*
X2071Y2246*
X2077Y2254*
X2084Y2260*
X2093Y2264*
X2103Y2265*
X2113Y2263*
X2122Y2259*
X2129Y2252*
X2273*
X2494Y2254*
X2501Y2260*
X2510Y2265*
X2519Y2267*
X2529Y2267*
X2538Y2264*
X2546Y2258*
X2553Y2251*
X2556Y2242*
X2558Y2232*
X2557Y2222*
X2553Y2213*
X2546Y2206*
X2538Y2200*
X2529Y2197*
X2519Y2197*
X2510Y2199*
X2501Y2203*
X2494Y2210*
X2274Y2209*
X2274*
X2132*
X2125Y2202*
X2117Y2197*
X2107Y2194*
X2098Y2194*
X2088Y2197*
X2080Y2202*
X2073Y2209*
X2069Y2217*
X2067Y2227*
X2041Y2225*
X2041Y2223*
X2040Y2214*
X2036Y2206*
X2031Y2199*
Y2083*
X2048*
X2049Y2092*
X2053Y2101*
X2060Y2109*
X2068Y2115*
X2077Y2118*
X2087Y2118*
X2096Y2116*
X2101Y2116*
X2428*
X2433Y2116*
X2438Y2113*
X2443Y2110*
X2527Y2026*
X2530Y2022*
X2532Y2016*
X2533Y2011*
Y1911*
X2539Y1905*
X2544Y1898*
X2547Y1891*
X2548Y1882*
X2546Y1872*
X2542Y1863*
X2535Y1856*
X2527Y1850*
X2517Y1847*
X2507*
X2497Y1850*
X2489Y1856*
X2482Y1863*
X2478Y1872*
X2477Y1882*
X2478Y1893*
X2483Y1902*
X2490Y1910*
Y2002*
X2419Y2073*
X2258*
Y2071*
X2266Y2069*
X2275Y2066*
X2281Y2061*
X2287Y2054*
X2290Y2046*
X2291Y2037*
X2290Y2028*
X2286Y2019*
X2280Y2012*
X2272Y2007*
X2263Y2004*
X2253*
X2244Y2007*
X2236Y2012*
X2230Y2019*
X2226Y2028*
X2224Y2037*
X2225Y2046*
X2229Y2054*
X2234Y2061*
X2241Y2066*
X2249Y2069*
X2258Y2071*
Y2073*
X2117*
X2113Y2064*
X2107Y2056*
X2098Y2051*
X2089Y2048*
X2078Y2048*
X2069Y2051*
X2060Y2056*
X2054Y2064*
X2049Y2073*
X2048Y2083*
X2031*
Y1942*
X2030Y1937*
X2028Y1931*
X2024Y1927*
X1969Y1871*
X1964Y1868*
X1959Y1866*
X1953Y1865*
X1949*
X1931Y1847*
X1940Y1851*
X1949Y1852*
X1958Y1851*
X1967Y1848*
X1975Y1842*
X1980Y1835*
X1984Y1826*
X1985Y1817*
X1985Y1814*
X2207Y1593*
X2448*
X2442Y1599*
X2437Y1607*
X2434Y1616*
X2434Y1626*
X2409Y1651*
X2267*
X2260Y1642*
X2252Y1636*
X2242Y1632*
X2231Y1630*
X2220Y1632*
X2210Y1636*
X2202Y1643*
X2195Y1651*
X2191Y1662*
X2189Y1672*
X2191Y1683*
X2195Y1693*
X2202Y1702*
X2210Y1709*
X2220Y1713*
X2231Y1714*
X2242Y1713*
X2252Y1709*
X2260Y1702*
X2267Y1694*
X2418*
X2424Y1693*
X2429Y1691*
X2434Y1688*
X2465Y1657*
X2474Y1657*
X2483Y1654*
X2491Y1650*
X2497Y1643*
X2501Y1646*
X2496Y1655*
X2493Y1665*
X2493Y1675*
X2495Y1685*
X2499Y1695*
X2506Y1703*
X2514Y1709*
X2524Y1712*
X2534Y1714*
X2545Y1712*
X2555Y1708*
X2564Y1701*
X2571Y1693*
X2575Y1683*
X2576Y1672*
X2575Y1661*
X2571Y1651*
X2564Y1642*
X2555Y1635*
X2545Y1631*
X2534Y1630*
X2525Y1631*
X2516Y1634*
X2508Y1639*
X2501Y1646*
X2497Y1643*
X2502Y1635*
X2504Y1626*
X2504Y1616*
X2502Y1607*
X2497Y1599*
X2490Y1593*
X3462*
Y1772*
X3463Y1776*
X3465Y1780*
X3466Y1780*
X3469Y1783*
X3474Y1784*
X3679*
X3706Y1811*
Y2275*
X3706Y2276*
Y2299*
X3685*
X3701Y2282*
X3704Y2278*
X3705Y2274*
Y2085*
X3704Y2081*
X3701Y2077*
X3700Y2076*
X3697Y2073*
X3692Y2073*
X3687*
Y1850*
X3463*
Y2073*
X3290*
X3286Y2073*
X3282Y2076*
X3281Y2077*
X3279Y2080*
X3278Y2084*
X3104*
X2790Y1770*
X2784Y1766*
X2777Y1764*
X2770Y1757*
X2762Y1753*
X2753Y1750*
X2744Y1750*
X2735Y1753*
X2727Y1757*
X2721Y1764*
X2382*
X2375Y1757*
X2367Y1753*
X2358Y1750*
X2349*
X2340Y1753*
X2332Y1757*
X2326Y1764*
X2104*
X2097Y1757*
X2088Y1752*
X2079Y1750*
X2069Y1751*
X2060Y1754*
X2052Y1759*
X2046Y1767*
X2042Y1776*
X2040Y1786*
X2042Y1795*
X2046Y1804*
X2052Y1812*
X2060Y1817*
X2069Y1820*
X2079Y1821*
X2088Y1819*
X2097Y1814*
X2104Y1807*
X2326*
X2332Y1814*
X2340Y1818*
X2349Y1821*
X2358*
X2367Y1818*
X2375Y1814*
X2382Y1807*
X2721*
X2727Y1814*
X2736Y1819*
X2745Y1821*
X2754Y1821*
X2764Y1818*
X2772Y1813*
X3080Y2121*
X3084Y2124*
X3090Y2127*
X3095Y2127*
X3277*
Y2741*
X3145Y2873*
X3086*
X3103Y2857*
X3105Y2853*
X3106Y2848*
Y2735*
X3107Y2629*
X3106Y2624*
X3103Y2620*
X3091Y2608*
X3087Y2606*
X3083Y2605*
X3029*
Y2603*
X3043Y2601*
X3056Y2597*
X3068Y2590*
X3078Y2581*
X3086Y2570*
X3091Y2558*
X3094Y2545*
Y2531*
X3091Y2518*
X3086Y2505*
X3078Y2494*
X3068Y2485*
X3056Y2479*
X3043Y2474*
X3029Y2473*
Y2441*
X3043Y2440*
X3056Y2435*
X3067Y2428*
X3077Y2418*
X3084Y2407*
X3089Y2394*
X3090Y2380*
X3089Y2367*
X3084Y2354*
X3077Y2342*
X3067Y2333*
X3056Y2325*
X3043Y2321*
X3029Y2319*
X3016Y2321*
X3003Y2325*
X2991Y2333*
X2982Y2342*
X2974Y2354*
X2970Y2367*
X2968Y2380*
X2970Y2394*
X2974Y2407*
X2982Y2418*
X2991Y2428*
X3003Y2435*
X3016Y2440*
X3029Y2441*
Y2473*
X3016Y2474*
X3003Y2479*
X2991Y2485*
X2981Y2494*
X2973Y2505*
X2968Y2518*
X2965Y2531*
Y2545*
X2968Y2558*
X2973Y2570*
X2981Y2581*
X2991Y2590*
X3003Y2597*
X3016Y2601*
X3029Y2603*
Y2605*
X2856*
X2852Y2606*
X2848Y2608*
X2748Y2708*
X2618*
Y2702*
X2720*
Y2677*
X2726Y2673*
X2785Y2614*
X2789Y2609*
X2791Y2604*
X2791Y2598*
Y2353*
X2799Y2346*
X2803Y2336*
X2805Y2326*
X2804Y2316*
X2800Y2306*
X2793Y2298*
X2784Y2293*
X2813Y2224*
X2822Y2226*
X2832Y2226*
X2841Y2222*
X2849Y2216*
X2854Y2208*
X2857Y2198*
X2856Y2188*
X2853Y2179*
X2847Y2171*
Y2100*
X2852Y2093*
X2856Y2085*
X2857Y2077*
X2855Y2068*
X2851Y2059*
X2845Y2052*
X2837Y2047*
X2828Y2045*
X2818Y2046*
X2810Y2049*
X2802Y2055*
X2797Y2062*
X2794Y2071*
X2703Y2055*
X2704Y2049*
X2702Y2039*
X2698Y2031*
X2692Y2024*
X2684Y2018*
X2675Y2016*
X2665*
X2656Y2018*
X2648Y2024*
X2642Y2031*
X2638Y2039*
X2637Y2049*
X2638Y2059*
X2642Y2068*
X2649Y2075*
X2657Y2080*
X2667Y2082*
X2677Y2082*
X2686Y2078*
X2694Y2072*
X2700Y2064*
X2703Y2055*
X2794Y2071*
X2793Y2079*
X2795Y2087*
X2798Y2094*
X2803Y2100*
Y2171*
X2798Y2179*
X2794Y2187*
X2793Y2196*
X2795Y2205*
X2799Y2213*
X2805Y2219*
X2813Y2224*
X2784Y2293*
X2774Y2290*
X2764Y2290*
X2754Y2294*
X2746Y2299*
X2739Y2307*
X2735Y2317*
X2734Y2327*
X2736Y2337*
X2741Y2346*
X2748Y2353*
Y2589*
X2720Y2617*
Y2400*
X2618*
Y2708*
X2426*
X2365Y2646*
X2380Y2631*
X2393Y2643*
X2408Y2652*
X2424Y2658*
X2441Y2663*
X2459Y2664*
X2476Y2663*
X2493Y2658*
X2509Y2652*
X2524Y2643*
X2538Y2631*
X2549Y2618*
X2558Y2603*
X2565Y2587*
X2569Y2570*
X2570Y2552*
X2569Y2534*
X2564Y2516*
X2557Y2499*
X2547Y2483*
X2534Y2470*
X2520Y2458*
X2504Y2450*
X2486Y2444*
X2468Y2441*
X2449*
X2431Y2444*
X2414Y2450*
X2397Y2458*
X2383Y2470*
X2370Y2483*
X2360Y2499*
X2353Y2516*
X2348Y2534*
X2347Y2552*
X2348Y2570*
X2352Y2587*
X2359Y2603*
X2368Y2618*
X2380Y2631*
X2365Y2646*
X2323Y2604*
X2319Y2602*
X2315Y2601*
X2298*
Y2400*
X2196*
Y2500*
X2138*
X2128Y2485*
X2117Y2472*
X2104Y2460*
X2089Y2451*
X2073Y2445*
X2056Y2440*
X2038Y2439*
X2021Y2440*
X2004Y2444*
X1988Y2451*
X1973Y2460*
X1960Y2471*
X1948Y2484*
X1939Y2499*
X1898*
Y2400*
X1796*
Y2499*
X1737*
X1728Y2484*
X1716Y2470*
X1702Y2459*
X1686Y2450*
X1669Y2443*
Y2362*
X1668Y2353*
X1665Y2346*
X1660Y2339*
X1586Y2265*
Y2064*
X1625Y2026*
X1633Y2021*
X1639Y2014*
X1642Y2005*
X1644Y1999*
X1644Y1993*
Y1479*
X1788Y1335*
X1793Y1329*
X1797Y1321*
X1798Y1313*
Y1030*
X1801Y1022*
X1802Y1014*
X1800Y1004*
X1796Y995*
X1789Y987*
X1781Y982*
X1771Y979*
X1761*
X1751Y982*
X1743Y987*
X1736Y995*
X1732Y1004*
X1731Y1014*
X1732Y1022*
X1735Y1030*
Y1300*
X1591Y1444*
X1586Y1450*
X1582Y1458*
X1581Y1466*
Y1945*
X1538*
X1537Y1937*
X1534Y1929*
X1529Y1922*
X1523Y1916*
Y1372*
X1530Y1365*
X1535Y1356*
X1537Y1347*
X1536Y1337*
X1533Y1328*
X1527Y1320*
X1519Y1314*
X1510Y1310*
X1543Y1180*
X1553Y1181*
X1563Y1179*
X1572Y1174*
X1579Y1166*
X1583Y1157*
X1585Y1147*
X1583Y1138*
X1579Y1129*
X1573Y1122*
X1565Y1117*
X1556Y1114*
X1546*
X1537Y1117*
X1529Y1122*
X1523Y1129*
X1519Y1138*
X1518Y1147*
X1519Y1156*
X1522Y1164*
X1528Y1171*
X1535Y1177*
X1543Y1180*
X1510Y1310*
X1501Y1309*
X1491Y1310*
X1482Y1314*
X1475Y1321*
X1470Y1329*
X1467Y1338*
X1466Y1348*
X1468Y1357*
X1473Y1365*
X1480Y1372*
Y1918*
X1473Y1925*
X1468Y1935*
X1467Y1945*
X1468Y1955*
X1472Y1964*
X1479Y1972*
X1488Y1977*
X1497Y1980*
X1507*
X1517Y1977*
X1526Y1972*
X1532Y1964*
X1536Y1955*
X1538Y1945*
X1581*
Y1980*
X1532Y2029*
X1527Y2036*
X1524Y2043*
X1523Y2051*
Y2278*
X1524Y2287*
X1527Y2294*
X1532Y2301*
X1606Y2375*
Y2443*
X1589Y2450*
X1574Y2459*
X1560Y2470*
X1548Y2483*
X1539Y2499*
X1532Y2515*
X1527Y2533*
X1526Y2551*
X1527Y2569*
X1532Y2587*
X1540Y2604*
X1550Y2619*
X1562Y2633*
X1577Y2644*
X1593Y2653*
X1611Y2659*
X1629Y2662*
X1648Y2662*
X1666Y2659*
X1684Y2652*
X1700Y2643*
X1714Y2632*
X1727Y2618*
X1737Y2602*
X1749*
X1746Y2605*
X1660Y2691*
X1601*
X1490Y2580*
Y2532*
X1489Y2528*
X1487Y2524*
X1479Y2517*
X1475Y2514*
X1471Y2513*
X1221*
X1195Y2487*
X1191Y2484*
X1187Y2484*
X1185*
X1166Y2465*
X1180Y2467*
X1194Y2466*
X1208Y2462*
X1220Y2456*
X1231Y2447*
X1240Y2435*
X1245Y2423*
X1248Y2409*
X1248Y2395*
X1245Y2381*
X1239Y2368*
X1231Y2357*
X1220Y2348*
X1207Y2341*
X1246*
X1284Y2380*
X1281Y2391*
X1280Y2402*
X1282Y2416*
X1286Y2429*
X1294Y2440*
X1303Y2450*
X1315Y2457*
X1328Y2462*
X1341Y2463*
X1355Y2462*
X1368Y2457*
X1379Y2450*
X1389Y2440*
X1396Y2429*
X1401Y2416*
X1402Y2402*
X1401Y2390*
X1397Y2378*
X1391Y2367*
X1383Y2358*
X1373Y2350*
X1362Y2345*
X1350Y2342*
X1337Y2341*
X1325Y2343*
X1313Y2348*
X1270Y2304*
X1266Y2301*
X1260Y2299*
X1255Y2298*
X805*
Y2270*
X942*
X948Y2269*
X953Y2267*
X957Y2263*
X959Y2262*
X969Y2262*
X978Y2259*
X987Y2253*
X993Y2246*
X997Y2237*
X999Y2227*
X997Y2217*
X993Y2208*
X987Y2200*
X978Y2195*
X969Y2192*
X959Y2192*
X949Y2195*
X940Y2200*
X934Y2207*
X929Y2217*
X928Y2226*
X710*
Y2214*
X726Y2213*
X741Y2209*
X755Y2201*
X768Y2192*
X779Y2180*
X788Y2166*
X793Y2151*
X796Y2136*
Y2120*
X793Y2104*
X788Y2089*
X779Y2075*
X768Y2063*
X755Y2054*
X741Y2047*
X726Y2042*
X710Y2041*
X694Y2042*
X678Y2047*
X664Y2054*
X651Y2063*
X640Y2075*
X632Y2089*
X626Y2104*
X623Y2120*
Y2136*
X626Y2151*
X632Y2166*
X640Y2180*
X651Y2192*
X664Y2201*
X678Y2209*
X694Y2213*
X710Y2214*
Y2226*
X611*
X605Y2219*
X596Y2213*
X587Y2210*
X576Y2210*
X567Y2213*
X558Y2218*
X551Y2226*
X547Y2235*
X546Y2245*
X538*
Y2025*
X538Y2021*
X544Y2016*
X548Y2009*
X551Y2001*
X552Y1993*
X550Y1983*
X546Y1974*
X540Y1966*
X531Y1961*
X521Y1958*
X511Y1958*
X501Y1961*
X493Y1967*
X486Y1975*
X482Y1984*
Y1963*
X507Y1938*
X642*
X647Y1937*
X653Y1935*
X657Y1932*
X709Y1880*
X712Y1876*
X714Y1870*
X715Y1865*
Y1756*
X714Y1750*
X712Y1745*
X709Y1740*
X583Y1615*
X583Y1610*
X582Y1600*
X578Y1591*
X571Y1584*
X563Y1578*
X553Y1575*
X543*
X533Y1578*
X525Y1584*
X518Y1591*
X514Y1600*
X513Y1610*
X514Y1620*
X518Y1629*
X525Y1637*
X533Y1642*
X542Y1645*
X552Y1646*
X672Y1765*
Y1818*
X654*
X652Y1809*
X649Y1800*
X643Y1793*
X636Y1787*
X627Y1784*
X618Y1783*
X479Y1643*
X474Y1640*
X469Y1638*
X463Y1637*
X455*
X448Y1630*
X440Y1626*
X430Y1623*
X420Y1624*
X411Y1627*
X403Y1633*
X397Y1640*
X393Y1649*
X392Y1659*
X393Y1668*
X397Y1677*
X403Y1685*
X411Y1690*
X420Y1694*
X430Y1694*
X439Y1692*
X448Y1688*
X455Y1681*
X584Y1810*
X583Y1818*
X584Y1828*
X588Y1837*
X595Y1845*
X603Y1850*
X613Y1853*
X623*
X633Y1850*
X641Y1845*
X648Y1837*
X652Y1828*
X654Y1818*
X672*
Y1856*
X633Y1895*
X532*
Y1885*
X541Y1884*
X550Y1880*
X557Y1875*
X563Y1867*
X566Y1859*
X568Y1850*
X566Y1840*
X563Y1832*
X557Y1824*
X549Y1819*
X540Y1815*
X531Y1814*
X522Y1816*
X513Y1820*
X506Y1826*
X458*
X442Y1810*
X439Y1806*
X334Y1702*
Y1433*
X341Y1426*
X346Y1417*
X347Y1406*
X346Y1396*
X341Y1387*
X335Y1379*
X341Y1376*
X348Y1373*
X353Y1368*
X420Y1369*
X493Y1442*
X490Y1450*
X489Y1460*
X490Y1470*
X494Y1479*
X501Y1486*
X509Y1492*
X519Y1495*
X529*
X539Y1492*
X547Y1486*
X554Y1479*
X558Y1470*
X559Y1460*
X558Y1450*
X555Y1442*
X549Y1434*
X542Y1429*
X539Y1426*
X445Y1332*
X440Y1328*
X435Y1326*
X430Y1325*
X355Y1324*
X349Y1318*
X342Y1313*
X334Y1310*
X326Y1309*
Y1306*
X542*
X570Y1335*
X575Y1338*
X580Y1340*
X585Y1341*
X813*
Y1376*
X804Y1377*
X796Y1380*
X789Y1385*
X784Y1392*
X781Y1400*
X779Y1409*
X781Y1419*
X785Y1427*
X791Y1434*
X799Y1440*
X808Y1442*
X818*
X827Y1440*
X835Y1434*
X841Y1427*
X845Y1419*
X846Y1409*
X845Y1400*
X842Y1392*
X837Y1385*
X830Y1380*
X822Y1377*
X813Y1376*
Y1341*
X862*
X960Y1439*
Y1461*
X955Y1468*
X951Y1477*
X950Y1486*
X951Y1496*
X956Y1506*
X963Y1513*
X972Y1519*
X982Y1521*
X992Y1521*
X1002Y1517*
X1010Y1511*
X1016Y1503*
Y1563*
X995Y1584*
X949*
X941Y1577*
X932Y1572*
X922Y1571*
X911Y1572*
X902Y1576*
X894Y1583*
X888Y1592*
X886Y1602*
X886Y1612*
X869Y1615*
X866Y1605*
X860Y1597*
X851Y1590*
X842Y1587*
X831Y1586*
X821Y1588*
X812Y1594*
X805Y1602*
X800Y1611*
X799Y1621*
X800Y1629*
X802Y1637*
X807Y1644*
X813Y1649*
Y1929*
X813Y1935*
X815Y1940*
X819Y1945*
X1088Y2213*
X1092Y2217*
X1097Y2219*
X1103Y2220*
X1327*
X1332Y2219*
X1338Y2217*
X1342Y2213*
X1390Y2166*
X1400Y2166*
X1409Y2163*
X1417Y2157*
X1424Y2150*
X1428Y2141*
X1429Y2131*
X1428Y2121*
X1424Y2112*
X1417Y2104*
X1409Y2099*
X1399Y2096*
X1389*
X1379Y2099*
X1371Y2104*
X1364Y2112*
X1360Y2121*
X1359Y2131*
X1359Y2135*
X1318Y2176*
X1223*
Y2122*
X1232Y2120*
X1241Y2117*
X1249Y2110*
X1254Y2102*
X1258Y2093*
X1258Y2083*
X1256Y2074*
X1251Y2065*
X1244Y2058*
Y1555*
X1244Y1549*
Y1530*
X1253Y1529*
X1262Y1525*
X1270Y1520*
X1276Y1512*
X1279Y1504*
X1281Y1494*
X1285Y1494*
X1283Y1860*
X1284Y1865*
X1286Y1871*
Y1906*
X1280Y1912*
X1276Y1919*
X1273Y1926*
X1272Y1934*
X1274Y1944*
X1278Y1954*
X1285Y1961*
X1293Y1967*
X1303Y1969*
X1313*
X1323Y1967*
X1331Y1961*
X1338Y1954*
X1342Y1944*
X1343Y1934*
X1342Y1926*
X1340Y1919*
X1335Y1912*
X1329Y1906*
Y1863*
X1329Y1857*
X1327Y1852*
X1327Y1779*
X1331Y1787*
X1338Y1794*
X1346Y1798*
X1355Y1801*
X1364Y1800*
X1373Y1798*
X1381Y1792*
X1387Y1785*
X1391Y1777*
X1392Y1767*
X1391Y1758*
X1387Y1750*
X1381Y1743*
X1373Y1737*
X1364Y1734*
X1355Y1734*
X1346Y1736*
X1338Y1741*
X1332Y1748*
X1327Y1756*
X1328Y1637*
X1335Y1644*
X1345Y1648*
X1355Y1649*
X1365Y1647*
X1374Y1642*
X1381Y1635*
X1385Y1626*
X1387Y1615*
X1385Y1605*
X1381Y1596*
X1374Y1589*
X1365Y1584*
X1355Y1582*
X1345Y1583*
X1335Y1587*
X1328Y1594*
X1329Y1348*
Y1348*
Y1324*
X1328Y1318*
X1326Y1313*
X1322Y1308*
X1257Y1243*
X1257Y1219*
X1261Y1229*
X1267Y1237*
X1274Y1242*
X1284Y1246*
X1294Y1246*
X1303Y1244*
X1311Y1239*
X1318Y1231*
X1322Y1222*
X1324Y1213*
X1322Y1203*
X1318Y1194*
X1311Y1187*
X1303Y1182*
X1293Y1179*
X1284Y1180*
X1274Y1183*
X1266Y1189*
X1261Y1197*
X1257Y1206*
X1257Y1054*
Y1038*
X1257Y1038*
X1257Y1034*
Y964*
X1263Y959*
X1267Y952*
X1270Y944*
X1271Y936*
X1396Y937*
X1397Y947*
X1401Y955*
X1407Y962*
X1415Y968*
X1424Y970*
X1434*
X1443Y968*
X1451Y962*
X1457Y955*
X1461Y947*
X1463Y937*
X1461Y928*
X1457Y919*
X1451Y912*
X1443Y907*
X1434Y904*
X1424*
X1415Y907*
X1407Y912*
X1401Y919*
X1397Y928*
X1396Y937*
X1271Y936*
Y936*
X1269Y926*
X1265Y917*
X1259Y910*
X1250Y904*
X1240Y901*
X1230*
X1221Y904*
X1212Y910*
X1206Y917*
X1201Y926*
X1200Y936*
X1201Y944*
X1204Y952*
X1208Y959*
X1214Y964*
Y1032*
X1214Y1033*
X1213Y1036*
Y1054*
Y1054*
X1214Y1253*
X1215Y1258*
X1217Y1263*
X1220Y1268*
X1285Y1333*
Y1348*
X1285Y1494*
X1281Y1494*
Y1494*
X1279Y1484*
X1275Y1475*
X1268Y1467*
X1260Y1462*
X1250Y1459*
X1240*
X1230Y1462*
X1222Y1467*
X1215Y1475*
X1211Y1484*
X1210Y1494*
X1210Y1500*
X1207Y1504*
X1203Y1508*
X1201Y1513*
X1200Y1519*
Y1554*
X1201Y1560*
Y2058*
X1194Y2065*
X1190Y2074*
X1187Y2083*
X1188Y2093*
X1191Y2102*
X1197Y2110*
X1204Y2117*
X1213Y2120*
X1223Y2122*
Y2176*
X1112*
X856Y1920*
Y1649*
X863Y1643*
X867Y1634*
X869Y1625*
X869Y1615*
X886Y1612*
X889Y1622*
X895Y1630*
X903Y1637*
X912Y1640*
X922Y1641*
X932Y1639*
X942Y1635*
X949Y1628*
X1004*
X1009Y1627*
X1015Y1625*
X1019Y1621*
X1053Y1587*
X1057Y1583*
X1059Y1577*
X1060Y1572*
Y636*
X1123Y573*
X1292*
X1284Y578*
X1277Y585*
X1273Y594*
X1271Y604*
X1273Y613*
X1276Y622*
X1283Y629*
X1291Y634*
X1300Y637*
X1309*
X1319Y634*
X1327Y629*
X1333Y622*
X1337Y613*
X1338Y604*
X1337Y594*
X1332Y585*
X1326Y578*
X1317Y573*
X1824*
X1817Y578*
X1811Y585*
X1808Y594*
X1807Y602*
X1808Y612*
X1812Y621*
X1818Y628*
X1826Y633*
X1835Y636*
X1845*
X1854Y633*
X1862Y628*
X1868Y621*
X1872Y612*
X1874Y602*
X1872Y594*
X1869Y585*
X1863Y578*
X1856Y573*
X2011*
X2017Y572*
X2022Y570*
X2027Y567*
X2103Y490*
X2277Y665*
X2270Y674*
X2264Y685*
X2260Y696*
X2259Y708*
X2261Y722*
X2265Y734*
X2273Y746*
X2282Y756*
X2294Y763*
X2307Y768*
X2320Y769*
X2334Y768*
X2347Y763*
X2358Y756*
X2368Y746*
X2375Y734*
X2380Y722*
X2381Y708*
X2559*
X2561Y722*
X2565Y734*
X2573Y746*
X2582Y756*
X2594Y763*
X2607Y768*
X2620Y769*
X2634Y768*
X2647Y763*
X2658Y756*
X2668Y746*
X2675Y734*
X2680Y722*
X2681Y708*
X2680Y694*
X2675Y682*
X2668Y670*
X2658Y660*
X2647Y653*
X2634Y648*
X2620Y647*
X2607Y648*
X2594Y653*
X2582Y660*
X2573Y670*
X2565Y682*
X2561Y694*
X2559Y708*
X2381*
X2380Y695*
X2376Y683*
X2369Y671*
X2360Y662*
X2350Y654*
X2338Y649*
X2325Y647*
X2312Y648*
X2299Y651*
X2287Y657*
X2277Y665*
X2103Y490*
X2175Y418*
X2179Y414*
X2181Y408*
X2181Y403*
Y387*
X2190Y381*
X2197Y373*
X2202Y365*
X2205Y355*
X2206Y345*
X2251*
X2253Y357*
X2258Y368*
X2265Y377*
X2274Y384*
X2285Y389*
X2297Y390*
X2309Y389*
X2319Y384*
X2329Y377*
X2336Y368*
X2341Y357*
X2342Y345*
X2387*
X2389Y356*
X2393Y367*
X2399Y376*
X2408Y384*
X2418Y389*
X2429Y392*
X2440*
X2451Y389*
X2461Y384*
X2470Y376*
X2476Y367*
X2480Y356*
X2482Y345*
X2527*
X2529Y357*
X2533Y368*
X2540Y377*
X2550Y384*
X2561Y389*
X2572Y390*
X2584Y389*
X2595Y384*
X2604Y377*
X2612Y368*
X2616Y357*
X2618Y345*
X2663*
X2664Y356*
X2668Y367*
X2675Y376*
X2683Y384*
X2693Y389*
X2704Y392*
X2716*
X2727Y389*
X2737Y384*
X2746Y376*
X2752Y367*
X2756Y356*
X2757Y345*
Y298*
X2756Y286*
X2752Y276*
X2746Y266*
X2737Y259*
X2727Y254*
X2716Y251*
X2704*
X2693Y254*
X2683Y259*
X2675Y266*
X2668Y276*
X2664Y286*
X2663Y298*
Y345*
X2618*
Y298*
X2616Y286*
X2612Y275*
X2604Y266*
X2595Y259*
X2584Y254*
X2572Y252*
X2561Y254*
X2550Y259*
X2540Y266*
X2533Y275*
X2529Y286*
X2527Y298*
Y345*
X2482*
Y298*
X2480Y286*
X2476Y276*
X2470Y266*
X2461Y259*
X2451Y254*
X2440Y251*
X2429*
X2418Y254*
X2408Y259*
X2399Y266*
X2393Y276*
X2389Y286*
X2387Y298*
Y345*
X2342*
Y298*
X2341Y286*
X2336Y275*
X2329Y266*
X2319Y259*
X2309Y254*
X2297Y252*
X2285Y254*
X2274Y259*
X2265Y266*
X2258Y275*
X2253Y286*
X2251Y298*
Y345*
X2206*
Y298*
X2205Y286*
X2201Y276*
X2194Y266*
X2186Y259*
X2176Y254*
X2165Y251*
X2153*
X2142Y254*
X2132Y259*
X2124Y266*
X2117Y276*
X2113Y286*
X2112Y298*
X2066*
X2065Y286*
X2060Y275*
X2053Y266*
X2044Y259*
X2033Y254*
X2021Y252*
X2009Y254*
X1999Y259*
X1989Y266*
X1982Y275*
X1977Y286*
X1976Y298*
Y345*
X1977Y357*
X1982Y368*
X1989Y377*
X1999Y384*
X2009Y389*
X2021Y390*
X2033Y389*
X2044Y384*
X2053Y377*
X2060Y368*
X2065Y357*
X2066Y345*
Y298*
X2112*
Y345*
X2113Y355*
X2116Y365*
X2122Y374*
X2129Y382*
X2138Y387*
Y394*
X2002Y530*
X1114*
X1109Y530*
X1103Y533*
X1099Y536*
X1023Y612*
X1019Y616*
X1017Y622*
X1016Y627*
Y1469*
X1011Y1461*
X1004Y1455*
Y1430*
X1003Y1425*
X1001Y1420*
X997Y1415*
X886Y1304*
X882Y1301*
X876Y1298*
X871Y1298*
X594*
X566Y1269*
X562Y1266*
X556Y1264*
X551Y1263*
X111*
Y793*
X156*
X157Y810*
X162Y826*
X169Y841*
X179Y855*
X191Y867*
X205Y877*
X220Y884*
X236Y889*
X253Y890*
X270Y889*
X287Y884*
X302Y877*
X316Y867*
X328Y855*
X338Y841*
X345Y826*
X349Y810*
X351Y793*
X349Y776*
X345Y759*
X338Y744*
X328Y730*
X316Y718*
X302Y708*
X287Y701*
X270Y697*
X253Y695*
X236Y697*
X220Y701*
X205Y708*
X191Y718*
X179Y730*
X169Y744*
X162Y759*
X157Y776*
X156Y793*
X111*
Y628*
X274Y465*
X608*
Y545*
X600Y546*
X591Y549*
X585Y554*
X579Y561*
X576Y569*
X575Y578*
X576Y587*
X580Y596*
X586Y603*
X594Y609*
X603Y611*
X613*
X622Y609*
X630Y603*
X636Y596*
X640Y587*
X642Y578*
X641Y569*
X637Y561*
X632Y554*
X625Y549*
X617Y546*
X608Y545*
Y465*
X1851*
X1856Y464*
X1862Y462*
X1866Y458*
X1899Y426*
X1902Y421*
X1904Y416*
X1905Y410*
Y387*
X1914Y381*
X1921Y374*
X1926Y365*
X1930Y355*
X1931Y345*
Y298*
X1929Y286*
X1925Y276*
X1919Y266*
X1910Y259*
X1900Y254*
X1889Y251*
X1878*
X1867Y254*
X1857Y259*
X1848Y266*
X1842Y276*
X1838Y286*
X1836Y298*
Y345*
X1837Y355*
X1841Y365*
X1846Y374*
X1853Y381*
X1862Y387*
Y401*
X1842Y421*
X1746*
Y390*
X1757Y389*
X1768Y384*
X1778Y377*
X1785Y368*
X1789Y357*
X1791Y345*
Y298*
X1789Y286*
X1785Y275*
X1778Y266*
X1768Y259*
X1757Y254*
X1746Y252*
X1734Y254*
X1723Y259*
X1714Y266*
X1706Y275*
X1702Y286*
X1700Y298*
Y345*
X1702Y357*
X1706Y368*
X1714Y377*
X1723Y384*
X1734Y389*
X1746Y390*
Y421*
X1608*
Y392*
X1618Y391*
X1628Y388*
X1637Y382*
X1645Y374*
X1650Y365*
X1654Y356*
X1655Y345*
Y298*
X1654Y286*
X1650Y276*
X1643Y266*
X1635Y259*
X1625Y254*
X1614Y251*
X1602*
X1591Y254*
X1581Y259*
X1572Y266*
X1566Y276*
X1562Y286*
X1561Y298*
Y345*
X1562Y356*
X1565Y365*
X1571Y374*
X1578Y382*
X1587Y388*
X1597Y391*
X1608Y392*
Y421*
X1470*
Y390*
X1482Y389*
X1493Y384*
X1502Y377*
X1509Y368*
X1514Y357*
X1515Y345*
Y298*
X1514Y286*
X1509Y275*
X1502Y266*
X1493Y259*
X1482Y254*
X1470Y252*
X1458Y254*
X1447Y259*
X1438Y266*
X1431Y275*
X1426Y286*
X1425Y298*
Y345*
X1426Y357*
X1431Y368*
X1438Y377*
X1447Y384*
X1458Y389*
X1470Y390*
Y421*
X1332*
Y392*
X1343Y391*
X1353Y388*
X1362Y382*
X1369Y374*
X1375Y365*
X1378Y356*
X1379Y345*
Y298*
X1378Y286*
X1374Y276*
X1368Y266*
X1359Y259*
X1349Y254*
X1338Y251*
X1327*
X1315Y254*
X1305Y259*
X1297Y266*
X1290Y276*
X1286Y286*
X1285Y298*
Y345*
X1286Y356*
X1290Y365*
X1295Y374*
X1303Y382*
X1312Y388*
X1322Y391*
X1332Y392*
Y421*
X1194*
Y390*
X1206Y389*
X1217Y384*
X1226Y377*
X1234Y368*
X1238Y357*
X1240Y345*
Y298*
X1238Y286*
X1234Y275*
X1226Y266*
X1217Y259*
X1206Y254*
X1194Y252*
X1183Y254*
X1172Y259*
X1162Y266*
X1155Y275*
X1151Y286*
X1149Y298*
Y345*
X1151Y357*
X1155Y368*
X1162Y377*
X1172Y384*
X1183Y389*
X1194Y390*
Y421*
X265*
X260Y422*
X254Y424*
X250Y428*
X074Y604*
X070Y609*
X068Y614*
X067Y619*
Y1494*
X068Y1499*
X070Y1505*
X074Y1509*
X141Y1576*
X147Y1580*
X154Y1582*
Y2210*
X258*
Y1506*
X256*
Y1408*
X156*
Y1506*
X154*
Y1529*
X111Y1485*
Y1306*
X326*
Y1309*
X316Y1310*
X308Y1314*
X300Y1320*
X295Y1328*
X291Y1337*
X291Y1347*
X292Y1356*
X297Y1365*
X303Y1372*
X294Y1375*
X286Y1382*
X280Y1390*
X277Y1399*
X276Y1409*
X279Y1419*
X284Y1428*
X291Y1435*
Y1711*
X292Y1716*
X294Y1722*
X297Y1726*
X405Y1834*
X408Y1838*
X433Y1863*
X438Y1867*
X443Y1869*
X449Y1869*
X503*
X508Y1876*
X516Y1881*
X524Y1884*
X532Y1885*
Y1895*
X498*
X492Y1895*
X487Y1897*
X483Y1901*
X445Y1938*
X442Y1943*
X440Y1948*
X439Y1954*
Y2038*
X432Y2031*
X423Y2027*
X414Y2025*
X404Y2025*
X395Y2028*
X387Y2034*
X381Y2041*
X377Y2050*
X376Y2060*
X376Y2068*
X379Y2076*
X384Y2082*
X389Y2088*
Y2212*
X380Y2212*
X371Y2216*
X363Y2221*
X357Y2229*
X353Y2237*
X351Y2247*
X353Y2257*
X357Y2266*
X364Y2274*
X372Y2279*
X382Y2282*
X392*
X402Y2279*
X410Y2274*
X417Y2266*
X421Y2257*
X422Y2247*
X422Y2242*
X426Y2238*
X430Y2234*
X432Y2229*
X433Y2223*
Y2088*
X439Y2082*
Y2285*
X363Y2361*
X156*
X151Y2362*
X145Y2364*
X141Y2367*
X100Y2408*
X097Y2412*
X095Y2418*
X094Y2423*
Y2830*
X095Y2835*
X097Y2840*
X100Y2845*
X151Y2896*
X155Y2899*
Y3032*
X258*
Y2729*
X256*
Y2632*
X258*
Y2429*
X155*
Y2632*
X157*
Y2729*
X155*
Y2838*
X137Y2821*
Y2432*
X165Y2404*
X372*
X378Y2404*
X383Y2402*
X387Y2398*
X476Y2310*
X479Y2305*
X482Y2300*
X482Y2294*
Y2003*
X485Y2010*
X489Y2016*
X494Y2021*
Y2708*
X376Y2826*
X363*
X356Y2819*
X348Y2815*
X338Y2812*
X328Y2813*
X319Y2816*
X311Y2822*
X305Y2829*
X301Y2838*
X300Y2848*
X301Y2857*
X305Y2866*
X311Y2874*
X319Y2879*
X328Y2883*
X338Y2883*
X347Y2881*
X356Y2876*
X363Y2869*
X385*
X391Y2869*
X396Y2867*
X400Y2863*
X531Y2732*
X535Y2727*
X537Y2722*
X538Y2717*
Y2245*
X546*
X547Y2255*
X552Y2265*
X559Y2272*
X567Y2278*
X578Y2280*
X588Y2280*
X598Y2276*
X606Y2270*
X608Y2270*
X805*
Y2298*
X800Y2299*
X795Y2301*
X790Y2304*
X629Y2465*
X626Y2470*
X623Y2475*
X623Y2481*
Y2816*
X385Y3054*
X381Y3058*
X379Y3063*
X378Y3069*
Y3149*
X373Y3156*
X369Y3164*
X368Y3173*
X370Y3182*
X374Y3191*
X381Y3198*
X390Y3203*
X400Y3204*
X410Y3203*
X419Y3198*
X426Y3191*
X430Y3182*
X432Y3173*
X431Y3164*
X427Y3156*
X422Y3149*
Y3078*
X660Y2840*
X663Y2835*
X665Y2830*
X666Y2825*
Y2490*
X814Y2341*
X1019*
X1010Y2343*
X1002Y2346*
X878*
X873Y2347*
X870Y2350*
X679Y2540*
X677Y2544*
X676Y2548*
Y3021*
X677Y3025*
X679Y3029*
X698Y3048*
X702Y3050*
X707Y3051*
X1913*
X1917Y3050*
X1921Y3048*
X1924Y3045*
X1926Y3042*
X1927Y3037*
Y2613*
X1926Y2609*
X1924Y2605*
X1921Y2602*
X1939*
X1948Y2617*
X1960Y2630*
X1973Y2642*
X1988Y2651*
X2004Y2657*
X2021Y2661*
X2038Y2663*
X2055Y2661*
X2072Y2657*
X2089Y2651*
X2103Y2642*
X2117Y2630*
X2128Y2617*
X2137Y2602*
X2152*
X2150Y2604*
X2105Y2649*
X2102Y2653*
X2101Y2658*
Y2997*
X2101Y2999*
Y3098*
X2102Y3102*
X2105Y3106*
X2105Y3107*
X2109Y3109*
X2113Y3110*
X2145Y3110*
X2145*
X2242*
X2229Y3112*
X2217Y3117*
X2206Y3124*
X2196Y3133*
X2188Y3143*
X2182Y3155*
X2179Y3168*
X2177Y3181*
Y3259*
X2179Y3274*
X2184Y3288*
X2191Y3301*
X2201Y3312*
X2213Y3321*
X2226Y3327*
X2241Y3330*
X2256*
X2270Y3327*
X2284Y3321*
X2296Y3312*
X2306Y3301*
X2313Y3288*
X2318Y3274*
X2319Y3259*
Y3181*
X2318Y3168*
X2314Y3155*
X2309Y3143*
X2301Y3133*
X2291Y3124*
X2280Y3117*
X2268Y3112*
X2255Y3110*
X2542*
X2529Y3112*
X2517Y3117*
X2505Y3124*
X2496Y3133*
X2488Y3143*
X2482Y3155*
X2478Y3168*
X2477Y3181*
Y3259*
X2479Y3274*
X2483Y3288*
X2491Y3301*
X2501Y3312*
X2513Y3321*
X2526Y3327*
X2541Y3330*
X2555*
X2570Y3327*
X2583Y3321*
X2595Y3312*
X2605Y3301*
X2613Y3288*
X2617Y3274*
X2619Y3259*
Y3181*
X2618Y3168*
X2614Y3155*
X2608Y3143*
X2600Y3133*
X2591Y3124*
X2579Y3117*
X2567Y3112*
X2554Y3110*
X2732*
X2729Y3112*
X2727Y3116*
X2726Y3121*
Y3124*
X2726Y3376*
X1948*
Y3330*
X1962Y3329*
X1975Y3325*
X1988Y3318*
X1998Y3309*
X2007Y3299*
X2014Y3286*
X2018Y3273*
X2019Y3259*
Y3181*
X2018Y3166*
X2013Y3152*
X2006Y3139*
X1996Y3128*
X1984Y3119*
X1970Y3113*
X1956Y3110*
X1941*
X1926Y3113*
X1913Y3119*
X1901Y3128*
X1891Y3139*
X1884Y3152*
X1879Y3166*
X1877Y3181*
Y3259*
X1879Y3273*
X1883Y3286*
X1889Y3299*
X1898Y3309*
X1909Y3318*
X1921Y3325*
X1935Y3329*
X1948Y3330*
Y3376*
X1648*
Y3328*
X1662Y3327*
X1675Y3323*
X1687Y3317*
X1697Y3308*
X1706Y3298*
X1712Y3286*
X1716Y3273*
X1717Y3259*
Y3181*
X1716Y3166*
X1711Y3153*
X1704Y3140*
X1694Y3129*
X1683Y3121*
X1670Y3115*
X1656Y3112*
X1641*
X1627Y3115*
X1614Y3121*
X1602Y3129*
X1593Y3140*
X1585Y3153*
X1581Y3166*
X1579Y3181*
Y3259*
X1581Y3273*
X1585Y3286*
X1591Y3298*
X1600Y3308*
X1610Y3317*
X1622Y3323*
X1635Y3327*
X1648Y3328*
Y3376*
X1349*
Y3328*
X1362Y3327*
X1375Y3323*
X1387Y3317*
X1397Y3308*
X1406Y3298*
X1412Y3286*
X1416Y3273*
X1418Y3259*
Y3181*
X1416Y3166*
X1412Y3153*
X1405Y3140*
X1395Y3129*
X1383Y3121*
X1370Y3115*
X1356Y3112*
X1342*
X1327Y3115*
X1314Y3121*
X1303Y3129*
X1293Y3140*
X1286Y3153*
X1281Y3166*
X1280Y3181*
Y3259*
X1281Y3273*
X1285Y3286*
X1291Y3298*
X1300Y3308*
X1310Y3317*
X1322Y3323*
X1335Y3327*
X1349Y3328*
Y3376*
X1049*
Y3328*
X1062Y3327*
X1075Y3323*
X1087Y3317*
X1097Y3308*
X1106Y3298*
X1112Y3286*
X1116Y3273*
X1118Y3259*
Y3181*
X1116Y3166*
X1112Y3153*
X1105Y3140*
X1095Y3129*
X1083Y3121*
X1070Y3115*
X1056Y3112*
X1042*
X1027Y3115*
X1014Y3121*
X1003Y3129*
X993Y3140*
X986Y3153*
X981Y3166*
X980Y3181*
Y3259*
X981Y3273*
X985Y3286*
X991Y3298*
X1000Y3308*
X1010Y3317*
X1022Y3323*
X1035Y3327*
X1049Y3328*
Y3376*
X749*
Y3328*
X762Y3327*
X775Y3323*
X787Y3317*
X797Y3308*
X806Y3298*
X812Y3286*
X816Y3273*
X818Y3259*
Y3181*
X816Y3166*
X812Y3153*
X805Y3140*
X795Y3129*
X783Y3121*
X770Y3115*
X756Y3112*
X742*
X727Y3115*
X714Y3121*
X703Y3129*
X693Y3140*
X686Y3153*
X681Y3166*
X680Y3181*
Y3259*
X681Y3273*
X685Y3286*
X691Y3298*
X700Y3308*
X710Y3317*
X722Y3323*
X735Y3327*
X749Y3328*
Y3376*
X025*
Y195*
G36*
X3876*
Y1536*
X3687*
Y1536*
X3463*
Y1542*
X3462Y1545*
X3462Y1548*
Y1549*
X2198*
X2192Y1550*
X2187Y1552*
X2183Y1556*
X1956Y1782*
X1946Y1782*
X1936Y1784*
X1927Y1790*
X1921Y1797*
X1916Y1806*
X1914Y1816*
X1916Y1827*
X1920Y1836*
X1903Y1819*
Y1719*
X2193Y1430*
X2202Y1439*
X2195Y1448*
X2191Y1458*
X2190Y1469*
X2191Y1480*
X2195Y1490*
X2202Y1498*
X2211Y1505*
X2221Y1509*
X2231Y1511*
X2242Y1509*
X2252Y1505*
X2261Y1498*
X2268Y1490*
X2272Y1480*
X2273Y1469*
X2272Y1458*
X2268Y1448*
X2261Y1439*
X2252Y1433*
X2242Y1428*
X2231Y1427*
X2221Y1428*
X2211Y1433*
X2202Y1439*
X2193Y1430*
X2353Y1269*
X2535*
Y1336*
X2524Y1337*
X2515Y1341*
X2506Y1347*
X2500Y1356*
X2496Y1365*
X2495Y1376*
X2496Y1386*
X2500Y1395*
X2506Y1404*
X2515Y1410*
X2524Y1414*
X2535Y1415*
X2545Y1414*
X2555Y1410*
X2563Y1404*
X2569Y1395*
X2573Y1386*
X2575Y1376*
X2573Y1365*
X2569Y1356*
X2563Y1347*
X2555Y1341*
X2545Y1337*
X2535Y1336*
Y1269*
X3687*
Y1286*
X3463*
Y1509*
X3687*
Y1269*
X3716*
X3721Y1268*
X3727Y1266*
X3731Y1263*
X3774Y1220*
X3777Y1216*
X3779Y1210*
X3780Y1205*
Y989*
X3779Y983*
X3777Y978*
X3774Y974*
X3702Y902*
X3697Y899*
X3692Y896*
X3687Y896*
X3683*
Y831*
X3459*
Y1004*
X3683*
Y945*
X3737Y998*
Y1196*
X3707Y1226*
X3459*
Y1204*
X3683*
Y1031*
X3459*
Y1087*
X2332*
X2327Y1088*
X2321Y1090*
X2317Y1094*
X1765Y1646*
X1762Y1650*
X1759Y1655*
X1759Y1661*
X1757Y1916*
X1758Y1922*
X1760Y1927*
X1763Y1932*
X1815Y1983*
Y2165*
X1781Y2199*
X1771Y2189*
X1781Y2177*
X1789Y2163*
X1794Y2149*
X1796Y2133*
X1796Y2118*
X1793Y2102*
X1787Y2088*
X1778Y2075*
X1768Y2063*
X1755Y2054*
X1741Y2047*
Y1603*
X2089Y1255*
X2097Y1251*
X2104Y1246*
X2109Y1239*
X2113Y1230*
X2114Y1221*
X2112Y1211*
X2108Y1202*
X2102Y1195*
X2093Y1189*
X2084Y1186*
X2074Y1186*
X2064Y1189*
X2056Y1194*
X2049Y1202*
X2045Y1211*
X1688Y1568*
X1682Y1574*
X1679Y1582*
X1678Y1590*
Y2047*
X1664Y2054*
X1651Y2064*
X1640Y2075*
X1632Y2089*
X1626Y2104*
X1623Y2120*
X1623Y2136*
X1626Y2152*
X1632Y2166*
X1641Y2180*
X1651Y2192*
X1664Y2202*
X1678Y2209*
X1694Y2213*
X1710Y2214*
X1723Y2213*
X1737Y2210*
X1749Y2205*
X1761Y2198*
X1771Y2189*
X1781Y2199*
X1752Y2228*
X1749Y2232*
X1747Y2237*
X1746Y2243*
Y2244*
X1740Y2250*
X1737Y2258*
X1736Y2267*
X1737Y2277*
X1742Y2286*
X1749Y2293*
X1758Y2297*
X1768Y2299*
X1777Y2297*
X1786Y2293*
X1793Y2286*
X1798Y2277*
X1799Y2267*
X1799Y2260*
X1797Y2254*
X1793Y2248*
X1852Y2189*
X1855Y2185*
X1857Y2180*
X1858Y2174*
Y1974*
X1857Y1969*
X1855Y1963*
X1852Y1959*
X1800Y1907*
X1802Y1670*
X2341Y1131*
X3459*
Y1226*
X2344*
X2339Y1226*
X2334Y1229*
X2329Y1232*
X1866Y1695*
X1863Y1700*
X1861Y1705*
X1860Y1710*
Y1828*
X1861Y1834*
X1863Y1839*
X1866Y1843*
X1903Y1880*
X1894Y1876*
X1884Y1875*
X1874Y1877*
X1865Y1882*
X1858Y1890*
X1853Y1899*
X1852Y1909*
X1853Y1918*
X1857Y1927*
X1863Y1934*
X1871Y1939*
X1881Y1942*
X1890*
X1899Y1939*
X1907Y1934*
X1914Y1927*
X1918Y1918*
X1919Y1909*
X1918Y1900*
X1914Y1891*
X1925Y1902*
X1929Y1905*
X1934Y1908*
X1940Y1908*
X1945*
X1987Y1951*
Y2039*
X1971*
X1970Y2030*
X1966Y2021*
X1960Y2014*
X1952Y2009*
X1943Y2006*
X1933*
X1924Y2009*
X1916Y2014*
X1910Y2021*
X1906Y2030*
X1904Y2039*
X1906Y2049*
X1910Y2057*
X1916Y2064*
X1924Y2070*
X1933Y2072*
X1942*
X1952Y2070*
X1960Y2064*
X1966Y2057*
X1970Y2049*
X1971Y2039*
X1987*
Y2199*
X1982Y2206*
X1978Y2214*
X1977Y2223*
X1979Y2232*
X1983Y2241*
X1990Y2248*
X1998Y2253*
X2008Y2254*
X2018Y2253*
X2026Y2249*
X2034Y2243*
X2039Y2234*
X2041Y2225*
X2067Y2227*
X2068Y2236*
X2071Y2246*
X2077Y2254*
X2084Y2260*
X2093Y2264*
X2103Y2265*
X2113Y2263*
X2122Y2259*
X2129Y2252*
X2273*
X2494Y2254*
X2501Y2260*
X2510Y2265*
X2519Y2267*
X2529Y2267*
X2538Y2264*
X2546Y2258*
X2553Y2251*
X2556Y2242*
X2558Y2232*
X2557Y2222*
X2553Y2213*
X2546Y2206*
X2538Y2200*
X2529Y2197*
X2519Y2197*
X2510Y2199*
X2501Y2203*
X2494Y2210*
X2274Y2209*
X2274*
X2132*
X2125Y2202*
X2117Y2197*
X2107Y2194*
X2098Y2194*
X2088Y2197*
X2080Y2202*
X2073Y2209*
X2069Y2217*
X2067Y2227*
X2041Y2225*
X2041Y2223*
X2040Y2214*
X2036Y2206*
X2031Y2199*
Y2083*
X2048*
X2049Y2092*
X2053Y2101*
X2060Y2109*
X2068Y2115*
X2077Y2118*
X2087Y2118*
X2096Y2116*
X2101Y2116*
X2428*
X2433Y2116*
X2438Y2113*
X2443Y2110*
X2527Y2026*
X2530Y2022*
X2532Y2016*
X2533Y2011*
Y1911*
X2539Y1905*
X2544Y1898*
X2547Y1891*
X2548Y1882*
X2546Y1872*
X2542Y1863*
X2535Y1856*
X2527Y1850*
X2517Y1847*
X2507*
X2497Y1850*
X2489Y1856*
X2482Y1863*
X2478Y1872*
X2477Y1882*
X2478Y1893*
X2483Y1902*
X2490Y1910*
Y2002*
X2419Y2073*
X2258*
Y2071*
X2266Y2069*
X2275Y2066*
X2281Y2061*
X2287Y2054*
X2290Y2046*
X2291Y2037*
X2290Y2028*
X2286Y2019*
X2280Y2012*
X2272Y2007*
X2263Y2004*
X2253*
X2244Y2007*
X2236Y2012*
X2230Y2019*
X2226Y2028*
X2224Y2037*
X2225Y2046*
X2229Y2054*
X2234Y2061*
X2241Y2066*
X2249Y2069*
X2258Y2071*
Y2073*
X2117*
X2113Y2064*
X2107Y2056*
X2098Y2051*
X2089Y2048*
X2078Y2048*
X2069Y2051*
X2060Y2056*
X2054Y2064*
X2049Y2073*
X2048Y2083*
X2031*
Y1942*
X2030Y1937*
X2028Y1931*
X2024Y1927*
X1969Y1871*
X1964Y1868*
X1959Y1866*
X1953Y1865*
X1949*
X1931Y1847*
X1940Y1851*
X1949Y1852*
X1958Y1851*
X1967Y1848*
X1975Y1842*
X1980Y1835*
X1984Y1826*
X1985Y1817*
X1985Y1814*
X2207Y1593*
X2448*
X2442Y1599*
X2437Y1607*
X2434Y1616*
X2434Y1626*
X2409Y1651*
X2267*
X2260Y1642*
X2252Y1636*
X2242Y1632*
X2231Y1630*
X2220Y1632*
X2210Y1636*
X2202Y1643*
X2195Y1651*
X2191Y1662*
X2189Y1672*
X2191Y1683*
X2195Y1693*
X2202Y1702*
X2210Y1709*
X2220Y1713*
X2231Y1714*
X2242Y1713*
X2252Y1709*
X2260Y1702*
X2267Y1694*
X2418*
X2424Y1693*
X2429Y1691*
X2434Y1688*
X2465Y1657*
X2474Y1657*
X2483Y1654*
X2491Y1650*
X2497Y1643*
X2501Y1646*
X2496Y1655*
X2493Y1665*
X2493Y1675*
X2495Y1685*
X2499Y1695*
X2506Y1703*
X2514Y1709*
X2524Y1712*
X2534Y1714*
X2545Y1712*
X2555Y1708*
X2564Y1701*
X2571Y1693*
X2575Y1683*
X2576Y1672*
X2575Y1661*
X2571Y1651*
X2564Y1642*
X2555Y1635*
X2545Y1631*
X2534Y1630*
X2525Y1631*
X2516Y1634*
X2508Y1639*
X2501Y1646*
X2497Y1643*
X2502Y1635*
X2504Y1626*
X2504Y1616*
X2502Y1607*
X2497Y1599*
X2490Y1593*
X3462*
Y1772*
X3463Y1776*
X3465Y1780*
X3466Y1780*
X3469Y1783*
X3474Y1784*
X3679*
X3706Y1811*
Y2275*
X3706Y2276*
Y2299*
X3685*
X3701Y2282*
X3704Y2278*
X3705Y2274*
Y2085*
X3704Y2081*
X3701Y2077*
X3700Y2076*
X3697Y2073*
X3692Y2073*
X3687*
Y1850*
X3463*
Y2073*
X3290*
X3286Y2073*
X3282Y2076*
X3281Y2077*
X3279Y2080*
X3278Y2084*
X3104*
X2790Y1770*
X2784Y1766*
X2777Y1764*
X2770Y1757*
X2762Y1753*
X2753Y1750*
X2744Y1750*
X2735Y1753*
X2727Y1757*
X2721Y1764*
X2382*
X2375Y1757*
X2367Y1753*
X2358Y1750*
X2349*
X2340Y1753*
X2332Y1757*
X2326Y1764*
X2104*
X2097Y1757*
X2088Y1752*
X2079Y1750*
X2069Y1751*
X2060Y1754*
X2052Y1759*
X2046Y1767*
X2042Y1776*
X2040Y1786*
X2042Y1795*
X2046Y1804*
X2052Y1812*
X2060Y1817*
X2069Y1820*
X2079Y1821*
X2088Y1819*
X2097Y1814*
X2104Y1807*
X2326*
X2332Y1814*
X2340Y1818*
X2349Y1821*
X2358*
X2367Y1818*
X2375Y1814*
X2382Y1807*
X2721*
X2727Y1814*
X2736Y1819*
X2745Y1821*
X2754Y1821*
X2764Y1818*
X2772Y1813*
X3080Y2121*
X3084Y2124*
X3090Y2127*
X3095Y2127*
X3277*
Y2741*
X3145Y2873*
X3086*
X3103Y2857*
X3105Y2853*
X3106Y2848*
Y2735*
X3107Y2629*
X3106Y2624*
X3103Y2620*
X3091Y2608*
X3087Y2606*
X3083Y2605*
X3029*
Y2603*
X3043Y2601*
X3056Y2597*
X3068Y2590*
X3078Y2581*
X3086Y2570*
X3091Y2558*
X3094Y2545*
Y2531*
X3091Y2518*
X3086Y2505*
X3078Y2494*
X3068Y2485*
X3056Y2479*
X3043Y2474*
X3029Y2473*
Y2441*
X3043Y2440*
X3056Y2435*
X3067Y2428*
X3077Y2418*
X3084Y2407*
X3089Y2394*
X3090Y2380*
X3089Y2367*
X3084Y2354*
X3077Y2342*
X3067Y2333*
X3056Y2325*
X3043Y2321*
X3029Y2319*
X3016Y2321*
X3003Y2325*
X2991Y2333*
X2982Y2342*
X2974Y2354*
X2970Y2367*
X2968Y2380*
X2970Y2394*
X2974Y2407*
X2982Y2418*
X2991Y2428*
X3003Y2435*
X3016Y2440*
X3029Y2441*
Y2473*
X3016Y2474*
X3003Y2479*
X2991Y2485*
X2981Y2494*
X2973Y2505*
X2968Y2518*
X2965Y2531*
Y2545*
X2968Y2558*
X2973Y2570*
X2981Y2581*
X2991Y2590*
X3003Y2597*
X3016Y2601*
X3029Y2603*
Y2605*
X2856*
X2852Y2606*
X2848Y2608*
X2748Y2708*
X2618*
Y2702*
X2720*
Y2677*
X2726Y2673*
X2785Y2614*
X2789Y2609*
X2791Y2604*
X2791Y2598*
Y2353*
X2799Y2346*
X2803Y2336*
X2805Y2326*
X2804Y2316*
X2800Y2306*
X2793Y2298*
X2784Y2293*
X2813Y2224*
X2822Y2226*
X2832Y2226*
X2841Y2222*
X2849Y2216*
X2854Y2208*
X2857Y2198*
X2856Y2188*
X2853Y2179*
X2847Y2171*
Y2100*
X2852Y2093*
X2856Y2085*
X2857Y2077*
X2855Y2068*
X2851Y2059*
X2845Y2052*
X2837Y2047*
X2828Y2045*
X2818Y2046*
X2810Y2049*
X2802Y2055*
X2797Y2062*
X2794Y2071*
X2703Y2055*
X2704Y2049*
X2702Y2039*
X2698Y2031*
X2692Y2024*
X2684Y2018*
X2675Y2016*
X2665*
X2656Y2018*
X2648Y2024*
X2642Y2031*
X2638Y2039*
X2637Y2049*
X2638Y2059*
X2642Y2068*
X2649Y2075*
X2657Y2080*
X2667Y2082*
X2677Y2082*
X2686Y2078*
X2694Y2072*
X2700Y2064*
X2703Y2055*
X2794Y2071*
X2793Y2079*
X2795Y2087*
X2798Y2094*
X2803Y2100*
Y2171*
X2798Y2179*
X2794Y2187*
X2793Y2196*
X2795Y2205*
X2799Y2213*
X2805Y2219*
X2813Y2224*
X2784Y2293*
X2774Y2290*
X2764Y2290*
X2754Y2294*
X2746Y2299*
X2739Y2307*
X2735Y2317*
X2734Y2327*
X2736Y2337*
X2741Y2346*
X2748Y2353*
Y2589*
X2720Y2617*
Y2400*
X2618*
Y2708*
X2426*
X2365Y2646*
X2380Y2631*
X2393Y2643*
X2408Y2652*
X2424Y2658*
X2441Y2663*
X2459Y2664*
X2476Y2663*
X2493Y2658*
X2509Y2652*
X2524Y2643*
X2538Y2631*
X2549Y2618*
X2558Y2603*
X2565Y2587*
X2569Y2570*
X2570Y2552*
X2569Y2534*
X2564Y2516*
X2557Y2499*
X2547Y2483*
X2534Y2470*
X2520Y2458*
X2504Y2450*
X2486Y2444*
X2468Y2441*
X2449*
X2431Y2444*
X2414Y2450*
X2397Y2458*
X2383Y2470*
X2370Y2483*
X2360Y2499*
X2353Y2516*
X2348Y2534*
X2347Y2552*
X2348Y2570*
X2352Y2587*
X2359Y2603*
X2368Y2618*
X2380Y2631*
X2365Y2646*
X2323Y2604*
X2319Y2602*
X2315Y2601*
X2298*
Y2400*
X2196*
Y2500*
X2138*
X2128Y2485*
X2117Y2472*
X2104Y2460*
X2089Y2451*
X2073Y2445*
X2056Y2440*
X2038Y2439*
X2021Y2440*
X2004Y2444*
X1988Y2451*
X1973Y2460*
X1960Y2471*
X1948Y2484*
X1939Y2499*
X1898*
Y2400*
X1796*
Y2499*
X1737*
X1728Y2484*
X1716Y2470*
X1702Y2459*
X1686Y2450*
X1669Y2443*
Y2362*
X1668Y2353*
X1665Y2346*
X1660Y2339*
X1586Y2265*
Y2064*
X1625Y2026*
X1633Y2021*
X1639Y2014*
X1642Y2005*
X1644Y1999*
X1644Y1993*
Y1479*
X1788Y1335*
X1793Y1329*
X1797Y1321*
X1798Y1313*
Y1030*
X1801Y1022*
X1802Y1014*
X1800Y1004*
X1796Y995*
X1789Y987*
X1781Y982*
X1771Y979*
X1761*
X1751Y982*
X1743Y987*
X1736Y995*
X1732Y1004*
X1731Y1014*
X1732Y1022*
X1735Y1030*
Y1300*
X1591Y1444*
X1586Y1450*
X1582Y1458*
X1581Y1466*
Y1945*
X1538*
X1537Y1937*
X1534Y1929*
X1529Y1922*
X1523Y1916*
Y1372*
X1530Y1365*
X1535Y1356*
X1537Y1347*
X1536Y1337*
X1533Y1328*
X1527Y1320*
X1519Y1314*
X1510Y1310*
X1543Y1180*
X1553Y1181*
X1563Y1179*
X1572Y1174*
X1579Y1166*
X1583Y1157*
X1585Y1147*
X1583Y1138*
X1579Y1129*
X1573Y1122*
X1565Y1117*
X1556Y1114*
X1546*
X1537Y1117*
X1529Y1122*
X1523Y1129*
X1519Y1138*
X1518Y1147*
X1519Y1156*
X1522Y1164*
X1528Y1171*
X1535Y1177*
X1543Y1180*
X1510Y1310*
X1501Y1309*
X1491Y1310*
X1482Y1314*
X1475Y1321*
X1470Y1329*
X1467Y1338*
X1466Y1348*
X1468Y1357*
X1473Y1365*
X1480Y1372*
Y1918*
X1473Y1925*
X1468Y1935*
X1467Y1945*
X1468Y1955*
X1472Y1964*
X1479Y1972*
X1488Y1977*
X1497Y1980*
X1507*
X1517Y1977*
X1526Y1972*
X1532Y1964*
X1536Y1955*
X1538Y1945*
X1581*
Y1980*
X1532Y2029*
X1527Y2036*
X1524Y2043*
X1523Y2051*
Y2278*
X1524Y2287*
X1527Y2294*
X1532Y2301*
X1606Y2375*
Y2443*
X1589Y2450*
X1574Y2459*
X1560Y2470*
X1548Y2483*
X1539Y2499*
X1532Y2515*
X1527Y2533*
X1526Y2551*
X1527Y2569*
X1532Y2587*
X1540Y2604*
X1550Y2619*
X1562Y2633*
X1577Y2644*
X1593Y2653*
X1611Y2659*
X1629Y2662*
X1648Y2662*
X1666Y2659*
X1684Y2652*
X1700Y2643*
X1714Y2632*
X1727Y2618*
X1737Y2602*
X1749*
X1746Y2605*
X1660Y2691*
X1601*
X1490Y2580*
Y2532*
X1489Y2528*
X1487Y2524*
X1479Y2517*
X1475Y2514*
X1471Y2513*
X1221*
X1195Y2487*
X1191Y2484*
X1187Y2484*
X1185*
X1166Y2465*
X1180Y2467*
X1194Y2466*
X1208Y2462*
X1220Y2456*
X1231Y2447*
X1240Y2435*
X1245Y2423*
X1248Y2409*
X1248Y2395*
X1245Y2381*
X1239Y2368*
X1231Y2357*
X1220Y2348*
X1207Y2341*
X1246*
X1284Y2380*
X1281Y2391*
X1280Y2402*
X1282Y2416*
X1286Y2429*
X1294Y2440*
X1303Y2450*
X1315Y2457*
X1328Y2462*
X1341Y2463*
X1355Y2462*
X1368Y2457*
X1379Y2450*
X1389Y2440*
X1396Y2429*
X1401Y2416*
X1402Y2402*
X1401Y2390*
X1397Y2378*
X1391Y2367*
X1383Y2358*
X1373Y2350*
X1362Y2345*
X1350Y2342*
X1337Y2341*
X1325Y2343*
X1313Y2348*
X1270Y2304*
X1266Y2301*
X1260Y2299*
X1255Y2298*
X805*
Y2270*
X942*
X948Y2269*
X953Y2267*
X957Y2263*
X959Y2262*
X969Y2262*
X978Y2259*
X987Y2253*
X993Y2246*
X997Y2237*
X999Y2227*
X997Y2217*
X993Y2208*
X987Y2200*
X978Y2195*
X969Y2192*
X959Y2192*
X949Y2195*
X940Y2200*
X934Y2207*
X929Y2217*
X928Y2226*
X710*
Y2214*
X726Y2213*
X741Y2209*
X755Y2201*
X768Y2192*
X779Y2180*
X788Y2166*
X793Y2151*
X796Y2136*
Y2120*
X793Y2104*
X788Y2089*
X779Y2075*
X768Y2063*
X755Y2054*
X741Y2047*
X726Y2042*
X710Y2041*
X694Y2042*
X678Y2047*
X664Y2054*
X651Y2063*
X640Y2075*
X632Y2089*
X626Y2104*
X623Y2120*
Y2136*
X626Y2151*
X632Y2166*
X640Y2180*
X651Y2192*
X664Y2201*
X678Y2209*
X694Y2213*
X710Y2214*
Y2226*
X611*
X605Y2219*
X596Y2213*
X587Y2210*
X576Y2210*
X567Y2213*
X558Y2218*
X551Y2226*
X547Y2235*
X546Y2245*
X538*
Y2025*
X538Y2021*
X544Y2016*
X548Y2009*
X551Y2001*
X552Y1993*
X550Y1983*
X546Y1974*
X540Y1966*
X531Y1961*
X521Y1958*
X511Y1958*
X501Y1961*
X493Y1967*
X486Y1975*
X482Y1984*
Y1963*
X507Y1938*
X642*
X647Y1937*
X653Y1935*
X657Y1932*
X709Y1880*
X712Y1876*
X714Y1870*
X715Y1865*
Y1756*
X714Y1750*
X712Y1745*
X709Y1740*
X583Y1615*
X583Y1610*
X582Y1600*
X578Y1591*
X571Y1584*
X563Y1578*
X553Y1575*
X543*
X533Y1578*
X525Y1584*
X518Y1591*
X514Y1600*
X513Y1610*
X514Y1620*
X518Y1629*
X525Y1637*
X533Y1642*
X542Y1645*
X552Y1646*
X672Y1765*
Y1818*
X654*
X652Y1809*
X649Y1800*
X643Y1793*
X636Y1787*
X627Y1784*
X618Y1783*
X479Y1643*
X474Y1640*
X469Y1638*
X463Y1637*
X455*
X448Y1630*
X440Y1626*
X430Y1623*
X420Y1624*
X411Y1627*
X403Y1633*
X397Y1640*
X393Y1649*
X392Y1659*
X393Y1668*
X397Y1677*
X403Y1685*
X411Y1690*
X420Y1694*
X430Y1694*
X439Y1692*
X448Y1688*
X455Y1681*
X584Y1810*
X583Y1818*
X584Y1828*
X588Y1837*
X595Y1845*
X603Y1850*
X613Y1853*
X623*
X633Y1850*
X641Y1845*
X648Y1837*
X652Y1828*
X654Y1818*
X672*
Y1856*
X633Y1895*
X532*
Y1885*
X541Y1884*
X550Y1880*
X557Y1875*
X563Y1867*
X566Y1859*
X568Y1850*
X566Y1840*
X563Y1832*
X557Y1824*
X549Y1819*
X540Y1815*
X531Y1814*
X522Y1816*
X513Y1820*
X506Y1826*
X458*
X442Y1810*
X439Y1806*
X334Y1702*
Y1433*
X341Y1426*
X346Y1417*
X347Y1406*
X346Y1396*
X341Y1387*
X335Y1379*
X341Y1376*
X348Y1373*
X353Y1368*
X420Y1369*
X493Y1442*
X490Y1450*
X489Y1460*
X490Y1470*
X494Y1479*
X501Y1486*
X509Y1492*
X519Y1495*
X529*
X539Y1492*
X547Y1486*
X554Y1479*
X558Y1470*
X559Y1460*
X558Y1450*
X555Y1442*
X549Y1434*
X542Y1429*
X539Y1426*
X445Y1332*
X440Y1328*
X435Y1326*
X430Y1325*
X355Y1324*
X349Y1318*
X342Y1313*
X334Y1310*
X326Y1309*
Y1306*
X542*
X570Y1335*
X575Y1338*
X580Y1340*
X585Y1341*
X813*
Y1376*
X804Y1377*
X796Y1380*
X789Y1385*
X784Y1392*
X781Y1400*
X779Y1409*
X781Y1419*
X785Y1427*
X791Y1434*
X799Y1440*
X808Y1442*
X818*
X827Y1440*
X835Y1434*
X841Y1427*
X845Y1419*
X846Y1409*
X845Y1400*
X842Y1392*
X837Y1385*
X830Y1380*
X822Y1377*
X813Y1376*
Y1341*
X862*
X960Y1439*
Y1461*
X955Y1468*
X951Y1477*
X950Y1486*
X951Y1496*
X956Y1506*
X963Y1513*
X972Y1519*
X982Y1521*
X992Y1521*
X1002Y1517*
X1010Y1511*
X1016Y1503*
Y1563*
X995Y1584*
X949*
X941Y1577*
X932Y1572*
X922Y1571*
X911Y1572*
X902Y1576*
X894Y1583*
X888Y1592*
X886Y1602*
X886Y1612*
X869Y1615*
X866Y1605*
X860Y1597*
X851Y1590*
X842Y1587*
X831Y1586*
X821Y1588*
X812Y1594*
X805Y1602*
X800Y1611*
X799Y1621*
X800Y1629*
X802Y1637*
X807Y1644*
X813Y1649*
Y1929*
X813Y1935*
X815Y1940*
X819Y1945*
X1088Y2213*
X1092Y2217*
X1097Y2219*
X1103Y2220*
X1327*
X1332Y2219*
X1338Y2217*
X1342Y2213*
X1390Y2166*
X1400Y2166*
X1409Y2163*
X1417Y2157*
X1424Y2150*
X1428Y2141*
X1429Y2131*
X1428Y2121*
X1424Y2112*
X1417Y2104*
X1409Y2099*
X1399Y2096*
X1389*
X1379Y2099*
X1371Y2104*
X1364Y2112*
X1360Y2121*
X1359Y2131*
X1359Y2135*
X1318Y2176*
X1223*
Y2122*
X1232Y2120*
X1241Y2117*
X1249Y2110*
X1254Y2102*
X1258Y2093*
X1258Y2083*
X1256Y2074*
X1251Y2065*
X1244Y2058*
Y1555*
X1244Y1549*
Y1530*
X1253Y1529*
X1262Y1525*
X1270Y1520*
X1276Y1512*
X1279Y1504*
X1281Y1494*
X1285Y1494*
X1283Y1860*
X1284Y1865*
X1286Y1871*
Y1906*
X1280Y1912*
X1276Y1919*
X1273Y1926*
X1272Y1934*
X1274Y1944*
X1278Y1954*
X1285Y1961*
X1293Y1967*
X1303Y1969*
X1313*
X1323Y1967*
X1331Y1961*
X1338Y1954*
X1342Y1944*
X1343Y1934*
X1342Y1926*
X1340Y1919*
X1335Y1912*
X1329Y1906*
Y1863*
X1329Y1857*
X1327Y1852*
X1327Y1779*
X1331Y1787*
X1338Y1794*
X1346Y1798*
X1355Y1801*
X1364Y1800*
X1373Y1798*
X1381Y1792*
X1387Y1785*
X1391Y1777*
X1392Y1767*
X1391Y1758*
X1387Y1750*
X1381Y1743*
X1373Y1737*
X1364Y1734*
X1355Y1734*
X1346Y1736*
X1338Y1741*
X1332Y1748*
X1327Y1756*
X1328Y1637*
X1335Y1644*
X1345Y1648*
X1355Y1649*
X1365Y1647*
X1374Y1642*
X1381Y1635*
X1385Y1626*
X1387Y1615*
X1385Y1605*
X1381Y1596*
X1374Y1589*
X1365Y1584*
X1355Y1582*
X1345Y1583*
X1335Y1587*
X1328Y1594*
X1329Y1348*
Y1348*
Y1324*
X1328Y1318*
X1326Y1313*
X1322Y1308*
X1257Y1243*
X1257Y1219*
X1261Y1229*
X1267Y1237*
X1274Y1242*
X1284Y1246*
X1294Y1246*
X1303Y1244*
X1311Y1239*
X1318Y1231*
X1322Y1222*
X1324Y1213*
X1322Y1203*
X1318Y1194*
X1311Y1187*
X1303Y1182*
X1293Y1179*
X1284Y1180*
X1274Y1183*
X1266Y1189*
X1261Y1197*
X1257Y1206*
X1257Y1054*
Y1038*
X1257Y1038*
X1257Y1034*
Y964*
X1263Y959*
X1267Y952*
X1270Y944*
X1271Y936*
X1396Y937*
X1397Y947*
X1401Y955*
X1407Y962*
X1415Y968*
X1424Y970*
X1434*
X1443Y968*
X1451Y962*
X1457Y955*
X1461Y947*
X1463Y937*
X1461Y928*
X1457Y919*
X1451Y912*
X1443Y907*
X1434Y904*
X1424*
X1415Y907*
X1407Y912*
X1401Y919*
X1397Y928*
X1396Y937*
X1271Y936*
Y936*
X1269Y926*
X1265Y917*
X1259Y910*
X1250Y904*
X1240Y901*
X1230*
X1221Y904*
X1212Y910*
X1206Y917*
X1201Y926*
X1200Y936*
X1201Y944*
X1204Y952*
X1208Y959*
X1214Y964*
Y1032*
X1214Y1033*
X1213Y1036*
Y1054*
Y1054*
X1214Y1253*
X1215Y1258*
X1217Y1263*
X1220Y1268*
X1285Y1333*
Y1348*
X1285Y1494*
X1281Y1494*
Y1494*
X1279Y1484*
X1275Y1475*
X1268Y1467*
X1260Y1462*
X1250Y1459*
X1240*
X1230Y1462*
X1222Y1467*
X1215Y1475*
X1211Y1484*
X1210Y1494*
X1210Y1500*
X1207Y1504*
X1203Y1508*
X1201Y1513*
X1200Y1519*
Y1554*
X1201Y1560*
Y2058*
X1194Y2065*
X1190Y2074*
X1187Y2083*
X1188Y2093*
X1191Y2102*
X1197Y2110*
X1204Y2117*
X1213Y2120*
X1223Y2122*
Y2176*
X1112*
X856Y1920*
Y1649*
X863Y1643*
X867Y1634*
X869Y1625*
X869Y1615*
X886Y1612*
X889Y1622*
X895Y1630*
X903Y1637*
X912Y1640*
X922Y1641*
X932Y1639*
X942Y1635*
X949Y1628*
X1004*
X1009Y1627*
X1015Y1625*
X1019Y1621*
X1053Y1587*
X1057Y1583*
X1059Y1577*
X1060Y1572*
Y636*
X1123Y573*
X1292*
X1284Y578*
X1277Y585*
X1273Y594*
X1271Y604*
X1273Y613*
X1276Y622*
X1283Y629*
X1291Y634*
X1300Y637*
X1309*
X1319Y634*
X1327Y629*
X1333Y622*
X1337Y613*
X1338Y604*
X1337Y594*
X1332Y585*
X1326Y578*
X1317Y573*
X1824*
X1817Y578*
X1811Y585*
X1808Y594*
X1807Y602*
X1808Y612*
X1812Y621*
X1818Y628*
X1826Y633*
X1835Y636*
X1845*
X1854Y633*
X1862Y628*
X1868Y621*
X1872Y612*
X1874Y602*
X1872Y594*
X1869Y585*
X1863Y578*
X1856Y573*
X2011*
X2017Y572*
X2022Y570*
X2027Y567*
X2103Y490*
X2277Y665*
X2270Y674*
X2264Y685*
X2260Y696*
X2259Y708*
X2261Y722*
X2265Y734*
X2273Y746*
X2282Y756*
X2294Y763*
X2307Y768*
X2320Y769*
X2334Y768*
X2347Y763*
X2358Y756*
X2368Y746*
X2375Y734*
X2380Y722*
X2381Y708*
X2559*
X2561Y722*
X2565Y734*
X2573Y746*
X2582Y756*
X2594Y763*
X2607Y768*
X2620Y769*
X2634Y768*
X2647Y763*
X2658Y756*
X2668Y746*
X2675Y734*
X2680Y722*
X2681Y708*
X2680Y694*
X2675Y682*
X2668Y670*
X2658Y660*
X2647Y653*
X2634Y648*
X2620Y647*
X2607Y648*
X2594Y653*
X2582Y660*
X2573Y670*
X2565Y682*
X2561Y694*
X2559Y708*
X2381*
X2380Y695*
X2376Y683*
X2369Y671*
X2360Y662*
X2350Y654*
X2338Y649*
X2325Y647*
X2312Y648*
X2299Y651*
X2287Y657*
X2277Y665*
X2103Y490*
X2175Y418*
X2179Y414*
X2181Y408*
X2181Y403*
Y387*
X2190Y381*
X2197Y373*
X2202Y365*
X2205Y355*
X2206Y345*
X2251*
X2253Y357*
X2258Y368*
X2265Y377*
X2274Y384*
X2285Y389*
X2297Y390*
X2309Y389*
X2319Y384*
X2329Y377*
X2336Y368*
X2341Y357*
X2342Y345*
X2387*
X2389Y356*
X2393Y367*
X2399Y376*
X2408Y384*
X2418Y389*
X2429Y392*
X2440*
X2451Y389*
X2461Y384*
X2470Y376*
X2476Y367*
X2480Y356*
X2482Y345*
X2527*
X2529Y357*
X2533Y368*
X2540Y377*
X2550Y384*
X2561Y389*
X2572Y390*
X2584Y389*
X2595Y384*
X2604Y377*
X2612Y368*
X2616Y357*
X2618Y345*
X2663*
X2664Y356*
X2668Y367*
X2675Y376*
X2683Y384*
X2693Y389*
X2704Y392*
X2716*
X2727Y389*
X2737Y384*
X2746Y376*
X2752Y367*
X2756Y356*
X2757Y345*
Y298*
X2756Y286*
X2752Y276*
X2746Y266*
X2737Y259*
X2727Y254*
X2716Y251*
X2704*
X2693Y254*
X2683Y259*
X2675Y266*
X2668Y276*
X2664Y286*
X2663Y298*
Y345*
X2618*
Y298*
X2616Y286*
X2612Y275*
X2604Y266*
X2595Y259*
X2584Y254*
X2572Y252*
X2561Y254*
X2550Y259*
X2540Y266*
X2533Y275*
X2529Y286*
X2527Y298*
Y345*
X2482*
Y298*
X2480Y286*
X2476Y276*
X2470Y266*
X2461Y259*
X2451Y254*
X2440Y251*
X2429*
X2418Y254*
X2408Y259*
X2399Y266*
X2393Y276*
X2389Y286*
X2387Y298*
Y345*
X2342*
Y298*
X2341Y286*
X2336Y275*
X2329Y266*
X2319Y259*
X2309Y254*
X2297Y252*
X2285Y254*
X2274Y259*
X2265Y266*
X2258Y275*
X2253Y286*
X2251Y298*
Y345*
X2206*
Y298*
X2205Y286*
X2201Y276*
X2194Y266*
X2186Y259*
X2176Y254*
X2165Y251*
X2153*
X2142Y254*
X2132Y259*
X2124Y266*
X2117Y276*
X2113Y286*
X2112Y298*
X2066*
X2065Y286*
X2060Y275*
X2053Y266*
X2044Y259*
X2033Y254*
X2021Y252*
X2009Y254*
X1999Y259*
X1989Y266*
X1982Y275*
X1977Y286*
X1976Y298*
Y345*
X1977Y357*
X1982Y368*
X1989Y377*
X1999Y384*
X2009Y389*
X2021Y390*
X2033Y389*
X2044Y384*
X2053Y377*
X2060Y368*
X2065Y357*
X2066Y345*
Y298*
X2112*
Y345*
X2113Y355*
X2116Y365*
X2122Y374*
X2129Y382*
X2138Y387*
Y394*
X2002Y530*
X1114*
X1109Y530*
X1103Y533*
X1099Y536*
X1023Y612*
X1019Y616*
X1017Y622*
X1016Y627*
Y1469*
X1011Y1461*
X1004Y1455*
Y1430*
X1003Y1425*
X1001Y1420*
X997Y1415*
X886Y1304*
X882Y1301*
X876Y1298*
X871Y1298*
X594*
X566Y1269*
X562Y1266*
X556Y1264*
X551Y1263*
X111*
Y793*
X156*
X157Y810*
X162Y826*
X169Y841*
X179Y855*
X191Y867*
X205Y877*
X220Y884*
X236Y889*
X253Y890*
X270Y889*
X287Y884*
X302Y877*
X316Y867*
X328Y855*
X338Y841*
X345Y826*
X349Y810*
X351Y793*
X349Y776*
X345Y759*
X338Y744*
X328Y730*
X316Y718*
X302Y708*
X287Y701*
X270Y697*
X253Y695*
X236Y697*
X220Y701*
X205Y708*
X191Y718*
X179Y730*
X169Y744*
X162Y759*
X157Y776*
X156Y793*
X111*
Y628*
X274Y465*
X608*
Y545*
X600Y546*
X591Y549*
X585Y554*
X579Y561*
X576Y569*
X575Y578*
X576Y587*
X580Y596*
X586Y603*
X594Y609*
X603Y611*
X613*
X622Y609*
X630Y603*
X636Y596*
X640Y587*
X642Y578*
X641Y569*
X637Y561*
X632Y554*
X625Y549*
X617Y546*
X608Y545*
Y465*
X1851*
X1856Y464*
X1862Y462*
X1866Y458*
X1899Y426*
X1902Y421*
X1904Y416*
X1905Y410*
Y387*
X1914Y381*
X1921Y374*
X1926Y365*
X1930Y355*
X1931Y345*
Y298*
X1929Y286*
X1925Y276*
X1919Y266*
X1910Y259*
X1900Y254*
X1889Y251*
X1878*
X1867Y254*
X1857Y259*
X1848Y266*
X1842Y276*
X1838Y286*
X1836Y298*
Y345*
X1837Y355*
X1841Y365*
X1846Y374*
X1853Y381*
X1862Y387*
Y401*
X1842Y421*
X1746*
Y390*
X1757Y389*
X1768Y384*
X1778Y377*
X1785Y368*
X1789Y357*
X1791Y345*
Y298*
X1789Y286*
X1785Y275*
X1778Y266*
X1768Y259*
X1757Y254*
X1746Y252*
X1734Y254*
X1723Y259*
X1714Y266*
X1706Y275*
X1702Y286*
X1700Y298*
Y345*
X1702Y357*
X1706Y368*
X1714Y377*
X1723Y384*
X1734Y389*
X1746Y390*
Y421*
X1608*
Y392*
X1618Y391*
X1628Y388*
X1637Y382*
X1645Y374*
X1650Y365*
X1654Y356*
X1655Y345*
Y298*
X1654Y286*
X1650Y276*
X1643Y266*
X1635Y259*
X1625Y254*
X1614Y251*
X1602*
X1591Y254*
X1581Y259*
X1572Y266*
X1566Y276*
X1562Y286*
X1561Y298*
Y345*
X1562Y356*
X1565Y365*
X1571Y374*
X1578Y382*
X1587Y388*
X1597Y391*
X1608Y392*
Y421*
X1470*
Y390*
X1482Y389*
X1493Y384*
X1502Y377*
X1509Y368*
X1514Y357*
X1515Y345*
Y298*
X1514Y286*
X1509Y275*
X1502Y266*
X1493Y259*
X1482Y254*
X1470Y252*
X1458Y254*
X1447Y259*
X1438Y266*
X1431Y275*
X1426Y286*
X1425Y298*
Y345*
X1426Y357*
X1431Y368*
X1438Y377*
X1447Y384*
X1458Y389*
X1470Y390*
Y421*
X1332*
Y392*
X1343Y391*
X1353Y388*
X1362Y382*
X1369Y374*
X1375Y365*
X1378Y356*
X1379Y345*
Y298*
X1378Y286*
X1374Y276*
X1368Y266*
X1359Y259*
X1349Y254*
X1338Y251*
X1327*
X1315Y254*
X1305Y259*
X1297Y266*
X1290Y276*
X1286Y286*
X1285Y298*
Y345*
X1286Y356*
X1290Y365*
X1295Y374*
X1303Y382*
X1312Y388*
X1322Y391*
X1332Y392*
Y421*
X1194*
Y390*
X1206Y389*
X1217Y384*
X1226Y377*
X1234Y368*
X1238Y357*
X1240Y345*
Y298*
X1238Y286*
X1234Y275*
X1226Y266*
X1217Y259*
X1206Y254*
X1194Y252*
X1183Y254*
X1172Y259*
X1162Y266*
X1155Y275*
X1151Y286*
X1149Y298*
Y345*
X1151Y357*
X1155Y368*
X1162Y377*
X1172Y384*
X1183Y389*
X1194Y390*
Y421*
X265*
X260Y422*
X254Y424*
X250Y428*
X074Y604*
X070Y609*
X068Y614*
X067Y619*
Y1494*
X068Y1499*
X070Y1505*
X074Y1509*
X141Y1576*
X147Y1580*
X154Y1582*
Y2210*
X258*
Y1506*
X256*
Y1408*
X156*
Y1506*
X154*
Y1529*
X111Y1485*
Y1306*
X326*
Y1309*
X316Y1310*
X308Y1314*
X300Y1320*
X295Y1328*
X291Y1337*
X291Y1347*
X292Y1356*
X297Y1365*
X303Y1372*
X294Y1375*
X286Y1382*
X280Y1390*
X277Y1399*
X276Y1409*
X279Y1419*
X284Y1428*
X291Y1435*
Y1711*
X292Y1716*
X294Y1722*
X297Y1726*
X405Y1834*
X408Y1838*
X433Y1863*
X438Y1867*
X443Y1869*
X449Y1869*
X503*
X508Y1876*
X516Y1881*
X524Y1884*
X532Y1885*
Y1895*
X498*
X492Y1895*
X487Y1897*
X483Y1901*
X445Y1938*
X442Y1943*
X440Y1948*
X439Y1954*
Y2038*
X432Y2031*
X423Y2027*
X414Y2025*
X404Y2025*
X395Y2028*
X387Y2034*
X381Y2041*
X377Y2050*
X376Y2060*
X376Y2068*
X379Y2076*
X384Y2082*
X389Y2088*
Y2212*
X380Y2212*
X371Y2216*
X363Y2221*
X357Y2229*
X353Y2237*
X351Y2247*
X353Y2257*
X357Y2266*
X364Y2274*
X372Y2279*
X382Y2282*
X392*
X402Y2279*
X410Y2274*
X417Y2266*
X421Y2257*
X422Y2247*
X422Y2242*
X426Y2238*
X430Y2234*
X432Y2229*
X433Y2223*
Y2088*
X439Y2082*
Y2285*
X363Y2361*
X156*
X151Y2362*
X145Y2364*
X141Y2367*
X100Y2408*
X097Y2412*
X095Y2418*
X094Y2423*
Y2830*
X095Y2835*
X097Y2840*
X100Y2845*
X151Y2896*
X155Y2899*
Y3032*
X258*
Y2729*
X256*
Y2632*
X258*
Y2429*
X155*
Y2632*
X157*
Y2729*
X155*
Y2838*
X137Y2821*
Y2432*
X165Y2404*
X372*
X378Y2404*
X383Y2402*
X387Y2398*
X476Y2310*
X479Y2305*
X482Y2300*
X482Y2294*
Y2003*
X485Y2010*
X489Y2016*
X494Y2021*
Y2708*
X376Y2826*
X363*
X356Y2819*
X348Y2815*
X338Y2812*
X328Y2813*
X319Y2816*
X311Y2822*
X305Y2829*
X301Y2838*
X300Y2848*
X301Y2857*
X305Y2866*
X311Y2874*
X319Y2879*
X328Y2883*
X338Y2883*
X347Y2881*
X356Y2876*
X363Y2869*
X385*
X391Y2869*
X396Y2867*
X400Y2863*
X531Y2732*
X535Y2727*
X537Y2722*
X538Y2717*
Y2245*
X546*
X547Y2255*
X552Y2265*
X559Y2272*
X567Y2278*
X578Y2280*
X588Y2280*
X598Y2276*
X606Y2270*
X608Y2270*
X805*
Y2298*
X800Y2299*
X795Y2301*
X790Y2304*
X629Y2465*
X626Y2470*
X623Y2475*
X623Y2481*
Y2816*
X385Y3054*
X381Y3058*
X379Y3063*
X378Y3069*
Y3149*
X373Y3156*
X369Y3164*
X368Y3173*
X370Y3182*
X374Y3191*
X381Y3198*
X390Y3203*
X400Y3204*
X410Y3203*
X419Y3198*
X426Y3191*
X430Y3182*
X432Y3173*
X431Y3164*
X427Y3156*
X422Y3149*
Y3078*
X660Y2840*
X663Y2835*
X665Y2830*
X666Y2825*
Y2490*
X814Y2341*
X1019*
X1010Y2343*
X1002Y2346*
X878*
X873Y2347*
X870Y2350*
X679Y2540*
X677Y2544*
X676Y2548*
Y3021*
X677Y3025*
X679Y3029*
X698Y3048*
X702Y3050*
X707Y3051*
X1913*
X1917Y3050*
X1921Y3048*
X1924Y3045*
X1926Y3042*
X1927Y3037*
Y2613*
X1926Y2609*
X1924Y2605*
X1921Y2602*
X1939*
X1948Y2617*
X1960Y2630*
X1973Y2642*
X1988Y2651*
X2004Y2657*
X2021Y2661*
X2038Y2663*
X2055Y2661*
X2072Y2657*
X2089Y2651*
X2103Y2642*
X2117Y2630*
X2128Y2617*
X2137Y2602*
X2152*
X2150Y2604*
X2105Y2649*
X2102Y2653*
X2101Y2658*
Y2997*
X2101Y2999*
Y3098*
X2102Y3102*
X2105Y3106*
X2105Y3107*
X2109Y3109*
X2113Y3110*
X2145Y3110*
X2145*
X2242*
X2229Y3112*
X2217Y3117*
X2206Y3124*
X2196Y3133*
X2188Y3143*
X2182Y3155*
X2179Y3168*
X2177Y3181*
Y3259*
X2179Y3274*
X2184Y3288*
X2191Y3301*
X2201Y3312*
X2213Y3321*
X2226Y3327*
X2241Y3330*
X2256*
X2270Y3327*
X2284Y3321*
X2296Y3312*
X2306Y3301*
X2313Y3288*
X2318Y3274*
X2319Y3259*
Y3181*
X2318Y3168*
X2314Y3155*
X2309Y3143*
X2301Y3133*
X2291Y3124*
X2280Y3117*
X2268Y3112*
X2255Y3110*
X2542*
X2529Y3112*
X2517Y3117*
X2505Y3124*
X2496Y3133*
X2488Y3143*
X2482Y3155*
X2478Y3168*
X2477Y3181*
Y3259*
X2479Y3274*
X2483Y3288*
X2491Y3301*
X2501Y3312*
X2513Y3321*
X2526Y3327*
X2541Y3330*
X2555*
X2570Y3327*
X2583Y3321*
X2595Y3312*
X2605Y3301*
X2613Y3288*
X2617Y3274*
X2619Y3259*
Y3181*
X2618Y3168*
X2614Y3155*
X2608Y3143*
X2600Y3133*
X2591Y3124*
X2579Y3117*
X2567Y3112*
X2554Y3110*
X2732*
X2729Y3112*
X2727Y3116*
X2726Y3121*
Y3124*
X2726Y3376*
X1948*
Y3330*
X1962Y3329*
X1975Y3325*
X1988Y3318*
X1998Y3309*
X2007Y3299*
X2014Y3286*
X2018Y3273*
X2019Y3259*
Y3181*
X2018Y3166*
X2013Y3152*
X2006Y3139*
X1996Y3128*
X1984Y3119*
X1970Y3113*
X1956Y3110*
X1941*
X1926Y3113*
X1913Y3119*
X1901Y3128*
X1891Y3139*
X1884Y3152*
X1879Y3166*
X1877Y3181*
Y3259*
X1879Y3273*
X1883Y3286*
X1889Y3299*
X1898Y3309*
X1909Y3318*
X1921Y3325*
X1935Y3329*
X1948Y3330*
Y3376*
X1648*
Y3328*
X1662Y3327*
X1675Y3323*
X1687Y3317*
X1697Y3308*
X1706Y3298*
X1712Y3286*
X1716Y3273*
X1717Y3259*
Y3181*
X1716Y3166*
X1711Y3153*
X1704Y3140*
X1694Y3129*
X1683Y3121*
X1670Y3115*
X1656Y3112*
X1641*
X1627Y3115*
X1614Y3121*
X1602Y3129*
X1593Y3140*
X1585Y3153*
X1581Y3166*
X1579Y3181*
Y3259*
X1581Y3273*
X1585Y3286*
X1591Y3298*
X1600Y3308*
X1610Y3317*
X1622Y3323*
X1635Y3327*
X1648Y3328*
Y3376*
X1349*
Y3328*
X1362Y3327*
X1375Y3323*
X1387Y3317*
X1397Y3308*
X1406Y3298*
X1412Y3286*
X1416Y3273*
X1418Y3259*
Y3181*
X1416Y3166*
X1412Y3153*
X1405Y3140*
X1395Y3129*
X1383Y3121*
X1370Y3115*
X1356Y3112*
X1342*
X1327Y3115*
X1314Y3121*
X1303Y3129*
X1293Y3140*
X1286Y3153*
X1281Y3166*
X1280Y3181*
Y3259*
X1281Y3273*
X1285Y3286*
X1291Y3298*
X1300Y3308*
X1310Y3317*
X1322Y3323*
X1335Y3327*
X1349Y3328*
Y3376*
X1049*
Y3328*
X1062Y3327*
X1075Y3323*
X1087Y3317*
X1097Y3308*
X1106Y3298*
X1112Y3286*
X1116Y3273*
X1118Y3259*
Y3181*
X1116Y3166*
X1112Y3153*
X1105Y3140*
X1095Y3129*
X1083Y3121*
X1070Y3115*
X1056Y3112*
X1042*
X1027Y3115*
X1014Y3121*
X1003Y3129*
X993Y3140*
X986Y3153*
X981Y3166*
X980Y3181*
Y3259*
X981Y3273*
X985Y3286*
X991Y3298*
X1000Y3308*
X1010Y3317*
X1022Y3323*
X1035Y3327*
X1049Y3328*
Y3376*
X749*
Y3328*
X762Y3327*
X775Y3323*
X787Y3317*
X797Y3308*
X806Y3298*
X812Y3286*
X816Y3273*
X818Y3259*
Y3181*
X816Y3166*
X812Y3153*
X805Y3140*
X795Y3129*
X783Y3121*
X770Y3115*
X756Y3112*
X742*
X727Y3115*
X714Y3121*
X703Y3129*
X693Y3140*
X686Y3153*
X681Y3166*
X680Y3181*
Y3259*
X681Y3273*
X685Y3286*
X691Y3298*
X700Y3308*
X710Y3317*
X722Y3323*
X735Y3327*
X749Y3328*
Y3376*
X025*
Y195*
G37*
X1915Y2613D02*
X1755D01*
X1665Y2703*
X1596*
X1478Y2585*
Y2532*
X1471Y2525*
X1216*
X1187Y2495*
X1180*
X1070Y2385*
Y2384*
X1043Y2358*
X878*
X688Y2548*
Y3021*
X707Y3039*
X1913*
X1915Y3037*
Y2613*
G36*
X1755*
X1665Y2703*
X1596*
X1478Y2585*
Y2532*
X1471Y2525*
X1216*
X1187Y2495*
X1180*
X1070Y2385*
Y2384*
X1043Y2358*
X878*
X688Y2548*
Y3021*
X707Y3039*
X1913*
X1915Y3037*
Y2613*
G37*
X2145Y3098D02*
X2733D01*
X2965Y2866*
X3076*
X3094Y2848*
Y2735*
X3095Y2629*
X3083Y2617*
X2856*
X2753Y2719*
X2421*
X2315Y2613*
X2158*
X2113Y2658*
Y2997*
X2113Y2997*
Y3098*
X2113Y3098*
X2145Y3098*
G36*
X2733*
X2965Y2866*
X3076*
X3094Y2848*
Y2735*
X3095Y2629*
X3083Y2617*
X2856*
X2753Y2719*
X2421*
X2315Y2613*
X2158*
X2113Y2658*
Y2997*
X2113Y2997*
Y3098*
X2113Y3098*
X2145Y3098*
G37*
X3025Y3396D02*
X2740D01*
X2738Y3393*
Y3392*
X2738Y3124*
Y3121*
X2833Y3026*
X2833*
X2974Y2885*
X3150*
X3289Y2746*
Y2085*
X3290Y2084*
X3692*
X3693Y2085*
Y2274*
X3676Y2291*
X3473*
X3463Y2301*
Y2918*
X3289Y3092*
X3065*
X3028Y3128*
Y3392*
X3025Y3396*
G36*
X2740*
X2738Y3393*
Y3392*
X2738Y3124*
Y3121*
X2833Y3026*
X2833*
X2974Y2885*
X3150*
X3289Y2746*
Y2085*
X3290Y2084*
X3692*
X3693Y2085*
Y2274*
X3676Y2291*
X3473*
X3463Y2301*
Y2918*
X3289Y3092*
X3065*
X3028Y3128*
Y3392*
X3025Y3396*
G37*
X3074Y3397D02*
X3045Y3398D01*
Y3143*
X3072Y3115*
X3298*
X3484Y2930*
Y2311*
X3711*
X3718Y2304*
Y2275*
X3718Y2275*
Y1806*
X3684Y1772*
X3474*
X3474Y1772*
Y1548*
X3896*
Y3397*
X3074*
G36*
X3045Y3398*
Y3143*
X3072Y3115*
X3298*
X3484Y2930*
Y2311*
X3711*
X3718Y2304*
Y2275*
X3718Y2275*
Y1806*
X3684Y1772*
X3474*
X3474Y1772*
Y1548*
X3896*
Y3397*
X3074*
G37*
D02*
D116*
X172Y793D02*
X150D01*
X172D02*
X150D01*
X172Y1458D02*
X150D01*
X172D02*
X150D01*
X172Y2680D02*
X151D01*
X172D02*
X151D01*
X206Y1424D02*
Y1402D01*
Y1424D02*
Y1402D01*
X240Y1458D02*
X262D01*
X240D02*
X262D01*
X241Y2680D02*
X262D01*
X241D02*
X262D01*
X253Y711D02*
Y689D01*
Y711D02*
Y689D01*
Y874D02*
Y896D01*
Y874D02*
Y896D01*
X335Y793D02*
X357D01*
X335D02*
X357D01*
X590Y578D02*
X569D01*
X590D02*
X569D01*
X608Y560D02*
Y539D01*
Y560D02*
Y539D01*
Y596D02*
Y617D01*
Y596D02*
Y617D01*
X626Y578D02*
X648D01*
X626D02*
X648D01*
X696Y3220D02*
X674D01*
X696D02*
X674D01*
X749Y3127D02*
Y3106D01*
Y3127D02*
Y3106D01*
Y3313D02*
Y3334D01*
Y3313D02*
Y3334D01*
X795Y1409D02*
X774D01*
X795D02*
X774D01*
X802Y3220D02*
X824D01*
X802D02*
X824D01*
X813Y1391D02*
Y1370D01*
Y1391D02*
Y1370D01*
Y1427D02*
Y1449D01*
Y1427D02*
Y1449D01*
X831Y1409D02*
X852D01*
X831D02*
X852D01*
X996Y3220D02*
X974D01*
X996D02*
X974D01*
X1049Y3127D02*
Y3106D01*
Y3127D02*
Y3106D01*
Y3313D02*
Y3334D01*
Y3313D02*
Y3334D01*
X1102Y3220D02*
X1124D01*
X1102D02*
X1124D01*
X1165Y321D02*
X1143D01*
X1165D02*
X1143D01*
X1194Y268D02*
Y247D01*
Y268D02*
Y247D01*
Y375D02*
Y396D01*
Y375D02*
Y396D01*
X1224Y321D02*
X1246D01*
X1224D02*
X1246D01*
X1287Y604D02*
X1265D01*
X1287D02*
X1265D01*
X1290Y1195D02*
Y1173D01*
Y1195D02*
Y1173D01*
Y1230D02*
Y1252D01*
Y1230D02*
Y1252D01*
X1296Y3220D02*
X1274D01*
X1296D02*
X1274D01*
X1305Y622D02*
Y643D01*
Y622D02*
Y643D01*
X1308Y1213D02*
X1329D01*
X1308D02*
X1329D01*
X1322Y604D02*
X1344D01*
X1322D02*
X1344D01*
X1349Y3127D02*
Y3106D01*
Y3127D02*
Y3106D01*
Y3313D02*
Y3334D01*
Y3313D02*
Y3334D01*
X1353Y1598D02*
Y1576D01*
Y1598D02*
Y1576D01*
Y1633D02*
Y1655D01*
Y1633D02*
Y1655D01*
X1359Y1750D02*
Y1728D01*
Y1750D02*
Y1728D01*
Y1785D02*
Y1807D01*
Y1785D02*
Y1807D01*
X1371Y1615D02*
X1393D01*
X1371D02*
X1393D01*
X1376Y1767D02*
X1398D01*
X1376D02*
X1398D01*
X1402Y3220D02*
X1424D01*
X1402D02*
X1424D01*
X1411Y937D02*
X1390D01*
X1411D02*
X1390D01*
X1429Y919D02*
Y898D01*
Y919D02*
Y898D01*
Y955D02*
Y976D01*
Y955D02*
Y976D01*
X1440Y321D02*
X1419D01*
X1440D02*
X1419D01*
X1447Y937D02*
X1468D01*
X1447D02*
X1468D01*
X1470Y268D02*
Y247D01*
Y268D02*
Y247D01*
Y375D02*
Y396D01*
Y375D02*
Y396D01*
X1500Y321D02*
X1521D01*
X1500D02*
X1521D01*
X1533Y1147D02*
X1512D01*
X1533D02*
X1512D01*
X1551Y1130D02*
Y1108D01*
Y1130D02*
Y1108D01*
Y1165D02*
Y1187D01*
Y1165D02*
Y1187D01*
X1569Y1147D02*
X1590D01*
X1569D02*
X1590D01*
X1595Y3220D02*
X1574D01*
X1595D02*
X1574D01*
X1648Y3127D02*
Y3106D01*
Y3127D02*
Y3106D01*
Y3313D02*
Y3334D01*
Y3313D02*
Y3334D01*
X1702Y3220D02*
X1723D01*
X1702D02*
X1723D01*
X1716Y321D02*
X1694D01*
X1716D02*
X1694D01*
X1746Y268D02*
Y247D01*
Y268D02*
Y247D01*
Y375D02*
Y396D01*
Y375D02*
Y396D01*
X1775Y321D02*
X1797D01*
X1775D02*
X1797D01*
X1822Y602D02*
X1801D01*
X1822D02*
X1801D01*
X1840Y620D02*
Y642D01*
Y620D02*
Y642D01*
X1858Y602D02*
X1879D01*
X1858D02*
X1879D01*
X1868Y1909D02*
X1846D01*
X1868D02*
X1846D01*
X1885Y1926D02*
Y1948D01*
Y1926D02*
Y1948D01*
X1920Y2039D02*
X1898D01*
X1920D02*
X1898D01*
X1938Y2021D02*
Y2000D01*
Y2021D02*
Y2000D01*
Y2057D02*
Y2078D01*
Y2057D02*
Y2078D01*
X1955Y2039D02*
X1977D01*
X1955D02*
X1977D01*
X1992Y321D02*
X1970D01*
X1992D02*
X1970D01*
X2021Y268D02*
Y247D01*
Y268D02*
Y247D01*
Y375D02*
Y396D01*
Y375D02*
Y396D01*
X2051Y321D02*
X2072D01*
X2051D02*
X2072D01*
X2240Y2037D02*
X2218D01*
X2240D02*
X2218D01*
X2258Y2019D02*
Y1998D01*
Y2019D02*
Y1998D01*
X2267Y321D02*
X2246D01*
X2267D02*
X2246D01*
X2276Y2037D02*
X2297D01*
X2276D02*
X2297D01*
X2297Y268D02*
Y247D01*
Y268D02*
Y247D01*
Y375D02*
Y396D01*
Y375D02*
Y396D01*
X2326Y321D02*
X2348D01*
X2326D02*
X2348D01*
X2511Y1376D02*
X2489D01*
X2511D02*
X2489D01*
X2535Y1351D02*
Y1330D01*
Y1351D02*
Y1330D01*
Y1400D02*
Y1421D01*
Y1400D02*
Y1421D01*
X2543Y321D02*
X2521D01*
X2543D02*
X2521D01*
X2559Y1376D02*
X2580D01*
X2559D02*
X2580D01*
X2572Y268D02*
Y247D01*
Y268D02*
Y247D01*
Y375D02*
Y396D01*
Y375D02*
Y396D01*
X2602Y321D02*
X2624D01*
X2602D02*
X2624D01*
X2652Y2049D02*
X2631D01*
X2652D02*
X2631D01*
X2670Y2031D02*
Y2010D01*
Y2031D02*
Y2010D01*
Y2067D02*
Y2088D01*
Y2067D02*
Y2088D01*
X2688Y2049D02*
X2709D01*
X2688D02*
X2709D01*
D02*
D117*
X253Y793D03*
X3639Y2754D03*
D02*
D118*
X1638Y2551D03*
X2038Y2551D03*
X2459Y2552D03*
D02*
D140*
X1847Y2451D03*
Y2551D03*
Y2651D03*
X2247Y2451D03*
Y2551D03*
Y2651D03*
X2669Y2451D03*
Y2551D03*
Y2651D03*
D02*
D141*
X1184Y2402D03*
X3029Y2538D03*
D02*
D143*
X710Y2128D03*
X1710D03*
D02*
D147*
X749Y3220D03*
X1049D03*
X1349D03*
X1648D03*
X1948D03*
X2248D03*
X2548D03*
X2848D03*
X3148D03*
D02*
D148*
X2231Y1672D03*
X2231Y1469D03*
X2534Y1672D03*
X2535Y1376D03*
D02*
D149*
X3575Y1962D03*
X3575Y1397D03*
D02*
D185*
X3575Y2162D03*
X3575Y1597D03*
D02*
D187*
X3571Y917D03*
Y1117D03*
D02*
D188*
X089Y1285D02*
X551D01*
X585Y1319*
X871*
X982Y1430*
Y1482*
X985Y1486*
X089Y1285D02*
Y1494D01*
X156Y1561*
X204*
X206Y1558*
X387Y2247D02*
X411Y2223D01*
Y2060*
X400Y3173D02*
Y3069D01*
X644Y2825*
Y2481*
X805Y2320*
X1255*
X1318Y2384*
X1338*
X1341Y2402*
X516Y1993D02*
Y2021D01*
X516Y2021*
Y2717*
X385Y2848*
X335*
X524Y1460D02*
Y1441D01*
X429Y1347*
X324Y1346*
X325*
X326Y1345*
X532Y1850D02*
Y1848D01*
X449*
X424Y1823*
Y1822*
X313Y1711*
Y1415*
X305Y1408*
X315Y1423*
X312*
Y1406*
X548Y1610D02*
X693Y1756D01*
Y1865*
X642Y1916*
X498*
X461Y1954*
Y2294*
X372Y2383*
X156*
X116Y2423*
Y2830*
X167Y2880*
X206*
X618Y1818D02*
Y1813D01*
X463Y1659*
X427*
X834Y1621D02*
Y1929D01*
X1103Y2198*
X1327*
X1394Y2131*
X921Y1606D02*
X1004D01*
X1038Y1572*
Y627*
X1114Y551*
X2011*
X2160Y403*
Y363*
X2159Y362*
Y321*
X963Y2227D02*
X942Y2248D01*
X604*
X603Y2249*
X582*
X581Y2245*
X1245Y1494D02*
Y1496D01*
X1222Y1519*
Y1554*
X1223Y1555*
Y2086*
X1308Y1934D02*
Y1863D01*
X1305Y1860*
X1307Y1348*
Y1324*
X1236Y1252*
X1235Y1054*
Y1036*
X1235Y1034*
Y936*
X1502Y1344D02*
Y1945D01*
X1502*
X1639Y2551D02*
X1638Y2551D01*
X1768Y2267D02*
Y2243D01*
X1837Y2174*
Y1974*
X1779Y1916*
X1780Y1661*
X2332Y1109*
X3503*
X3505Y1107*
X3537*
X3571Y1117*
X1883Y321D02*
Y410D01*
X1851Y443*
X265*
X089Y619*
Y1285*
X2076Y1786D02*
X2354D01*
X2102Y2229D02*
Y2231D01*
X2274*
X2522Y2232*
X2231Y1672D02*
X2418D01*
X2469Y1621*
X2247Y2551D02*
X2247Y2551D01*
X2354Y1786D02*
X2749D01*
X2512Y1882D02*
X2512D01*
X2511Y1883*
X2511*
Y2011*
X2428Y2095*
X2101*
X2102Y2093*
X2092Y2083*
X2083*
X2749Y1786D02*
X2775D01*
X3095Y2106*
X3572*
X3573Y2107*
X3575Y2104*
X3575*
Y2162*
X2770Y2325D02*
Y2598D01*
X2711Y2657*
X2712Y2652*
X2669Y2651*
X2825Y2077D02*
Y2136D01*
X2825*
Y2195*
X3571Y917D02*
X3687D01*
X3758Y989*
Y1205*
X3716Y1247*
X2344*
X1881Y1710*
Y1828*
X1940Y1887*
X1953*
X2009Y1942*
Y2223*
X3575Y1597D02*
Y1571D01*
X2198*
X1952Y1817*
X1950*
Y1817*
X000Y000D02*
M02*
