%FSLAX23Y23*%
%MOIN*%
%AMT28*0 Bullet Pad at angle 225*21,1,0.11811,0.19685,0,0,225*%
%ADD28T28*%
%ADD70O,0.07087X0.11811*%
%ADD147O,0.11811X0.19685*%
%ADD13R,0.15748X0.07874*%
%ADD185R,0.20000X0.10000*%
%ADD26R,0.11811X0.27559*%
%ADD187R,0.20000X0.15000*%
%ADD27R,0.70866X0.15748*%
%ADD149R,0.20000X0.20000*%
%ADD140R,0.07874X0.07874*%
%ADD18R,0.08000X0.08000*%
%ADD25C,0.04000*%
%ADD24C,0.04724*%
%ADD148C,0.06000*%
%ADD16C,0.09843*%
%ADD141C,0.10630*%
%ADD10C,0.11811*%
%ADD143C,0.15000*%
%ADD117C,0.17500*%
%ADD118C,0.20000*%
X000Y000D02*
D02*
D13*
X1796Y2551D03*
X1896D03*
X2177Y2551D03*
D02*
D16*
X1026Y2402D03*
X1341D03*
X2320Y708D03*
X2620D03*
X3029Y2380D03*
Y2695D03*
D02*
D18*
X206Y1458D03*
Y1558D03*
Y1658D03*
Y1758D03*
Y1858D03*
Y1958D03*
Y2058D03*
Y2158D03*
X206Y2480D03*
Y2580D03*
Y2680D03*
Y2780D03*
Y2880D03*
Y2980D03*
D02*
D70*
X1194Y321D03*
X1332D03*
X1470D03*
X1608D03*
X1746D03*
X1883D03*
X2021D03*
X2159D03*
X2297D03*
X2435D03*
X2572D03*
X2710D03*
D02*
D24*
X312Y1406D03*
X326Y1345D03*
X335Y2848D03*
X387Y2247D03*
X411Y2060D03*
X427Y1659D03*
X516Y1993D03*
X524Y1460D03*
X532Y1850D03*
X548Y1610D03*
X581Y2245D03*
X608Y578D03*
X618Y1818D03*
X813Y1409D03*
X834Y1621D03*
X921Y1606D03*
X963Y2227D03*
X985Y1486D03*
X1223Y2086D03*
X1235Y936D03*
X1245Y1494D03*
X1290Y1213D03*
X1305Y604D03*
X1308Y1934D03*
X1353Y1615D03*
X1359Y1767D03*
X1394Y2131D03*
X1429Y937D03*
X1502Y1344D03*
X1502Y1945D03*
X1551Y1147D03*
X1766Y1014D03*
X1840Y602D03*
X1885Y1909D03*
X1938Y2039D03*
X1950Y1817D03*
X2076Y1786D03*
X2078Y1221D03*
X2083Y2083D03*
X2102Y2229D03*
X2258Y2037D03*
X2354Y1786D03*
X2469Y1621D03*
X2512Y1882D03*
X2522Y2232D03*
X2670Y2049D03*
X2749Y1786D03*
X2770Y2325D03*
D02*
D25*
X400Y3173D03*
X1768Y2267D03*
X2009Y2223D03*
X2825Y2077D03*
X2825Y2195D03*
D02*
D26*
X2246Y2754D03*
D02*
D27*
X2565Y2814D03*
D02*
D28*
X2944Y2779D03*
D02*
D10*
X3013Y2710D03*
D02*
D117*
X253Y793D03*
X3639Y2754D03*
D02*
D118*
X1638Y2551D03*
X2038Y2551D03*
X2459Y2552D03*
D02*
D140*
X1847Y2451D03*
Y2551D03*
Y2651D03*
X2247Y2451D03*
Y2551D03*
Y2651D03*
X2669Y2451D03*
Y2551D03*
Y2651D03*
D02*
D141*
X1184Y2402D03*
X3029Y2538D03*
D02*
D143*
X710Y2128D03*
X1710D03*
D02*
D147*
X749Y3220D03*
X1049D03*
X1349D03*
X1648D03*
X1948D03*
X2248D03*
X2548D03*
X2848D03*
X3148D03*
D02*
D148*
X2231Y1672D03*
X2231Y1469D03*
X2534Y1672D03*
X2535Y1376D03*
D02*
D149*
X3575Y1962D03*
X3575Y1397D03*
D02*
D185*
X3575Y2162D03*
X3575Y1597D03*
D02*
D187*
X3571Y917D03*
Y1117D03*
X000Y000D02*
M02*
