G75*
G70*
%OFA0B0*%
%FSLAX24Y24*%
%IPPOS*%
%LPD*%
%AMOC8*
5,1,8,0,0,1.08239X$1,22.5*
%
%ADD10C,0.0000*%
%ADD11C,0.0070*%
%ADD12C,0.0060*%
%ADD13C,0.0500*%
%ADD14C,0.0050*%
%ADD15R,0.0200X0.0150*%
%ADD16C,0.0100*%
D10*
X000107Y000105D02*
X000107Y031601D01*
X039477Y031601D01*
X039477Y000105D01*
X000107Y000105D01*
D11*
X015932Y029388D02*
X015827Y029493D01*
X015827Y029913D01*
X015932Y030018D01*
X016143Y030018D01*
X016248Y029913D01*
X016248Y029493D01*
X016143Y029388D01*
X015932Y029388D01*
X016037Y029598D02*
X016248Y029388D01*
X016472Y029388D02*
X016472Y030018D01*
X016787Y030018D01*
X016892Y029913D01*
X016892Y029703D01*
X016787Y029598D01*
X016472Y029598D01*
X017116Y029598D02*
X017432Y029598D01*
X017537Y029703D01*
X017537Y029913D01*
X017432Y030018D01*
X017116Y030018D01*
X017116Y029388D01*
X017326Y029598D02*
X017537Y029388D01*
X017761Y029493D02*
X017866Y029388D01*
X018076Y029388D01*
X018181Y029493D01*
X018181Y029913D01*
X018076Y030018D01*
X017866Y030018D01*
X017761Y029913D01*
X017761Y029493D01*
X018405Y029388D02*
X018826Y030018D01*
X019050Y029808D02*
X019260Y030018D01*
X019260Y029388D01*
X019050Y029388D02*
X019470Y029388D01*
X018826Y029388D02*
X018405Y030018D01*
D12*
X018792Y029303D02*
X018790Y029259D01*
X018784Y029216D01*
X018775Y029174D01*
X018762Y029132D01*
X018745Y029092D01*
X018725Y029053D01*
X018702Y029016D01*
X018675Y028982D01*
X018646Y028949D01*
X018613Y028920D01*
X018579Y028893D01*
X018542Y028870D01*
X018503Y028850D01*
X018463Y028833D01*
X018421Y028820D01*
X018379Y028811D01*
X018336Y028805D01*
X018292Y028803D01*
X018248Y028805D01*
X018205Y028811D01*
X018163Y028820D01*
X018121Y028833D01*
X018081Y028850D01*
X018042Y028870D01*
X018005Y028893D01*
X017971Y028920D01*
X017938Y028949D01*
X017909Y028982D01*
X017882Y029016D01*
X017859Y029053D01*
X017839Y029092D01*
X017822Y029132D01*
X017809Y029174D01*
X017800Y029216D01*
X017794Y029259D01*
X017792Y029303D01*
X015692Y029303D01*
X015692Y015403D01*
X020892Y015403D01*
X020892Y029303D01*
X018792Y029303D01*
X032442Y011103D02*
X034142Y011103D01*
X034162Y011101D01*
X034180Y011095D01*
X034198Y011086D01*
X034213Y011074D01*
X034225Y011059D01*
X034234Y011041D01*
X034240Y011023D01*
X034242Y011003D01*
X034242Y009703D01*
X034240Y009683D01*
X034234Y009665D01*
X034225Y009647D01*
X034213Y009632D01*
X034198Y009620D01*
X034180Y009611D01*
X034162Y009605D01*
X034142Y009603D01*
X032442Y009603D01*
X032422Y009605D01*
X032404Y009611D01*
X032386Y009620D01*
X032371Y009632D01*
X032359Y009647D01*
X032350Y009665D01*
X032344Y009683D01*
X032342Y009703D01*
X032342Y011003D01*
X032344Y011023D01*
X032350Y011041D01*
X032359Y011059D01*
X032371Y011074D01*
X032386Y011086D01*
X032404Y011095D01*
X032422Y011101D01*
X032442Y011103D01*
X033142Y010353D02*
X033192Y010353D01*
X033392Y010353D02*
X033442Y010353D01*
X033492Y009353D02*
X034092Y009353D01*
X034112Y009351D01*
X034130Y009345D01*
X034148Y009336D01*
X034163Y009324D01*
X034175Y009309D01*
X034184Y009291D01*
X034190Y009273D01*
X034192Y009253D01*
X034192Y009103D01*
X034142Y009053D01*
X034142Y007653D01*
X034192Y007603D01*
X034192Y007453D01*
X034190Y007433D01*
X034184Y007415D01*
X034175Y007397D01*
X034163Y007382D01*
X034148Y007370D01*
X034130Y007361D01*
X034112Y007355D01*
X034092Y007353D01*
X033492Y007353D01*
X033472Y007355D01*
X033454Y007361D01*
X033436Y007370D01*
X033421Y007382D01*
X033409Y007397D01*
X033400Y007415D01*
X033394Y007433D01*
X033392Y007453D01*
X033392Y007603D01*
X033442Y007653D01*
X033442Y009053D01*
X033392Y009103D01*
X033392Y009253D01*
X033394Y009273D01*
X033400Y009291D01*
X033409Y009309D01*
X033421Y009324D01*
X033436Y009336D01*
X033454Y009345D01*
X033472Y009351D01*
X033492Y009353D01*
X028192Y008753D02*
X028192Y008603D01*
X028142Y008553D01*
X028142Y007153D01*
X028192Y007103D01*
X028192Y006953D01*
X028190Y006933D01*
X028184Y006915D01*
X028175Y006897D01*
X028163Y006882D01*
X028148Y006870D01*
X028130Y006861D01*
X028112Y006855D01*
X028092Y006853D01*
X027492Y006853D01*
X027472Y006855D01*
X027454Y006861D01*
X027436Y006870D01*
X027421Y006882D01*
X027409Y006897D01*
X027400Y006915D01*
X027394Y006933D01*
X027392Y006953D01*
X027392Y007103D01*
X027442Y007153D01*
X027442Y008553D01*
X027392Y008603D01*
X027392Y008753D01*
X027394Y008773D01*
X027400Y008791D01*
X027409Y008809D01*
X027421Y008824D01*
X027436Y008836D01*
X027454Y008845D01*
X027472Y008851D01*
X027492Y008853D01*
X028092Y008853D01*
X028112Y008851D01*
X028130Y008845D01*
X028148Y008836D01*
X028163Y008824D01*
X028175Y008809D01*
X028184Y008791D01*
X028190Y008773D01*
X028192Y008753D01*
X027742Y008703D02*
X027742Y010003D01*
X027740Y010023D01*
X027734Y010041D01*
X027725Y010059D01*
X027713Y010074D01*
X027698Y010086D01*
X027680Y010095D01*
X027662Y010101D01*
X027642Y010103D01*
X025942Y010103D01*
X025922Y010101D01*
X025904Y010095D01*
X025886Y010086D01*
X025871Y010074D01*
X025859Y010059D01*
X025850Y010041D01*
X025844Y010023D01*
X025842Y010003D01*
X025842Y008703D01*
X025844Y008683D01*
X025850Y008665D01*
X025859Y008647D01*
X025871Y008632D01*
X025886Y008620D01*
X025904Y008611D01*
X025922Y008605D01*
X025942Y008603D01*
X027642Y008603D01*
X027662Y008605D01*
X027680Y008611D01*
X027698Y008620D01*
X027713Y008632D01*
X027725Y008647D01*
X027734Y008665D01*
X027740Y008683D01*
X027742Y008703D01*
X026942Y009353D02*
X026892Y009353D01*
X026692Y009353D02*
X026642Y009353D01*
X022192Y008753D02*
X022192Y008603D01*
X022142Y008553D01*
X022142Y007153D01*
X022192Y007103D01*
X022192Y006953D01*
X022190Y006933D01*
X022184Y006915D01*
X022175Y006897D01*
X022163Y006882D01*
X022148Y006870D01*
X022130Y006861D01*
X022112Y006855D01*
X022092Y006853D01*
X021492Y006853D01*
X021472Y006855D01*
X021454Y006861D01*
X021436Y006870D01*
X021421Y006882D01*
X021409Y006897D01*
X021400Y006915D01*
X021394Y006933D01*
X021392Y006953D01*
X021392Y007103D01*
X021442Y007153D01*
X021442Y008553D01*
X021392Y008603D01*
X021392Y008753D01*
X021394Y008773D01*
X021400Y008791D01*
X021409Y008809D01*
X021421Y008824D01*
X021436Y008836D01*
X021454Y008845D01*
X021472Y008851D01*
X021492Y008853D01*
X022092Y008853D01*
X022112Y008851D01*
X022130Y008845D01*
X022148Y008836D01*
X022163Y008824D01*
X022175Y008809D01*
X022184Y008791D01*
X022190Y008773D01*
X022192Y008753D01*
X021742Y008703D02*
X021742Y010003D01*
X021740Y010023D01*
X021734Y010041D01*
X021725Y010059D01*
X021713Y010074D01*
X021698Y010086D01*
X021680Y010095D01*
X021662Y010101D01*
X021642Y010103D01*
X019942Y010103D01*
X019922Y010101D01*
X019904Y010095D01*
X019886Y010086D01*
X019871Y010074D01*
X019859Y010059D01*
X019850Y010041D01*
X019844Y010023D01*
X019842Y010003D01*
X019842Y008703D01*
X019844Y008683D01*
X019850Y008665D01*
X019859Y008647D01*
X019871Y008632D01*
X019886Y008620D01*
X019904Y008611D01*
X019922Y008605D01*
X019942Y008603D01*
X021642Y008603D01*
X021662Y008605D01*
X021680Y008611D01*
X021698Y008620D01*
X021713Y008632D01*
X021725Y008647D01*
X021734Y008665D01*
X021740Y008683D01*
X021742Y008703D01*
X020942Y009353D02*
X020892Y009353D01*
X020692Y009353D02*
X020642Y009353D01*
X016192Y008753D02*
X016192Y008603D01*
X016142Y008553D01*
X016142Y007153D01*
X016192Y007103D01*
X016192Y006953D01*
X016190Y006933D01*
X016184Y006915D01*
X016175Y006897D01*
X016163Y006882D01*
X016148Y006870D01*
X016130Y006861D01*
X016112Y006855D01*
X016092Y006853D01*
X015492Y006853D01*
X015472Y006855D01*
X015454Y006861D01*
X015436Y006870D01*
X015421Y006882D01*
X015409Y006897D01*
X015400Y006915D01*
X015394Y006933D01*
X015392Y006953D01*
X015392Y007103D01*
X015442Y007153D01*
X015442Y008553D01*
X015392Y008603D01*
X015392Y008753D01*
X015394Y008773D01*
X015400Y008791D01*
X015409Y008809D01*
X015421Y008824D01*
X015436Y008836D01*
X015454Y008845D01*
X015472Y008851D01*
X015492Y008853D01*
X016092Y008853D01*
X016112Y008851D01*
X016130Y008845D01*
X016148Y008836D01*
X016163Y008824D01*
X016175Y008809D01*
X016184Y008791D01*
X016190Y008773D01*
X016192Y008753D01*
X015742Y008703D02*
X015742Y010003D01*
X015740Y010023D01*
X015734Y010041D01*
X015725Y010059D01*
X015713Y010074D01*
X015698Y010086D01*
X015680Y010095D01*
X015662Y010101D01*
X015642Y010103D01*
X013942Y010103D01*
X013922Y010101D01*
X013904Y010095D01*
X013886Y010086D01*
X013871Y010074D01*
X013859Y010059D01*
X013850Y010041D01*
X013844Y010023D01*
X013842Y010003D01*
X013842Y008703D01*
X013844Y008683D01*
X013850Y008665D01*
X013859Y008647D01*
X013871Y008632D01*
X013886Y008620D01*
X013904Y008611D01*
X013922Y008605D01*
X013942Y008603D01*
X015642Y008603D01*
X015662Y008605D01*
X015680Y008611D01*
X015698Y008620D01*
X015713Y008632D01*
X015725Y008647D01*
X015734Y008665D01*
X015740Y008683D01*
X015742Y008703D01*
X014942Y009353D02*
X014892Y009353D01*
X014692Y009353D02*
X014642Y009353D01*
X011742Y010003D02*
X011742Y008703D01*
X011740Y008683D01*
X011734Y008665D01*
X011725Y008647D01*
X011713Y008632D01*
X011698Y008620D01*
X011680Y008611D01*
X011662Y008605D01*
X011642Y008603D01*
X009942Y008603D01*
X009922Y008605D01*
X009904Y008611D01*
X009886Y008620D01*
X009871Y008632D01*
X009859Y008647D01*
X009850Y008665D01*
X009844Y008683D01*
X009842Y008703D01*
X009842Y010003D01*
X009844Y010023D01*
X009850Y010041D01*
X009859Y010059D01*
X009871Y010074D01*
X009886Y010086D01*
X009904Y010095D01*
X009922Y010101D01*
X009942Y010103D01*
X011642Y010103D01*
X011662Y010101D01*
X011680Y010095D01*
X011698Y010086D01*
X011713Y010074D01*
X011725Y010059D01*
X011734Y010041D01*
X011740Y010023D01*
X011742Y010003D01*
X010942Y009353D02*
X010892Y009353D01*
X010692Y009353D02*
X010642Y009353D01*
X010092Y008853D02*
X009492Y008853D01*
X009472Y008851D01*
X009454Y008845D01*
X009436Y008836D01*
X009421Y008824D01*
X009409Y008809D01*
X009400Y008791D01*
X009394Y008773D01*
X009392Y008753D01*
X009392Y008603D01*
X009442Y008553D01*
X009442Y007153D01*
X009392Y007103D01*
X009392Y006953D01*
X009394Y006933D01*
X009400Y006915D01*
X009409Y006897D01*
X009421Y006882D01*
X009436Y006870D01*
X009454Y006861D01*
X009472Y006855D01*
X009492Y006853D01*
X010092Y006853D01*
X010112Y006855D01*
X010130Y006861D01*
X010148Y006870D01*
X010163Y006882D01*
X010175Y006897D01*
X010184Y006915D01*
X010190Y006933D01*
X010192Y006953D01*
X010192Y007103D01*
X010142Y007153D01*
X010142Y008553D01*
X010192Y008603D01*
X010192Y008753D01*
X010190Y008773D01*
X010184Y008791D01*
X010175Y008809D01*
X010163Y008824D01*
X010148Y008836D01*
X010130Y008845D01*
X010112Y008851D01*
X010092Y008853D01*
X005742Y008703D02*
X005742Y010003D01*
X005740Y010023D01*
X005734Y010041D01*
X005725Y010059D01*
X005713Y010074D01*
X005698Y010086D01*
X005680Y010095D01*
X005662Y010101D01*
X005642Y010103D01*
X003942Y010103D01*
X003922Y010101D01*
X003904Y010095D01*
X003886Y010086D01*
X003871Y010074D01*
X003859Y010059D01*
X003850Y010041D01*
X003844Y010023D01*
X003842Y010003D01*
X003842Y008703D01*
X003844Y008683D01*
X003850Y008665D01*
X003859Y008647D01*
X003871Y008632D01*
X003886Y008620D01*
X003904Y008611D01*
X003922Y008605D01*
X003942Y008603D01*
X005642Y008603D01*
X005662Y008605D01*
X005680Y008611D01*
X005698Y008620D01*
X005713Y008632D01*
X005725Y008647D01*
X005734Y008665D01*
X005740Y008683D01*
X005742Y008703D01*
X004942Y009353D02*
X004892Y009353D01*
X004692Y009353D02*
X004642Y009353D01*
X004092Y008853D02*
X003492Y008853D01*
X003472Y008851D01*
X003454Y008845D01*
X003436Y008836D01*
X003421Y008824D01*
X003409Y008809D01*
X003400Y008791D01*
X003394Y008773D01*
X003392Y008753D01*
X003392Y008603D01*
X003442Y008553D01*
X003442Y007153D01*
X003392Y007103D01*
X003392Y006953D01*
X003394Y006933D01*
X003400Y006915D01*
X003409Y006897D01*
X003421Y006882D01*
X003436Y006870D01*
X003454Y006861D01*
X003472Y006855D01*
X003492Y006853D01*
X004092Y006853D01*
X004112Y006855D01*
X004130Y006861D01*
X004148Y006870D01*
X004163Y006882D01*
X004175Y006897D01*
X004184Y006915D01*
X004190Y006933D01*
X004192Y006953D01*
X004192Y007103D01*
X004142Y007153D01*
X004142Y008553D01*
X004192Y008603D01*
X004192Y008753D01*
X004190Y008773D01*
X004184Y008791D01*
X004175Y008809D01*
X004163Y008824D01*
X004148Y008836D01*
X004130Y008845D01*
X004112Y008851D01*
X004092Y008853D01*
D13*
X001556Y003353D02*
X001565Y003556D01*
X001593Y003758D01*
X001639Y003956D01*
X001703Y004150D01*
X001784Y004336D01*
X001882Y004515D01*
X001995Y004684D01*
X002124Y004842D01*
X002266Y004987D01*
X002421Y005119D01*
X002587Y005237D01*
X002763Y005338D01*
X002948Y005424D01*
X003140Y005492D01*
X003337Y005542D01*
X003538Y005575D01*
X003741Y005588D01*
X003945Y005584D01*
X004147Y005561D01*
X004346Y005519D01*
X004541Y005460D01*
X004729Y005383D01*
X004910Y005289D01*
X005081Y005180D01*
X005242Y005055D01*
X005391Y004916D01*
X005526Y004764D01*
X005648Y004601D01*
X005753Y004427D01*
X005843Y004244D01*
X005915Y004054D01*
X005970Y003858D01*
X006007Y003657D01*
X006026Y003455D01*
X006026Y003251D01*
X006007Y003049D01*
X005970Y002848D01*
X005915Y002652D01*
X005843Y002462D01*
X005753Y002279D01*
X005648Y002105D01*
X005526Y001942D01*
X005391Y001790D01*
X005242Y001651D01*
X005081Y001526D01*
X004910Y001417D01*
X004729Y001323D01*
X004541Y001246D01*
X004346Y001187D01*
X004147Y001145D01*
X003945Y001122D01*
X003741Y001118D01*
X003538Y001131D01*
X003337Y001164D01*
X003140Y001214D01*
X002948Y001282D01*
X002763Y001368D01*
X002587Y001469D01*
X002421Y001587D01*
X002266Y001719D01*
X002124Y001864D01*
X001995Y002022D01*
X001882Y002191D01*
X001784Y002370D01*
X001703Y002556D01*
X001639Y002750D01*
X001593Y002948D01*
X001565Y003150D01*
X001556Y003353D01*
X007556Y003353D02*
X007565Y003556D01*
X007593Y003758D01*
X007639Y003956D01*
X007703Y004150D01*
X007784Y004336D01*
X007882Y004515D01*
X007995Y004684D01*
X008124Y004842D01*
X008266Y004987D01*
X008421Y005119D01*
X008587Y005237D01*
X008763Y005338D01*
X008948Y005424D01*
X009140Y005492D01*
X009337Y005542D01*
X009538Y005575D01*
X009741Y005588D01*
X009945Y005584D01*
X010147Y005561D01*
X010346Y005519D01*
X010541Y005460D01*
X010729Y005383D01*
X010910Y005289D01*
X011081Y005180D01*
X011242Y005055D01*
X011391Y004916D01*
X011526Y004764D01*
X011648Y004601D01*
X011753Y004427D01*
X011843Y004244D01*
X011915Y004054D01*
X011970Y003858D01*
X012007Y003657D01*
X012026Y003455D01*
X012026Y003251D01*
X012007Y003049D01*
X011970Y002848D01*
X011915Y002652D01*
X011843Y002462D01*
X011753Y002279D01*
X011648Y002105D01*
X011526Y001942D01*
X011391Y001790D01*
X011242Y001651D01*
X011081Y001526D01*
X010910Y001417D01*
X010729Y001323D01*
X010541Y001246D01*
X010346Y001187D01*
X010147Y001145D01*
X009945Y001122D01*
X009741Y001118D01*
X009538Y001131D01*
X009337Y001164D01*
X009140Y001214D01*
X008948Y001282D01*
X008763Y001368D01*
X008587Y001469D01*
X008421Y001587D01*
X008266Y001719D01*
X008124Y001864D01*
X007995Y002022D01*
X007882Y002191D01*
X007784Y002370D01*
X007703Y002556D01*
X007639Y002750D01*
X007593Y002948D01*
X007565Y003150D01*
X007556Y003353D01*
X013556Y003353D02*
X013565Y003556D01*
X013593Y003758D01*
X013639Y003956D01*
X013703Y004150D01*
X013784Y004336D01*
X013882Y004515D01*
X013995Y004684D01*
X014124Y004842D01*
X014266Y004987D01*
X014421Y005119D01*
X014587Y005237D01*
X014763Y005338D01*
X014948Y005424D01*
X015140Y005492D01*
X015337Y005542D01*
X015538Y005575D01*
X015741Y005588D01*
X015945Y005584D01*
X016147Y005561D01*
X016346Y005519D01*
X016541Y005460D01*
X016729Y005383D01*
X016910Y005289D01*
X017081Y005180D01*
X017242Y005055D01*
X017391Y004916D01*
X017526Y004764D01*
X017648Y004601D01*
X017753Y004427D01*
X017843Y004244D01*
X017915Y004054D01*
X017970Y003858D01*
X018007Y003657D01*
X018026Y003455D01*
X018026Y003251D01*
X018007Y003049D01*
X017970Y002848D01*
X017915Y002652D01*
X017843Y002462D01*
X017753Y002279D01*
X017648Y002105D01*
X017526Y001942D01*
X017391Y001790D01*
X017242Y001651D01*
X017081Y001526D01*
X016910Y001417D01*
X016729Y001323D01*
X016541Y001246D01*
X016346Y001187D01*
X016147Y001145D01*
X015945Y001122D01*
X015741Y001118D01*
X015538Y001131D01*
X015337Y001164D01*
X015140Y001214D01*
X014948Y001282D01*
X014763Y001368D01*
X014587Y001469D01*
X014421Y001587D01*
X014266Y001719D01*
X014124Y001864D01*
X013995Y002022D01*
X013882Y002191D01*
X013784Y002370D01*
X013703Y002556D01*
X013639Y002750D01*
X013593Y002948D01*
X013565Y003150D01*
X013556Y003353D01*
X019556Y003353D02*
X019565Y003556D01*
X019593Y003758D01*
X019639Y003956D01*
X019703Y004150D01*
X019784Y004336D01*
X019882Y004515D01*
X019995Y004684D01*
X020124Y004842D01*
X020266Y004987D01*
X020421Y005119D01*
X020587Y005237D01*
X020763Y005338D01*
X020948Y005424D01*
X021140Y005492D01*
X021337Y005542D01*
X021538Y005575D01*
X021741Y005588D01*
X021945Y005584D01*
X022147Y005561D01*
X022346Y005519D01*
X022541Y005460D01*
X022729Y005383D01*
X022910Y005289D01*
X023081Y005180D01*
X023242Y005055D01*
X023391Y004916D01*
X023526Y004764D01*
X023648Y004601D01*
X023753Y004427D01*
X023843Y004244D01*
X023915Y004054D01*
X023970Y003858D01*
X024007Y003657D01*
X024026Y003455D01*
X024026Y003251D01*
X024007Y003049D01*
X023970Y002848D01*
X023915Y002652D01*
X023843Y002462D01*
X023753Y002279D01*
X023648Y002105D01*
X023526Y001942D01*
X023391Y001790D01*
X023242Y001651D01*
X023081Y001526D01*
X022910Y001417D01*
X022729Y001323D01*
X022541Y001246D01*
X022346Y001187D01*
X022147Y001145D01*
X021945Y001122D01*
X021741Y001118D01*
X021538Y001131D01*
X021337Y001164D01*
X021140Y001214D01*
X020948Y001282D01*
X020763Y001368D01*
X020587Y001469D01*
X020421Y001587D01*
X020266Y001719D01*
X020124Y001864D01*
X019995Y002022D01*
X019882Y002191D01*
X019784Y002370D01*
X019703Y002556D01*
X019639Y002750D01*
X019593Y002948D01*
X019565Y003150D01*
X019556Y003353D01*
X025556Y003353D02*
X025565Y003556D01*
X025593Y003758D01*
X025639Y003956D01*
X025703Y004150D01*
X025784Y004336D01*
X025882Y004515D01*
X025995Y004684D01*
X026124Y004842D01*
X026266Y004987D01*
X026421Y005119D01*
X026587Y005237D01*
X026763Y005338D01*
X026948Y005424D01*
X027140Y005492D01*
X027337Y005542D01*
X027538Y005575D01*
X027741Y005588D01*
X027945Y005584D01*
X028147Y005561D01*
X028346Y005519D01*
X028541Y005460D01*
X028729Y005383D01*
X028910Y005289D01*
X029081Y005180D01*
X029242Y005055D01*
X029391Y004916D01*
X029526Y004764D01*
X029648Y004601D01*
X029753Y004427D01*
X029843Y004244D01*
X029915Y004054D01*
X029970Y003858D01*
X030007Y003657D01*
X030026Y003455D01*
X030026Y003251D01*
X030007Y003049D01*
X029970Y002848D01*
X029915Y002652D01*
X029843Y002462D01*
X029753Y002279D01*
X029648Y002105D01*
X029526Y001942D01*
X029391Y001790D01*
X029242Y001651D01*
X029081Y001526D01*
X028910Y001417D01*
X028729Y001323D01*
X028541Y001246D01*
X028346Y001187D01*
X028147Y001145D01*
X027945Y001122D01*
X027741Y001118D01*
X027538Y001131D01*
X027337Y001164D01*
X027140Y001214D01*
X026948Y001282D01*
X026763Y001368D01*
X026587Y001469D01*
X026421Y001587D01*
X026266Y001719D01*
X026124Y001864D01*
X025995Y002022D01*
X025882Y002191D01*
X025784Y002370D01*
X025703Y002556D01*
X025639Y002750D01*
X025593Y002948D01*
X025565Y003150D01*
X025556Y003353D01*
X031556Y003353D02*
X031565Y003556D01*
X031593Y003758D01*
X031639Y003956D01*
X031703Y004150D01*
X031784Y004336D01*
X031882Y004515D01*
X031995Y004684D01*
X032124Y004842D01*
X032266Y004987D01*
X032421Y005119D01*
X032587Y005237D01*
X032763Y005338D01*
X032948Y005424D01*
X033140Y005492D01*
X033337Y005542D01*
X033538Y005575D01*
X033741Y005588D01*
X033945Y005584D01*
X034147Y005561D01*
X034346Y005519D01*
X034541Y005460D01*
X034729Y005383D01*
X034910Y005289D01*
X035081Y005180D01*
X035242Y005055D01*
X035391Y004916D01*
X035526Y004764D01*
X035648Y004601D01*
X035753Y004427D01*
X035843Y004244D01*
X035915Y004054D01*
X035970Y003858D01*
X036007Y003657D01*
X036026Y003455D01*
X036026Y003251D01*
X036007Y003049D01*
X035970Y002848D01*
X035915Y002652D01*
X035843Y002462D01*
X035753Y002279D01*
X035648Y002105D01*
X035526Y001942D01*
X035391Y001790D01*
X035242Y001651D01*
X035081Y001526D01*
X034910Y001417D01*
X034729Y001323D01*
X034541Y001246D01*
X034346Y001187D01*
X034147Y001145D01*
X033945Y001122D01*
X033741Y001118D01*
X033538Y001131D01*
X033337Y001164D01*
X033140Y001214D01*
X032948Y001282D01*
X032763Y001368D01*
X032587Y001469D01*
X032421Y001587D01*
X032266Y001719D01*
X032124Y001864D01*
X031995Y002022D01*
X031882Y002191D01*
X031784Y002370D01*
X031703Y002556D01*
X031639Y002750D01*
X031593Y002948D01*
X031565Y003150D01*
X031556Y003353D01*
D14*
X027257Y006878D02*
X026917Y006878D01*
X026917Y007048D01*
X026974Y007105D01*
X027087Y007105D01*
X027144Y007048D01*
X027144Y006878D01*
X027144Y006991D02*
X027257Y007105D01*
X027201Y007237D02*
X027257Y007294D01*
X027257Y007407D01*
X027201Y007464D01*
X027087Y007464D01*
X027030Y007407D01*
X027030Y007350D01*
X027087Y007237D01*
X026917Y007237D01*
X026917Y007464D01*
X026603Y010228D02*
X026453Y010228D01*
X026378Y010303D01*
X026378Y010453D02*
X026528Y010528D01*
X026603Y010528D01*
X026678Y010453D01*
X026678Y010303D01*
X026603Y010228D01*
X026378Y010453D02*
X026378Y010678D01*
X026678Y010678D01*
X026218Y010603D02*
X026142Y010678D01*
X025992Y010678D01*
X025917Y010603D01*
X025917Y010303D01*
X025992Y010228D01*
X026142Y010228D01*
X026218Y010303D01*
X021482Y008478D02*
X021482Y008028D01*
X021557Y008253D02*
X021257Y008253D01*
X021482Y008478D01*
X021097Y008403D02*
X021022Y008478D01*
X020872Y008478D01*
X020797Y008403D01*
X020797Y008103D01*
X020872Y008028D01*
X021022Y008028D01*
X021097Y008103D01*
X021087Y007464D02*
X021087Y007237D01*
X020917Y007407D01*
X021257Y007407D01*
X021257Y007105D02*
X021144Y006991D01*
X021144Y007048D02*
X021144Y006878D01*
X021257Y006878D02*
X020917Y006878D01*
X020917Y007048D01*
X020974Y007105D01*
X021087Y007105D01*
X021144Y007048D01*
X015257Y007105D02*
X015144Y006991D01*
X015144Y007048D02*
X015144Y006878D01*
X015257Y006878D02*
X014917Y006878D01*
X014917Y007048D01*
X014974Y007105D01*
X015087Y007105D01*
X015144Y007048D01*
X015201Y007237D02*
X015257Y007294D01*
X015257Y007407D01*
X015201Y007464D01*
X015144Y007464D01*
X015087Y007407D01*
X015087Y007350D01*
X015087Y007407D02*
X015030Y007464D01*
X014974Y007464D01*
X014917Y007407D01*
X014917Y007294D01*
X014974Y007237D01*
X014603Y010228D02*
X014453Y010228D01*
X014378Y010303D01*
X014218Y010303D02*
X014142Y010228D01*
X013992Y010228D01*
X013917Y010303D01*
X013917Y010603D01*
X013992Y010678D01*
X014142Y010678D01*
X014218Y010603D01*
X014378Y010603D02*
X014453Y010678D01*
X014603Y010678D01*
X014678Y010603D01*
X014678Y010528D01*
X014603Y010453D01*
X014678Y010378D01*
X014678Y010303D01*
X014603Y010228D01*
X014603Y010453D02*
X014528Y010453D01*
X010678Y010528D02*
X010378Y010228D01*
X010678Y010228D01*
X010678Y010528D02*
X010678Y010603D01*
X010603Y010678D01*
X010453Y010678D01*
X010378Y010603D01*
X010218Y010603D02*
X010142Y010678D01*
X009992Y010678D01*
X009917Y010603D01*
X009917Y010303D01*
X009992Y010228D01*
X010142Y010228D01*
X010218Y010303D01*
X009257Y007464D02*
X009257Y007237D01*
X009030Y007464D01*
X008974Y007464D01*
X008917Y007407D01*
X008917Y007294D01*
X008974Y007237D01*
X008974Y007105D02*
X009087Y007105D01*
X009144Y007048D01*
X009144Y006878D01*
X009144Y006991D02*
X009257Y007105D01*
X009257Y006878D02*
X008917Y006878D01*
X008917Y007048D01*
X008974Y007105D01*
X004678Y010228D02*
X004378Y010228D01*
X004528Y010228D02*
X004528Y010678D01*
X004378Y010528D01*
X004218Y010603D02*
X004142Y010678D01*
X003992Y010678D01*
X003917Y010603D01*
X003917Y010303D01*
X003992Y010228D01*
X004142Y010228D01*
X004218Y010303D01*
X003257Y007464D02*
X003257Y007237D01*
X003257Y007350D02*
X002917Y007350D01*
X003030Y007237D01*
X002974Y007105D02*
X003087Y007105D01*
X003144Y007048D01*
X003144Y006878D01*
X003144Y006991D02*
X003257Y007105D01*
X003257Y006878D02*
X002917Y006878D01*
X002917Y007048D01*
X002974Y007105D01*
X032917Y007378D02*
X032917Y007548D01*
X032974Y007605D01*
X033087Y007605D01*
X033144Y007548D01*
X033144Y007378D01*
X033144Y007491D02*
X033257Y007605D01*
X033201Y007737D02*
X033257Y007794D01*
X033257Y007907D01*
X033201Y007964D01*
X033144Y007964D01*
X033087Y007907D01*
X033087Y007737D01*
X033201Y007737D01*
X033087Y007737D02*
X032974Y007850D01*
X032917Y007964D01*
X032917Y007378D02*
X033257Y007378D01*
X033372Y009028D02*
X033522Y009028D01*
X033597Y009103D01*
X033757Y009103D02*
X033757Y009253D01*
X033982Y009253D01*
X034057Y009178D01*
X034057Y009103D01*
X033982Y009028D01*
X033832Y009028D01*
X033757Y009103D01*
X033757Y009253D02*
X033907Y009403D01*
X034057Y009478D01*
X033597Y009403D02*
X033522Y009478D01*
X033372Y009478D01*
X033297Y009403D01*
X033297Y009103D01*
X033372Y009028D01*
D15*
X033792Y009428D03*
X033792Y007278D03*
X027792Y006778D03*
X027792Y008928D03*
X021792Y008928D03*
X021792Y006778D03*
X015792Y006778D03*
X015792Y008928D03*
X009792Y008928D03*
X009792Y006778D03*
X003792Y006778D03*
X003792Y008928D03*
D16*
X004692Y009053D02*
X004692Y009353D01*
X004692Y009653D01*
X004892Y009653D02*
X004892Y009353D01*
X004892Y009053D01*
X010692Y009053D02*
X010692Y009353D01*
X010692Y009653D01*
X010892Y009653D02*
X010892Y009353D01*
X010892Y009053D01*
X014692Y009053D02*
X014692Y009353D01*
X014692Y009653D01*
X014892Y009653D02*
X014892Y009353D01*
X014892Y009053D01*
X020692Y009053D02*
X020692Y009353D01*
X020692Y009653D01*
X020892Y009653D02*
X020892Y009353D01*
X020892Y009053D01*
X026692Y009053D02*
X026692Y009353D01*
X026692Y009653D01*
X026892Y009653D02*
X026892Y009353D01*
X026892Y009053D01*
X033192Y010053D02*
X033192Y010353D01*
X033192Y010653D01*
X033392Y010653D02*
X033392Y010353D01*
X033392Y010053D01*
M02*
