%FSLAX23Y23*%
%MOIN*%
%ADD10C,0.00500*%
X000Y000D02*
D02*
D10*
X003Y662D02*
Y052D01*
X515*
Y662*
X003*
Y1937D02*
Y1327D01*
X515*
Y1937*
X003*
X003Y1982D02*
X5383D01*
Y007*
X4398*
Y1853*
X4273*
Y003*
X3283*
Y1853*
X3168*
Y003*
X2188*
Y1857*
X2088*
Y003*
X1103*
Y1857*
X988*
Y003*
X003*
Y1982*
X083Y838D02*
Y938D01*
X183*
Y838*
X083*
Y938D02*
Y1038D01*
X183*
Y938*
X083*
Y1038D02*
Y1138D01*
X183*
Y1038*
X083*
X098Y838D02*
X082Y839D01*
X067Y843*
X053Y850*
X040Y859*
X029Y870*
X020Y882*
X013Y897*
X009Y912*
X008Y927*
Y1048*
X009Y1063*
X013Y1078*
X020Y1093*
X029Y1105*
X040Y1116*
X053Y1125*
X067Y1132*
X082Y1136*
X098Y1138*
X559Y1373D02*
X556Y1370D01*
X550Y1367*
X540*
X534Y1370*
X531Y1373*
X528Y1379*
Y1392*
X531Y1398*
X534Y1401*
X540Y1404*
X550*
X556Y1401*
X559Y1398*
X578Y1379D02*
Y1392D01*
X581Y1398*
X584Y1401*
X590Y1404*
X597*
X603Y1401*
X606Y1398*
X609Y1392*
Y1379*
X606Y1373*
X603Y1370*
X597Y1367*
X590*
X584Y1370*
X581Y1373*
X578Y1379*
X628Y1367D02*
Y1404D01*
X659Y1367*
Y1404*
X678Y1367D02*
Y1404D01*
X709Y1367*
Y1404*
X734Y1367D02*
X747D01*
X740D02*
Y1404D01*
X734Y1398*
X536Y763D02*
Y726D01*
X505Y763*
Y726*
X455Y757D02*
X458Y760D01*
X464Y763*
X473*
X480Y760*
X483Y757*
X486Y751*
Y738*
X483Y732*
X480Y729*
X473Y726*
X464*
X458Y729*
X455Y732*
X548Y1276D02*
Y1238D01*
X517Y1276*
Y1238*
X498Y1263D02*
Y1251D01*
X495Y1244*
X492Y1241*
X486Y1238*
X480*
X473Y1241*
X470Y1244*
X467Y1251*
Y1263*
X470Y1269*
X473Y1273*
X480Y1276*
X486*
X492Y1273*
X495Y1269*
X498Y1263*
X594Y088D02*
X591Y085D01*
X585Y082*
X575*
X569Y085*
X566Y088*
X563Y094*
Y107*
X566Y113*
X569Y116*
X575Y119*
X585*
X591Y116*
X594Y113*
X613Y094D02*
Y107D01*
X616Y113*
X619Y116*
X625Y119*
X632*
X638Y116*
X641Y113*
X644Y107*
Y094*
X641Y088*
X638Y085*
X632Y082*
X625*
X619Y085*
X616Y088*
X613Y094*
X663Y082D02*
Y119D01*
X694Y082*
Y119*
X713Y082D02*
Y119D01*
X744Y082*
Y119*
X788Y082D02*
X763D01*
X785Y104*
X788Y110*
X785Y116*
X778Y119*
X769*
X763Y116*
X603Y621D02*
X606Y615D01*
X612Y612*
X625*
X631Y615*
X634Y621*
X631Y627*
X625Y631*
X612*
X606Y634*
X603Y640*
X606Y646*
X612Y649*
X625*
X631Y646*
X634Y640*
X653Y649D02*
X656Y612D01*
X668Y631*
X681Y612*
X684Y649*
X709Y612D02*
X722D01*
X715D02*
Y649D01*
X709Y643*
X637Y658D02*
X669Y660D01*
X701Y664*
X733Y672*
X763Y682*
X792Y696*
X820Y712*
X847Y731*
X871Y752*
X893Y775*
X913Y800*
X931Y828*
X946Y856*
X958Y886*
X967Y917*
X973Y949*
X976Y981*
X976Y1013*
X973Y1046*
X967Y1077*
X958Y1108*
X946Y1138*
X931Y1167*
X913Y1194*
X893Y1219*
X871Y1243*
X847Y1264*
X820Y1283*
X793Y1299*
X763Y1312*
X733Y1323*
X701Y1330*
X669Y1335*
X637Y1337*
X605Y1335*
X573Y1331*
X541Y1323*
X511Y1312*
X482Y1299*
X454Y1283*
X427Y1264*
X403Y1243*
X381Y1220*
X361Y1194*
X343Y1167*
X328Y1138*
X316Y1108*
X307Y1077*
X301Y1046*
X298Y1014*
X298Y981*
X301Y949*
X307Y917*
X316Y886*
X328Y856*
X343Y828*
X361Y801*
X380Y775*
X403Y752*
X427Y731*
X453Y712*
X481Y696*
X511Y682*
X541Y672*
X573Y664*
X605Y660*
X637Y658*
X698Y998D02*
Y1028D01*
X673*
X658D02*
Y998D01*
X633*
X638Y1013D02*
X658D01*
Y1028D02*
X633D01*
X618D02*
Y998D01*
X603*
X598Y1000*
X596Y1002*
X593Y1008*
Y1018*
X596Y1023*
X598Y1025*
X603Y1028*
X618*
X578Y1025D02*
X573Y1028D01*
X563*
X558Y1025*
Y1020*
X563Y1018*
X573*
X578Y1015*
Y1010*
X573Y1008*
X563*
X558Y1010*
X798Y1276D02*
Y1238D01*
X767Y1276*
Y1238*
X717Y1269D02*
X720Y1273D01*
X727Y1276*
X736*
X742Y1273*
X745Y1269*
X748Y1263*
Y1251*
X745Y1244*
X742Y1241*
X736Y1238*
X727*
X720Y1241*
X717Y1244*
X811Y763D02*
Y726D01*
X780Y763*
Y726*
X761Y751D02*
Y738D01*
X758Y732*
X755Y729*
X748Y726*
X742*
X736Y729*
X733Y732*
X730Y738*
Y751*
X733Y757*
X736Y760*
X742Y763*
X748*
X755Y760*
X758Y757*
X761Y751*
X1103Y662D02*
Y052D01*
X1615*
Y662*
X1103*
Y1937D02*
Y1327D01*
X1615*
Y1937*
X1103*
X1183Y838D02*
Y938D01*
X1283*
Y838*
X1183*
Y938D02*
Y1038D01*
X1283*
Y938*
X1183*
Y1038D02*
Y1138D01*
X1283*
Y1038*
X1183*
X1198Y838D02*
X1182Y839D01*
X1167Y843*
X1153Y850*
X1140Y859*
X1129Y870*
X1120Y882*
X1113Y897*
X1109Y912*
X1108Y927*
Y1048*
X1109Y1063*
X1113Y1078*
X1120Y1093*
X1129Y1105*
X1140Y1116*
X1153Y1125*
X1167Y1132*
X1182Y1136*
X1198Y1138*
X1659Y1373D02*
X1656Y1370D01*
X1650Y1367*
X1640*
X1634Y1370*
X1631Y1373*
X1628Y1379*
Y1392*
X1631Y1398*
X1634Y1401*
X1640Y1404*
X1650*
X1656Y1401*
X1659Y1398*
X1678Y1379D02*
Y1392D01*
X1681Y1398*
X1684Y1401*
X1690Y1404*
X1697*
X1703Y1401*
X1706Y1398*
X1709Y1392*
Y1379*
X1706Y1373*
X1703Y1370*
X1697Y1367*
X1690*
X1684Y1370*
X1681Y1373*
X1678Y1379*
X1728Y1367D02*
Y1404D01*
X1759Y1367*
Y1404*
X1778Y1367D02*
Y1404D01*
X1809Y1367*
Y1404*
X1831Y1370D02*
X1837Y1367D01*
X1843*
X1850Y1370*
X1853Y1376*
X1850Y1383*
X1843Y1386*
X1837*
X1843D02*
X1850Y1389D01*
X1853Y1395*
X1850Y1401*
X1843Y1404*
X1837*
X1831Y1401*
X1636Y763D02*
Y726D01*
X1605Y763*
Y726*
X1555Y757D02*
X1558Y760D01*
X1564Y763*
X1573*
X1580Y760*
X1583Y757*
X1586Y751*
Y738*
X1583Y732*
X1580Y729*
X1573Y726*
X1564*
X1558Y729*
X1555Y732*
X1648Y1276D02*
Y1238D01*
X1617Y1276*
Y1238*
X1598Y1263D02*
Y1251D01*
X1595Y1244*
X1592Y1241*
X1586Y1238*
X1580*
X1573Y1241*
X1570Y1244*
X1567Y1251*
Y1263*
X1570Y1269*
X1573Y1273*
X1580Y1276*
X1586*
X1592Y1273*
X1595Y1269*
X1598Y1263*
X1694Y088D02*
X1691Y085D01*
X1685Y082*
X1675*
X1669Y085*
X1666Y088*
X1663Y094*
Y107*
X1666Y113*
X1669Y116*
X1675Y119*
X1685*
X1691Y116*
X1694Y113*
X1713Y094D02*
Y107D01*
X1716Y113*
X1719Y116*
X1725Y119*
X1732*
X1738Y116*
X1741Y113*
X1744Y107*
Y094*
X1741Y088*
X1738Y085*
X1732Y082*
X1725*
X1719Y085*
X1716Y088*
X1713Y094*
X1763Y082D02*
Y119D01*
X1794Y082*
Y119*
X1813Y082D02*
Y119D01*
X1844Y082*
Y119*
X1878Y082D02*
Y119D01*
X1863Y094*
X1888*
X1703Y621D02*
X1706Y615D01*
X1712Y612*
X1725*
X1731Y615*
X1734Y621*
X1731Y627*
X1725Y631*
X1712*
X1706Y634*
X1703Y640*
X1706Y646*
X1712Y649*
X1725*
X1731Y646*
X1734Y640*
X1753Y649D02*
X1756Y612D01*
X1768Y631*
X1781Y612*
X1784Y649*
X1828Y612D02*
X1803D01*
X1825Y634*
X1828Y640*
X1825Y646*
X1818Y649*
X1809*
X1803Y646*
X1737Y658D02*
X1769Y660D01*
X1801Y664*
X1833Y672*
X1863Y682*
X1892Y696*
X1920Y712*
X1947Y731*
X1971Y752*
X1993Y775*
X2013Y800*
X2031Y828*
X2046Y856*
X2058Y886*
X2067Y917*
X2073Y949*
X2076Y981*
X2076Y1013*
X2073Y1046*
X2067Y1077*
X2058Y1108*
X2046Y1138*
X2031Y1167*
X2013Y1194*
X1993Y1219*
X1971Y1243*
X1947Y1264*
X1920Y1283*
X1893Y1299*
X1863Y1312*
X1833Y1323*
X1801Y1330*
X1769Y1335*
X1737Y1337*
X1705Y1335*
X1673Y1331*
X1641Y1323*
X1611Y1312*
X1582Y1299*
X1554Y1283*
X1527Y1264*
X1503Y1243*
X1481Y1220*
X1461Y1194*
X1443Y1167*
X1428Y1138*
X1416Y1108*
X1407Y1077*
X1401Y1046*
X1398Y1014*
X1398Y981*
X1401Y949*
X1407Y917*
X1416Y886*
X1428Y856*
X1443Y828*
X1461Y801*
X1480Y775*
X1503Y752*
X1527Y731*
X1553Y712*
X1581Y696*
X1611Y682*
X1641Y672*
X1673Y664*
X1705Y660*
X1737Y658*
X1798Y998D02*
Y1028D01*
X1773*
X1758D02*
Y998D01*
X1733*
X1738Y1013D02*
X1758D01*
Y1028D02*
X1733D01*
X1718D02*
Y998D01*
X1703*
X1698Y1000*
X1696Y1002*
X1693Y1008*
Y1018*
X1696Y1023*
X1698Y1025*
X1703Y1028*
X1718*
X1678Y1025D02*
X1673Y1028D01*
X1663*
X1658Y1025*
Y1020*
X1663Y1018*
X1673*
X1678Y1015*
Y1010*
X1673Y1008*
X1663*
X1658Y1010*
X1898Y1276D02*
Y1238D01*
X1867Y1276*
Y1238*
X1817Y1269D02*
X1820Y1273D01*
X1827Y1276*
X1836*
X1842Y1273*
X1845Y1269*
X1848Y1263*
Y1251*
X1845Y1244*
X1842Y1241*
X1836Y1238*
X1827*
X1820Y1241*
X1817Y1244*
X1911Y763D02*
Y726D01*
X1880Y763*
Y726*
X1861Y751D02*
Y738D01*
X1858Y732*
X1855Y729*
X1848Y726*
X1842*
X1836Y729*
X1833Y732*
X1830Y738*
Y751*
X1833Y757*
X1836Y760*
X1842Y763*
X1848*
X1855Y760*
X1858Y757*
X1861Y751*
X2188Y662D02*
Y052D01*
X2700*
Y662*
X2188*
Y1937D02*
Y1327D01*
X2700*
Y1937*
X2188*
X2268Y838D02*
Y938D01*
X2368*
Y838*
X2268*
Y938D02*
Y1038D01*
X2368*
Y938*
X2268*
Y1038D02*
Y1138D01*
X2368*
Y1038*
X2268*
X2283Y838D02*
X2267Y839D01*
X2252Y843*
X2238Y850*
X2225Y859*
X2214Y870*
X2205Y882*
X2198Y897*
X2194Y912*
X2193Y927*
Y1048*
X2194Y1063*
X2198Y1078*
X2205Y1093*
X2214Y1105*
X2225Y1116*
X2238Y1125*
X2252Y1132*
X2267Y1136*
X2283Y1138*
X2744Y1373D02*
X2741Y1370D01*
X2735Y1367*
X2725*
X2719Y1370*
X2716Y1373*
X2713Y1379*
Y1392*
X2716Y1398*
X2719Y1401*
X2725Y1404*
X2735*
X2741Y1401*
X2744Y1398*
X2763Y1379D02*
Y1392D01*
X2766Y1398*
X2769Y1401*
X2775Y1404*
X2782*
X2788Y1401*
X2791Y1398*
X2794Y1392*
Y1379*
X2791Y1373*
X2788Y1370*
X2782Y1367*
X2775*
X2769Y1370*
X2766Y1373*
X2763Y1379*
X2813Y1367D02*
Y1404D01*
X2844Y1367*
Y1404*
X2863Y1367D02*
Y1404D01*
X2894Y1367*
Y1404*
X2913Y1370D02*
X2919Y1367D01*
X2928*
X2935Y1370*
X2938Y1376*
Y1379*
X2935Y1386*
X2928Y1389*
X2913*
Y1404*
X2938*
X2721Y763D02*
Y726D01*
X2690Y763*
Y726*
X2640Y757D02*
X2643Y760D01*
X2649Y763*
X2658*
X2665Y760*
X2668Y757*
X2671Y751*
Y738*
X2668Y732*
X2665Y729*
X2658Y726*
X2649*
X2643Y729*
X2640Y732*
X2733Y1276D02*
Y1238D01*
X2702Y1276*
Y1238*
X2683Y1263D02*
Y1251D01*
X2680Y1244*
X2677Y1241*
X2671Y1238*
X2665*
X2658Y1241*
X2655Y1244*
X2652Y1251*
Y1263*
X2655Y1269*
X2658Y1273*
X2665Y1276*
X2671*
X2677Y1273*
X2680Y1269*
X2683Y1263*
X2779Y088D02*
X2776Y085D01*
X2770Y082*
X2760*
X2754Y085*
X2751Y088*
X2748Y094*
Y107*
X2751Y113*
X2754Y116*
X2760Y119*
X2770*
X2776Y116*
X2779Y113*
X2798Y094D02*
Y107D01*
X2801Y113*
X2804Y116*
X2810Y119*
X2817*
X2823Y116*
X2826Y113*
X2829Y107*
Y094*
X2826Y088*
X2823Y085*
X2817Y082*
X2810*
X2804Y085*
X2801Y088*
X2798Y094*
X2848Y082D02*
Y119D01*
X2879Y082*
Y119*
X2898Y082D02*
Y119D01*
X2929Y082*
Y119*
X2948Y091D02*
X2951Y098D01*
X2957Y101*
X2963*
X2970Y098*
X2973Y091*
X2970Y085*
X2963Y082*
X2957*
X2951Y085*
X2948Y091*
Y101*
X2951Y110*
X2957Y116*
X2963Y119*
X2788Y621D02*
X2791Y615D01*
X2797Y612*
X2810*
X2816Y615*
X2819Y621*
X2816Y627*
X2810Y631*
X2797*
X2791Y634*
X2788Y640*
X2791Y646*
X2797Y649*
X2810*
X2816Y646*
X2819Y640*
X2838Y649D02*
X2841Y612D01*
X2853Y631*
X2866Y612*
X2869Y649*
X2891Y615D02*
X2897Y612D01*
X2903*
X2910Y615*
X2913Y621*
X2910Y627*
X2903Y631*
X2897*
X2903D02*
X2910Y634D01*
X2913Y640*
X2910Y646*
X2903Y649*
X2897*
X2891Y646*
X2822Y658D02*
X2854Y660D01*
X2886Y664*
X2918Y672*
X2948Y682*
X2977Y696*
X3005Y712*
X3032Y731*
X3056Y752*
X3078Y775*
X3098Y800*
X3116Y828*
X3131Y856*
X3143Y886*
X3152Y917*
X3158Y949*
X3161Y981*
X3161Y1013*
X3158Y1046*
X3152Y1077*
X3143Y1108*
X3131Y1138*
X3116Y1167*
X3098Y1194*
X3078Y1219*
X3056Y1243*
X3032Y1264*
X3005Y1283*
X2978Y1299*
X2948Y1312*
X2918Y1323*
X2886Y1330*
X2854Y1335*
X2822Y1337*
X2790Y1335*
X2758Y1331*
X2726Y1323*
X2696Y1312*
X2667Y1299*
X2639Y1283*
X2612Y1264*
X2588Y1243*
X2566Y1220*
X2546Y1194*
X2528Y1167*
X2513Y1138*
X2501Y1108*
X2492Y1077*
X2486Y1046*
X2483Y1014*
X2483Y981*
X2486Y949*
X2492Y917*
X2501Y886*
X2513Y856*
X2528Y828*
X2546Y801*
X2565Y775*
X2588Y752*
X2612Y731*
X2638Y712*
X2666Y696*
X2696Y682*
X2726Y672*
X2758Y664*
X2790Y660*
X2822Y658*
X2883Y998D02*
Y1028D01*
X2858*
X2843D02*
Y998D01*
X2818*
X2823Y1013D02*
X2843D01*
Y1028D02*
X2818D01*
X2803D02*
Y998D01*
X2788*
X2783Y1000*
X2781Y1002*
X2778Y1008*
Y1018*
X2781Y1023*
X2783Y1025*
X2788Y1028*
X2803*
X2763Y1025D02*
X2758Y1028D01*
X2748*
X2743Y1025*
Y1020*
X2748Y1018*
X2758*
X2763Y1015*
Y1010*
X2758Y1008*
X2748*
X2743Y1010*
X2983Y1276D02*
Y1238D01*
X2952Y1276*
Y1238*
X2902Y1269D02*
X2905Y1273D01*
X2912Y1276*
X2921*
X2927Y1273*
X2930Y1269*
X2933Y1263*
Y1251*
X2930Y1244*
X2927Y1241*
X2921Y1238*
X2912*
X2905Y1241*
X2902Y1244*
X2996Y763D02*
Y726D01*
X2965Y763*
Y726*
X2946Y751D02*
Y738D01*
X2943Y732*
X2940Y729*
X2933Y726*
X2927*
X2921Y729*
X2918Y732*
X2915Y738*
Y751*
X2918Y757*
X2921Y760*
X2927Y763*
X2933*
X2940Y760*
X2943Y757*
X2946Y751*
X3283Y662D02*
Y052D01*
X3795*
Y662*
X3283*
Y1937D02*
Y1327D01*
X3795*
Y1937*
X3283*
X3363Y838D02*
Y938D01*
X3463*
Y838*
X3363*
Y938D02*
Y1038D01*
X3463*
Y938*
X3363*
Y1038D02*
Y1138D01*
X3463*
Y1038*
X3363*
X3378Y838D02*
X3362Y839D01*
X3347Y843*
X3333Y850*
X3320Y859*
X3309Y870*
X3300Y882*
X3293Y897*
X3289Y912*
X3288Y927*
Y1048*
X3289Y1063*
X3293Y1078*
X3300Y1093*
X3309Y1105*
X3320Y1116*
X3333Y1125*
X3347Y1132*
X3362Y1136*
X3378Y1138*
X3839Y1373D02*
X3836Y1370D01*
X3830Y1367*
X3820*
X3814Y1370*
X3811Y1373*
X3808Y1379*
Y1392*
X3811Y1398*
X3814Y1401*
X3820Y1404*
X3830*
X3836Y1401*
X3839Y1398*
X3858Y1379D02*
Y1392D01*
X3861Y1398*
X3864Y1401*
X3870Y1404*
X3877*
X3883Y1401*
X3886Y1398*
X3889Y1392*
Y1379*
X3886Y1373*
X3883Y1370*
X3877Y1367*
X3870*
X3864Y1370*
X3861Y1373*
X3858Y1379*
X3908Y1367D02*
Y1404D01*
X3939Y1367*
Y1404*
X3958Y1367D02*
Y1404D01*
X3989Y1367*
Y1404*
X4008Y1367D02*
X4033Y1404D01*
X4008*
X3816Y763D02*
Y726D01*
X3785Y763*
Y726*
X3735Y757D02*
X3738Y760D01*
X3744Y763*
X3753*
X3760Y760*
X3763Y757*
X3766Y751*
Y738*
X3763Y732*
X3760Y729*
X3753Y726*
X3744*
X3738Y729*
X3735Y732*
X3828Y1276D02*
Y1238D01*
X3797Y1276*
Y1238*
X3778Y1263D02*
Y1251D01*
X3775Y1244*
X3772Y1241*
X3766Y1238*
X3760*
X3753Y1241*
X3750Y1244*
X3747Y1251*
Y1263*
X3750Y1269*
X3753Y1273*
X3760Y1276*
X3766*
X3772Y1273*
X3775Y1269*
X3778Y1263*
X3874Y088D02*
X3871Y085D01*
X3865Y082*
X3855*
X3849Y085*
X3846Y088*
X3843Y094*
Y107*
X3846Y113*
X3849Y116*
X3855Y119*
X3865*
X3871Y116*
X3874Y113*
X3893Y094D02*
Y107D01*
X3896Y113*
X3899Y116*
X3905Y119*
X3912*
X3918Y116*
X3921Y113*
X3924Y107*
Y094*
X3921Y088*
X3918Y085*
X3912Y082*
X3905*
X3899Y085*
X3896Y088*
X3893Y094*
X3943Y082D02*
Y119D01*
X3974Y082*
Y119*
X3993Y082D02*
Y119D01*
X4024Y082*
Y119*
X4052Y101D02*
X4058D01*
X4065Y104*
X4068Y110*
X4065Y116*
X4058Y119*
X4052*
X4046Y116*
X4043Y110*
X4046Y104*
X4052Y101*
X4046Y098*
X4043Y091*
X4046Y085*
X4052Y082*
X4058*
X4065Y085*
X4068Y091*
X4065Y098*
X4058Y101*
X3883Y621D02*
X3886Y615D01*
X3892Y612*
X3905*
X3911Y615*
X3914Y621*
X3911Y627*
X3905Y631*
X3892*
X3886Y634*
X3883Y640*
X3886Y646*
X3892Y649*
X3905*
X3911Y646*
X3914Y640*
X3933Y649D02*
X3936Y612D01*
X3948Y631*
X3961Y612*
X3964Y649*
X3998Y612D02*
Y649D01*
X3983Y624*
X4008*
X3917Y658D02*
X3949Y660D01*
X3981Y664*
X4013Y672*
X4043Y682*
X4072Y696*
X4100Y712*
X4127Y731*
X4151Y752*
X4173Y775*
X4193Y800*
X4211Y828*
X4226Y856*
X4238Y886*
X4247Y917*
X4253Y949*
X4256Y981*
X4256Y1013*
X4253Y1046*
X4247Y1077*
X4238Y1108*
X4226Y1138*
X4211Y1167*
X4193Y1194*
X4173Y1219*
X4151Y1243*
X4127Y1264*
X4100Y1283*
X4073Y1299*
X4043Y1312*
X4013Y1323*
X3981Y1330*
X3949Y1335*
X3917Y1337*
X3885Y1335*
X3853Y1331*
X3821Y1323*
X3791Y1312*
X3762Y1299*
X3734Y1283*
X3707Y1264*
X3683Y1243*
X3661Y1220*
X3641Y1194*
X3623Y1167*
X3608Y1138*
X3596Y1108*
X3587Y1077*
X3581Y1046*
X3578Y1014*
X3578Y981*
X3581Y949*
X3587Y917*
X3596Y886*
X3608Y856*
X3623Y828*
X3641Y801*
X3660Y775*
X3683Y752*
X3707Y731*
X3733Y712*
X3761Y696*
X3791Y682*
X3821Y672*
X3853Y664*
X3885Y660*
X3917Y658*
X3978Y998D02*
Y1028D01*
X3953*
X3938D02*
Y998D01*
X3913*
X3918Y1013D02*
X3938D01*
Y1028D02*
X3913D01*
X3898D02*
Y998D01*
X3883*
X3878Y1000*
X3876Y1002*
X3873Y1008*
Y1018*
X3876Y1023*
X3878Y1025*
X3883Y1028*
X3898*
X3858Y1025D02*
X3853Y1028D01*
X3843*
X3838Y1025*
Y1020*
X3843Y1018*
X3853*
X3858Y1015*
Y1010*
X3853Y1008*
X3843*
X3838Y1010*
X4078Y1276D02*
Y1238D01*
X4047Y1276*
Y1238*
X3997Y1269D02*
X4000Y1273D01*
X4007Y1276*
X4016*
X4022Y1273*
X4025Y1269*
X4028Y1263*
Y1251*
X4025Y1244*
X4022Y1241*
X4016Y1238*
X4007*
X4000Y1241*
X3997Y1244*
X4091Y763D02*
Y726D01*
X4060Y763*
Y726*
X4041Y751D02*
Y738D01*
X4038Y732*
X4035Y729*
X4028Y726*
X4022*
X4016Y729*
X4013Y732*
X4010Y738*
Y751*
X4013Y757*
X4016Y760*
X4022Y763*
X4028*
X4035Y760*
X4038Y757*
X4041Y751*
X4393Y662D02*
Y052D01*
X4905*
Y662*
X4393*
Y1937D02*
Y1327D01*
X4905*
Y1937*
X4393*
X4473Y838D02*
Y938D01*
X4573*
Y838*
X4473*
Y938D02*
Y1038D01*
X4573*
Y938*
X4473*
Y1038D02*
Y1138D01*
X4573*
Y1038*
X4473*
X4488Y838D02*
X4472Y839D01*
X4457Y843*
X4443Y850*
X4430Y859*
X4419Y870*
X4410Y882*
X4403Y897*
X4399Y912*
X4398Y927*
Y1048*
X4399Y1063*
X4403Y1078*
X4410Y1093*
X4419Y1105*
X4430Y1116*
X4443Y1125*
X4457Y1132*
X4472Y1136*
X4488Y1138*
X4949Y1373D02*
X4946Y1370D01*
X4940Y1367*
X4930*
X4924Y1370*
X4921Y1373*
X4918Y1379*
Y1392*
X4921Y1398*
X4924Y1401*
X4930Y1404*
X4940*
X4946Y1401*
X4949Y1398*
X4968Y1379D02*
Y1392D01*
X4971Y1398*
X4974Y1401*
X4980Y1404*
X4987*
X4993Y1401*
X4996Y1398*
X4999Y1392*
Y1379*
X4996Y1373*
X4993Y1370*
X4987Y1367*
X4980*
X4974Y1370*
X4971Y1373*
X4968Y1379*
X5018Y1367D02*
Y1404D01*
X5049Y1367*
Y1404*
X5068Y1367D02*
Y1404D01*
X5099Y1367*
Y1404*
X5127Y1367D02*
X5133Y1370D01*
X5140Y1376*
X5143Y1386*
Y1395*
X5140Y1401*
X5133Y1404*
X5127*
X5121Y1401*
X5118Y1395*
X5121Y1389*
X5127Y1386*
X5133*
X5140Y1389*
X5143Y1395*
X4926Y763D02*
Y726D01*
X4895Y763*
Y726*
X4845Y757D02*
X4848Y760D01*
X4854Y763*
X4863*
X4870Y760*
X4873Y757*
X4876Y751*
Y738*
X4873Y732*
X4870Y729*
X4863Y726*
X4854*
X4848Y729*
X4845Y732*
X4938Y1276D02*
Y1238D01*
X4907Y1276*
Y1238*
X4888Y1263D02*
Y1251D01*
X4885Y1244*
X4882Y1241*
X4876Y1238*
X4870*
X4863Y1241*
X4860Y1244*
X4857Y1251*
Y1263*
X4860Y1269*
X4863Y1273*
X4870Y1276*
X4876*
X4882Y1273*
X4885Y1269*
X4888Y1263*
X4984Y088D02*
X4981Y085D01*
X4975Y082*
X4965*
X4959Y085*
X4956Y088*
X4953Y094*
Y107*
X4956Y113*
X4959Y116*
X4965Y119*
X4975*
X4981Y116*
X4984Y113*
X5003Y094D02*
Y107D01*
X5006Y113*
X5009Y116*
X5015Y119*
X5022*
X5028Y116*
X5031Y113*
X5034Y107*
Y094*
X5031Y088*
X5028Y085*
X5022Y082*
X5015*
X5009Y085*
X5006Y088*
X5003Y094*
X5053Y082D02*
Y119D01*
X5084Y082*
Y119*
X5103Y082D02*
Y119D01*
X5134Y082*
Y119*
X5159Y082D02*
X5172D01*
X5165D02*
Y119D01*
X5159Y113*
X5206Y085D02*
X5212Y082D01*
X5218*
X5225Y085*
X5228Y091*
Y110*
X5225Y116*
X5218Y119*
X5212*
X5206Y116*
X5203Y110*
Y091*
X5206Y085*
X5225Y116*
X4993Y621D02*
X4996Y615D01*
X5002Y612*
X5015*
X5021Y615*
X5024Y621*
X5021Y627*
X5015Y631*
X5002*
X4996Y634*
X4993Y640*
X4996Y646*
X5002Y649*
X5015*
X5021Y646*
X5024Y640*
X5043Y649D02*
X5046Y612D01*
X5058Y631*
X5071Y612*
X5074Y649*
X5093Y615D02*
X5099Y612D01*
X5108*
X5115Y615*
X5118Y621*
Y624*
X5115Y631*
X5108Y634*
X5093*
Y649*
X5118*
X5027Y658D02*
X5059Y660D01*
X5091Y664*
X5123Y672*
X5153Y682*
X5182Y696*
X5210Y712*
X5237Y731*
X5261Y752*
X5283Y775*
X5303Y800*
X5321Y828*
X5336Y856*
X5348Y886*
X5357Y917*
X5363Y949*
X5366Y981*
X5366Y1013*
X5363Y1046*
X5357Y1077*
X5348Y1108*
X5336Y1138*
X5321Y1167*
X5303Y1194*
X5283Y1219*
X5261Y1243*
X5237Y1264*
X5210Y1283*
X5183Y1299*
X5153Y1312*
X5123Y1323*
X5091Y1330*
X5059Y1335*
X5027Y1337*
X4995Y1335*
X4963Y1331*
X4931Y1323*
X4901Y1312*
X4872Y1299*
X4844Y1283*
X4817Y1264*
X4793Y1243*
X4771Y1220*
X4751Y1194*
X4733Y1167*
X4718Y1138*
X4706Y1108*
X4697Y1077*
X4691Y1046*
X4688Y1014*
X4688Y981*
X4691Y949*
X4697Y917*
X4706Y886*
X4718Y856*
X4733Y828*
X4751Y801*
X4770Y775*
X4793Y752*
X4817Y731*
X4843Y712*
X4871Y696*
X4901Y682*
X4931Y672*
X4963Y664*
X4995Y660*
X5027Y658*
X5088Y998D02*
Y1028D01*
X5063*
X5048D02*
Y998D01*
X5023*
X5028Y1013D02*
X5048D01*
Y1028D02*
X5023D01*
X5008D02*
Y998D01*
X4993*
X4988Y1000*
X4986Y1002*
X4983Y1008*
Y1018*
X4986Y1023*
X4988Y1025*
X4993Y1028*
X5008*
X4968Y1025D02*
X4963Y1028D01*
X4953*
X4948Y1025*
Y1020*
X4953Y1018*
X4963*
X4968Y1015*
Y1010*
X4963Y1008*
X4953*
X4948Y1010*
X5188Y1276D02*
Y1238D01*
X5157Y1276*
Y1238*
X5107Y1269D02*
X5110Y1273D01*
X5117Y1276*
X5126*
X5132Y1273*
X5135Y1269*
X5138Y1263*
Y1251*
X5135Y1244*
X5132Y1241*
X5126Y1238*
X5117*
X5110Y1241*
X5107Y1244*
X5201Y763D02*
Y726D01*
X5170Y763*
Y726*
X5151Y751D02*
Y738D01*
X5148Y732*
X5145Y729*
X5138Y726*
X5132*
X5126Y729*
X5123Y732*
X5120Y738*
Y751*
X5123Y757*
X5126Y760*
X5132Y763*
X5138*
X5145Y760*
X5148Y757*
X5151Y751*
X000Y000D02*
M02*
