M48
T1C00.024
T2C00.035
T3C00.094
T4C00.118
%
T001
X00088Y00368
X00088Y01643
X00088Y00209
X00088Y01484
X00088Y00449
X00088Y01724
X00088Y00288
X00088Y01563
X00188Y00328
X00188Y01603
X00188Y00489
X00188Y01764
X00188Y00408
X00188Y01683
X00188Y00248
X00188Y01523
X01188Y00368
X01188Y01643
X01188Y00209
X01188Y01484
X01188Y00449
X01188Y01724
X01188Y00288
X01188Y01563
X01288Y00328
X01288Y01603
X01288Y00489
X01288Y01764
X01288Y00408
X01288Y01683
X01288Y00248
X01288Y01523
X02273Y00368
X02273Y01643
X02273Y00209
X02273Y01484
X02273Y00449
X02273Y01724
X02273Y00288
X02273Y01563
X02373Y00328
X02373Y01603
X02373Y00489
X02373Y01764
X02373Y00408
X02373Y01683
X02373Y00248
X02373Y01523
X03368Y00368
X03368Y01643
X03368Y00209
X03368Y01484
X03368Y00449
X03368Y01724
X03368Y00288
X03368Y01563
X03468Y00328
X03468Y01603
X03468Y00489
X03468Y01764
X03468Y00408
X03468Y01683
X03468Y00248
X03468Y01523
X04478Y00368
X04478Y01643
X04478Y00209
X04478Y01484
X04478Y00449
X04478Y01724
X04478Y00288
X04478Y01563
X04578Y00328
X04578Y01603
X04578Y00489
X04578Y01764
X04578Y00408
X04578Y01683
X04578Y00248
X04578Y01523
T002
X00133Y00888
X00133Y00988
X00133Y01088
X01233Y00888
X01233Y00988
X01233Y01088
X02318Y00888
X02318Y00988
X02318Y01088
X03413Y00888
X03413Y00988
X03413Y01088
X04523Y00888
X04523Y00988
X04523Y01088
T003
X00279Y00052
X00279Y00662
X00279Y01327
X00279Y01937
X01379Y00052
X01379Y00662
X01379Y01327
X01379Y01937
X02464Y00052
X02464Y00662
X02464Y01327
X02464Y01937
X03559Y00052
X03559Y00662
X03559Y01327
X03559Y01937
X04669Y00052
X04669Y00662
X04669Y01327
X04669Y01937
T004
X00438Y00997
X00488Y01157
X00488Y00842
X00783Y00842
X00783Y01157
X00832Y00998
X01538Y00997
X01588Y01157
X01588Y00842
X01883Y00842
X01883Y01157
X01932Y00998
X02623Y00997
X02673Y01157
X02673Y00842
X02968Y00842
X02968Y01157
X03017Y00998
X03718Y00997
X03768Y01157
X03768Y00842
X04063Y00842
X04063Y01157
X04112Y00998
X04828Y00997
X04878Y01157
X04878Y00842
X05173Y00842
X05173Y01157
X05222Y00998
M30
