%FSLAX23Y23*%
%MOIN*%
%ADD16O,0.07874X0.03937*%
%ADD13O,0.23622X0.13780*%
%ADD17R,0.01000X0.02000*%
%ADD14R,0.08000X0.08000*%
%ADD15C,0.01969*%
%ADD11C,0.06000*%
%ADD12C,0.09449*%
X000Y000D02*
D02*
D11*
X088Y368D03*
Y1643D03*
X088Y209D03*
Y1484D03*
X088Y449D03*
Y1724D03*
X088Y288D03*
Y1563D03*
X188Y328D03*
Y1603D03*
X188Y489D03*
Y1764D03*
X188Y408D03*
Y1683D03*
X188Y248D03*
Y1523D03*
X1188Y368D03*
Y1643D03*
X1188Y209D03*
Y1484D03*
X1188Y449D03*
Y1724D03*
X1188Y288D03*
Y1563D03*
X1288Y328D03*
Y1603D03*
X1288Y489D03*
Y1764D03*
X1288Y408D03*
Y1683D03*
X1288Y248D03*
Y1523D03*
X2273Y368D03*
Y1643D03*
X2273Y209D03*
Y1484D03*
X2273Y449D03*
Y1724D03*
X2273Y288D03*
Y1563D03*
X2373Y328D03*
Y1603D03*
X2373Y489D03*
Y1764D03*
X2373Y408D03*
Y1683D03*
X2373Y248D03*
Y1523D03*
X3368Y368D03*
Y1643D03*
X3368Y209D03*
Y1484D03*
X3368Y449D03*
Y1724D03*
X3368Y288D03*
Y1563D03*
X3468Y328D03*
Y1603D03*
X3468Y489D03*
Y1764D03*
X3468Y408D03*
Y1683D03*
X3468Y248D03*
Y1523D03*
X4478Y368D03*
Y1643D03*
X4478Y209D03*
Y1484D03*
X4478Y449D03*
Y1724D03*
X4478Y288D03*
Y1563D03*
X4578Y328D03*
Y1603D03*
X4578Y489D03*
Y1764D03*
X4578Y408D03*
Y1683D03*
X4578Y248D03*
Y1523D03*
D02*
D12*
X279Y052D03*
Y662D03*
Y1327D03*
Y1937D03*
X1379Y052D03*
Y662D03*
Y1327D03*
Y1937D03*
X2464Y052D03*
Y662D03*
Y1327D03*
Y1937D03*
X3559Y052D03*
Y662D03*
Y1327D03*
Y1937D03*
X4669Y052D03*
Y662D03*
Y1327D03*
Y1937D03*
D02*
D13*
X438Y997D03*
X488Y1157D03*
X488Y842D03*
X783Y842D03*
Y1157D03*
X832Y998D03*
X1538Y997D03*
X1588Y1157D03*
X1588Y842D03*
X1883Y842D03*
Y1157D03*
X1932Y998D03*
X2623Y997D03*
X2673Y1157D03*
X2673Y842D03*
X2968Y842D03*
Y1157D03*
X3017Y998D03*
X3718Y997D03*
X3768Y1157D03*
X3768Y842D03*
X4063Y842D03*
Y1157D03*
X4112Y998D03*
X4828Y997D03*
X4878Y1157D03*
X4878Y842D03*
X5173Y842D03*
Y1157D03*
X5222Y998D03*
D02*
D14*
X133Y887D03*
Y988D03*
Y1087D03*
X1233Y887D03*
Y988D03*
Y1087D03*
X2318Y887D03*
Y988D03*
Y1087D03*
X3413Y887D03*
Y988D03*
Y1087D03*
X4523Y887D03*
Y988D03*
Y1087D03*
D02*
D15*
X088Y368D02*
X038Y367D01*
X033Y362*
Y218*
X043Y207*
X078*
X088Y209*
X088Y368D02*
Y382D01*
X088Y383*
Y438*
X083Y443*
X073*
X088Y449*
Y1724D02*
Y1823D01*
X133Y1867*
X758*
X968Y1658*
Y1103*
X863Y998*
X832Y998*
X133Y887D02*
X123D01*
X043Y808*
Y527*
X088Y482*
X088Y449*
X188Y1603D02*
Y1597D01*
X243*
X278Y1563*
Y1478*
X188Y1388*
Y1228*
X253Y1163*
Y823*
X398Y677*
X763*
X788Y703*
Y762*
X783Y842*
X188Y1764D02*
X302D01*
X358Y1708*
Y1258*
X303Y1202*
Y1038*
X353Y988*
X438Y997*
X330Y320D02*
X200D01*
X188Y333*
X188Y328*
Y328*
X330Y370D02*
X328Y383D01*
Y433*
X272Y489*
X188*
X1188Y368D02*
X1138Y367D01*
X1133Y362*
Y218*
X1143Y207*
X1178*
X1188Y209*
X1188Y368D02*
Y382D01*
X1188Y383*
Y438*
X1183Y443*
X1173*
X1188Y449*
Y1724D02*
Y1823D01*
X1233Y1867*
X1858*
X2068Y1658*
Y1103*
X1963Y998*
X1932Y998*
X1233Y887D02*
X1223D01*
X1143Y808*
Y527*
X1188Y482*
X1188Y449*
X1288Y1603D02*
Y1597D01*
X1343*
X1378Y1563*
Y1478*
X1288Y1388*
Y1228*
X1353Y1163*
Y823*
X1498Y677*
X1863*
X1888Y703*
Y762*
X1883Y842*
X1288Y1764D02*
X1402D01*
X1458Y1708*
Y1258*
X1403Y1202*
Y1038*
X1453Y988*
X1538Y997*
X1430Y320D02*
X1300D01*
X1288Y333*
X1288Y328*
Y328*
X1430Y370D02*
X1428Y383D01*
Y433*
X1372Y489*
X1288*
X2273Y368D02*
X2223Y367D01*
X2218Y362*
Y218*
X2228Y207*
X2263*
X2273Y209*
X2273Y368D02*
Y382D01*
X2273Y383*
Y438*
X2268Y443*
X2258*
X2273Y449*
Y1724D02*
Y1823D01*
X2318Y1867*
X2943*
X3153Y1658*
Y1103*
X3048Y998*
X3017Y998*
X2318Y887D02*
X2308D01*
X2228Y808*
Y527*
X2273Y482*
X2273Y449*
X2373Y1603D02*
Y1597D01*
X2428*
X2463Y1563*
Y1478*
X2373Y1388*
Y1228*
X2438Y1163*
Y823*
X2583Y677*
X2948*
X2973Y703*
Y762*
X2968Y842*
X2373Y1764D02*
X2487D01*
X2543Y1708*
Y1258*
X2488Y1202*
Y1038*
X2538Y988*
X2623Y997*
X2515Y320D02*
X2385D01*
X2373Y333*
X2373Y328*
Y328*
X2515Y370D02*
X2513Y383D01*
Y433*
X2457Y489*
X2373*
X3368Y368D02*
X3318Y367D01*
X3313Y362*
Y218*
X3323Y207*
X3358*
X3368Y209*
X3368Y368D02*
Y382D01*
X3368Y383*
Y438*
X3363Y443*
X3353*
X3368Y449*
Y1724D02*
Y1823D01*
X3413Y1867*
X4038*
X4248Y1658*
Y1103*
X4143Y998*
X4112Y998*
X3413Y887D02*
X3403D01*
X3323Y808*
Y527*
X3368Y482*
X3368Y449*
X3468Y1603D02*
Y1597D01*
X3523*
X3558Y1563*
Y1478*
X3468Y1388*
Y1228*
X3533Y1163*
Y823*
X3678Y677*
X4043*
X4068Y703*
Y762*
X4063Y842*
X3468Y1764D02*
X3582D01*
X3638Y1708*
Y1258*
X3583Y1202*
Y1038*
X3633Y988*
X3718Y997*
X3610Y320D02*
X3480D01*
X3468Y333*
X3468Y328*
Y328*
X3610Y370D02*
X3608Y383D01*
Y433*
X3552Y489*
X3468*
X4478Y368D02*
X4428Y367D01*
X4423Y362*
Y218*
X4433Y207*
X4468*
X4478Y209*
X4478Y368D02*
Y382D01*
X4478Y383*
Y438*
X4473Y443*
X4463*
X4478Y449*
Y1724D02*
Y1823D01*
X4523Y1867*
X5148*
X5358Y1658*
Y1103*
X5253Y998*
X5222Y998*
X4523Y887D02*
X4513D01*
X4433Y808*
Y527*
X4478Y482*
X4478Y449*
X4578Y1603D02*
Y1597D01*
X4633*
X4668Y1563*
Y1478*
X4578Y1388*
Y1228*
X4643Y1163*
Y823*
X4788Y677*
X5153*
X5178Y703*
Y762*
X5173Y842*
X4578Y1764D02*
X4692D01*
X4748Y1708*
Y1258*
X4693Y1202*
Y1038*
X4743Y988*
X4828Y997*
X4720Y320D02*
X4590D01*
X4578Y333*
X4578Y328*
Y328*
X4720Y370D02*
X4718Y383D01*
Y433*
X4662Y489*
X4578*
D02*
D16*
X330Y320D03*
Y370D03*
X1430Y320D03*
Y370D03*
X2515Y320D03*
Y370D03*
X3610Y320D03*
Y370D03*
X4720Y320D03*
Y370D03*
D02*
D17*
X331Y345D03*
X1431D03*
X2516D03*
X3611D03*
X4721D03*
X000Y000D02*
M02*
