%FSLAX23Y23*%
%MOIN*%
%ADD11C,0.00100*%
%ADD13C,0.00197*%
%ADD10C,0.00500*%
%ADD12C,0.00787*%
X000Y000D02*
D02*
D10*
X004Y151D02*
X2504D01*
Y3378*
X004*
Y151*
X083Y1278D02*
X215D01*
Y1219*
X081*
Y1279*
X073Y1446D02*
X036D01*
Y1465*
X039Y1471*
X042Y1474*
X048Y1477*
X061*
X067Y1474*
X070Y1471*
X073Y1465*
Y1446*
Y1509D02*
X048D01*
X039D02*
X070Y1546*
X073Y1552D01*
Y1565*
X070Y1571*
X064*
X061Y1565*
Y1552*
X058Y1546*
X052*
X048Y1552*
Y1565*
X052Y1571*
X048Y1596D02*
X083D01*
X064D02*
X070Y1599D01*
X073Y1605*
Y1612*
X070Y1618*
X064Y1621*
X058*
X052Y1618*
X048Y1612*
Y1605*
X052Y1599*
X058Y1596*
X064*
X073Y1662D02*
Y1659D01*
X036*
X052Y1696D02*
X048Y1702D01*
Y1712*
X052Y1718*
X058Y1721*
X067*
X070Y1718*
X073Y1712*
Y1705*
X070Y1699*
X067Y1696*
X064*
X061Y1699*
X058Y1705*
Y1712*
X061Y1718*
X064Y1721*
X067D02*
X073D01*
X048Y1746D02*
X061Y1749D01*
X067Y1755*
Y1762*
X061Y1768*
X048Y1771*
X061Y1768D02*
X073Y1765D01*
X080Y1762*
X083Y1755*
X080Y1749*
X080Y2514D02*
Y2527D01*
Y2521D02*
X042D01*
Y2514D02*
Y2527D01*
X073Y2586D02*
X077Y2583D01*
X080Y2577*
Y2568*
X077Y2561*
X073Y2558*
X067Y2555*
X055*
X048Y2558*
X045Y2561*
X042Y2568*
Y2577*
X045Y2583*
X048Y2586*
X070Y2605D02*
X077Y2608D01*
X080Y2614*
Y2627*
X077Y2633*
X070Y2636*
X064Y2633*
X061Y2627*
Y2614*
X058Y2608*
X052Y2605*
X045Y2608*
X042Y2614*
Y2627*
X045Y2633*
X052Y2636*
X080Y2655D02*
X042D01*
Y2677*
X045Y2683*
X052Y2686*
X058Y2683*
X061Y2677*
Y2655*
X169Y309D02*
X338D01*
Y223*
X170*
Y306*
X203Y1386D02*
X102D01*
Y1486*
X203*
Y1386*
Y1486D02*
X102D01*
Y1586*
X203*
Y1486*
Y1586D02*
X102D01*
Y1686*
X203*
Y1586*
Y1686D02*
X102D01*
Y1786*
X203*
Y1686*
Y1786D02*
X102D01*
Y1886*
X203*
Y1786*
Y1886D02*
X102D01*
Y1986*
X203*
Y1886*
Y1986D02*
X102D01*
Y2086*
X203*
Y1986*
Y2086D02*
X102D01*
Y2186*
X203*
Y2086*
X203Y2509D02*
Y2409D01*
X103*
Y2509*
X203*
Y2609D02*
Y2509D01*
X103*
Y2609*
X203*
Y2709D02*
Y2609D01*
X103*
Y2709*
X203*
Y2809D02*
Y2709D01*
X103*
Y2809*
X203*
Y2909D02*
X103D01*
Y3009*
X203*
Y2909*
Y2809*
X103*
Y2909*
X203*
X215Y1014D02*
Y1164D01*
X075*
Y1014*
X214*
X251Y1964D02*
X383D01*
Y1905*
X249*
Y1965*
X251Y1466D02*
X383D01*
Y1407*
X250*
Y1467*
X252Y1567D02*
X384D01*
Y1508*
X251*
Y1568*
X252Y1866D02*
X384D01*
Y1807*
X251*
Y1867*
X252Y1667D02*
X384D01*
Y1608*
X251*
Y1668*
X253Y1263D02*
X385D01*
Y1204*
X251*
Y1264*
X253Y2254D02*
X385D01*
Y2195*
X252*
Y2255*
X254Y1767D02*
X386D01*
Y1708*
X253*
Y1768*
X270Y222D02*
Y309D01*
X271*
X383Y1112D02*
X251D01*
Y1171*
X384*
Y1111*
X383Y2289D02*
X251D01*
Y2348*
X384*
Y2288*
X384Y2004D02*
X251D01*
Y2063*
X385*
Y2003*
X385Y1304D02*
X253D01*
Y1363*
X387*
Y1303*
X385Y2107D02*
X253D01*
Y2166*
X387*
Y2106*
X430Y003D02*
X2134D01*
Y369*
X430*
Y003*
X438Y939D02*
Y1059D01*
X553*
Y939*
X438*
X476Y548D02*
Y415D01*
X417*
Y549*
X477*
X567Y550D02*
Y417D01*
X508*
Y551*
X568*
X595Y418D02*
Y551D01*
X653*
Y417*
X593*
X646Y2547D02*
Y3012D01*
X367*
Y2547*
X646*
X763Y548D02*
Y416D01*
X704*
Y549*
X764*
X769Y2522D02*
Y2447D01*
X1669*
Y2522*
X769Y2722D02*
Y2797D01*
X1669*
Y2722*
X795Y417D02*
Y549D01*
X854*
Y416*
X794*
X888Y417D02*
Y549D01*
X947*
Y416*
X887*
X955Y1240D02*
X1087D01*
Y1182*
X954*
Y1242*
X955Y1533D02*
X1087D01*
Y1474*
X954*
Y1534*
X972Y893D02*
Y1013D01*
X1087*
Y893*
X972*
X980Y417D02*
Y549D01*
X1038*
Y416*
X978*
X989Y1624D02*
X991Y1636D01*
X995Y1647*
X1002Y1656*
X1012Y1663*
X1022Y1668*
X1034Y1669*
X1046Y1668*
X1057Y1663*
X1066Y1656*
X1073Y1647*
X1078Y1636*
X1079Y1624*
X1072Y417D02*
Y549D01*
X1131*
Y416*
X1071*
X1088Y779D02*
X956D01*
Y838*
X1089*
Y778*
X1088Y1047D02*
X956D01*
Y1106*
X1089*
Y1046*
X1088Y1362D02*
X956D01*
Y1421*
X1089*
Y1361*
X1163Y417D02*
Y549D01*
X1222*
Y416*
X1162*
X1250Y417D02*
Y549D01*
X1309*
Y416*
X1249*
X1274Y1624D02*
Y2114D01*
X794*
Y1624*
X1274*
X1397Y548D02*
Y415D01*
X1338*
Y549*
X1398*
X1483Y547D02*
Y415D01*
X1424*
Y548*
X1484*
X1552Y1987D02*
X1672D01*
Y1872*
X1552*
Y1987*
X1553Y1820D02*
X1685D01*
Y1762*
X1551*
Y1822*
X1574Y546D02*
Y414D01*
X1515*
Y548*
X1575*
X1669Y548D02*
Y416D01*
X1610*
Y549*
X1670*
X1715Y1196D02*
Y1328D01*
X1774*
Y1194*
X1714*
X1762Y548D02*
Y415D01*
X1703*
Y549*
X1763*
X1770Y1476D02*
X1745D01*
X1781Y1955D02*
Y1823D01*
X1722*
Y1956*
X1782*
X1791Y417D02*
Y549D01*
X1849*
Y416*
X1789*
X1810Y1319D02*
X1930D01*
Y1204*
X1810*
Y1319*
X1834Y2310D02*
Y1845D01*
X2114*
Y2310*
X1834*
X1870Y1710D02*
X2002D01*
Y1651*
X1868*
Y1711*
X1878Y417D02*
Y549D01*
X1937*
Y416*
X1876*
X1926Y693D02*
X1928Y664D01*
X1932Y635*
X1940Y608*
X1950Y581*
X1963Y555*
X1979Y531*
X1997Y509*
X2017Y488*
X2040Y470*
X2064Y454*
X2089Y441*
X2116Y431*
X2144Y424*
X2173Y419*
X2201Y418*
X2230Y419*
X2258Y424*
X2286Y431*
X2313Y441*
X2339Y454*
X2363Y470*
X2385Y488*
X2406Y509*
X2424Y531*
X2439Y555*
X2453Y581*
X2463Y608*
X2470Y635*
X2475Y664*
X2476Y693*
X2475Y721*
X2470Y750*
X2463Y778*
X2453Y804*
X2439Y830*
X2424Y854*
X2406Y877*
X2385Y897*
X2363Y915*
X2339Y931*
X2313Y944*
X2286Y954*
X2258Y962*
X2230Y966*
X2201Y968*
X2173Y966*
X2144Y962*
X2116Y954*
X2089Y944*
X2064Y931*
X2040Y915*
X2017Y897*
X1997Y877*
X1979Y854*
X1963Y830*
X1950Y804*
X1940Y778*
X1932Y750*
X1928Y721*
X1926Y693*
X1935Y2953D02*
X1860D01*
X1935Y3053D02*
X2310D01*
Y2853*
X1935*
Y3053*
X1943Y2493D02*
X1868D01*
X1943Y2593D02*
X2318D01*
Y2393*
X1943*
Y2593*
X1983Y1196D02*
Y1328D01*
X2042*
Y1195*
X1982*
X2145Y1414D02*
Y1539D01*
X1770*
Y1414*
X2145*
Y1476D02*
X2195D01*
X2158Y3547D02*
X310D01*
Y3069*
X2158*
Y3547*
X2182Y2310D02*
Y1845D01*
X2461*
Y2310*
X2182*
X2223Y2853D02*
Y3053D01*
X2230Y2393D02*
Y2593D01*
X2271Y1487D02*
X2404D01*
Y1428*
X2270*
Y1488*
X2310Y2953D02*
X2385D01*
X2318Y2493D02*
X2393D01*
D02*
D11*
X040Y3079D02*
X032Y3080D01*
X029Y3081*
X026Y3084*
X024Y3086*
X022Y3089*
X021Y3094*
X020Y3098*
X021Y3103*
X022Y3106*
X026Y3113*
X032Y3116*
X036Y3117*
X040Y3118*
X044Y3117*
X048Y3116*
X051Y3116*
X053Y3115*
Y3105*
X052*
X050Y3106*
X048Y3108*
X045Y3110*
X041Y3110*
X037Y3110*
X034Y3108*
X032Y3104*
X031Y3098*
X032Y3093*
X034Y3089*
X037Y3087*
X041Y3086*
X045Y3087*
X048Y3088*
X051Y3090*
X052Y3091*
X053*
Y3082*
X051Y3081*
X048Y3080*
X044Y3079*
X040*
X089Y3094D02*
X088Y3087D01*
X085Y3082*
X080Y3080*
X074Y3079*
X067Y3080*
X062Y3082*
X060Y3087*
X058Y3094*
X060Y3100*
X063Y3105*
X067Y3108*
X074Y3109*
X080Y3108*
X085Y3104*
X088Y3100*
X089Y3094*
X078Y3087D02*
X079Y3089D01*
X080Y3091*
Y3094*
X079Y3098*
X078Y3101*
X076Y3102*
X074Y3103*
X071Y3102*
X070Y3101*
X068Y3098*
X068Y3094*
X068Y3089*
X070Y3087*
X071Y3086*
X074Y3085*
X076Y3086*
X078Y3087*
X124Y3079D02*
X115D01*
Y3094*
Y3097*
X114Y3099*
X113Y3101*
X111Y3101*
X108Y3101*
X106Y3099*
Y3079*
X096*
Y3108*
X106*
Y3105*
X110Y3108*
X115Y3109*
X119Y3108*
X122Y3106*
X124Y3103*
X124Y3098*
Y3079*
X151D02*
X148Y3079D01*
X145*
X140Y3079*
X136Y3081*
X134Y3084*
X134Y3088*
Y3102*
X130*
Y3108*
X134*
Y3116*
X143*
Y3108*
X151*
Y3102*
X143*
Y3092*
Y3089*
X144Y3087*
X145Y3086*
X148Y3085*
X149*
X151Y3086*
X151*
Y3079*
X178Y3100D02*
X177D01*
X175Y3101*
X173*
X170Y3100*
X167Y3099*
Y3079*
X157*
Y3108*
X167*
Y3104*
X169Y3106*
X172Y3108*
X176Y3108*
X177*
X178*
Y3100*
X212Y3094D02*
X211Y3087D01*
X208Y3082*
X203Y3080*
X197Y3079*
X190Y3080*
X185Y3082*
X182Y3087*
X181Y3094*
X182Y3100*
X186Y3105*
X190Y3108*
X197Y3109*
X203Y3108*
X208Y3104*
X211Y3100*
X212Y3094*
X201Y3087D02*
X202Y3089D01*
X203Y3091*
Y3094*
X202Y3098*
X201Y3101*
X199Y3102*
X197Y3103*
X194Y3102*
X192Y3101*
X191Y3098*
X191Y3094*
X191Y3089*
X192Y3087*
X194Y3086*
X197Y3085*
X199Y3086*
X201Y3087*
X228Y3079D02*
X219D01*
Y3119*
X228*
Y3079*
X246D02*
X237D01*
Y3119*
X246*
Y3079*
X282Y3092D02*
X262D01*
X262Y3089*
X264Y3087*
X267Y3086*
X271Y3085*
X276Y3086*
X280Y3088*
X281*
Y3081*
X276Y3079*
X270Y3079*
X262Y3079*
X257Y3082*
X254Y3087*
X252Y3094*
X254Y3100*
X257Y3104*
X262Y3108*
X268Y3109*
X274Y3108*
X279Y3105*
X281Y3101*
X282Y3095*
Y3092*
X272Y3098D02*
X271Y3101D01*
X270Y3102*
X267Y3103*
X264Y3101*
X262Y3100*
X262Y3098*
X272*
X310Y3100D02*
X309D01*
X307Y3101*
X305*
X301Y3100*
X298Y3099*
Y3079*
X289*
Y3108*
X298*
Y3104*
X301Y3106*
X303Y3108*
X308Y3108*
X308*
X310*
Y3100*
X039Y3079D02*
X045D01*
X073D02*
X075D01*
X143D02*
X149D01*
X196D02*
X198D01*
X267D02*
X272D01*
X032Y3080D02*
X047D01*
X068D02*
X080D01*
X096D02*
X106D01*
X115D02*
X124D01*
X138D02*
X151D01*
X157D02*
X167D01*
X190D02*
X203D01*
X219D02*
X228D01*
X237D02*
X246D01*
X261D02*
X277D01*
X289D02*
X298D01*
X030Y3081D02*
X051D01*
X065D02*
X082D01*
X096D02*
X106D01*
X115D02*
X124D01*
X136D02*
X151D01*
X157D02*
X167D01*
X188D02*
X205D01*
X219D02*
X228D01*
X237D02*
X246D01*
X260D02*
X280D01*
X289D02*
X298D01*
X028Y3082D02*
X053D01*
X064D02*
X084D01*
X096D02*
X106D01*
X115D02*
X124D01*
X136D02*
X151D01*
X157D02*
X167D01*
X186D02*
X207D01*
X219D02*
X228D01*
X237D02*
X246D01*
X258D02*
X281D01*
X289D02*
X298D01*
X027Y3083D02*
X053D01*
X062D02*
X085D01*
X096D02*
X106D01*
X115D02*
X124D01*
X135D02*
X151D01*
X157D02*
X167D01*
X185D02*
X208D01*
X219D02*
X228D01*
X237D02*
X246D01*
X257D02*
X281D01*
X289D02*
X298D01*
X026Y3084D02*
X053D01*
X061D02*
X086D01*
X096D02*
X106D01*
X115D02*
X124D01*
X135D02*
X151D01*
X157D02*
X167D01*
X184D02*
X209D01*
X219D02*
X228D01*
X237D02*
X246D01*
X256D02*
X281D01*
X289D02*
X298D01*
X025Y3084D02*
X053D01*
X061D02*
X086D01*
X096D02*
X106D01*
X115D02*
X124D01*
X134D02*
X151D01*
X157D02*
X167D01*
X184D02*
X209D01*
X219D02*
X228D01*
X237D02*
X246D01*
X255D02*
X281D01*
X289D02*
X298D01*
X024Y3085D02*
X053D01*
X061D02*
X072D01*
X075D02*
X087D01*
X096D02*
X106D01*
X115D02*
X124D01*
X134D02*
X146D01*
X150D02*
X151D01*
X157D02*
X167D01*
X183D02*
X195D01*
X198D02*
X210D01*
X219D02*
X228D01*
X237D02*
X246D01*
X255D02*
X268D01*
X275D02*
X281D01*
X289D02*
X298D01*
X024Y3086D02*
X040D01*
X042D02*
X053D01*
X060D02*
X070D01*
X077D02*
X087D01*
X096D02*
X106D01*
X115D02*
X124D01*
X134D02*
X144D01*
X157D02*
X167D01*
X183D02*
X193D01*
X200D02*
X210D01*
X219D02*
X228D01*
X237D02*
X246D01*
X254D02*
X265D01*
X277D02*
X281D01*
X289D02*
X298D01*
X023Y3087D02*
X037D01*
X046D02*
X053D01*
X060D02*
X069D01*
X078D02*
X088D01*
X096D02*
X106D01*
X115D02*
X124D01*
X134D02*
X144D01*
X157D02*
X167D01*
X182D02*
X192D01*
X201D02*
X211D01*
X219D02*
X228D01*
X237D02*
X246D01*
X253D02*
X264D01*
X279D02*
X281D01*
X289D02*
X298D01*
X022Y3088D02*
X035D01*
X048D02*
X053D01*
X059D02*
X069D01*
X079D02*
X088D01*
X096D02*
X106D01*
X115D02*
X124D01*
X134D02*
X143D01*
X157D02*
X167D01*
X182D02*
X192D01*
X201D02*
X211D01*
X219D02*
X228D01*
X237D02*
X246D01*
X253D02*
X263D01*
X289D02*
X298D01*
X022Y3089D02*
X034D01*
X050D02*
X053D01*
X059D02*
X068D01*
X079D02*
X088D01*
X096D02*
X106D01*
X115D02*
X124D01*
X134D02*
X143D01*
X157D02*
X167D01*
X182D02*
X191D01*
X202D02*
X211D01*
X219D02*
X228D01*
X237D02*
X246D01*
X253D02*
X262D01*
X289D02*
X298D01*
X022Y3090D02*
X033D01*
X051D02*
X053D01*
X059D02*
X068D01*
X079D02*
X088D01*
X096D02*
X106D01*
X115D02*
X124D01*
X134D02*
X143D01*
X157D02*
X167D01*
X182D02*
X191D01*
X202D02*
X211D01*
X219D02*
X228D01*
X237D02*
X246D01*
X253D02*
X262D01*
X289D02*
X298D01*
X021Y3091D02*
X033D01*
X052D02*
X053D01*
X059D02*
X068D01*
X080D02*
X089D01*
X096D02*
X106D01*
X115D02*
X124D01*
X134D02*
X143D01*
X157D02*
X167D01*
X182D02*
X191D01*
X202D02*
X211D01*
X219D02*
X228D01*
X237D02*
X246D01*
X253D02*
X262D01*
X289D02*
X298D01*
X021Y3092D02*
X032D01*
X059D02*
X068D01*
X080D02*
X089D01*
X096D02*
X106D01*
X115D02*
X124D01*
X134D02*
X143D01*
X157D02*
X167D01*
X181D02*
X191D01*
X203D02*
X212D01*
X219D02*
X228D01*
X237D02*
X246D01*
X253D02*
X282D01*
X289D02*
X298D01*
X021Y3093D02*
X032D01*
X058D02*
X068D01*
X080D02*
X089D01*
X096D02*
X106D01*
X115D02*
X124D01*
X134D02*
X143D01*
X157D02*
X167D01*
X181D02*
X191D01*
X203D02*
X212D01*
X219D02*
X228D01*
X237D02*
X246D01*
X252D02*
X282D01*
X289D02*
X298D01*
X021Y3094D02*
X032D01*
X058D02*
X068D01*
X080D02*
X089D01*
X096D02*
X106D01*
X115D02*
X124D01*
X134D02*
X143D01*
X157D02*
X167D01*
X181D02*
X191D01*
X203D02*
X212D01*
X219D02*
X228D01*
X237D02*
X246D01*
X252D02*
X282D01*
X289D02*
X298D01*
X021Y3095D02*
X031D01*
X058D02*
X068D01*
X080D02*
X089D01*
X096D02*
X106D01*
X115D02*
X124D01*
X134D02*
X143D01*
X157D02*
X167D01*
X181D02*
X191D01*
X202D02*
X212D01*
X219D02*
X228D01*
X237D02*
X246D01*
X252D02*
X282D01*
X289D02*
X298D01*
X021Y3096D02*
X031D01*
X059D02*
X068D01*
X079D02*
X089D01*
X096D02*
X106D01*
X115D02*
X124D01*
X134D02*
X143D01*
X157D02*
X167D01*
X181D02*
X191D01*
X202D02*
X212D01*
X219D02*
X228D01*
X237D02*
X246D01*
X253D02*
X282D01*
X289D02*
X298D01*
X021Y3097D02*
X031D01*
X059D02*
X068D01*
X079D02*
X089D01*
X096D02*
X106D01*
X115D02*
X124D01*
X134D02*
X143D01*
X157D02*
X167D01*
X182D02*
X191D01*
X202D02*
X211D01*
X219D02*
X228D01*
X237D02*
X246D01*
X253D02*
X282D01*
X289D02*
X298D01*
X021Y3098D02*
X031D01*
X059D02*
X068D01*
X079D02*
X088D01*
X096D02*
X106D01*
X115D02*
X124D01*
X134D02*
X143D01*
X157D02*
X167D01*
X182D02*
X191D01*
X202D02*
X211D01*
X219D02*
X228D01*
X237D02*
X246D01*
X253D02*
X262D01*
X272D02*
X282D01*
X289D02*
X298D01*
X021Y3099D02*
X031D01*
X059D02*
X069D01*
X079D02*
X088D01*
X096D02*
X106D01*
X115D02*
X124D01*
X134D02*
X143D01*
X157D02*
X167D01*
X182D02*
X191D01*
X202D02*
X211D01*
X219D02*
X228D01*
X237D02*
X246D01*
X253D02*
X262D01*
X272D02*
X281D01*
X289D02*
X298D01*
X021Y3099D02*
X031D01*
X059D02*
X069D01*
X078D02*
X088D01*
X096D02*
X106D01*
X114D02*
X124D01*
X134D02*
X143D01*
X157D02*
X167D01*
X182D02*
X192D01*
X201D02*
X211D01*
X219D02*
X228D01*
X237D02*
X246D01*
X253D02*
X262D01*
X272D02*
X281D01*
X289D02*
X299D01*
X021Y3100D02*
X031D01*
X060D02*
X069D01*
X078D02*
X088D01*
X096D02*
X107D01*
X113D02*
X124D01*
X134D02*
X143D01*
X157D02*
X172D01*
X176D02*
X178D01*
X183D02*
X192D01*
X201D02*
X210D01*
X219D02*
X228D01*
X237D02*
X246D01*
X254D02*
X263D01*
X271D02*
X281D01*
X289D02*
X303D01*
X308D02*
X310D01*
X021Y3101D02*
X031D01*
X060D02*
X071D01*
X077D02*
X087D01*
X096D02*
X124D01*
X134D02*
X143D01*
X157D02*
X178D01*
X183D02*
X193D01*
X200D02*
X210D01*
X219D02*
X228D01*
X237D02*
X246D01*
X254D02*
X264D01*
X271D02*
X281D01*
X289D02*
X310D01*
X021Y3102D02*
X031D01*
X061D02*
X073D01*
X075D02*
X087D01*
X096D02*
X124D01*
X130D02*
X151D01*
X157D02*
X178D01*
X184D02*
X196D01*
X198D02*
X209D01*
X219D02*
X228D01*
X237D02*
X246D01*
X255D02*
X267D01*
X269D02*
X280D01*
X289D02*
X310D01*
X021Y3103D02*
X032D01*
X062D02*
X086D01*
X096D02*
X123D01*
X130D02*
X151D01*
X157D02*
X178D01*
X184D02*
X209D01*
X219D02*
X228D01*
X237D02*
X246D01*
X256D02*
X280D01*
X289D02*
X310D01*
X021Y3104D02*
X032D01*
X062D02*
X086D01*
X096D02*
X123D01*
X130D02*
X151D01*
X157D02*
X167D01*
X167D02*
X178D01*
X185D02*
X208D01*
X219D02*
X228D01*
X237D02*
X246D01*
X256D02*
X279D01*
X289D02*
X298D01*
X299D02*
X310D01*
X022Y3105D02*
X032D01*
X052D02*
X053D01*
X063D02*
X084D01*
X096D02*
X106D01*
X106D02*
X123D01*
X130D02*
X151D01*
X157D02*
X167D01*
X168D02*
X178D01*
X186D02*
X207D01*
X219D02*
X228D01*
X237D02*
X246D01*
X258D02*
X279D01*
X289D02*
X298D01*
X300D02*
X310D01*
X022Y3106D02*
X033D01*
X051D02*
X053D01*
X064D02*
X083D01*
X096D02*
X106D01*
X107D02*
X122D01*
X130D02*
X151D01*
X157D02*
X167D01*
X169D02*
X178D01*
X187D02*
X206D01*
X219D02*
X228D01*
X237D02*
X246D01*
X259D02*
X277D01*
X289D02*
X298D01*
X300D02*
X310D01*
X022Y3107D02*
X033D01*
X049D02*
X053D01*
X066D02*
X081D01*
X096D02*
X106D01*
X109D02*
X121D01*
X130D02*
X151D01*
X157D02*
X167D01*
X170D02*
X178D01*
X189D02*
X204D01*
X219D02*
X228D01*
X237D02*
X246D01*
X261D02*
X276D01*
X289D02*
X298D01*
X302D02*
X310D01*
X023Y3108D02*
X034D01*
X048D02*
X053D01*
X069D02*
X079D01*
X096D02*
X106D01*
X111D02*
X119D01*
X130D02*
X151D01*
X157D02*
X167D01*
X174D02*
X178D01*
X192D02*
X202D01*
X219D02*
X228D01*
X237D02*
X246D01*
X263D02*
X275D01*
X289D02*
X298D01*
X305D02*
X310D01*
X023Y3109D02*
X036D01*
X046D02*
X053D01*
X074D02*
X074D01*
X115D02*
X115D01*
X134D02*
X143D01*
X197D02*
X197D01*
X219D02*
X228D01*
X237D02*
X246D01*
X268D02*
X268D01*
X024Y3110D02*
X039D01*
X043D02*
X053D01*
X134D02*
X143D01*
X219D02*
X228D01*
X237D02*
X246D01*
X024Y3111D02*
X053D01*
X134D02*
X143D01*
X219D02*
X228D01*
X237D02*
X246D01*
X025Y3112D02*
X053D01*
X134D02*
X143D01*
X219D02*
X228D01*
X237D02*
X246D01*
X025Y3113D02*
X053D01*
X134D02*
X143D01*
X219D02*
X228D01*
X237D02*
X246D01*
X027Y3114D02*
X053D01*
X134D02*
X143D01*
X219D02*
X228D01*
X237D02*
X246D01*
X029Y3114D02*
X053D01*
X134D02*
X143D01*
X219D02*
X228D01*
X237D02*
X246D01*
X030Y3115D02*
X051D01*
X134D02*
X143D01*
X219D02*
X228D01*
X237D02*
X246D01*
X032Y3116D02*
X048D01*
X134D02*
X143D01*
X219D02*
X228D01*
X237D02*
X246D01*
X037Y3117D02*
X043D01*
X219D02*
X228D01*
X237D02*
X246D01*
X219Y3118D02*
X228D01*
X237D02*
X246D01*
X084Y3272D02*
X066D01*
Y3301*
X042*
Y3272*
X024*
Y3338*
X042*
Y3314*
X066*
Y3338*
X084*
Y3272*
X153D02*
X101D01*
Y3283*
X113Y3292*
X118Y3297*
X122Y3301*
X127Y3305*
X130Y3310*
X132Y3313*
Y3318*
X131Y3321*
X129Y3324*
X126Y3325*
X121Y3326*
X113Y3325*
X105Y3321*
X104*
Y3335*
X108Y3336*
X112Y3338*
X124Y3340*
X135Y3338*
X143Y3334*
X149Y3329*
X150Y3320*
X149Y3314*
X146Y3308*
X143Y3302*
X138Y3297*
X129Y3290*
X126Y3287*
X123Y3286*
X153*
Y3272*
X236D02*
X218D01*
Y3316*
X206Y3288*
X195*
X183Y3316*
Y3272*
X166*
Y3338*
X186*
X201Y3305*
X216Y3338*
X236*
Y3272*
X305Y3291D02*
X303Y3283D01*
X298Y3277*
X289Y3272*
X277Y3271*
X264Y3272*
X256Y3277*
X251Y3282*
X249Y3290*
X250Y3294*
X252Y3299*
X256Y3302*
X262Y3305*
X258Y3309*
X253Y3312*
X252Y3316*
X251Y3322*
X253Y3329*
X259Y3334*
X267Y3338*
X278Y3340*
X288Y3338*
X296Y3335*
X301Y3330*
X303Y3323*
X302Y3319*
X301Y3314*
X296Y3311*
X292Y3309*
X298Y3305*
X302Y3301*
X304Y3297*
X305Y3291*
X286Y3321D02*
Y3323D01*
X284Y3325*
X278Y3327*
X274*
X272Y3326*
X270Y3324*
X269Y3322*
X270Y3318*
X275Y3315*
X279Y3314*
X283Y3312*
X285Y3316*
X286Y3321*
X288Y3291D02*
X286Y3295D01*
X283Y3297*
X280Y3299*
X275Y3300*
X271Y3302*
X268Y3298*
X266Y3293*
X267Y3289*
X269Y3286*
X272Y3283*
X278*
X281*
X284Y3284*
X286Y3287*
X288Y3291*
X275Y3271D02*
X278D01*
X024Y3272D02*
X042D01*
X066D02*
X084D01*
X101D02*
X153D01*
X166D02*
X183D01*
X218D02*
X236D01*
X264D02*
X289D01*
X024Y3273D02*
X042D01*
X066D02*
X084D01*
X101D02*
X153D01*
X166D02*
X183D01*
X218D02*
X236D01*
X263D02*
X291D01*
X024Y3274D02*
X042D01*
X066D02*
X084D01*
X101D02*
X153D01*
X166D02*
X183D01*
X218D02*
X236D01*
X261D02*
X292D01*
X024Y3275D02*
X042D01*
X066D02*
X084D01*
X101D02*
X153D01*
X166D02*
X183D01*
X218D02*
X236D01*
X259D02*
X294D01*
X024Y3276D02*
X042D01*
X066D02*
X084D01*
X101D02*
X153D01*
X166D02*
X183D01*
X218D02*
X236D01*
X257D02*
X296D01*
X024Y3277D02*
X042D01*
X066D02*
X084D01*
X101D02*
X153D01*
X166D02*
X183D01*
X218D02*
X236D01*
X255D02*
X298D01*
X024Y3278D02*
X042D01*
X066D02*
X084D01*
X101D02*
X153D01*
X166D02*
X183D01*
X218D02*
X236D01*
X255D02*
X299D01*
X024Y3279D02*
X042D01*
X066D02*
X084D01*
X101D02*
X153D01*
X166D02*
X183D01*
X218D02*
X236D01*
X254D02*
X299D01*
X024Y3280D02*
X042D01*
X066D02*
X084D01*
X101D02*
X153D01*
X166D02*
X183D01*
X218D02*
X236D01*
X253D02*
X300D01*
X024Y3281D02*
X042D01*
X066D02*
X084D01*
X101D02*
X153D01*
X166D02*
X183D01*
X218D02*
X236D01*
X252D02*
X301D01*
X024Y3282D02*
X042D01*
X066D02*
X084D01*
X101D02*
X153D01*
X166D02*
X183D01*
X218D02*
X236D01*
X252D02*
X302D01*
X024Y3283D02*
X042D01*
X066D02*
X084D01*
X101D02*
X153D01*
X166D02*
X183D01*
X218D02*
X236D01*
X251D02*
X302D01*
X024Y3284D02*
X042D01*
X066D02*
X084D01*
X102D02*
X153D01*
X166D02*
X183D01*
X218D02*
X236D01*
X251D02*
X272D01*
X282D02*
X303D01*
X024Y3284D02*
X042D01*
X066D02*
X084D01*
X103D02*
X153D01*
X166D02*
X183D01*
X218D02*
X236D01*
X251D02*
X270D01*
X284D02*
X303D01*
X024Y3285D02*
X042D01*
X066D02*
X084D01*
X104D02*
X153D01*
X166D02*
X183D01*
X218D02*
X236D01*
X250D02*
X269D01*
X285D02*
X304D01*
X024Y3286D02*
X042D01*
X066D02*
X084D01*
X105D02*
X125D01*
X166D02*
X183D01*
X218D02*
X236D01*
X250D02*
X268D01*
X286D02*
X304D01*
X024Y3287D02*
X042D01*
X066D02*
X084D01*
X107D02*
X126D01*
X166D02*
X183D01*
X218D02*
X236D01*
X250D02*
X268D01*
X287D02*
X304D01*
X024Y3288D02*
X042D01*
X066D02*
X084D01*
X108D02*
X127D01*
X166D02*
X183D01*
X195D02*
X206D01*
X218D02*
X236D01*
X250D02*
X267D01*
X287D02*
X304D01*
X024Y3289D02*
X042D01*
X066D02*
X084D01*
X109D02*
X128D01*
X166D02*
X183D01*
X194D02*
X207D01*
X218D02*
X236D01*
X249D02*
X267D01*
X287D02*
X305D01*
X024Y3290D02*
X042D01*
X066D02*
X084D01*
X111D02*
X129D01*
X166D02*
X183D01*
X194D02*
X207D01*
X218D02*
X236D01*
X249D02*
X266D01*
X287D02*
X305D01*
X024Y3291D02*
X042D01*
X066D02*
X084D01*
X112D02*
X130D01*
X166D02*
X183D01*
X194D02*
X207D01*
X218D02*
X236D01*
X249D02*
X266D01*
X288D02*
X305D01*
X024Y3292D02*
X042D01*
X066D02*
X084D01*
X113D02*
X132D01*
X166D02*
X183D01*
X193D02*
X208D01*
X218D02*
X236D01*
X250D02*
X266D01*
X287D02*
X305D01*
X024Y3293D02*
X042D01*
X066D02*
X084D01*
X114D02*
X133D01*
X166D02*
X183D01*
X193D02*
X208D01*
X218D02*
X236D01*
X250D02*
X266D01*
X287D02*
X305D01*
X024Y3294D02*
X042D01*
X066D02*
X084D01*
X115D02*
X134D01*
X166D02*
X183D01*
X192D02*
X209D01*
X218D02*
X236D01*
X250D02*
X266D01*
X287D02*
X305D01*
X024Y3295D02*
X042D01*
X066D02*
X084D01*
X116D02*
X135D01*
X166D02*
X183D01*
X192D02*
X209D01*
X218D02*
X236D01*
X250D02*
X266D01*
X287D02*
X304D01*
X024Y3296D02*
X042D01*
X066D02*
X084D01*
X117D02*
X137D01*
X166D02*
X183D01*
X192D02*
X209D01*
X218D02*
X236D01*
X251D02*
X267D01*
X286D02*
X304D01*
X024Y3297D02*
X042D01*
X066D02*
X084D01*
X118D02*
X138D01*
X166D02*
X183D01*
X191D02*
X210D01*
X218D02*
X236D01*
X251D02*
X267D01*
X283D02*
X304D01*
X024Y3298D02*
X042D01*
X066D02*
X084D01*
X119D02*
X139D01*
X166D02*
X183D01*
X191D02*
X210D01*
X218D02*
X236D01*
X252D02*
X268D01*
X282D02*
X304D01*
X024Y3299D02*
X042D01*
X066D02*
X084D01*
X120D02*
X140D01*
X166D02*
X183D01*
X190D02*
X211D01*
X218D02*
X236D01*
X252D02*
X268D01*
X280D02*
X303D01*
X024Y3299D02*
X042D01*
X066D02*
X084D01*
X121D02*
X141D01*
X166D02*
X183D01*
X190D02*
X211D01*
X218D02*
X236D01*
X253D02*
X269D01*
X277D02*
X303D01*
X024Y3300D02*
X042D01*
X066D02*
X084D01*
X122D02*
X142D01*
X166D02*
X183D01*
X190D02*
X211D01*
X218D02*
X236D01*
X254D02*
X270D01*
X274D02*
X302D01*
X024Y3301D02*
X084D01*
X123D02*
X142D01*
X166D02*
X183D01*
X189D02*
X212D01*
X218D02*
X236D01*
X255D02*
X271D01*
X272D02*
X302D01*
X024Y3302D02*
X084D01*
X124D02*
X143D01*
X166D02*
X183D01*
X189D02*
X212D01*
X218D02*
X236D01*
X256D02*
X301D01*
X024Y3303D02*
X084D01*
X125D02*
X144D01*
X166D02*
X183D01*
X188D02*
X213D01*
X218D02*
X236D01*
X258D02*
X300D01*
X024Y3304D02*
X084D01*
X125D02*
X144D01*
X166D02*
X183D01*
X188D02*
X213D01*
X218D02*
X236D01*
X260D02*
X299D01*
X024Y3305D02*
X084D01*
X126D02*
X145D01*
X166D02*
X183D01*
X188D02*
X213D01*
X218D02*
X236D01*
X262D02*
X298D01*
X024Y3306D02*
X084D01*
X127D02*
X146D01*
X166D02*
X183D01*
X187D02*
X200D01*
X201D02*
X214D01*
X218D02*
X236D01*
X261D02*
X296D01*
X024Y3307D02*
X084D01*
X128D02*
X146D01*
X166D02*
X183D01*
X187D02*
X200D01*
X201D02*
X214D01*
X218D02*
X236D01*
X260D02*
X295D01*
X024Y3308D02*
X084D01*
X129D02*
X147D01*
X166D02*
X183D01*
X186D02*
X199D01*
X202D02*
X215D01*
X218D02*
X236D01*
X259D02*
X293D01*
X024Y3309D02*
X084D01*
X129D02*
X147D01*
X166D02*
X183D01*
X186D02*
X199D01*
X202D02*
X215D01*
X218D02*
X236D01*
X258D02*
X292D01*
X024Y3310D02*
X084D01*
X130D02*
X147D01*
X166D02*
X183D01*
X186D02*
X199D01*
X203D02*
X215D01*
X218D02*
X236D01*
X256D02*
X294D01*
X024Y3311D02*
X084D01*
X131D02*
X148D01*
X166D02*
X183D01*
X185D02*
X198D01*
X203D02*
X216D01*
X218D02*
X236D01*
X255D02*
X296D01*
X024Y3312D02*
X084D01*
X131D02*
X148D01*
X166D02*
X183D01*
X185D02*
X198D01*
X203D02*
X216D01*
X218D02*
X236D01*
X254D02*
X297D01*
X024Y3313D02*
X084D01*
X132D02*
X148D01*
X166D02*
X183D01*
X184D02*
X197D01*
X204D02*
X217D01*
X218D02*
X236D01*
X253D02*
X282D01*
X283D02*
X299D01*
X024Y3314D02*
X084D01*
X132D02*
X148D01*
X166D02*
X183D01*
X184D02*
X197D01*
X204D02*
X217D01*
X218D02*
X236D01*
X253D02*
X280D01*
X284D02*
X300D01*
X024Y3314D02*
X042D01*
X066D02*
X084D01*
X132D02*
X149D01*
X166D02*
X183D01*
X184D02*
X197D01*
X205D02*
X217D01*
X218D02*
X236D01*
X253D02*
X278D01*
X284D02*
X301D01*
X024Y3315D02*
X042D01*
X066D02*
X084D01*
X132D02*
X149D01*
X166D02*
X183D01*
X183D02*
X196D01*
X205D02*
X218D01*
X218D02*
X236D01*
X253D02*
X275D01*
X285D02*
X301D01*
X024Y3316D02*
X042D01*
X066D02*
X084D01*
X132D02*
X149D01*
X166D02*
X183D01*
X183D02*
X196D01*
X206D02*
X218D01*
X218D02*
X236D01*
X252D02*
X273D01*
X285D02*
X301D01*
X024Y3317D02*
X042D01*
X066D02*
X084D01*
X132D02*
X149D01*
X166D02*
X195D01*
X206D02*
X236D01*
X252D02*
X271D01*
X286D02*
X302D01*
X024Y3318D02*
X042D01*
X066D02*
X084D01*
X132D02*
X150D01*
X166D02*
X195D01*
X207D02*
X236D01*
X252D02*
X270D01*
X286D02*
X302D01*
X024Y3319D02*
X042D01*
X066D02*
X084D01*
X132D02*
X150D01*
X166D02*
X195D01*
X207D02*
X236D01*
X252D02*
X270D01*
X286D02*
X302D01*
X024Y3320D02*
X042D01*
X066D02*
X084D01*
X131D02*
X150D01*
X166D02*
X194D01*
X207D02*
X236D01*
X252D02*
X269D01*
X286D02*
X302D01*
X024Y3321D02*
X042D01*
X066D02*
X084D01*
X104D02*
X105D01*
X131D02*
X150D01*
X166D02*
X194D01*
X208D02*
X236D01*
X251D02*
X269D01*
X286D02*
X303D01*
X024Y3322D02*
X042D01*
X066D02*
X084D01*
X104D02*
X107D01*
X130D02*
X150D01*
X166D02*
X193D01*
X208D02*
X236D01*
X251D02*
X269D01*
X286D02*
X303D01*
X024Y3323D02*
X042D01*
X066D02*
X084D01*
X104D02*
X109D01*
X130D02*
X149D01*
X166D02*
X193D01*
X209D02*
X236D01*
X252D02*
X269D01*
X286D02*
X303D01*
X024Y3324D02*
X042D01*
X066D02*
X084D01*
X104D02*
X111D01*
X129D02*
X149D01*
X166D02*
X193D01*
X209D02*
X236D01*
X252D02*
X270D01*
X286D02*
X303D01*
X024Y3325D02*
X042D01*
X066D02*
X084D01*
X104D02*
X113D01*
X127D02*
X149D01*
X166D02*
X192D01*
X210D02*
X236D01*
X252D02*
X271D01*
X285D02*
X302D01*
X024Y3326D02*
X042D01*
X066D02*
X084D01*
X104D02*
X117D01*
X124D02*
X149D01*
X166D02*
X192D01*
X210D02*
X236D01*
X252D02*
X272D01*
X283D02*
X302D01*
X024Y3327D02*
X042D01*
X066D02*
X084D01*
X104D02*
X149D01*
X166D02*
X191D01*
X210D02*
X236D01*
X253D02*
X273D01*
X280D02*
X302D01*
X024Y3328D02*
X042D01*
X066D02*
X084D01*
X104D02*
X149D01*
X166D02*
X191D01*
X211D02*
X236D01*
X253D02*
X302D01*
X024Y3329D02*
X042D01*
X066D02*
X084D01*
X104D02*
X149D01*
X166D02*
X190D01*
X211D02*
X236D01*
X253D02*
X301D01*
X024Y3329D02*
X042D01*
X066D02*
X084D01*
X104D02*
X148D01*
X166D02*
X190D01*
X212D02*
X236D01*
X254D02*
X301D01*
X024Y3330D02*
X042D01*
X066D02*
X084D01*
X104D02*
X147D01*
X166D02*
X190D01*
X212D02*
X236D01*
X255D02*
X300D01*
X024Y3331D02*
X042D01*
X066D02*
X084D01*
X104D02*
X146D01*
X166D02*
X189D01*
X213D02*
X236D01*
X256D02*
X299D01*
X024Y3332D02*
X042D01*
X066D02*
X084D01*
X104D02*
X145D01*
X166D02*
X189D01*
X213D02*
X236D01*
X257D02*
X299D01*
X024Y3333D02*
X042D01*
X066D02*
X084D01*
X104D02*
X144D01*
X166D02*
X188D01*
X214D02*
X236D01*
X258D02*
X298D01*
X024Y3334D02*
X042D01*
X066D02*
X084D01*
X104D02*
X143D01*
X166D02*
X188D01*
X214D02*
X236D01*
X259D02*
X297D01*
X024Y3335D02*
X042D01*
X066D02*
X084D01*
X104D02*
X141D01*
X166D02*
X188D01*
X214D02*
X236D01*
X261D02*
X296D01*
X024Y3336D02*
X042D01*
X066D02*
X084D01*
X107D02*
X140D01*
X166D02*
X187D01*
X215D02*
X236D01*
X262D02*
X294D01*
X024Y3337D02*
X042D01*
X066D02*
X084D01*
X109D02*
X138D01*
X166D02*
X187D01*
X215D02*
X236D01*
X264D02*
X292D01*
X024Y3338D02*
X042D01*
X066D02*
X084D01*
X111D02*
X136D01*
X166D02*
X186D01*
X216D02*
X236D01*
X266D02*
X289D01*
X117Y3339D02*
X132D01*
X271D02*
X284D01*
X080Y3242D02*
X070Y3204D01*
X059*
X052Y3229*
X046Y3204*
X035*
X025Y3242*
X035*
X041Y3216*
X048Y3242*
X057*
X064Y3216*
X070Y3242*
X080*
X114Y3217D02*
X094D01*
X095Y3214*
X097Y3212*
X099Y3211*
X103Y3210*
X108Y3211*
X112Y3213*
X114*
Y3206*
X108Y3204*
X102Y3204*
X095Y3204*
X089Y3207*
X086Y3212*
X085Y3219*
X086Y3225*
X089Y3229*
X094Y3233*
X100Y3234*
X107Y3233*
X111Y3230*
X114Y3226*
X114Y3220*
Y3217*
X105Y3223D02*
X103Y3226D01*
X102Y3227*
X100Y3228*
X096Y3226*
X095Y3225*
X094Y3223*
X105*
X151Y3219D02*
X150Y3213D01*
X147Y3208*
X143Y3205*
X138Y3204*
X134Y3204*
X131Y3206*
X130Y3204*
X121*
Y3244*
X131*
Y3230*
X135Y3233*
X140Y3234*
X144Y3233*
X148Y3230*
X150Y3225*
X151Y3219*
X141D02*
Y3222D01*
X140Y3225*
X138Y3226*
X136Y3227*
X133Y3226*
X131Y3225*
Y3211*
X132Y3210*
X134*
X137Y3211*
X139Y3212*
X141Y3215*
X141Y3219*
X190Y3216D02*
X189Y3211D01*
X186Y3207*
X182Y3205*
X178Y3204*
X175*
X158*
Y3242*
X173*
X177*
X180Y3241*
X183Y3240*
X187Y3238*
X188Y3233*
X187Y3231*
X187Y3228*
X185Y3226*
X182Y3225*
X186Y3224*
X188Y3222*
X190Y3219*
X190Y3216*
X178Y3231D02*
X177Y3233D01*
X176Y3235*
X173Y3235*
X171*
X169*
X168*
Y3227*
X170*
X173*
X176Y3228*
X177Y3229*
X178Y3231*
X180Y3216D02*
X180Y3219D01*
X177Y3220*
X175Y3221*
X170*
X168*
Y3211*
X169*
X172*
X175*
X178Y3212*
X180Y3214*
X180Y3216*
X218Y3225D02*
X217D01*
X216Y3226*
X213*
X210Y3225*
X207Y3224*
Y3204*
X197*
Y3233*
X207*
Y3229*
X209Y3231*
X212Y3233*
X216Y3233*
X217*
X218*
Y3225*
X233Y3204D02*
X223D01*
Y3233*
X233*
Y3204*
Y3237D02*
X223D01*
Y3244*
X233*
Y3237*
X256Y3204D02*
X249Y3204D01*
X243Y3207*
X240Y3212*
X240Y3215*
X239Y3219*
X240Y3223*
X240Y3226*
X244Y3230*
X249Y3233*
X255Y3234*
X261Y3233*
X265Y3231*
Y3224*
X264*
X263Y3224*
X261Y3226*
X258Y3226*
X256Y3227*
X253Y3226*
X250Y3224*
X249Y3222*
X248Y3219*
X249Y3215*
X250Y3212*
X253Y3211*
X256Y3211*
X259*
X262Y3212*
X263Y3212*
X264Y3214*
X265*
Y3206*
X261Y3204*
X256Y3204*
X302Y3204D02*
X292D01*
X284Y3217*
X281Y3214*
Y3204*
X272*
Y3244*
X281*
Y3221*
X291Y3233*
X302*
X291Y3221*
X302Y3204*
X099Y3204D02*
X104D01*
X136D02*
X139D01*
X253D02*
X258D01*
X035Y3205D02*
X046D01*
X059D02*
X070D01*
X094D02*
X109D01*
X121D02*
X130D01*
X132D02*
X143D01*
X158D02*
X181D01*
X197D02*
X207D01*
X223D02*
X233D01*
X248D02*
X263D01*
X272D02*
X281D01*
X291D02*
X302D01*
X034Y3206D02*
X047D01*
X059D02*
X070D01*
X092D02*
X112D01*
X121D02*
X144D01*
X158D02*
X183D01*
X197D02*
X207D01*
X223D02*
X233D01*
X246D02*
X265D01*
X272D02*
X281D01*
X291D02*
X301D01*
X034Y3207D02*
X047D01*
X059D02*
X071D01*
X090D02*
X114D01*
X121D02*
X145D01*
X158D02*
X185D01*
X197D02*
X207D01*
X223D02*
X233D01*
X245D02*
X265D01*
X272D02*
X281D01*
X290D02*
X301D01*
X034Y3208D02*
X047D01*
X058D02*
X071D01*
X089D02*
X114D01*
X121D02*
X146D01*
X158D02*
X186D01*
X197D02*
X207D01*
X223D02*
X233D01*
X243D02*
X265D01*
X272D02*
X281D01*
X290D02*
X300D01*
X034Y3209D02*
X047D01*
X058D02*
X071D01*
X088D02*
X114D01*
X121D02*
X147D01*
X158D02*
X187D01*
X197D02*
X207D01*
X223D02*
X233D01*
X242D02*
X265D01*
X272D02*
X281D01*
X289D02*
X300D01*
X033Y3209D02*
X047D01*
X058D02*
X071D01*
X087D02*
X114D01*
X121D02*
X148D01*
X158D02*
X188D01*
X197D02*
X207D01*
X223D02*
X233D01*
X242D02*
X265D01*
X272D02*
X281D01*
X288D02*
X299D01*
X033Y3210D02*
X048D01*
X058D02*
X072D01*
X087D02*
X100D01*
X107D02*
X114D01*
X121D02*
X131D01*
X137D02*
X148D01*
X158D02*
X189D01*
X197D02*
X207D01*
X223D02*
X233D01*
X241D02*
X265D01*
X272D02*
X281D01*
X288D02*
X298D01*
X033Y3211D02*
X048D01*
X057D02*
X072D01*
X086D02*
X097D01*
X110D02*
X114D01*
X121D02*
X131D01*
X139D02*
X149D01*
X158D02*
X168D01*
X175D02*
X189D01*
X197D02*
X207D01*
X223D02*
X233D01*
X240D02*
X252D01*
X261D02*
X265D01*
X272D02*
X281D01*
X287D02*
X298D01*
X033Y3212D02*
X048D01*
X057D02*
X072D01*
X086D02*
X096D01*
X111D02*
X114D01*
X121D02*
X131D01*
X140D02*
X150D01*
X158D02*
X168D01*
X178D02*
X190D01*
X197D02*
X207D01*
X223D02*
X233D01*
X240D02*
X251D01*
X263D02*
X265D01*
X272D02*
X281D01*
X287D02*
X297D01*
X032Y3213D02*
X048D01*
X057D02*
X072D01*
X086D02*
X095D01*
X121D02*
X131D01*
X140D02*
X150D01*
X158D02*
X168D01*
X179D02*
X190D01*
X197D02*
X207D01*
X223D02*
X233D01*
X240D02*
X250D01*
X264D02*
X265D01*
X272D02*
X281D01*
X286D02*
X296D01*
X032Y3214D02*
X049D01*
X057D02*
X073D01*
X085D02*
X095D01*
X121D02*
X131D01*
X140D02*
X150D01*
X158D02*
X168D01*
X180D02*
X190D01*
X197D02*
X207D01*
X223D02*
X233D01*
X240D02*
X249D01*
X272D02*
X281D01*
X285D02*
X296D01*
X032Y3215D02*
X049D01*
X056D02*
X073D01*
X085D02*
X094D01*
X121D02*
X131D01*
X141D02*
X150D01*
X158D02*
X168D01*
X180D02*
X190D01*
X197D02*
X207D01*
X223D02*
X233D01*
X239D02*
X249D01*
X272D02*
X282D01*
X285D02*
X295D01*
X032Y3216D02*
X049D01*
X056D02*
X073D01*
X085D02*
X094D01*
X121D02*
X131D01*
X141D02*
X150D01*
X158D02*
X168D01*
X180D02*
X190D01*
X197D02*
X207D01*
X223D02*
X233D01*
X239D02*
X249D01*
X272D02*
X283D01*
X284D02*
X294D01*
X031Y3217D02*
X041D01*
X041D02*
X049D01*
X056D02*
X064D01*
X065D02*
X073D01*
X085D02*
X114D01*
X121D02*
X131D01*
X141D02*
X150D01*
X158D02*
X168D01*
X180D02*
X190D01*
X197D02*
X207D01*
X223D02*
X233D01*
X239D02*
X249D01*
X272D02*
X294D01*
X031Y3218D02*
X041D01*
X042D02*
X050D01*
X056D02*
X064D01*
X065D02*
X074D01*
X085D02*
X114D01*
X121D02*
X131D01*
X141D02*
X151D01*
X158D02*
X168D01*
X180D02*
X190D01*
X197D02*
X207D01*
X223D02*
X233D01*
X239D02*
X248D01*
X272D02*
X293D01*
X031Y3219D02*
X041D01*
X042D02*
X050D01*
X055D02*
X064D01*
X065D02*
X074D01*
X085D02*
X114D01*
X121D02*
X131D01*
X141D02*
X151D01*
X158D02*
X168D01*
X179D02*
X190D01*
X197D02*
X207D01*
X223D02*
X233D01*
X239D02*
X248D01*
X272D02*
X292D01*
X031Y3220D02*
X040D01*
X042D02*
X050D01*
X055D02*
X063D01*
X065D02*
X074D01*
X085D02*
X114D01*
X121D02*
X131D01*
X141D02*
X151D01*
X158D02*
X168D01*
X178D02*
X190D01*
X197D02*
X207D01*
X223D02*
X233D01*
X239D02*
X249D01*
X272D02*
X292D01*
X030Y3221D02*
X040D01*
X042D02*
X050D01*
X055D02*
X063D01*
X065D02*
X074D01*
X085D02*
X114D01*
X121D02*
X131D01*
X141D02*
X150D01*
X158D02*
X189D01*
X197D02*
X207D01*
X223D02*
X233D01*
X239D02*
X249D01*
X272D02*
X281D01*
X281D02*
X291D01*
X030Y3222D02*
X040D01*
X043D02*
X051D01*
X054D02*
X063D01*
X066D02*
X075D01*
X085D02*
X114D01*
X121D02*
X131D01*
X141D02*
X150D01*
X158D02*
X189D01*
X197D02*
X207D01*
X223D02*
X233D01*
X239D02*
X249D01*
X272D02*
X281D01*
X282D02*
X292D01*
X030Y3223D02*
X040D01*
X043D02*
X051D01*
X054D02*
X063D01*
X066D02*
X075D01*
X085D02*
X094D01*
X105D02*
X114D01*
X121D02*
X131D01*
X141D02*
X150D01*
X158D02*
X188D01*
X197D02*
X207D01*
X223D02*
X233D01*
X240D02*
X249D01*
X272D02*
X281D01*
X283D02*
X293D01*
X030Y3224D02*
X039D01*
X043D02*
X051D01*
X054D02*
X062D01*
X066D02*
X075D01*
X086D02*
X094D01*
X104D02*
X114D01*
X121D02*
X131D01*
X141D02*
X150D01*
X158D02*
X186D01*
X197D02*
X207D01*
X223D02*
X233D01*
X240D02*
X250D01*
X272D02*
X281D01*
X283D02*
X294D01*
X029Y3224D02*
X039D01*
X043D02*
X051D01*
X054D02*
X062D01*
X066D02*
X075D01*
X086D02*
X094D01*
X104D02*
X114D01*
X121D02*
X131D01*
X140D02*
X150D01*
X158D02*
X184D01*
X197D02*
X207D01*
X223D02*
X233D01*
X240D02*
X250D01*
X263D02*
X265D01*
X272D02*
X281D01*
X284D02*
X294D01*
X029Y3225D02*
X039D01*
X044D02*
X052D01*
X053D02*
X062D01*
X066D02*
X076D01*
X086D02*
X095D01*
X104D02*
X114D01*
X121D02*
X131D01*
X139D02*
X150D01*
X158D02*
X183D01*
X197D02*
X212D01*
X216D02*
X218D01*
X223D02*
X233D01*
X240D02*
X252D01*
X261D02*
X265D01*
X272D02*
X281D01*
X285D02*
X295D01*
X029Y3226D02*
X039D01*
X044D02*
X052D01*
X053D02*
X062D01*
X067D02*
X076D01*
X087D02*
X096D01*
X103D02*
X113D01*
X121D02*
X133D01*
X138D02*
X150D01*
X158D02*
X185D01*
X197D02*
X218D01*
X223D02*
X233D01*
X241D02*
X253D01*
X258D02*
X265D01*
X272D02*
X281D01*
X286D02*
X296D01*
X029Y3227D02*
X039D01*
X044D02*
X052D01*
X053D02*
X061D01*
X067D02*
X076D01*
X087D02*
X099D01*
X101D02*
X113D01*
X121D02*
X149D01*
X158D02*
X168D01*
X175D02*
X186D01*
X197D02*
X218D01*
X223D02*
X233D01*
X242D02*
X265D01*
X272D02*
X281D01*
X286D02*
X297D01*
X028Y3228D02*
X038D01*
X044D02*
X052D01*
X053D02*
X061D01*
X067D02*
X076D01*
X088D02*
X112D01*
X121D02*
X149D01*
X158D02*
X168D01*
X177D02*
X187D01*
X197D02*
X218D01*
X223D02*
X233D01*
X242D02*
X265D01*
X272D02*
X281D01*
X287D02*
X298D01*
X028Y3229D02*
X038D01*
X045D02*
X061D01*
X067D02*
X077D01*
X089D02*
X112D01*
X121D02*
X149D01*
X158D02*
X168D01*
X177D02*
X187D01*
X197D02*
X207D01*
X207D02*
X218D01*
X223D02*
X233D01*
X243D02*
X265D01*
X272D02*
X281D01*
X288D02*
X298D01*
X028Y3230D02*
X038D01*
X045D02*
X061D01*
X067D02*
X077D01*
X090D02*
X111D01*
X121D02*
X131D01*
X131D02*
X148D01*
X158D02*
X168D01*
X177D02*
X187D01*
X197D02*
X207D01*
X208D02*
X218D01*
X223D02*
X233D01*
X244D02*
X265D01*
X272D02*
X281D01*
X289D02*
X299D01*
X028Y3231D02*
X038D01*
X045D02*
X060D01*
X068D02*
X077D01*
X091D02*
X110D01*
X121D02*
X131D01*
X132D02*
X147D01*
X158D02*
X168D01*
X178D02*
X187D01*
X197D02*
X207D01*
X209D02*
X218D01*
X223D02*
X233D01*
X245D02*
X265D01*
X272D02*
X281D01*
X289D02*
X300D01*
X027Y3232D02*
X038D01*
X045D02*
X060D01*
X068D02*
X077D01*
X093D02*
X108D01*
X121D02*
X131D01*
X134D02*
X145D01*
X158D02*
X168D01*
X178D02*
X188D01*
X197D02*
X207D01*
X211D02*
X218D01*
X223D02*
X233D01*
X247D02*
X264D01*
X272D02*
X281D01*
X290D02*
X301D01*
X027Y3233D02*
X037D01*
X046D02*
X060D01*
X068D02*
X078D01*
X095D02*
X107D01*
X121D02*
X131D01*
X136D02*
X143D01*
X158D02*
X168D01*
X177D02*
X188D01*
X197D02*
X207D01*
X214D02*
X218D01*
X223D02*
X233D01*
X248D02*
X262D01*
X272D02*
X281D01*
X291D02*
X302D01*
X027Y3234D02*
X037D01*
X046D02*
X060D01*
X068D02*
X078D01*
X100D02*
X101D01*
X121D02*
X131D01*
X140D02*
X140D01*
X158D02*
X168D01*
X177D02*
X188D01*
X255D02*
X255D01*
X272D02*
X281D01*
X027Y3235D02*
X037D01*
X046D02*
X059D01*
X068D02*
X078D01*
X121D02*
X131D01*
X158D02*
X168D01*
X175D02*
X187D01*
X272D02*
X281D01*
X026Y3236D02*
X037D01*
X046D02*
X059D01*
X069D02*
X078D01*
X121D02*
X131D01*
X158D02*
X187D01*
X272D02*
X281D01*
X026Y3237D02*
X037D01*
X047D02*
X059D01*
X069D02*
X079D01*
X121D02*
X131D01*
X158D02*
X187D01*
X272D02*
X281D01*
X026Y3238D02*
X036D01*
X047D02*
X059D01*
X069D02*
X079D01*
X121D02*
X131D01*
X158D02*
X187D01*
X223D02*
X233D01*
X272D02*
X281D01*
X026Y3239D02*
X036D01*
X047D02*
X058D01*
X069D02*
X079D01*
X121D02*
X131D01*
X158D02*
X185D01*
X223D02*
X233D01*
X272D02*
X281D01*
X025Y3239D02*
X036D01*
X047D02*
X058D01*
X069D02*
X079D01*
X121D02*
X131D01*
X158D02*
X184D01*
X223D02*
X233D01*
X272D02*
X281D01*
X025Y3240D02*
X036D01*
X048D02*
X058D01*
X070D02*
X080D01*
X121D02*
X131D01*
X158D02*
X183D01*
X223D02*
X233D01*
X272D02*
X281D01*
X025Y3241D02*
X036D01*
X048D02*
X058D01*
X070D02*
X080D01*
X121D02*
X131D01*
X158D02*
X180D01*
X223D02*
X233D01*
X272D02*
X281D01*
X121Y3242D02*
X131D01*
X223D02*
X233D01*
X272D02*
X281D01*
X121Y3243D02*
X131D01*
X223D02*
X233D01*
X272D02*
X281D01*
X100Y3149D02*
X098Y3141D01*
X095Y3136*
X088Y3132*
X079Y3131*
X070Y3132*
X064Y3136*
X060Y3141*
X058Y3149*
Y3179*
X071*
Y3149*
X072Y3145*
X073Y3142*
X076Y3141*
X079Y3140*
X083Y3141*
X086Y3142*
X087Y3145*
X087Y3149*
Y3179*
X100*
Y3149*
X139Y3165D02*
X138Y3167D01*
X135Y3170*
X132Y3171*
X129*
X124*
Y3158*
X128*
X133*
X136Y3160*
X138Y3162*
X139Y3165*
X158Y3132D02*
X143D01*
X130Y3149*
X124*
Y3132*
X112*
Y3179*
X132*
X139Y3178*
X146Y3177*
X150Y3172*
X151Y3170*
Y3166*
X150Y3161*
X149Y3158*
X146Y3155*
X142Y3152*
X158Y3132*
X202Y3164D02*
X202Y3158D01*
X198Y3153*
X195Y3151*
X192Y3149*
X188Y3148*
X184*
X176*
Y3132*
X163*
Y3179*
X184*
X191Y3178*
X196Y3176*
X201Y3171*
X202Y3168*
Y3164*
X190D02*
X189Y3167D01*
X186Y3170*
X183Y3171*
X178*
X176*
Y3156*
X179*
X184*
X187Y3158*
X189Y3160*
X190Y3164*
X249Y3147D02*
X247Y3141D01*
X243Y3135*
X235Y3132*
X227Y3131*
X221*
X217Y3132*
X208Y3135*
Y3146*
X210*
X218Y3141*
X223Y3140*
X227*
X230*
X233Y3141*
X235Y3142*
X236Y3145*
X235Y3147*
X231Y3149*
X225Y3150*
X220Y3152*
X214Y3154*
X210Y3157*
X209Y3160*
X208Y3165*
X210Y3171*
X214Y3176*
X221Y3179*
X230Y3180*
X239Y3179*
X247Y3177*
Y3166*
X246*
X239Y3170*
X230Y3171*
X227*
X224Y3171*
X221Y3169*
X221Y3167*
X222Y3163*
X224Y3163*
X228Y3162*
X232Y3161*
X238Y3160*
X243Y3157*
X247Y3155*
X248Y3151*
X249Y3147*
X073Y3132D02*
X085D01*
X218D02*
X233D01*
X069Y3133D02*
X089D01*
X112D02*
X124D01*
X142D02*
X157D01*
X163D02*
X176D01*
X215D02*
X237D01*
X068Y3134D02*
X091D01*
X112D02*
X124D01*
X141D02*
X156D01*
X163D02*
X176D01*
X212D02*
X239D01*
X066Y3135D02*
X092D01*
X112D02*
X124D01*
X141D02*
X156D01*
X163D02*
X176D01*
X210D02*
X241D01*
X065Y3135D02*
X094D01*
X112D02*
X124D01*
X140D02*
X155D01*
X163D02*
X176D01*
X208D02*
X243D01*
X063Y3136D02*
X095D01*
X112D02*
X124D01*
X139D02*
X154D01*
X163D02*
X176D01*
X208D02*
X244D01*
X063Y3137D02*
X096D01*
X112D02*
X124D01*
X139D02*
X153D01*
X163D02*
X176D01*
X208D02*
X244D01*
X062Y3138D02*
X096D01*
X112D02*
X124D01*
X138D02*
X153D01*
X163D02*
X176D01*
X208D02*
X245D01*
X061Y3139D02*
X097D01*
X112D02*
X124D01*
X137D02*
X152D01*
X163D02*
X176D01*
X208D02*
X246D01*
X061Y3140D02*
X078D01*
X080D02*
X098D01*
X112D02*
X124D01*
X137D02*
X151D01*
X163D02*
X176D01*
X208D02*
X222D01*
X231D02*
X247D01*
X060Y3141D02*
X075D01*
X084D02*
X098D01*
X112D02*
X124D01*
X136D02*
X151D01*
X163D02*
X176D01*
X208D02*
X219D01*
X234D02*
X247D01*
X060Y3142D02*
X074D01*
X085D02*
X099D01*
X112D02*
X124D01*
X135D02*
X150D01*
X163D02*
X176D01*
X208D02*
X217D01*
X235D02*
X248D01*
X060Y3143D02*
X073D01*
X086D02*
X099D01*
X112D02*
X124D01*
X135D02*
X149D01*
X163D02*
X176D01*
X208D02*
X215D01*
X236D02*
X248D01*
X059Y3144D02*
X072D01*
X086D02*
X099D01*
X112D02*
X124D01*
X134D02*
X148D01*
X163D02*
X176D01*
X208D02*
X214D01*
X236D02*
X248D01*
X059Y3145D02*
X072D01*
X087D02*
X099D01*
X112D02*
X124D01*
X133D02*
X148D01*
X163D02*
X176D01*
X208D02*
X212D01*
X236D02*
X248D01*
X059Y3146D02*
X072D01*
X087D02*
X099D01*
X112D02*
X124D01*
X133D02*
X147D01*
X163D02*
X176D01*
X208D02*
X210D01*
X235D02*
X249D01*
X059Y3147D02*
X071D01*
X087D02*
X100D01*
X112D02*
X124D01*
X132D02*
X146D01*
X163D02*
X176D01*
X235D02*
X249D01*
X059Y3148D02*
X071D01*
X087D02*
X100D01*
X112D02*
X124D01*
X131D02*
X145D01*
X163D02*
X176D01*
X234D02*
X249D01*
X058Y3149D02*
X071D01*
X087D02*
X100D01*
X112D02*
X124D01*
X131D02*
X145D01*
X163D02*
X190D01*
X232D02*
X249D01*
X058Y3149D02*
X071D01*
X087D02*
X100D01*
X112D02*
X144D01*
X163D02*
X193D01*
X229D02*
X248D01*
X058Y3150D02*
X071D01*
X087D02*
X100D01*
X112D02*
X143D01*
X163D02*
X194D01*
X224D02*
X248D01*
X058Y3151D02*
X071D01*
X087D02*
X100D01*
X112D02*
X143D01*
X163D02*
X196D01*
X221D02*
X248D01*
X058Y3152D02*
X071D01*
X087D02*
X100D01*
X112D02*
X142D01*
X163D02*
X197D01*
X218D02*
X248D01*
X058Y3153D02*
X071D01*
X087D02*
X100D01*
X112D02*
X143D01*
X163D02*
X199D01*
X216D02*
X247D01*
X058Y3154D02*
X071D01*
X087D02*
X100D01*
X112D02*
X145D01*
X163D02*
X199D01*
X214D02*
X247D01*
X058Y3155D02*
X071D01*
X087D02*
X100D01*
X112D02*
X146D01*
X163D02*
X200D01*
X213D02*
X246D01*
X058Y3156D02*
X071D01*
X087D02*
X100D01*
X112D02*
X147D01*
X163D02*
X200D01*
X212D02*
X244D01*
X058Y3157D02*
X071D01*
X087D02*
X100D01*
X112D02*
X148D01*
X163D02*
X176D01*
X186D02*
X201D01*
X210D02*
X243D01*
X058Y3158D02*
X071D01*
X087D02*
X100D01*
X112D02*
X124D01*
X133D02*
X149D01*
X163D02*
X176D01*
X187D02*
X202D01*
X210D02*
X241D01*
X058Y3159D02*
X071D01*
X087D02*
X100D01*
X112D02*
X124D01*
X135D02*
X149D01*
X163D02*
X176D01*
X188D02*
X202D01*
X209D02*
X239D01*
X058Y3160D02*
X071D01*
X087D02*
X100D01*
X112D02*
X124D01*
X136D02*
X150D01*
X163D02*
X176D01*
X189D02*
X202D01*
X209D02*
X237D01*
X058Y3161D02*
X071D01*
X087D02*
X100D01*
X112D02*
X124D01*
X137D02*
X150D01*
X163D02*
X176D01*
X189D02*
X202D01*
X209D02*
X234D01*
X058Y3162D02*
X071D01*
X087D02*
X100D01*
X112D02*
X124D01*
X138D02*
X151D01*
X163D02*
X176D01*
X189D02*
X202D01*
X208D02*
X229D01*
X058Y3163D02*
X071D01*
X087D02*
X100D01*
X112D02*
X124D01*
X138D02*
X151D01*
X163D02*
X176D01*
X189D02*
X202D01*
X208D02*
X225D01*
X058Y3164D02*
X071D01*
X087D02*
X100D01*
X112D02*
X124D01*
X138D02*
X151D01*
X163D02*
X176D01*
X190D02*
X202D01*
X208D02*
X222D01*
X058Y3164D02*
X071D01*
X087D02*
X100D01*
X112D02*
X124D01*
X139D02*
X151D01*
X163D02*
X176D01*
X190D02*
X202D01*
X208D02*
X222D01*
X058Y3165D02*
X071D01*
X087D02*
X100D01*
X112D02*
X124D01*
X139D02*
X151D01*
X163D02*
X176D01*
X190D02*
X202D01*
X208D02*
X221D01*
X058Y3166D02*
X071D01*
X087D02*
X100D01*
X112D02*
X124D01*
X138D02*
X151D01*
X163D02*
X176D01*
X189D02*
X202D01*
X208D02*
X221D01*
X245D02*
X247D01*
X058Y3167D02*
X071D01*
X087D02*
X100D01*
X112D02*
X124D01*
X138D02*
X151D01*
X163D02*
X176D01*
X189D02*
X202D01*
X208D02*
X221D01*
X243D02*
X247D01*
X058Y3168D02*
X071D01*
X087D02*
X100D01*
X112D02*
X124D01*
X137D02*
X151D01*
X163D02*
X176D01*
X188D02*
X202D01*
X209D02*
X221D01*
X241D02*
X247D01*
X058Y3169D02*
X071D01*
X087D02*
X100D01*
X112D02*
X124D01*
X136D02*
X151D01*
X163D02*
X176D01*
X187D02*
X202D01*
X209D02*
X222D01*
X240D02*
X247D01*
X058Y3170D02*
X071D01*
X087D02*
X100D01*
X112D02*
X124D01*
X134D02*
X151D01*
X163D02*
X176D01*
X184D02*
X201D01*
X209D02*
X223D01*
X237D02*
X247D01*
X058Y3171D02*
X071D01*
X087D02*
X100D01*
X112D02*
X150D01*
X163D02*
X201D01*
X209D02*
X226D01*
X232D02*
X247D01*
X058Y3172D02*
X071D01*
X087D02*
X100D01*
X112D02*
X150D01*
X163D02*
X200D01*
X210D02*
X247D01*
X058Y3173D02*
X071D01*
X087D02*
X100D01*
X112D02*
X149D01*
X163D02*
X199D01*
X211D02*
X247D01*
X058Y3174D02*
X071D01*
X087D02*
X100D01*
X112D02*
X148D01*
X163D02*
X198D01*
X212D02*
X247D01*
X058Y3175D02*
X071D01*
X087D02*
X100D01*
X112D02*
X147D01*
X163D02*
X197D01*
X213D02*
X247D01*
X058Y3176D02*
X071D01*
X087D02*
X100D01*
X112D02*
X147D01*
X163D02*
X196D01*
X214D02*
X247D01*
X058Y3177D02*
X071D01*
X087D02*
X100D01*
X112D02*
X146D01*
X163D02*
X195D01*
X216D02*
X247D01*
X058Y3178D02*
X071D01*
X087D02*
X100D01*
X112D02*
X143D01*
X163D02*
X193D01*
X218D02*
X245D01*
X058Y3179D02*
X071D01*
X087D02*
X100D01*
X112D02*
X138D01*
X163D02*
X189D01*
X220D02*
X242D01*
X224Y3179D02*
X236D01*
D02*
D12*
X021Y610D02*
X033D01*
X027D02*
Y648D01*
X021D02*
X033D01*
X093Y617D02*
X090Y613D01*
X083Y610*
X074*
X068Y613*
X065Y617*
X062Y623*
Y635*
X065Y642*
X068Y645*
X074Y648*
X083*
X090Y645*
X093Y642*
X137Y610D02*
X112D01*
X133Y632*
X137Y638*
X133Y645*
X127Y648*
X118*
X112Y645*
X068Y2794D02*
X071Y2791D01*
X074Y2785*
Y2775*
X071Y2769*
X068Y2766*
X062Y2763*
X049*
X043Y2766*
X040Y2769*
X037Y2775*
Y2785*
X040Y2791*
X043Y2794*
X065Y2813D02*
X071Y2816D01*
X074Y2822*
Y2829*
X071Y2835*
X065Y2838*
X059*
X052Y2835*
X049Y2829*
Y2822*
X052Y2816*
X059Y2813*
X065*
X074Y2863D02*
X049D01*
X059D02*
X052Y2866D01*
X049Y2872*
Y2879*
X052Y2885*
X059Y2888*
X074*
Y2913D02*
X049D01*
X059D02*
X052Y2916D01*
X049Y2922*
Y2929*
X052Y2935*
X059Y2938*
X074*
Y2979D02*
X037D01*
X062Y2963*
Y2988*
X070Y1927D02*
X073Y1924D01*
X076Y1918*
Y1909*
X073Y1902*
X070Y1899*
X063Y1896*
X051*
X045Y1899*
X042Y1902*
X038Y1909*
Y1918*
X042Y1924*
X045Y1927*
X067Y1946D02*
X073Y1949D01*
X076Y1955*
Y1962*
X073Y1968*
X067Y1971*
X060*
X054Y1968*
X051Y1962*
Y1955*
X054Y1949*
X060Y1946*
X067*
X076Y1996D02*
X051D01*
X060D02*
X054Y1999D01*
X051Y2005*
Y2012*
X054Y2018*
X060Y2021*
X076*
Y2046D02*
X051D01*
X060D02*
X054Y2049D01*
X051Y2055*
Y2062*
X054Y2068*
X060Y2071*
X076*
X073Y2099D02*
X076Y2105D01*
Y2112*
X073Y2118*
X067Y2121*
X060Y2118*
X057Y2112*
Y2105*
Y2112D02*
X054Y2118D01*
X048Y2121*
X042Y2118*
X038Y2112*
Y2105*
X042Y2099*
X129Y1299D02*
X126Y1296D01*
X120Y1293*
X110*
X104Y1296*
X101Y1299*
X098Y1305*
Y1318*
X101Y1324*
X104Y1327*
X110Y1330*
X120*
X126Y1327*
X129Y1324*
X148Y1293D02*
X173Y1330D01*
X148*
X118Y965D02*
Y1003D01*
X137*
X143Y1000*
X146Y997*
X149Y990*
Y978*
X146Y972*
X143Y969*
X137Y965*
X118*
X174D02*
X187D01*
X180D02*
Y1003D01*
X174Y997*
X218Y2440D02*
Y2478D01*
X233Y2459*
X249Y2478*
Y2440*
X299Y2447D02*
X296Y2444D01*
X290Y2440*
X280*
X274Y2444*
X271Y2447*
X268Y2453*
Y2465*
X271Y2472*
X274Y2475*
X280Y2478*
X290*
X296Y2475*
X299Y2472*
X318Y2478D02*
Y2440D01*
X349*
X368D02*
Y2478D01*
X390*
X396Y2475*
X399Y2469*
X396Y2462*
X390Y2459*
X368*
X390D02*
X399Y2440D01*
X218Y2578D02*
X233Y2540D01*
X249Y2578*
X268Y2540D02*
Y2578D01*
X287*
X293Y2575*
X296Y2572*
X299Y2565*
Y2553*
X296Y2547*
X293Y2544*
X287Y2540*
X268*
X318D02*
Y2578D01*
X337*
X343Y2575*
X346Y2572*
X349Y2565*
Y2553*
X346Y2547*
X343Y2544*
X337Y2540*
X318*
X232Y2945D02*
X245D01*
X238D02*
Y2983D01*
X232D02*
X245D01*
X304Y2952D02*
X301Y2949D01*
X295Y2945*
X285*
X279Y2949*
X276Y2952*
X273Y2958*
Y2970*
X276Y2977*
X279Y2980*
X285Y2983*
X295*
X301Y2980*
X304Y2977*
X323Y2945D02*
Y2983D01*
X342*
X348Y2980*
X351Y2977*
X354Y2970*
Y2958*
X351Y2952*
X348Y2949*
X342Y2945*
X323*
X250Y2651D02*
X259D01*
Y2648*
X256Y2642*
X253Y2639*
X247Y2635*
X240*
X234Y2639*
X231Y2642*
X228Y2648*
Y2660*
X231Y2667*
X234Y2670*
X240Y2673*
X247*
X253Y2670*
X256Y2667*
X259Y2660*
X278Y2635D02*
Y2660D01*
Y2651D02*
X281Y2657D01*
X287Y2660*
X293*
X300Y2657*
X303Y2651*
Y2635*
X353Y2651D02*
X350Y2657D01*
X343Y2660*
X337*
X331Y2657*
X328Y2651*
Y2645*
X331Y2639*
X337Y2635*
X343*
X350Y2639*
X353Y2645*
Y2635D02*
Y2673D01*
X228Y2738D02*
Y2775D01*
X247*
X253Y2772*
X256Y2769*
X259Y2763*
Y2750*
X256Y2744*
X253Y2741*
X247Y2738*
X228*
X278Y2760D02*
X284Y2763D01*
X293*
X300Y2760*
X303Y2754*
Y2744*
X300Y2741*
X293Y2738*
X287*
X281Y2741*
X278Y2744*
Y2747*
X281Y2750*
X287Y2754*
X293*
X300Y2750*
X303Y2747*
Y2744D02*
Y2738D01*
X259Y2844D02*
X256Y2841D01*
X250Y2838*
X240*
X234Y2841*
X231Y2844*
X228Y2850*
Y2863*
X231Y2869*
X234Y2872*
X240Y2875*
X250*
X256Y2872*
X259Y2869*
X278Y2838D02*
Y2875D01*
Y2850D02*
X287D01*
X303Y2863*
X287Y2850D02*
X303Y2838D01*
X258Y1063D02*
Y1100D01*
X280*
X286Y1097*
X289Y1091*
X286Y1085*
X280Y1082*
X258*
X280D02*
X289Y1063D01*
X333D02*
X308D01*
X330Y1085*
X333Y1091*
X330Y1097*
X323Y1100*
X314*
X308Y1097*
X361Y1066D02*
X367Y1063D01*
X373*
X380Y1066*
X383Y1072*
Y1091*
X380Y1097*
X373Y1100*
X367*
X361Y1097*
X358Y1091*
Y1072*
X361Y1066*
X380Y1097*
X352Y179D02*
X349Y176D01*
X343Y173*
X334*
X327Y176*
X324Y179*
X321Y186*
Y198*
X324Y204*
X327Y207*
X334Y211*
X343*
X349Y207*
X352Y204*
X377Y173D02*
X390D01*
X384D02*
Y211D01*
X377Y204*
X395Y2340D02*
Y2378D01*
X416*
X423Y2375*
X426Y2368*
X423Y2362*
X416Y2359*
X395*
X416D02*
X426Y2340D01*
X470D02*
X445D01*
X467Y2362*
X470Y2368*
X467Y2375*
X460Y2378*
X451*
X445Y2375*
X504Y2340D02*
X510Y2343D01*
X516Y2350*
X520Y2359*
Y2368*
X516Y2375*
X510Y2378*
X504*
X498Y2375*
X495Y2368*
X498Y2362*
X504Y2359*
X510*
X516Y2362*
X520Y2368*
X397Y2235D02*
Y2272D01*
X419*
X426Y2269*
X429Y2263*
X426Y2257*
X419Y2253*
X397*
X419D02*
X429Y2235D01*
X447Y2244D02*
X451Y2250D01*
X457Y2253*
X463*
X469Y2250*
X472Y2244*
X469Y2238*
X463Y2235*
X457*
X451Y2238*
X447Y2244*
Y2253*
X451Y2263*
X457Y2269*
X463Y2272*
X399Y1913D02*
Y1951D01*
X421*
X427Y1947*
X431Y1941*
X427Y1935*
X421Y1932*
X399*
X421D02*
X431Y1913D01*
X456D02*
X468D01*
X462D02*
Y1951D01*
X456Y1944*
X499Y1922D02*
X502Y1929D01*
X509Y1932*
X515*
X521Y1929*
X524Y1922*
X521Y1916*
X515Y1913*
X509*
X502Y1916*
X499Y1922*
Y1932*
X502Y1941*
X509Y1947*
X515Y1951*
X401Y2008D02*
Y2046D01*
X423*
X429Y2043*
X432Y2036*
X429Y2030*
X423Y2027*
X401*
X423D02*
X432Y2008D01*
X457D02*
X470D01*
X463D02*
Y2046D01*
X457Y2040*
X504Y2011D02*
X510Y2008D01*
X517*
X523Y2011*
X526Y2018*
Y2036*
X523Y2043*
X517Y2046*
X510*
X504Y2043*
X501Y2036*
Y2018*
X504Y2011*
X523Y2043*
X403Y2117D02*
Y2154D01*
X424*
X431Y2151*
X434Y2145*
X431Y2138*
X424Y2135*
X403*
X424D02*
X434Y2117D01*
X459D02*
X471D01*
X465D02*
Y2154D01*
X459Y2148*
X502Y2117D02*
X527Y2154D01*
X502*
X403Y1810D02*
Y1848D01*
X425*
X431Y1845*
X435Y1838*
X431Y1832*
X425Y1829*
X403*
X425D02*
X435Y1810D01*
X463D02*
X469Y1813D01*
X475Y1820*
X478Y1829*
Y1838*
X475Y1845*
X469Y1848*
X463*
X456Y1845*
X453Y1838*
X456Y1832*
X463Y1829*
X469*
X475Y1832*
X478Y1838*
X409Y1522D02*
Y1560D01*
X431*
X437Y1557*
X440Y1551*
X437Y1544*
X431Y1541*
X409*
X431D02*
X440Y1522D01*
X484D02*
X459D01*
X481Y1544*
X484Y1551*
X481Y1557*
X474Y1560*
X465*
X459Y1557*
X524Y1522D02*
Y1560D01*
X509Y1535*
X534*
X410Y1619D02*
Y1656D01*
X432*
X439Y1653*
X442Y1647*
X439Y1640*
X432Y1637*
X410*
X432D02*
X442Y1619D01*
X460D02*
X485Y1656D01*
X460*
X411Y1411D02*
Y1449D01*
X433*
X439Y1445*
X442Y1439*
X439Y1433*
X433Y1430*
X411*
X433D02*
X442Y1411D01*
X486D02*
X461D01*
X483Y1433*
X486Y1439*
X483Y1445*
X476Y1449*
X467*
X461Y1445*
X514Y1414D02*
X520Y1411D01*
X526*
X533Y1414*
X536Y1420*
X533Y1427*
X526Y1430*
X520*
X526D02*
X533Y1433D01*
X536Y1439*
X533Y1445*
X526Y1449*
X520*
X514Y1445*
X415Y1313D02*
Y1350D01*
X437*
X443Y1347*
X446Y1341*
X443Y1335*
X437Y1331*
X415*
X437D02*
X446Y1313D01*
X468Y1316D02*
X474Y1313D01*
X480*
X487Y1316*
X490Y1322*
X487Y1328*
X480Y1331*
X474*
X480D02*
X487Y1335D01*
X490Y1341*
X487Y1347*
X480Y1350*
X474*
X468Y1347*
X518Y1316D02*
X524Y1313D01*
X530*
X537Y1316*
X540Y1322*
X537Y1328*
X530Y1331*
X524*
X530D02*
X537Y1335D01*
X540Y1341*
X537Y1347*
X530Y1350*
X524*
X518Y1347*
X450Y890D02*
Y928D01*
X469*
X475Y925*
X478Y922*
X482Y915*
Y903*
X478Y897*
X475Y894*
X469Y890*
X450*
X516D02*
Y928D01*
X500Y903*
X525*
X458Y1714D02*
Y1751D01*
X480*
X487Y1748*
X490Y1742*
X487Y1736*
X480Y1733*
X458*
X480D02*
X490Y1714D01*
X518Y1733D02*
X524D01*
X530Y1736*
X533Y1742*
X530Y1748*
X524Y1751*
X518*
X512Y1748*
X508Y1742*
X512Y1736*
X518Y1733*
X512Y1729*
X508Y1723*
X512Y1717*
X518Y1714*
X524*
X530Y1717*
X533Y1723*
X530Y1729*
X524Y1733*
X463Y1211D02*
Y1248D01*
X485*
X491Y1245*
X494Y1239*
X491Y1233*
X485Y1229*
X463*
X485D02*
X494Y1211D01*
X519D02*
X531D01*
X525D02*
Y1248D01*
X519Y1242*
X572Y1211D02*
X578Y1214D01*
X585Y1220*
X588Y1229*
Y1239*
X585Y1245*
X578Y1248*
X572*
X566Y1245*
X563Y1239*
X566Y1233*
X572Y1229*
X578*
X585Y1233*
X588Y1239*
X459Y596D02*
X462Y593D01*
X465Y587*
Y577*
X462Y571*
X459Y568*
X452Y565*
X440*
X434Y568*
X431Y571*
X427Y577*
Y587*
X431Y593*
X434Y596*
X465Y631D02*
X427D01*
X452Y615*
Y640*
X552Y567D02*
X515D01*
Y589*
X518Y596*
X524Y599*
X530Y596*
X533Y589*
Y567*
Y589D02*
X552Y599D01*
X549Y621D02*
X552Y627D01*
Y633*
X549Y639*
X543Y642*
X537Y639*
X533Y633*
Y627*
Y633D02*
X530Y639D01*
X524Y642*
X518Y639*
X515Y633*
Y627*
X518Y621*
X552Y683D02*
X515D01*
X540Y667*
Y692*
X642Y566D02*
X605D01*
Y588*
X608Y595*
X614Y598*
X620Y595*
X624Y588*
Y566*
Y588D02*
X642Y598D01*
Y641D02*
Y616D01*
X620Y638*
X614Y641*
X608Y638*
X605Y632*
Y623*
X608Y616*
X633Y666D02*
X627Y670D01*
X624Y676*
Y682*
X627Y688*
X633Y691*
X639Y688*
X642Y682*
Y676*
X639Y670*
X633Y666*
X624*
X614Y670*
X608Y676*
X605Y682*
X675Y2928D02*
Y2965D01*
X694*
X700Y2962*
X703Y2959*
X707Y2953*
Y2940*
X703Y2934*
X700Y2931*
X694Y2928*
X675*
X725Y2931D02*
X732Y2928D01*
X741*
X747Y2931*
X750Y2937*
Y2940*
X747Y2947*
X741Y2950*
X725*
Y2965*
X750*
X752Y578D02*
X714D01*
Y600*
X717Y606*
X723Y609*
X730Y606*
X733Y600*
Y578*
Y600D02*
X752Y609D01*
X748Y628D02*
X752Y634D01*
Y643*
X748Y650*
X742Y653*
X739*
X733Y650*
X730Y643*
Y628*
X714*
Y653*
X790Y2390D02*
Y2428D01*
X822*
X815Y2409D02*
X790D01*
X840Y2400D02*
X843Y2394D01*
X850Y2390*
X862*
X868Y2394*
X872Y2400*
X868Y2406*
X862Y2409*
X850*
X843Y2412*
X840Y2419*
X843Y2425*
X850Y2428*
X862*
X868Y2425*
X872Y2419*
X897Y2390D02*
X909D01*
X903D02*
Y2428D01*
X897Y2422*
X839Y1489D02*
X836Y1486D01*
X830Y1483*
X820*
X814Y1486*
X811Y1489*
X808Y1495*
Y1508*
X811Y1514*
X814Y1517*
X820Y1520*
X830*
X836Y1517*
X839Y1514*
X861Y1486D02*
X867Y1483D01*
X873*
X880Y1486*
X883Y1492*
X880Y1499*
X873Y1502*
X867*
X873D02*
X880Y1505D01*
X883Y1511*
X880Y1517*
X873Y1520*
X867*
X861Y1517*
X827Y600D02*
X831Y597D01*
X834Y591*
Y581*
X831Y575*
X827Y572*
X821Y569*
X809*
X802Y572*
X799Y575*
X796Y581*
Y591*
X799Y597*
X802Y600*
X824Y619D02*
X818Y622D01*
X815Y628*
Y635*
X818Y641*
X824Y644*
X831Y641*
X834Y635*
Y628*
X831Y622*
X824Y619*
X815*
X806Y622*
X799Y628*
X796Y635*
X935Y598D02*
X938Y595D01*
X941Y589*
Y579*
X938Y573*
X935Y570*
X929Y567*
X916*
X910Y570*
X907Y573*
X904Y579*
Y589*
X907Y595*
X910Y598*
X938Y617D02*
X941Y623D01*
Y633*
X938Y639*
X932Y642*
X929*
X922Y639*
X919Y633*
Y617*
X904*
Y642*
X989Y2388D02*
X1002D01*
X995D02*
Y2425D01*
X989Y2419*
X1036Y2391D02*
X1042Y2388D01*
X1048*
X1055Y2391*
X1058Y2397*
Y2416*
X1055Y2422*
X1048Y2425*
X1042*
X1036Y2422*
X1033Y2416*
Y2397*
X1036Y2391*
X1055Y2422*
X1083Y2388D02*
X1098Y2425D01*
X1114Y2388*
X1089Y2404D02*
X1108D01*
X1183Y2397D02*
X1186Y2391D01*
X1192Y2388*
X1205*
X1211Y2391*
X1214Y2397*
X1211Y2404*
X1205Y2407*
X1192*
X1186Y2410*
X1183Y2416*
X1186Y2422*
X1192Y2425*
X1205*
X1211Y2422*
X1214Y2416*
X1248Y2388D02*
X1245D01*
Y2425*
X1283Y2397D02*
X1286Y2391D01*
X1292Y2388*
X1298*
X1305Y2391*
X1308Y2397*
Y2404*
X1305Y2410*
X1298Y2413*
X1292*
X1286Y2410*
X1283Y2404*
Y2397*
X1333Y2413D02*
Y2391D01*
X1336Y2388*
X1342*
X1345Y2391*
Y2400*
Y2391D02*
X1348Y2388D01*
X1355*
X1358Y2391*
Y2413*
X1383Y2400D02*
X1408D01*
X1433Y2397D02*
X1436Y2391D01*
X1442Y2388*
X1448*
X1455Y2391*
X1458Y2397*
Y2404*
X1455Y2410*
X1448Y2413*
X1442*
X1436Y2410*
X1433Y2404*
Y2388D02*
Y2425D01*
X1498Y2388D02*
X1495D01*
Y2425*
X1533Y2397D02*
X1536Y2391D01*
X1542Y2388*
X1548*
X1555Y2391*
X1558Y2397*
Y2404*
X1555Y2410*
X1548Y2413*
X1542*
X1536Y2410*
X1533Y2404*
Y2397*
X1583Y2413D02*
Y2391D01*
X1586Y2388*
X1592*
X1595Y2391*
Y2400*
Y2391D02*
X1598Y2388D01*
X1605*
X1608Y2391*
Y2413*
X997Y2136D02*
X1009D01*
X1003D02*
Y2174D01*
X997D02*
X1009D01*
X1069Y2143D02*
X1066Y2139D01*
X1059Y2136*
X1050*
X1044Y2139*
X1041Y2143*
X1038Y2149*
Y2161*
X1041Y2168*
X1044Y2171*
X1050Y2174*
X1059*
X1066Y2171*
X1069Y2168*
X1094Y2136D02*
X1106D01*
X1100D02*
Y2174D01*
X1094Y2168*
X1026Y612D02*
X988D01*
Y634*
X992Y640*
X998Y644*
X1004Y640*
X1007Y634*
Y612*
Y634D02*
X1026Y644D01*
Y669D02*
Y681D01*
Y675D02*
X988D01*
X995Y669*
X1026Y719D02*
Y731D01*
Y725D02*
X988D01*
X995Y719*
X1098Y1363D02*
Y1400D01*
X1120*
X1126Y1397*
X1129Y1391*
X1126Y1385*
X1120Y1382*
X1098*
X1120D02*
X1129Y1363D01*
X1154D02*
X1167D01*
X1160D02*
Y1400D01*
X1154Y1394*
X1198Y1366D02*
X1204Y1363D01*
X1213*
X1220Y1366*
X1223Y1372*
Y1375*
X1220Y1382*
X1213Y1385*
X1198*
Y1400*
X1223*
X1118Y948D02*
Y985D01*
X1103D02*
X1134D01*
X1178Y948D02*
X1153D01*
X1175Y970*
X1178Y976*
X1175Y982*
X1168Y985*
X1159*
X1153Y982*
X1107Y784D02*
Y822D01*
X1129*
X1135Y819*
X1138Y812*
X1135Y806*
X1129Y803*
X1107*
X1129D02*
X1138Y784D01*
X1163D02*
X1176D01*
X1169D02*
Y822D01*
X1163Y816*
X1216Y803D02*
X1223D01*
X1229Y806*
X1232Y812*
X1229Y819*
X1223Y822*
X1216*
X1210Y819*
X1207Y812*
X1210Y806*
X1216Y803*
X1210Y800*
X1207Y794*
X1210Y787*
X1216Y784*
X1223*
X1229Y787*
X1232Y794*
X1229Y800*
X1223Y803*
X1115Y1063D02*
Y1101D01*
X1137*
X1143Y1098*
X1146Y1091*
X1143Y1085*
X1137Y1082*
X1115*
X1137D02*
X1146Y1063D01*
X1171D02*
X1184D01*
X1177D02*
Y1101D01*
X1171Y1095*
X1218Y1066D02*
X1224Y1063D01*
X1231*
X1237Y1066*
X1240Y1073*
X1237Y1079*
X1231Y1082*
X1224*
X1231D02*
X1237Y1085D01*
X1240Y1091*
X1237Y1098*
X1231Y1101*
X1224*
X1218Y1098*
X1115Y620D02*
X1077D01*
Y641*
X1080Y648*
X1087Y651*
X1093Y648*
X1096Y641*
Y620*
Y641D02*
X1115Y651D01*
Y676D02*
Y688D01*
Y682D02*
X1077D01*
X1084Y676*
X1115Y735D02*
X1077D01*
X1102Y720*
Y745*
X1165Y1193D02*
Y1230D01*
X1187*
X1193Y1227*
X1197Y1221*
X1193Y1215*
X1187Y1212*
X1165*
X1187D02*
X1197Y1193D01*
X1222D02*
X1234D01*
X1228D02*
Y1230D01*
X1222Y1224*
X1290Y1193D02*
X1265D01*
X1287Y1215*
X1290Y1221*
X1287Y1227*
X1281Y1230*
X1272*
X1265Y1227*
X1209Y574D02*
X1172D01*
Y596*
X1175Y602*
X1181Y605*
X1187Y602*
X1191Y596*
Y574*
Y596D02*
X1209Y605D01*
Y649D02*
Y624D01*
X1187Y646*
X1181Y649*
X1175Y646*
X1172Y640*
Y630*
X1175Y624*
X1296Y560D02*
X1258D01*
Y581*
X1262Y588*
X1268Y591*
X1274Y588*
X1277Y581*
Y560*
Y581D02*
X1296Y591D01*
X1293Y613D02*
X1296Y619D01*
Y625*
X1293Y631*
X1287Y635*
X1280Y631*
X1277Y625*
Y619*
Y625D02*
X1274Y631D01*
X1268Y635*
X1262Y631*
X1258Y625*
Y619*
X1262Y613*
X1287Y660D02*
X1280Y663D01*
X1277Y669*
Y675*
X1280Y681*
X1287Y685*
X1293Y681*
X1296Y675*
Y669*
X1293Y663*
X1287Y660*
X1277*
X1268Y663*
X1262Y669*
X1258Y675*
X1389Y565D02*
X1351D01*
Y587*
X1354Y593*
X1361Y596*
X1367Y593*
X1370Y587*
Y565*
Y587D02*
X1389Y596D01*
Y640D02*
Y615D01*
X1367Y637*
X1361Y640*
X1354Y637*
X1351Y631*
Y621*
X1354Y615*
X1370Y674D02*
Y681D01*
X1367Y687*
X1361Y690*
X1354Y687*
X1351Y681*
Y674*
X1354Y668*
X1361Y665*
X1367Y668*
X1370Y674*
X1373Y668*
X1379Y665*
X1386Y668*
X1389Y674*
Y681*
X1386Y687*
X1379Y690*
X1373Y687*
X1370Y681*
X1488Y1780D02*
X1485Y1777D01*
X1479Y1773*
X1470*
X1463Y1777*
X1460Y1780*
X1457Y1786*
Y1798*
X1460Y1805*
X1463Y1808*
X1470Y1811*
X1479*
X1485Y1808*
X1488Y1805*
X1532Y1773D02*
X1507D01*
X1529Y1795*
X1532Y1802*
X1529Y1808*
X1523Y1811*
X1513*
X1507Y1808*
X1473Y561D02*
X1435D01*
Y583*
X1438Y589*
X1445Y592*
X1451Y589*
X1454Y583*
Y561*
Y583D02*
X1473Y592D01*
Y636D02*
Y611D01*
X1451Y633*
X1445Y636*
X1438Y633*
X1435Y626*
Y617*
X1438Y611*
X1473Y661D02*
X1435Y686D01*
Y661*
X1584Y2009D02*
Y2046D01*
X1569D02*
X1600D01*
X1619Y2012D02*
X1625Y2009D01*
X1634*
X1641Y2012*
X1644Y2018*
Y2021*
X1641Y2027*
X1634Y2031*
X1619*
Y2046*
X1644*
X1562Y562D02*
X1524D01*
Y583*
X1527Y590*
X1534Y593*
X1540Y590*
X1543Y583*
Y562*
Y583D02*
X1562Y593D01*
X1559Y615D02*
X1562Y621D01*
Y627*
X1559Y633*
X1552Y637*
X1546Y633*
X1543Y627*
Y621*
Y627D02*
X1540Y633D01*
X1534Y637*
X1527Y633*
X1524Y627*
Y621*
X1527Y615*
X1562Y662D02*
X1524Y687D01*
Y662*
X1647Y1338D02*
Y1376D01*
X1669*
X1675Y1373*
X1678Y1366*
X1675Y1360*
X1669Y1357*
X1647*
X1669D02*
X1678Y1338D01*
X1700Y1341D02*
X1706Y1338D01*
X1713*
X1719Y1341*
X1722Y1348*
X1719Y1354*
X1713Y1357*
X1706*
X1713D02*
X1719Y1360D01*
X1722Y1366*
X1719Y1373*
X1713Y1376*
X1706*
X1700Y1373*
X1772Y1338D02*
X1747D01*
X1769Y1360*
X1772Y1366*
X1769Y1373*
X1763Y1376*
X1753*
X1747Y1373*
X1660Y565D02*
X1623D01*
Y587*
X1626Y594*
X1632Y597*
X1639Y594*
X1642Y587*
Y565*
Y587D02*
X1660Y597D01*
X1657Y619D02*
X1660Y625D01*
Y631*
X1657Y637*
X1651Y640*
X1645Y637*
X1642Y631*
Y625*
Y631D02*
X1639Y637D01*
X1632Y640*
X1626Y637*
X1623Y631*
Y625*
X1626Y619*
X1689Y1972D02*
Y2010D01*
X1711*
X1717Y2007*
X1720Y2001*
X1717Y1994*
X1711Y1991*
X1689*
X1711D02*
X1720Y1972D01*
X1764D02*
X1739D01*
X1761Y1994*
X1764Y2001*
X1761Y2007*
X1754Y2010*
X1745*
X1739Y2007*
X1795Y1972D02*
X1807D01*
X1801D02*
Y2010D01*
X1795Y2004*
X1728Y1664D02*
Y1701D01*
X1750*
X1756Y1698*
X1759Y1692*
X1756Y1686*
X1750Y1683*
X1728*
X1750D02*
X1759Y1664D01*
X1803D02*
X1778D01*
X1800Y1686*
X1803Y1692*
X1800Y1698*
X1793Y1701*
X1784*
X1778Y1698*
X1853Y1664D02*
X1828D01*
X1850Y1686*
X1853Y1692*
X1850Y1698*
X1843Y1701*
X1834*
X1828Y1698*
X1756Y573D02*
X1718D01*
Y595*
X1721Y601*
X1728Y604*
X1734Y601*
X1737Y595*
Y573*
Y595D02*
X1756Y604D01*
Y648D02*
Y623D01*
X1734Y645*
X1728Y648*
X1721Y645*
X1718Y639*
Y629*
X1721Y623*
X1753Y673D02*
X1756Y679D01*
Y689*
X1753Y695*
X1746Y698*
X1743*
X1737Y695*
X1734Y689*
Y673*
X1718*
Y698*
X1860Y1146D02*
Y1184D01*
X1845D02*
X1876D01*
X1895Y1156D02*
X1898Y1162D01*
X1904Y1165*
X1910*
X1917Y1162*
X1920Y1156*
X1917Y1150*
X1910Y1146*
X1904*
X1898Y1150*
X1895Y1156*
Y1165*
X1898Y1175*
X1904Y1181*
X1910Y1184*
X1840Y563D02*
X1803D01*
Y585*
X1806Y592*
X1812Y595*
X1818Y592*
X1822Y585*
Y563*
Y585D02*
X1840Y595D01*
X1837Y617D02*
X1840Y623D01*
Y629*
X1837Y635*
X1831Y638*
X1825Y635*
X1822Y629*
Y623*
Y629D02*
X1818Y635D01*
X1812Y638*
X1806Y635*
X1803Y629*
Y623*
X1806Y617*
X1837Y663D02*
X1840Y670D01*
Y679*
X1837Y685*
X1831Y688*
X1828*
X1822Y685*
X1818Y679*
Y663*
X1803*
Y688*
X1909Y562D02*
X1872D01*
Y584*
X1875Y590*
X1881Y594*
X1887Y590*
X1891Y584*
Y562*
Y584D02*
X1909Y594D01*
Y628D02*
X1872D01*
X1897Y612*
Y637*
X1950Y2333D02*
Y2370D01*
X1934D02*
X1965D01*
X2000Y2333D02*
Y2370D01*
X1984Y2345*
X2009*
X1958Y1143D02*
Y1180D01*
X1980*
X1986Y1177*
X1989Y1171*
X1986Y1165*
X1980Y1162*
X1958*
X1980D02*
X1989Y1143D01*
X2011Y1146D02*
X2017Y1143D01*
X2024*
X2030Y1146*
X2033Y1152*
X2030Y1159*
X2024Y1162*
X2017*
X2024D02*
X2030Y1165D01*
X2033Y1171*
X2030Y1177*
X2024Y1180*
X2017*
X2011Y1177*
X2061Y1146D02*
X2067Y1143D01*
X2074*
X2080Y1146*
X2083Y1152*
Y1171*
X2080Y1177*
X2074Y1180*
X2067*
X2061Y1177*
X2058Y1171*
Y1152*
X2061Y1146*
X2080Y1177*
X2023Y1549D02*
Y1587D01*
X2045*
X2051Y1584*
X2054Y1577*
X2051Y1571*
X2045Y1568*
X2023*
X2045D02*
X2054Y1549D01*
X2079D02*
X2092D01*
X2085D02*
Y1587D01*
X2079Y1580*
X2029Y2777D02*
Y2815D01*
X2048*
X2054Y2812*
X2058Y2809*
X2061Y2802*
Y2790*
X2058Y2784*
X2054Y2781*
X2048Y2777*
X2029*
X2083Y2781D02*
X2089Y2777D01*
X2095*
X2101Y2781*
X2104Y2787*
X2101Y2793*
X2095Y2796*
X2089*
X2095D02*
X2101Y2799D01*
X2104Y2806*
X2101Y2812*
X2095Y2815*
X2089*
X2083Y2812*
X2031Y2615D02*
Y2653D01*
X2049*
X2056Y2650*
X2059Y2646*
X2062Y2640*
Y2628*
X2059Y2621*
X2056Y2618*
X2049Y2615*
X2031*
X2106D02*
X2081D01*
X2103Y2637*
X2106Y2643*
X2103Y2650*
X2096Y2653*
X2087*
X2081Y2650*
X2199Y254D02*
X2196Y251D01*
X2190Y248*
X2180*
X2174Y251*
X2171Y254*
X2168Y260*
Y273*
X2171Y279*
X2174Y282*
X2180Y285*
X2190*
X2196Y282*
X2199Y279*
X2218Y260D02*
Y273D01*
X2221Y279*
X2224Y282*
X2230Y285*
X2237*
X2243Y282*
X2246Y279*
X2249Y273*
Y260*
X2246Y254*
X2243Y251*
X2237Y248*
X2230*
X2224Y251*
X2221Y254*
X2218Y260*
X2268Y248D02*
Y285D01*
X2299Y248*
Y285*
X2318Y248D02*
Y285D01*
X2349Y248*
Y285*
X2374Y248D02*
X2387D01*
X2380D02*
Y285D01*
X2374Y279*
X2219Y3300D02*
X2216Y3297D01*
X2210Y3294*
X2200*
X2194Y3297*
X2191Y3300*
X2188Y3306*
Y3319*
X2191Y3325*
X2194Y3328*
X2200Y3331*
X2210*
X2216Y3328*
X2219Y3325*
X2238Y3306D02*
Y3319D01*
X2241Y3325*
X2244Y3328*
X2250Y3331*
X2257*
X2263Y3328*
X2266Y3325*
X2269Y3319*
Y3306*
X2266Y3300*
X2263Y3297*
X2257Y3294*
X2250*
X2244Y3297*
X2241Y3300*
X2238Y3306*
X2288Y3294D02*
Y3331D01*
X2319Y3294*
Y3331*
X2338Y3294D02*
Y3331D01*
X2369Y3294*
Y3331*
X2413Y3294D02*
X2388D01*
X2410Y3316*
X2413Y3322*
X2410Y3328*
X2404Y3331*
X2394*
X2388Y3328*
X2251Y2330D02*
Y2368D01*
X2236D02*
X2267D01*
X2292Y2330D02*
X2304D01*
X2298D02*
Y2368D01*
X2292Y2362*
X2286Y1505D02*
Y1542D01*
X2307*
X2314Y1539*
X2317Y1533*
X2314Y1527*
X2307Y1524*
X2286*
X2307D02*
X2317Y1505D01*
X2339Y1508D02*
X2345Y1505D01*
X2351*
X2357Y1508*
X2361Y1514*
X2357Y1521*
X2351Y1524*
X2345*
X2351D02*
X2357Y1527D01*
X2361Y1533*
X2357Y1539*
X2351Y1542*
X2345*
X2339Y1539*
X2392Y1505D02*
X2404D01*
X2398D02*
Y1542D01*
X2392Y1536*
X2381Y435D02*
X2387Y432D01*
X2390Y426*
X2387Y420*
X2381Y417*
X2359*
Y454*
X2381*
X2387Y451*
X2390Y445*
X2387Y439*
X2381Y435*
X2359*
X2409Y442D02*
X2434D01*
X2409Y417*
X2434*
X2465D02*
X2478D01*
X2471D02*
Y454D01*
X2465Y448*
X2391Y1011D02*
Y1049D01*
X2375D02*
X2407D01*
X2428Y1015D02*
X2435Y1011D01*
X2441*
X2447Y1015*
X2450Y1021*
X2447Y1027*
X2441Y1030*
X2435*
X2441D02*
X2447Y1033D01*
X2450Y1040*
X2447Y1046*
X2441Y1049*
X2435*
X2428Y1046*
D02*
D13*
X376Y538D02*
Y415D01*
X073*
Y581*
X376*
Y538*
X2128Y1115D02*
Y1237D01*
X2431*
Y1072*
X2128*
Y1115*
X000Y000D02*
M02*
