%FSLAX23Y23*%
%MOIN*%
%ADD74O,0.10236X0.14961*%
%ADD75O,0.11024X0.18898*%
%AMT144*0 Thermal pad*1,1,0.04724,0,0*%
%ADD144T144*%
%AMT145*0 Thermal pad*1,1,0.05118,0,0*%
%ADD145T145*%
%ADD72R,0.11150X0.05650*%
%ADD24R,0.07150X0.07650*%
%ADD77R,0.07650X0.07150*%
%ADD71R,0.07150X0.07950*%
%ADD18R,0.07650X0.08268*%
%ADD16R,0.08268X0.07650*%
%ADD70R,0.08661X0.11024*%
%ADD22R,0.09055X0.12992*%
%ADD17R,0.09150X0.11150*%
%ADD19R,0.18898X0.11024*%
%ADD28R,0.11150X0.11150*%
%ADD21R,0.30709X0.30709*%
%ADD14C,0.03650*%
%ADD80C,0.04950*%
%ADD84C,0.07087*%
%ADD83C,0.07150*%
%ADD121C,0.07874*%
%ADD79C,0.07950*%
%ADD78C,0.10650*%
%ADD86C,0.11024*%
%ADD26C,0.12992*%
%ADD85C,0.14961*%
%ADD20C,0.14961*%
%ADD23C,0.16929*%
%ADD15C,0.20650*%
%AMT143*0 Thermal pad*%
%ADD143T143*%
%AMT142*0 Thermal pad*1,1,0.03543,0,0*%
%ADD142T142*%
%AMT147*0 Thermal pad*7,0,0,0.07950,0.04800,0.15748,0*1,1,0.02400,0,0*%
%ADD147T147*%
%AMT146*0 Thermal pad*7,0,0,0.11024,0.07874,0.15748,0*1,1,0.02400,0,0*%
%ADD146T146*%
X000Y000D02*
D02*
D14*
X121Y658D02*
Y466D01*
X152Y436*
X178*
Y324*
X266*
Y436*
X332*
X399Y502*
Y565*
X401Y567*
X649*
Y807*
X617Y838*
X366*
Y718*
X306Y658*
X121*
X178Y348D02*
X266D01*
X178Y382D02*
X266D01*
X178Y417D02*
X266D01*
X136Y451D02*
X347D01*
X121Y485D02*
X382D01*
X121Y520D02*
X399D01*
X121Y554D02*
X399D01*
X121Y589D02*
X649D01*
X121Y623D02*
X649D01*
X306Y658D02*
X649D01*
X341Y692D02*
X649D01*
X366Y727D02*
X649D01*
X366Y761D02*
X649D01*
X366Y796D02*
X649D01*
X366Y830D02*
X625D01*
X280Y2379D02*
X500D01*
X523Y2356*
X1070*
X1058Y2369*
X1015Y2379*
X985Y2374*
Y2529*
X740*
X678Y2591*
Y2816*
X665Y2829*
X280*
Y2379*
X985*
X280Y2413D02*
X985D01*
X280Y2448D02*
X985D01*
X280Y2482D02*
X985D01*
X280Y2517D02*
X985D01*
X280Y2551D02*
X718D01*
X280Y2586D02*
X683D01*
X280Y2620D02*
X678D01*
X280Y2655D02*
X678D01*
X280Y2689D02*
X678D01*
X280Y2724D02*
X678D01*
X280Y2758D02*
X678D01*
X280Y2793D02*
X678D01*
X280Y2827D02*
X667D01*
X2115Y2056D02*
Y2319D01*
X2025Y2409*
X1808*
X1748Y2469*
Y2674*
X1368Y3054*
X1318*
X808Y2541*
Y2539*
X750Y2481*
X978*
Y2379*
X975Y2376*
X1165Y2186*
Y2146*
X1170Y2141*
X1510*
X1620Y2031*
X1740*
X1743Y2029*
X2088*
X2115Y2056*
X1595D02*
X2115D01*
X1561Y2091D02*
X2115D01*
X1526Y2125D02*
X2115D01*
X1165Y2160D02*
X2115D01*
X1157Y2194D02*
X2115D01*
X1123Y2229D02*
X2115D01*
X1088Y2263D02*
X2115D01*
X1054Y2298D02*
X2115D01*
X1019Y2332D02*
X2102D01*
X985Y2367D02*
X2067D01*
X978Y2401D02*
X2033D01*
X978Y2436D02*
X1781D01*
X978Y2470D02*
X1748D01*
X774Y2505D02*
X1748D01*
X808Y2539D02*
X1748D01*
X840Y2574D02*
X1748D01*
X874Y2608D02*
X1748D01*
X909Y2643D02*
X1748D01*
X943Y2677D02*
X1744D01*
X977Y2711D02*
X1710D01*
X1012Y2746D02*
X1675D01*
X1046Y2780D02*
X1641D01*
X1080Y2815D02*
X1606D01*
X1115Y2849D02*
X1572D01*
X1149Y2884D02*
X1537D01*
X1183Y2918D02*
X1503D01*
X1218Y2953D02*
X1468D01*
X1252Y2987D02*
X1434D01*
X1286Y3022D02*
X1399D01*
X2498Y3374D02*
X1868Y3376D01*
X1863Y3371*
X1765*
Y3349*
X1768*
Y3161*
X1863Y3069*
X1915Y3016*
Y2914*
X1845Y2844*
Y2814*
X1906Y2753*
Y2676*
X2111*
Y2784*
X2172Y2845*
X2277*
X2339Y2783*
Y2682*
X2277Y2620*
X2163*
Y2622*
X2111Y2673*
X1905*
Y2442*
X2029*
Y2443*
X2160Y2312*
Y1991*
X2170Y1981*
X2468*
X2498Y2011*
Y3374*
X2160Y1994D02*
X2480D01*
X2160Y2028D02*
X2498D01*
X2160Y2063D02*
X2498D01*
X2160Y2097D02*
X2498D01*
X2160Y2132D02*
X2498D01*
X2160Y2166D02*
X2498D01*
X2160Y2201D02*
X2498D01*
X2160Y2235D02*
X2498D01*
X2160Y2270D02*
X2498D01*
X2160Y2304D02*
X2498D01*
X2134Y2339D02*
X2498D01*
X2100Y2373D02*
X2498D01*
X2065Y2408D02*
X2498D01*
X2031Y2442D02*
X2498D01*
X1905Y2477D02*
X2498D01*
X1905Y2511D02*
X2498D01*
X1905Y2546D02*
X2498D01*
X1905Y2580D02*
X2498D01*
X1905Y2615D02*
X2498D01*
X1905Y2649D02*
X2135D01*
X2306D02*
X2498D01*
X1906Y2684D02*
X2111D01*
X2339D02*
X2498D01*
X1906Y2718D02*
X2111D01*
X2339D02*
X2498D01*
X1906Y2753D02*
X2111D01*
X2339D02*
X2498D01*
X1872Y2787D02*
X2115D01*
X2335D02*
X2498D01*
X1845Y2822D02*
X2149D01*
X2300D02*
X2498D01*
X1858Y2856D02*
X2498D01*
X1892Y2891D02*
X2498D01*
X1915Y2925D02*
X2498D01*
X1915Y2960D02*
X2498D01*
X1915Y2994D02*
X2498D01*
X1903Y3029D02*
X2498D01*
X1868Y3063D02*
X2498D01*
X1833Y3098D02*
X2498D01*
X1798Y3132D02*
X2498D01*
X1768Y3167D02*
X2498D01*
X1768Y3201D02*
X2498D01*
X1768Y3236D02*
X2498D01*
X1768Y3270D02*
X2498D01*
X1768Y3305D02*
X2498D01*
X1768Y3339D02*
X2498D01*
X1865Y3374D02*
X2498D01*
D02*
D15*
X254Y771D03*
X2224Y2733D03*
D02*
D16*
X446Y523D03*
X446Y442D03*
X537Y525D03*
X537Y444D03*
X624Y524D03*
X624Y443D03*
X733Y523D03*
X733Y443D03*
X825Y522D03*
X825Y442D03*
X918Y522D03*
X918Y442D03*
X1009Y522D03*
X1009Y442D03*
X1102Y522D03*
X1102Y442D03*
X1193Y522D03*
X1193Y442D03*
X1280Y522D03*
X1280Y442D03*
X1367Y523D03*
X1367Y442D03*
X1453Y522D03*
X1453Y442D03*
X1544Y522D03*
X1544Y441D03*
X1639Y523D03*
X1639Y443D03*
X1732Y523D03*
X1732Y442D03*
X1745Y1301D03*
X1745Y1220D03*
X1751Y1930D03*
X1751Y1850D03*
X1820Y522D03*
X1820Y442D03*
X1907Y522D03*
X1907Y442D03*
X2013Y1301D03*
X2013Y1221D03*
D02*
D17*
X204Y265D03*
X304Y266D03*
D02*
D18*
X107Y1248D03*
X188Y1248D03*
X275Y1934D03*
X276Y1436D03*
X277Y1537D03*
X277Y1836D03*
X277Y1637D03*
X277Y1233D03*
X278Y2224D03*
X278Y1142D03*
Y2319D03*
X278Y2034D03*
X279Y1737D03*
X280Y1334D03*
Y2137D03*
X356Y1934D03*
X356Y1436D03*
X357Y1537D03*
X357Y1836D03*
X357Y1637D03*
X358Y1233D03*
X358Y2224D03*
X358Y1142D03*
Y2319D03*
X359Y2034D03*
X359Y1737D03*
X361Y1334D03*
Y2137D03*
X980Y1211D03*
X980Y1503D03*
X983Y809D03*
Y1077D03*
Y1392D03*
X1060Y1211D03*
X1061Y1503D03*
X1063Y809D03*
Y1077D03*
Y1392D03*
X1577Y1791D03*
X1658Y1791D03*
X1894Y1680D03*
X1975Y1680D03*
X2296Y1457D03*
X2377Y1457D03*
D02*
D19*
X222Y621D03*
X2281Y1031D03*
D02*
D70*
X128Y376D03*
X223D03*
X317D03*
X2187Y1276D03*
X2281D03*
X2376D03*
D02*
D71*
X105Y1132D03*
X145Y1045D03*
X185Y1132D03*
D02*
D20*
X1823Y2953D03*
X1830Y2493D03*
X2423Y2953D03*
X2430Y2493D03*
D02*
D21*
X505Y2689D03*
X1975Y2169D03*
X2323D03*
D02*
D22*
X1886Y1897D03*
X2067D03*
X2233D03*
X2414D03*
D02*
D23*
X769Y2622D03*
X1669D03*
D02*
D24*
X458Y964D03*
X493Y1034D03*
X533Y964D03*
X992Y918D03*
X1027Y988D03*
X1067Y918D03*
D02*
D26*
X2203Y542D03*
Y842D03*
D02*
D28*
X153Y1536D03*
Y1636D03*
Y1736D03*
Y1836D03*
Y1936D03*
Y2036D03*
Y2136D03*
X153Y2459D03*
Y2559D03*
Y2759D03*
Y2859D03*
Y2959D03*
D02*
D72*
X844Y1644D03*
Y1694D03*
Y1744D03*
Y1794D03*
Y1844D03*
Y1894D03*
Y1944D03*
Y1994D03*
Y2044D03*
Y2094D03*
X1224Y1644D03*
Y1694D03*
Y1744D03*
Y1794D03*
Y1844D03*
Y1894D03*
Y1944D03*
Y1994D03*
Y2044D03*
Y2094D03*
D02*
D74*
X663Y321D03*
X939D03*
X1215D03*
X1352D03*
X1490D03*
X1628D03*
X1766D03*
X1904D03*
D02*
D75*
X1235Y3151D03*
X1435D03*
X1635D03*
X1835D03*
X2035D03*
D02*
D77*
X1577Y1892D03*
Y1967D03*
X1647Y1932D03*
X1835Y1224D03*
Y1299D03*
X1905Y1264D03*
D02*
D78*
X1720Y1476D03*
X2195D03*
D02*
D79*
X273Y1024D03*
X386Y324D03*
X425Y1234D03*
X438Y1494D03*
X713Y1579D03*
X869Y646D03*
X960Y1577D03*
X1373Y1234D03*
X1378Y1149D03*
X1617Y1122D03*
X1723Y1744D03*
X1943Y1779D03*
X2185Y1352D03*
D02*
D80*
X107Y1248D02*
Y1411D01*
X133Y1436*
X153Y1436*
X107Y1248D02*
Y1241D01*
X103Y1236*
X100Y1246*
X105Y1241*
Y1132*
X128Y376D02*
Y402D01*
X092Y439*
Y844*
X152Y904*
X338*
X373Y869*
X636*
X679Y826*
Y444*
X668*
Y443*
X624*
X185Y1132D02*
Y1254D01*
X280Y1334*
X188Y1248D02*
Y1219D01*
X185Y1216*
Y1132*
X198Y1341D02*
X268D01*
X270Y1339*
X273*
X280Y1334*
X204Y265D02*
Y347D01*
X233Y376*
X223Y376*
X205Y2554D02*
X132D01*
X133Y2553*
X156*
X208Y2554*
X240Y2588*
Y2921*
X222Y621D02*
X233D01*
Y525*
X449*
X439Y526*
X446*
Y523*
X230Y499D02*
X233Y484*
Y381D01*
X238Y376*
X223Y376*
X233Y484D02*
Y621D01*
X235Y624*
X240*
X222Y621*
X273Y1024D02*
Y1004D01*
X253Y984*
X069*
X050Y1003*
Y2194*
X080Y2224*
X197*
X197Y2224*
X278*
X275Y1934D02*
Y1934D01*
X275Y1934*
X173*
X168Y1939*
X153Y1936*
X276Y1436D02*
X276D01*
X275Y1436*
X153Y1436*
X277Y1537D02*
Y1537D01*
X275Y1536*
X276Y1436*
X277Y1836D02*
X278D01*
X278Y1836*
X153Y1836*
X277Y1637D02*
X277D01*
X278Y1636*
X153Y1636*
X277Y1233D02*
Y1134D01*
X280Y1131*
X278Y1142*
X278Y2224D02*
Y2231D01*
X278Y2231*
X275Y2229*
X278Y2224*
X278Y2224*
Y2224*
X278Y2319D02*
X158D01*
X074Y2404*
Y2508*
X124Y2559*
X153*
X278Y2319D02*
Y2231D01*
X278Y2034D02*
X278D01*
X278Y2034*
X160*
X158Y2036*
X153Y2036*
X279Y1737D02*
Y1734D01*
X278Y1734*
X168*
X158Y1744*
X153Y1736*
X280Y2137D02*
X278D01*
X278Y2136*
X153Y2136*
X317Y376D02*
Y271D01*
X314Y267*
X304Y266*
X317Y376D02*
X320Y376D01*
Y345*
X316Y341*
Y225*
X281Y190*
X144*
X046Y289*
Y874*
X116Y944*
X358*
X398Y904*
X568*
X608Y944*
Y1174*
X548Y1234*
X358*
Y1233*
X356Y1934D02*
X548D01*
X708Y2094*
X835*
X838Y2096*
X844Y2094*
X356Y1436D02*
X446D01*
X588Y1579*
X357Y1537D02*
X394D01*
X438Y1494*
X357Y1537D02*
X457D01*
X713Y1794*
X844Y1794*
X357Y1836D02*
Y1834D01*
X437*
X470Y1867*
Y1874*
X358Y2224D02*
X431D01*
X458Y2197*
X358Y1142D02*
X542D01*
X546Y1146*
X359Y2034D02*
X563D01*
X565Y2036*
X386Y324D02*
X337Y374D01*
X320*
X317Y376*
X425Y1234D02*
X360D01*
X358Y1231*
X357Y1232*
X358*
Y1233*
X425Y2314D02*
Y2316D01*
X423Y2319*
X358Y2319*
X428Y1734D02*
X368D01*
X358Y1724*
X359Y1737*
X446Y442D02*
Y447D01*
X390*
X320Y376*
X317*
X458Y964D02*
X405D01*
X458D02*
X425D01*
X283Y1106*
Y1121*
X286Y1124*
Y1239*
X288Y1241*
X274Y1231*
X277*
Y1233*
X493Y1034D02*
Y1139D01*
X491Y1141*
X378*
X358Y1142*
X505Y2689D02*
X516D01*
X522Y2683*
X505Y2689D02*
Y2689D01*
X510Y2693*
X537Y525D02*
Y525D01*
X620*
X627Y519*
X636*
X624Y524*
X537Y444D02*
X539D01*
Y445*
X452Y359*
Y268*
X513Y207*
X1145*
X1217Y279*
Y315*
X1215Y321*
X663Y1989D02*
X718Y2044D01*
X848*
X844Y2044*
X713Y1579D02*
X709D01*
Y1443*
X723Y1430*
Y538*
X733Y527*
Y523*
X733Y523*
X733Y443D02*
X737D01*
Y445*
X829Y526*
Y522*
X825*
X733Y443D02*
X724D01*
X723Y444*
X624Y443*
X755Y1944D02*
X758D01*
X844Y1944*
X825Y522D02*
X826D01*
Y560*
X870Y604*
Y646*
X869*
X843Y2173D02*
X849Y2166D01*
X933*
X1015Y2086*
Y1809*
X950Y1744*
X880*
Y1744*
X844*
Y1644D02*
X848Y1639D01*
X843Y1634*
Y1598*
X938Y1503*
X973*
X978Y1499*
X983Y1503*
X988Y1499*
X980Y1503*
X844Y1694D02*
X979D01*
X1058Y1774*
Y2109*
X948Y2219*
X728*
X844Y1694D02*
X799D01*
X768Y1664*
Y1454*
X828Y1394*
X973*
X983Y1392*
X844Y1744D02*
Y1744D01*
X798*
X654Y1600*
Y1515*
X480Y1341*
X380*
X375Y1336*
X383Y1339*
X361Y1334*
X844Y1844D02*
X752D01*
X750Y1846*
X844Y1894D02*
X912D01*
X968Y1839*
X844Y1994D02*
Y1994D01*
X733*
X690Y1951*
Y1904*
X643Y1856*
Y1856*
X423Y1636*
X399Y1636*
X380*
X357Y1637*
X918Y522D02*
Y676D01*
X772Y822*
X772Y822*
Y868*
X918Y442D02*
Y447D01*
X1027*
X1029Y444*
X1031*
X1028Y442*
X1009*
X918D02*
Y443D01*
X947Y446*
X824*
X814Y437*
X828*
X825Y442*
X928Y2077D02*
Y2069D01*
X903Y2044*
X844Y2044*
X960Y1577D02*
X1023D01*
X1060Y1539*
Y1529*
X1061Y1503*
X980Y1211D02*
X988Y1211D01*
Y1159*
X993Y1149*
X1277*
X1378Y1049*
X1616*
X980Y1503D02*
X922D01*
X918Y1499*
X980Y1503D02*
Y1496D01*
X980Y1496*
X1063Y1392*
X983Y1077D02*
X988D01*
Y1205*
X988Y1205*
Y1206*
X980Y1211*
X992Y918D02*
Y919D01*
X948*
X943Y924*
X928*
X992Y918D02*
Y916D01*
X993Y924*
X985Y916*
X983*
X988Y921*
X990Y916*
X984*
X984Y812*
X983*
Y809*
X1009Y442D02*
Y389D01*
X1078Y321*
X1077Y321*
X1009Y442D02*
X1102D01*
X1103Y441*
X1102Y442*
X1010Y586D02*
X1010Y548D01*
Y559*
X1009Y522*
X1027Y988D02*
X1026D01*
X1025Y989*
Y1004*
X1070Y1049*
X1063Y1077*
X1061Y1503D02*
Y1504D01*
X1148*
X1223Y1579*
X1224Y1644*
X1067Y918D02*
X1117D01*
X1118Y919*
X1123Y914*
X1067Y918D02*
X1068D01*
X1070Y916*
Y824*
X1063Y809*
X1102Y522D02*
X1115D01*
X1188Y449*
X1193Y442*
X1103Y591D02*
Y552D01*
X1122Y534*
X1102Y522*
X1193Y522D02*
X1286D01*
X1286Y522*
X1280Y522*
X1224Y1744D02*
X1312D01*
X1323Y1734*
X1224Y1794D02*
X1308Y1794D01*
X1333*
X1423Y1704*
Y1585*
X1278Y1440*
X1193*
Y1444*
X1224Y1794D02*
X1185Y1794D01*
X1146*
X1091Y1849*
Y2138*
X960Y2269*
X568*
X1224Y1894D02*
X1164D01*
X1128Y1931*
Y2164*
X973Y2319*
X554*
X513Y2279*
Y2159*
X485Y2131*
X353*
X361Y2137*
X1224Y1944D02*
X1332D01*
X1368Y1909*
X1224Y2094D02*
X1312D01*
Y2096*
X1278Y1379D02*
Y1381D01*
X1456Y1559*
Y1724*
X1336Y1844*
X1323*
X1224Y1843*
Y1844*
X1280Y522D02*
Y577D01*
X1318Y615*
X1280Y442D02*
X1281D01*
X1290Y451*
X1293*
X1358Y515*
X1367Y523*
X1343Y2239D02*
Y2127D01*
X1312Y2097*
X1224Y2094*
X1348Y2044D02*
X1318D01*
X1224Y2044*
X1367Y442D02*
Y449D01*
X1374*
X1365Y439*
Y339*
X1358Y332*
Y319*
X1352Y321*
X1378Y1149D02*
X1591D01*
X1617Y1122*
X1378Y1664D02*
X1328D01*
X1298Y1694*
X1224Y1694*
X1453Y522D02*
X1452D01*
X1449Y526*
X1527*
X1527Y527*
X1544Y522*
X1453Y442D02*
X1463D01*
Y390*
X1488Y365*
Y324*
X1490Y321*
X1577Y1892D02*
Y1774D01*
X1578Y1786*
X1573*
X1583Y1789*
X1581Y1791*
X1577*
X1577Y1967D02*
Y1989D01*
X1523Y2044*
X1224*
Y2044*
X1618Y1729D02*
X1578Y1769D01*
X1577Y1791*
X1619Y2622D02*
X1566D01*
X1388Y2444*
X718*
X623Y2539*
X505Y2689*
X1628Y321D02*
Y329D01*
X1643Y344*
X1639Y523D02*
Y597D01*
X1565Y671*
X1077*
X1011Y605*
Y554*
X1009Y522*
X1639Y443D02*
X1622D01*
X1622Y442*
X1531*
X1544Y441*
X1639Y443D02*
X1622D01*
X1621Y442*
X1590*
X1564Y417*
Y252*
X1581Y236*
X1579Y233*
X1583*
X1607Y208*
X2354*
X2460Y313*
Y1587*
X2460Y1588*
Y1591*
X1643Y344D02*
X1638Y339D01*
X1628Y321*
X1647Y1932D02*
X1737D01*
X1740Y1929*
X1751Y1930*
X1658Y1791D02*
X1676D01*
X1723Y1744*
X1732Y442D02*
Y439D01*
X1731*
Y432*
X1643Y344*
X1745Y1301D02*
X1745Y1299D01*
X1828*
X1833Y1304*
Y1596*
X1785Y1644*
X1617*
X1473Y1789*
Y1964*
X1443Y1994*
X1218*
Y1994*
X1224*
X1745Y1301D02*
Y1301D01*
X1745Y1301*
X1820*
X1823Y1299*
X1835*
X1745Y1220D02*
Y1224D01*
X1828*
X1818Y1214*
Y1149*
X1745Y1220D02*
X1832D01*
X1833Y1221*
Y1229*
X1835Y1226*
Y1224*
X1751Y1850D02*
X1847D01*
X1885Y1889*
X1886Y1890*
Y1897*
X1765Y1586D02*
X1590D01*
X1333Y1329*
X1216Y1211*
X1061*
X1060Y1211*
X1793Y2144D02*
X1943D01*
X1975Y2169*
X1820Y522D02*
Y523D01*
X1727*
X1726Y524*
X1724*
X1732Y523*
X1835Y3151D02*
X1860D01*
X1863Y3154*
X2035Y3151*
X1869Y707D02*
X1872Y708D01*
X1873Y707*
X1870Y707*
X1871Y705*
X1875*
X1907Y673*
Y528*
X1912Y524*
X1907Y525*
X1912Y521*
X1907Y520*
X1906Y519*
X1907Y522*
X1886Y1897D02*
Y1676D01*
X1880Y1671*
X1895Y1679*
X1894Y1680*
Y1680*
X1907Y522D02*
Y510D01*
X1891*
X1829Y448*
X1820Y442*
X1907Y442D02*
X1892Y442D01*
X1939*
X1977Y480*
Y689*
X1862Y804*
X1363*
X1288Y729*
X958*
X878Y809*
Y1354*
X916Y1392*
X983*
X1943Y1779D02*
Y1944D01*
X1988Y1989*
X2153*
X2198Y2034*
X2203*
X2323Y2169*
X1975D02*
X1773D01*
X1673Y2269*
X1670Y2572*
X2013Y1301D02*
Y1447D01*
X2133Y1566*
X2315*
X2378Y1503*
Y1469*
X2377Y1467*
Y1457*
X2013Y1221D02*
Y1223D01*
X2010Y1226*
X1965*
X1923Y1269*
X1905Y1264*
X2035Y3151D02*
X2345D01*
X2418Y3079*
X2421Y3008*
X2038Y707D02*
X2258D01*
X2329Y778*
Y877*
X2265Y941*
X2135*
X2108Y969*
Y1354*
X2195Y1441*
Y1476*
X2158Y842D02*
X2138Y842D01*
X1985*
X1590Y1238*
X1373*
Y1234*
X2233Y1897D02*
X2276D01*
X2303Y1924*
X2281Y1276D02*
Y1278D01*
X2280Y1279*
X2283Y1154D02*
Y1029D01*
X2280Y1026*
X2281Y1031*
X2296Y1457D02*
Y1456D01*
X2291*
Y1454*
X2191Y1354*
X2185*
Y1352*
X2377Y1457D02*
X2378D01*
Y1283*
X2362Y1267*
X2376Y1276*
X2424Y2898D02*
X2429Y2548D01*
X2430Y2439D02*
Y2221D01*
X2378Y2169*
X2323*
D02*
D83*
X198Y1341D03*
X240Y2921D03*
X405Y964D03*
X425Y2314D03*
X428Y1734D03*
X458Y2197D03*
X470Y1874D03*
X546Y1146D03*
X565Y2036D03*
X568Y2269D03*
X588Y1579D03*
X663Y1989D03*
X728Y2219D03*
X750Y1846D03*
X755Y1944D03*
X772Y868D03*
X843Y2173D03*
X928Y924D03*
X928Y2077D03*
X968Y1839D03*
X1010Y586D03*
X1103Y591D03*
X1193Y1444D03*
X1278Y1379D03*
X1312Y2096D03*
X1318Y615D03*
X1323Y1734D03*
X1343Y2239D03*
X1348Y2044D03*
X1368Y1909D03*
X1378Y1664D03*
X1616Y1049D03*
X1765Y1586D03*
X1869Y707D03*
X2038D03*
X2303Y1924D03*
X2460Y1591D03*
D02*
D84*
X1945Y1586D02*
X1975Y1616D01*
Y1680*
X2012*
X2068Y1736*
X2067Y1897*
X2187Y1276D02*
Y1278D01*
X2190*
X2185Y1283*
Y1352*
X2224Y2860D02*
X2204Y2858D01*
X2184Y2854*
X2166Y2846*
X2149Y2836*
X2134Y2823*
X2121Y2807*
X2110Y2790*
X2103Y2772*
X2098Y2753*
X2097Y2733*
X2098Y2713*
X2103Y2694*
X2110Y2675*
X2121Y2658*
X2134Y2643*
X2149Y2630*
X2166Y2620*
X2184Y2612*
X2204Y2607*
X2224Y2606*
X2243Y2607*
X2263Y2612*
X2281Y2620*
X2298Y2630*
X2313Y2643*
X2326Y2658*
X2337Y2675*
X2344Y2694*
X2349Y2713*
X2351Y2733*
X2349Y2753*
X2344Y2772*
X2337Y2790*
X2326Y2807*
X2313Y2823*
X2298Y2836*
X2281Y2846*
X2263Y2854*
X2243Y2858*
X2224Y2860*
X2280Y1279D02*
X2281Y1031D01*
D02*
D85*
X769Y2622D02*
Y2640D01*
X1238Y3109*
X1235Y3151*
X1435D02*
Y3120D01*
X1830Y2725*
Y2492*
X1830Y2493*
X1823Y2953D02*
X1822D01*
X1821Y2954*
X1635Y3151*
X2067Y1897D02*
Y1802D01*
X2118Y1751*
X2368*
X2410Y1794*
X2414Y1897*
D02*
D86*
X1793Y2144D03*
X2283Y1154D03*
D02*
D121*
X1945Y1586D03*
D02*
D142*
X153Y1436D03*
X153Y2659D03*
D02*
D143*
X414Y2961D03*
X595D03*
D02*
D144*
X526Y321D03*
X801D03*
X1077D03*
X2041D03*
D02*
D145*
X435Y3151D03*
X635D03*
X835D03*
X1035D03*
D02*
D146*
X230Y499D03*
D02*
D147*
X918Y1499D03*
X1123Y914D03*
X1618Y1729D03*
X1818Y1149D03*
X000Y000D02*
M02*
