%FSLAX23Y23*%
%MOIN*%
%ADD120O,0.07087X0.11811X0.04724*%
%ADD103O,0.07874X0.15748X0.05118*%
%ADD130R,0.08000X0.02000*%
%ADD131R,0.08200X0.02000*%
%ADD104R,0.04500X0.04000*%
%ADD90R,0.04500X0.05118*%
%ADD88R,0.05118X0.04500*%
%ADD107C,0.01800*%
%ADD110C,0.03937*%
%ADD100R,0.08000X0.08000X0.03543*%
%ADD109C,0.04000X0.02400*%
%ADD123C,0.04724X0.02400*%
%ADD106C,0.04800X0.02400*%
%ADD108C,0.07874X0.02400*%
%ADD105C,0.07500X0.03200*%
%ADD112C,0.07874X0.03937*%
%ADD99C,0.09843X0.03937*%
%ADD94C,0.11811X0.06000*%
%ADD97C,0.13780X0.05118*%
%ADD122C,0.17500X0.11811*%
X000Y000D02*
D02*
D88*
X929Y2745D03*
X929Y2826D03*
X1342Y2750D03*
X1342Y2831D03*
X1361Y2352D03*
X1362Y2432D03*
X1431Y2585D03*
X1431Y2665D03*
X1530Y2394D03*
X1530Y2474D03*
D02*
D90*
X956Y2938D03*
X1036Y2938D03*
X1144Y2366D03*
X1145Y2944D03*
X1225Y2366D03*
X1226Y2944D03*
D02*
D94*
X1823Y2953D03*
X1830Y2493D03*
X2423Y2953D03*
X2430Y2493D03*
D02*
D97*
X769Y2622D03*
X1669D03*
D02*
D99*
X2203Y542D03*
Y842D03*
D02*
D100*
X153Y1436D03*
Y1536D03*
Y1636D03*
Y1736D03*
Y1836D03*
Y1936D03*
Y2036D03*
Y2136D03*
X153Y2459D03*
Y2559D03*
Y2659D03*
Y2759D03*
Y2859D03*
Y2959D03*
D02*
D103*
X435Y3151D03*
X635D03*
X835D03*
X1035D03*
X1235D03*
X1435D03*
X1635D03*
X1835D03*
X2035D03*
D02*
D104*
X1146Y2259D03*
X1216Y2219D03*
Y2294D03*
D02*
D105*
X1720Y1476D03*
X2195D03*
D02*
D106*
X273Y1024D03*
X386Y324D03*
X425Y1234D03*
X438Y1494D03*
X713Y1579D03*
X869Y646D03*
X918Y1499D03*
X960Y1577D03*
X1123Y914D03*
X1373Y1234D03*
X1378Y1149D03*
X1617Y1122D03*
X1618Y1729D03*
X1723Y1744D03*
X1818Y1149D03*
X1943Y1779D03*
X2185Y1352D03*
D02*
D107*
X179Y2854D02*
X258D01*
X478Y2634*
X545*
X843Y2336*
Y2173*
X180Y2459D02*
X378D01*
X568Y2269*
X280Y1043D02*
X425Y1189D01*
Y1213*
X386Y303D02*
Y271D01*
X449Y208*
X614*
X664Y257*
Y289*
X405Y964D02*
X676D01*
X772Y868*
X446Y1234D02*
X458D01*
X716Y1491*
Y1494*
X800Y1579*
X939*
X458Y2197D02*
X454D01*
X428Y2224*
X102*
X083Y2205*
Y1364*
X099Y1348*
X195*
X198Y1346*
Y1341*
X459Y1494D02*
X603D01*
X688Y1579*
X692*
X588D02*
Y1589D01*
X825Y1826*
X827*
X1045Y2044*
X1348*
X663Y1989D02*
X412D01*
X302Y1879*
Y1615*
X223Y1536*
X179Y1536*
X728Y2219D02*
X723D01*
Y2285*
X664Y2344*
X663*
X248Y2759*
X180*
X750Y1846D02*
X540D01*
X428Y1734*
X755Y1944D02*
X690D01*
X673Y1926*
X525*
X488Y1889*
X470Y1874*
X890Y646D02*
X925D01*
X951Y671*
Y672*
X1089*
X1248Y831*
Y1019*
X1363Y1134*
X928Y924D02*
X1038Y1034D01*
Y1134*
X1278Y1374*
Y1379*
X928Y2077D02*
Y2086D01*
X928Y2086*
X728*
X605Y2209*
X560*
X455Y2314*
X425*
X929Y2826D02*
X838Y2917D01*
X244*
X240Y2921*
X929Y2826D02*
Y2817D01*
X926Y2814*
X1032Y2812*
X956Y2938D02*
X942D01*
X928Y2925*
X929Y2826*
X1036Y2938D02*
Y2937D01*
X1108Y2865*
Y2531*
X1091Y2513*
X1085*
X1032Y2512*
X1144Y2366D02*
Y2478D01*
X1108Y2514*
X1106*
X1103Y2511*
X1030Y2511*
X1032*
Y2512*
X1144Y2366D02*
X1144D01*
X1144Y2366*
X1146Y2259*
X1193Y1444D02*
X798D01*
X653Y1299*
X575Y1221*
X546Y1192*
Y1146*
X1216Y2294D02*
X1287D01*
X1343Y2239*
X1216Y2294D02*
Y2361D01*
X1217Y2362*
X1225Y2366*
X1232Y2512D02*
X1261Y2512D01*
X1261Y2512*
X1263Y2512*
X1342*
X1383Y2471*
X1428*
X1459Y2440*
Y1599*
X1506Y1552*
Y855*
X1318Y667*
X1307*
X977Y336*
X977Y344*
X963*
X1232Y2662D02*
X1386D01*
X1403Y2679*
X1431Y2665*
X1232Y2762D02*
X1185D01*
X1151Y2797*
Y2828*
X1190Y2868*
X1205*
X1224Y2886*
X1226Y2944*
X1323Y1734D02*
X1323D01*
Y1643*
X1469Y1498*
Y886*
X1120Y537*
X1094*
X1045Y586*
X1010*
X1342Y2750D02*
X1326D01*
X1290Y2714*
X1232Y2712*
X1342Y2831D02*
X1282D01*
X1265Y2813*
X1232Y2813*
X1232Y2813*
X1231*
X1343Y2239D02*
Y2244D01*
X1363Y2264*
Y2347*
X1364Y2348*
X1361Y2352*
X1362Y2432D02*
Y2488D01*
X1337Y2512*
X1232Y2512*
X1368Y1909D02*
X1358D01*
X1278Y1829*
Y1612*
X1432Y1457*
Y919*
X1102Y591*
X1103*
Y591*
X1370Y1254D02*
Y1401D01*
X968Y1804*
Y1839*
X1378Y1664D02*
Y1728D01*
X1411Y1761*
Y2106*
X1364Y2153*
X1078*
X1024Y2098*
Y2089*
X948Y2014*
X848*
X825Y2036*
X570*
X568Y2034*
X565Y2036*
Y2036*
X1431Y2585D02*
Y2588D01*
X1401*
X1375Y2614*
X1279*
X1232Y2612*
X1530Y2474D02*
Y2478D01*
X1495Y2512*
X1404*
X1354Y2562*
X1232Y2562*
X1616Y1049D02*
X1804D01*
X1912Y941*
X2138*
X2295Y942*
X2297Y940*
X2384*
X2393Y946*
X2423Y977*
Y1266*
X2370Y1319*
Y1462*
X2318Y1514*
Y1846*
X2303Y1861*
Y1924*
X1619Y1143D02*
Y1614D01*
X1723Y1717*
Y1723*
X1744Y1744D02*
X1908D01*
X1928Y1764*
X1765Y289D02*
Y258D01*
X1810Y213*
X2095*
X2196Y314*
X2197*
X2342Y459*
Y806*
X2305Y842*
Y842*
X2231*
X1765Y1586D02*
Y1594D01*
X1773Y1586*
X1924*
X1785Y2963D02*
X1610D01*
Y2961*
X1548Y2899*
Y2614*
X1667Y2495*
Y1907*
X1544Y1784*
Y1730*
X1545Y1729*
Y819*
X1341Y615*
X1318*
X2038Y707D02*
X1869D01*
X2175Y549D02*
X2139D01*
X1930Y340*
X2460Y1591D02*
Y1797D01*
X2460Y1797*
Y2295*
X2425Y2330*
X2190*
X2023Y2497*
X1869Y2494*
D02*
D108*
X230Y499D03*
D02*
D109*
X198Y1341D03*
X240Y2921D03*
X405Y964D03*
X425Y2314D03*
X428Y1734D03*
X458Y2197D03*
X470Y1874D03*
X546Y1146D03*
X565Y2036D03*
X568Y2269D03*
X588Y1579D03*
X663Y1989D03*
X728Y2219D03*
X750Y1846D03*
X755Y1944D03*
X772Y868D03*
X843Y2173D03*
X928Y924D03*
X928Y2077D03*
X968Y1839D03*
X1010Y586D03*
X1103Y591D03*
X1193Y1444D03*
X1278Y1379D03*
X1312Y2096D03*
X1318Y615D03*
X1323Y1734D03*
X1343Y2239D03*
X1348Y2044D03*
X1368Y1909D03*
X1378Y1664D03*
X1616Y1049D03*
X1765Y1586D03*
X1869Y707D03*
X2038D03*
X2303Y1924D03*
X2460Y1591D03*
D02*
D110*
X1746Y1451D02*
X2043Y1154D01*
X2243*
X1945Y1586D02*
Y1554D01*
X2148Y1351*
X2178*
X2178Y1351*
Y1352*
X2185Y1352*
X2193Y1512D02*
Y1744D01*
X1821Y2116*
D02*
D112*
X1793Y2144D03*
X2283Y1154D03*
D02*
D120*
X526Y321D03*
X663D03*
X801D03*
X939D03*
X1077D03*
X1215D03*
X1352D03*
X1490D03*
X1628D03*
X1766D03*
X1904D03*
X2041D03*
D02*
D122*
X254Y771D03*
X2224Y2733D03*
D02*
D123*
X1945Y1586D03*
D02*
D130*
X1032Y2462D03*
Y2512D03*
Y2562D03*
Y2612D03*
Y2662D03*
Y2712D03*
Y2762D03*
Y2812D03*
X1231Y2813D03*
X1232Y2462D03*
Y2512D03*
Y2562D03*
Y2662D03*
Y2712D03*
Y2762D03*
D02*
D131*
Y2612D03*
X000Y000D02*
M02*
