%FSLAX23Y23*%
%MOIN*%
%ADD10C,0.00500*%
%ADD11C,0.00787*%
X000Y000D02*
D02*
D10*
X899Y2850D02*
Y2718D01*
X958*
Y2852*
X898*
X931Y2909D02*
X1063D01*
Y2967*
X930*
Y2907*
X1106Y2813D02*
Y2763D01*
X1156*
Y2813*
X1121Y2914D02*
X1253D01*
Y2973*
X1120*
Y2913*
X1181Y2819D02*
Y2456D01*
X1081*
Y2819*
X1181*
X1241Y2314D02*
X1121D01*
Y2199*
X1241*
Y2314*
X1250Y2396D02*
X1117D01*
Y2337*
X1251*
Y2397*
X1372Y2725D02*
Y2858D01*
X1313*
Y2724*
X1373*
X1391Y2327D02*
Y2459D01*
X1332*
Y2326*
X1393*
X1461Y2560D02*
Y2692D01*
X1402*
Y2559*
X1462*
X1560Y2369D02*
Y2501D01*
X1501*
Y2368*
X1561*
D02*
D11*
X850Y2754D02*
X853Y2751D01*
X859Y2748*
X869*
X875Y2751*
X878Y2754*
X881Y2761*
Y2773*
X878Y2779*
X875Y2782*
X869Y2786*
X859*
X853Y2782*
X850Y2779*
X825Y2748D02*
X812D01*
X819D02*
Y2786D01*
X825Y2779*
X781Y2748D02*
X756Y2786D01*
X781*
X966Y2477D02*
X954D01*
X960D02*
Y2515D01*
X966D02*
X954D01*
X894Y2484D02*
X897Y2481D01*
X904Y2477*
X913*
X919Y2481*
X922Y2484*
X926Y2490*
Y2502*
X922Y2509*
X919Y2512*
X913Y2515*
X904*
X897Y2512*
X894Y2509*
X872Y2481D02*
X866Y2477D01*
X860*
X854Y2481*
X851Y2487*
X854Y2493*
X860Y2496*
X866*
X860D02*
X854Y2499D01*
X851Y2506*
X854Y2512*
X860Y2515*
X866*
X872Y2512*
X1064Y2987D02*
Y3025D01*
X1042*
X1036Y3022*
X1033Y3015*
X1036Y3009*
X1042Y3006*
X1064*
X1042D02*
X1033Y2987D01*
X1011Y2990D02*
X1005Y2987D01*
X998*
X992Y2990*
X989Y2997*
X992Y3003*
X998Y3006*
X1005*
X998D02*
X992Y3009D01*
X989Y3015*
X992Y3022*
X998Y3025*
X1005*
X1011Y3022*
X955Y3006D02*
X948D01*
X942Y3009*
X939Y3015*
X942Y3022*
X948Y3025*
X955*
X961Y3022*
X964Y3015*
X961Y3009*
X955Y3006*
X961Y3003*
X964Y2997*
X961Y2990*
X955Y2987*
X948*
X942Y2990*
X939Y2997*
X942Y3003*
X948Y3006*
X1099Y2335D02*
Y2372D01*
X1077*
X1070Y2369*
X1067Y2363*
X1070Y2357*
X1077Y2353*
X1099*
X1077D02*
X1067Y2335D01*
X1045Y2338D02*
X1039Y2335D01*
X1033*
X1027Y2338*
X1024Y2344*
X1027Y2350*
X1033Y2353*
X1039*
X1033D02*
X1027Y2357D01*
X1024Y2363*
X1027Y2369*
X1033Y2372*
X1039*
X1045Y2369*
X989Y2335D02*
X983Y2338D01*
X977Y2344*
X974Y2353*
Y2363*
X977Y2369*
X983Y2372*
X989*
X995Y2369*
X999Y2363*
X995Y2357*
X989Y2353*
X983*
X977Y2357*
X974Y2363*
X1090Y2241D02*
Y2279D01*
X1105D02*
X1074D01*
X1055Y2241D02*
X1030Y2279D01*
X1055*
X1361Y2935D02*
X1364Y2932D01*
X1370Y2929*
X1379*
X1386Y2932*
X1389Y2935*
X1392Y2942*
Y2954*
X1389Y2960*
X1386Y2964*
X1379Y2967*
X1370*
X1364Y2964*
X1361Y2960*
X1336Y2929D02*
X1323D01*
X1329D02*
Y2967D01*
X1336Y2960*
X1276Y2929D02*
Y2967D01*
X1292Y2942*
X1267*
X1519Y2284D02*
Y2322D01*
X1497*
X1491Y2319*
X1488Y2313*
X1491Y2306*
X1497Y2303*
X1519*
X1497D02*
X1488Y2284D01*
X1453D02*
Y2322D01*
X1469Y2297*
X1444*
X1416Y2288D02*
X1409Y2284D01*
X1403*
X1397Y2288*
X1394Y2294*
Y2313*
X1397Y2319*
X1403Y2322*
X1409*
X1416Y2319*
X1419Y2313*
Y2294*
X1416Y2288*
X1397Y2319*
X1500Y2794D02*
X1504Y2791D01*
X1510Y2787*
X1519*
X1525Y2791*
X1529Y2794*
X1532Y2800*
Y2812*
X1529Y2819*
X1525Y2822*
X1519Y2825*
X1510*
X1504Y2822*
X1500Y2819*
X1475Y2787D02*
X1463D01*
X1469D02*
Y2825D01*
X1475Y2819*
X1429Y2791D02*
X1422Y2787D01*
X1416*
X1410Y2791*
X1407Y2797*
X1410Y2803*
X1416Y2806*
X1422*
X1416D02*
X1410Y2809D01*
X1407Y2816*
X1410Y2822*
X1416Y2825*
X1422*
X1429Y2822*
X1573Y2596D02*
X1576Y2593D01*
X1583Y2590*
X1592*
X1598Y2593*
X1601Y2596*
X1604Y2602*
Y2615*
X1601Y2621*
X1598Y2624*
X1592Y2627*
X1583*
X1576Y2624*
X1573Y2621*
X1548Y2590D02*
X1536D01*
X1542D02*
Y2627D01*
X1548Y2621*
X1504Y2593D02*
X1498Y2590D01*
X1489*
X1483Y2593*
X1479Y2599*
Y2602*
X1483Y2608*
X1489Y2611*
X1504*
Y2627*
X1479*
X1677Y2421D02*
X1680Y2418D01*
X1686Y2414*
X1695*
X1702Y2418*
X1705Y2421*
X1708Y2427*
Y2439*
X1705Y2446*
X1702Y2449*
X1695Y2452*
X1686*
X1680Y2449*
X1677Y2446*
X1652Y2414D02*
X1639D01*
X1645D02*
Y2452D01*
X1652Y2446*
X1608Y2424D02*
X1605Y2430D01*
X1598Y2433*
X1592*
X1586Y2430*
X1583Y2424*
X1586Y2418*
X1592Y2414*
X1598*
X1605Y2418*
X1608Y2424*
Y2433*
X1605Y2443*
X1598Y2449*
X1592Y2452*
X000Y000D02*
M02*
