M48
T1C00.024
T2C00.032
T3C00.035
T4C00.039
T5C00.047
T6C00.051
T7C00.060
T8C00.118
%
T001
X00198Y01341
X00230Y00499
X00240Y02921
X00273Y01024
X00386Y00324
X00405Y00964
X00425Y01234
X00425Y02314
X00428Y01734
X00438Y01494
X00458Y02197
X00470Y01874
X00546Y01146
X00565Y02036
X00568Y02269
X00588Y01579
X00663Y01989
X00713Y01579
X00728Y02219
X00750Y01846
X00755Y01944
X00772Y00868
X00843Y02173
X00869Y00646
X00918Y01499
X00928Y00924
X00928Y02077
X00960Y01577
X00968Y01839
X01010Y00586
X01103Y00591
X01123Y00914
X01193Y01444
X01278Y01379
X01312Y02096
X01318Y00615
X01323Y01734
X01343Y02239
X01348Y02044
X01368Y01909
X01373Y01234
X01378Y01149
X01378Y01664
X01616Y01049
X01617Y01122
X01618Y01729
X01723Y01744
X01765Y01586
X01818Y01149
X01869Y00707
X01943Y01779
X01945Y01586
X02038Y00707
X02185Y01352
X02303Y01924
X02460Y01591
T002
X01720Y01476
X02195Y01476
T003
X00153Y01436
X00153Y01536
X00153Y01636
X00153Y01736
X00153Y01836
X00153Y01936
X00153Y02036
X00153Y02136
X00153Y02459
X00153Y02559
X00153Y02659
X00153Y02759
X00153Y02859
X00153Y02959
T004
X01793Y02144
X02203Y00542
X02203Y00842
X02283Y01154
T005
X00526Y00321
X00663Y00321
X00801Y00321
X00939Y00321
X01077Y00321
X01215Y00321
X01352Y00321
X01490Y00321
X01628Y00321
X01766Y00321
X01904Y00321
X02041Y00321
T006
X00435Y03151
X00635Y03151
X00769Y02622
X00835Y03151
X01035Y03151
X01235Y03151
X01435Y03151
X01635Y03151
X01669Y02622
X01835Y03151
X02035Y03151
T007
X01823Y02953
X01830Y02493
X02423Y02953
X02430Y02493
T008
X00254Y00771
X02224Y02733
M30
