%FSLAX23Y23*%
%MOIN*%
%ADD71O,0.03937X0.07874*%
%ADD19O,0.13780X0.23622*%
%ADD20R,0.02000X0.01000*%
%ADD14R,0.08000X0.08000*%
%ADD15C,0.01969*%
%ADD70C,0.04000*%
%ADD11C,0.06000*%
%ADD12C,0.09449*%
X000Y000D02*
D02*
D11*
X210Y1807D03*
X249Y1706D03*
X289Y1806D03*
X329Y1707D03*
X369Y1807D03*
X409Y1706D03*
X450Y1806D03*
X489Y1706D03*
X1617Y197D03*
X1657Y097D03*
X1694Y1803D03*
X1697Y197D03*
X1733Y1702D03*
X1737Y096D03*
X1773Y1803D03*
X1778Y196D03*
X1813Y1703D03*
X1818Y097D03*
X1853Y1803D03*
X1857Y197D03*
X1893Y1703D03*
X1896Y096D03*
X1934Y1803D03*
X1973Y1703D03*
X3101Y193D03*
X3141Y093D03*
X3179Y1803D03*
X3181Y193D03*
X3218Y1702D03*
X3221Y092D03*
X3258Y1803D03*
X3262Y192D03*
X3298Y1703D03*
X3302Y093D03*
X3338Y1803D03*
X3341Y193D03*
X3378Y1703D03*
X3380Y092D03*
X3419Y1803D03*
X3458Y1703D03*
X4586Y193D03*
X4626Y093D03*
X4664Y1803D03*
X4666Y193D03*
X4703Y1702D03*
X4706Y092D03*
X4743Y1803D03*
X4747Y192D03*
X4783Y1703D03*
X4787Y093D03*
X4823Y1803D03*
X4826Y193D03*
X4863Y1703D03*
X4865Y092D03*
X4904Y1803D03*
X4943Y1703D03*
X6071Y193D03*
X6111Y093D03*
X6143Y1806D03*
X6152Y193D03*
X6182Y1706D03*
X6191Y092D03*
X6222Y1806D03*
X6232Y192D03*
X6262Y1706D03*
X6272Y093D03*
X6302Y1806D03*
X6311Y193D03*
X6342Y1706D03*
X6351Y092D03*
X6383Y1806D03*
X6422Y1706D03*
X7550Y196D03*
X7590Y096D03*
X7630Y196D03*
X7670Y096D03*
X7711Y196D03*
X7751Y096D03*
X7790Y196D03*
X7829Y096D03*
D02*
D12*
X053Y1615D03*
X663D03*
X1444Y288D03*
X1537Y1612D03*
X2054Y288D03*
X2147Y1612D03*
X2928Y284D03*
X3022Y1612D03*
X3538Y284D03*
X3632Y1612D03*
X4413Y284D03*
X4507Y1612D03*
X5023Y284D03*
X5117Y1612D03*
X5898Y284D03*
X5986Y1615D03*
X6508Y284D03*
X6596Y1615D03*
X7377Y287D03*
X7987D03*
D02*
D14*
X1138Y857D03*
Y957D03*
Y1057D03*
X2622Y853D03*
Y953D03*
Y1053D03*
X4107Y853D03*
Y953D03*
Y1053D03*
X5592Y853D03*
Y953D03*
Y1053D03*
X7071Y856D03*
Y956D03*
Y1056D03*
D02*
D15*
X329Y1707D02*
Y1702D01*
X481Y1550*
Y1180*
X854Y807*
X1003*
X1208Y602*
Y597*
X1204Y491*
X369Y1807D02*
Y1841D01*
X348Y1862*
X163*
X127Y1825*
Y1734*
X447Y1414*
Y1151*
X743Y855*
Y420*
X888Y275*
Y195*
X889Y196*
X863Y890D02*
X855D01*
Y888*
X520Y1223*
Y1679*
X493Y1707*
X508*
X489Y1706*
X893Y1100D02*
Y1357D01*
X898Y1362*
X897Y1410*
X938Y895D02*
X934D01*
Y888*
X560Y1261*
Y1736*
X495Y1802*
X490*
X450Y1806*
X1052Y1361D02*
Y1159D01*
X983Y1090*
X1656Y374D02*
X1618Y337D01*
Y252*
X1617Y197*
X1706Y374D02*
X1721D01*
X1728Y382*
X1768*
X1706Y374D02*
X1778Y302D01*
Y196*
X1778*
X1813Y1703D02*
Y1698D01*
X1965Y1546*
Y1176*
X2338Y803*
X2487*
X2692Y598*
Y593*
X2688Y488*
X1853Y1803D02*
Y1837D01*
X1832Y1858*
X1647*
X1611Y1821*
Y1731*
X1931Y1411*
Y1147*
X2227Y851*
Y416*
X2372Y271*
Y191*
X2373Y193*
X2347Y886D02*
X2339D01*
Y884*
X2004Y1219*
Y1676*
X1977Y1703*
X1992*
X1973Y1703*
X2377Y1096D02*
Y1353D01*
X2382Y1358*
X2381Y1407*
X2422Y891D02*
X2418D01*
Y884*
X2045Y1258*
Y1732*
X1979Y1798*
X1974*
X1934Y1803*
X2536Y1357D02*
Y1155D01*
X2467Y1086*
X3140Y370D02*
X3102Y333D01*
Y248*
X3101Y193*
X3190Y370D02*
X3205D01*
X3212Y378*
X3252*
X3190Y370D02*
X3262Y298D01*
Y192*
X3262*
X3298Y1703D02*
Y1698D01*
X3450Y1546*
Y1176*
X3823Y803*
X3972*
X4177Y598*
Y593*
X4173Y488*
X3338Y1803D02*
Y1837D01*
X3317Y1858*
X3132*
X3096Y1821*
Y1731*
X3416Y1411*
Y1147*
X3712Y851*
Y416*
X3857Y271*
Y191*
X3858Y193*
X3832Y886D02*
X3824D01*
Y884*
X3489Y1219*
Y1676*
X3462Y1703*
X3477*
X3458Y1703*
X3862Y1096D02*
Y1353D01*
X3867Y1358*
X3866Y1407*
X3907Y891D02*
X3903D01*
Y884*
X3530Y1258*
Y1732*
X3464Y1798*
X3459*
X3419Y1803*
X4021Y1357D02*
Y1155D01*
X3952Y1086*
X4625Y370D02*
X4587Y333D01*
Y248*
X4586Y193*
X4675Y370D02*
X4690D01*
X4697Y378*
X4737*
X4675Y370D02*
X4747Y298D01*
Y192*
X4747*
X4783Y1703D02*
Y1698D01*
X4935Y1546*
Y1176*
X5309Y803*
X5457*
X5662Y598*
Y593*
X5658Y488*
X4823Y1803D02*
Y1837D01*
X4802Y1858*
X4617*
X4581Y1821*
Y1731*
X4901Y1411*
Y1147*
X5197Y851*
Y416*
X5342Y271*
Y191*
X5343Y193*
X5317Y886D02*
X5309D01*
Y884*
X4974Y1219*
Y1676*
X4947Y1703*
X4962*
X4943Y1703*
X5347Y1096D02*
Y1353D01*
X5352Y1358*
X5351Y1407*
X5392Y891D02*
X5388D01*
Y884*
X5015Y1258*
Y1732*
X4949Y1798*
X4944*
X4904Y1803*
X5506Y1357D02*
Y1155D01*
X5437Y1086*
X6110Y370D02*
X6072Y333D01*
Y248*
X6071Y193*
X6160Y370D02*
X6175D01*
X6182Y378*
X6222*
X6160Y370D02*
X6232Y298D01*
Y192*
X6232*
X6262Y1706D02*
Y1702D01*
X6414Y1549*
Y1179*
X6787Y806*
X6936*
X7141Y601*
Y596*
X7137Y491*
X6302Y1806D02*
Y1840D01*
X6281Y1861*
X6096*
X6060Y1825*
Y1734*
X6380Y1414*
Y1150*
X6676Y854*
Y419*
X6821Y274*
Y194*
X6822Y196*
X6796Y889D02*
X6788D01*
Y887*
X6453Y1222*
Y1679*
X6426Y1706*
X6441*
X6422Y1706*
X6826Y1099D02*
Y1356D01*
X6831Y1361*
X6830Y1410*
X6871Y894D02*
X6867D01*
Y887*
X6493Y1261*
Y1735*
X6428Y1801*
X6423*
X6383Y1806*
X6985Y1361D02*
Y1158D01*
X6916Y1089*
X7589Y374D02*
X7551Y336D01*
Y251*
X7550Y196*
X7639Y374D02*
X7654D01*
X7661Y381*
X7701*
X7639Y374D02*
X7711Y301D01*
Y196*
X7711*
D02*
D19*
X889Y196D03*
Y491D03*
X897Y1705D03*
X897Y1410D03*
X1048Y541D03*
X1048Y147D03*
X1052Y1755D03*
X1052Y1361D03*
X1204Y491D03*
X1204Y197D03*
X1211Y1410D03*
Y1705D03*
X2373Y193D03*
Y488D03*
X2381Y1701D03*
X2381Y1407D03*
X2532Y537D03*
X2532Y143D03*
X2536Y1751D03*
X2536Y1357D03*
X2688Y488D03*
X2688Y193D03*
X2695Y1407D03*
Y1701D03*
X3858Y193D03*
Y488D03*
X3866Y1701D03*
X3866Y1407D03*
X4017Y537D03*
X4017Y143D03*
X4021Y1751D03*
X4021Y1357D03*
X4173Y488D03*
X4173Y193D03*
X4181Y1407D03*
Y1701D03*
X5343Y193D03*
Y488D03*
X5351Y1701D03*
X5351Y1407D03*
X5502Y537D03*
X5503Y143D03*
X5506Y1751D03*
X5506Y1357D03*
X5658Y488D03*
X5658Y193D03*
X5666Y1407D03*
Y1701D03*
X6822Y196D03*
Y491D03*
X6830Y1704D03*
X6830Y1410D03*
X6981Y540D03*
X6981Y146D03*
X6985Y1755D03*
X6985Y1361D03*
X7137Y491D03*
X7137Y196D03*
X7144Y1410D03*
Y1705D03*
D02*
D70*
X863Y890D03*
X893Y1100D03*
X938Y895D03*
X983Y1090D03*
X1768Y382D03*
X2347Y886D03*
X2377Y1096D03*
X2422Y891D03*
X2467Y1086D03*
X3252Y378D03*
X3832Y886D03*
X3862Y1096D03*
X3907Y891D03*
X3952Y1086D03*
X4737Y378D03*
X5317Y886D03*
X5347Y1096D03*
X5392Y891D03*
X5437Y1086D03*
X6222Y378D03*
X6796Y889D03*
X6826Y1099D03*
X6871Y894D03*
X6916Y1089D03*
X7701Y381D03*
D02*
D71*
X1656Y374D03*
X1706D03*
X3140Y370D03*
X3190D03*
X4625D03*
X4675D03*
X6110D03*
X6160D03*
X7589Y374D03*
X7639D03*
D02*
D20*
X1681Y375D03*
X3165Y371D03*
X4650D03*
X6135D03*
X7614Y374D03*
X000Y000D02*
M02*
