%FSLAX23Y23*%
%MOIN*%
%ADD71O,0.03937X0.07874*%
%ADD19O,0.13780X0.23622*%
%ADD20R,0.02000X0.01000*%
%ADD14R,0.08000X0.08000*%
%ADD70C,0.04000*%
%ADD11C,0.06000*%
%ADD12C,0.09449*%
X000Y000D02*
D02*
D11*
X210Y1807D03*
X249Y1706D03*
X289Y1806D03*
X329Y1707D03*
X369Y1807D03*
X409Y1706D03*
X450Y1806D03*
X489Y1706D03*
X1617Y197D03*
X1657Y097D03*
X1694Y1803D03*
X1697Y197D03*
X1733Y1702D03*
X1737Y096D03*
X1773Y1803D03*
X1778Y196D03*
X1813Y1703D03*
X1818Y097D03*
X1853Y1803D03*
X1857Y197D03*
X1893Y1703D03*
X1896Y096D03*
X1934Y1803D03*
X1973Y1703D03*
X3101Y193D03*
X3141Y093D03*
X3179Y1803D03*
X3181Y193D03*
X3218Y1702D03*
X3221Y092D03*
X3258Y1803D03*
X3262Y192D03*
X3298Y1703D03*
X3302Y093D03*
X3338Y1803D03*
X3341Y193D03*
X3378Y1703D03*
X3380Y092D03*
X3419Y1803D03*
X3458Y1703D03*
X4586Y193D03*
X4626Y093D03*
X4664Y1803D03*
X4666Y193D03*
X4703Y1702D03*
X4706Y092D03*
X4743Y1803D03*
X4747Y192D03*
X4783Y1703D03*
X4787Y093D03*
X4823Y1803D03*
X4826Y193D03*
X4863Y1703D03*
X4865Y092D03*
X4904Y1803D03*
X4943Y1703D03*
X6071Y193D03*
X6111Y093D03*
X6143Y1806D03*
X6152Y193D03*
X6182Y1706D03*
X6191Y092D03*
X6222Y1806D03*
X6232Y192D03*
X6262Y1706D03*
X6272Y093D03*
X6302Y1806D03*
X6311Y193D03*
X6342Y1706D03*
X6351Y092D03*
X6383Y1806D03*
X6422Y1706D03*
X7550Y196D03*
X7590Y096D03*
X7630Y196D03*
X7670Y096D03*
X7711Y196D03*
X7751Y096D03*
X7790Y196D03*
X7829Y096D03*
D02*
D12*
X053Y1615D03*
X663D03*
X1444Y288D03*
X1537Y1612D03*
X2054Y288D03*
X2147Y1612D03*
X2928Y284D03*
X3022Y1612D03*
X3538Y284D03*
X3632Y1612D03*
X4413Y284D03*
X4507Y1612D03*
X5023Y284D03*
X5117Y1612D03*
X5898Y284D03*
X5986Y1615D03*
X6508Y284D03*
X6596Y1615D03*
X7377Y287D03*
X7987D03*
D02*
D14*
X1138Y857D03*
Y957D03*
Y1057D03*
X2622Y853D03*
Y953D03*
Y1053D03*
X4107Y853D03*
Y953D03*
Y1053D03*
X5592Y853D03*
Y953D03*
Y1053D03*
X7071Y856D03*
Y956D03*
Y1056D03*
D02*
D19*
X889Y196D03*
Y491D03*
X897Y1705D03*
X897Y1410D03*
X1048Y541D03*
X1048Y147D03*
X1052Y1755D03*
X1052Y1361D03*
X1204Y491D03*
X1204Y197D03*
X1211Y1410D03*
Y1705D03*
X2373Y193D03*
Y488D03*
X2381Y1701D03*
X2381Y1407D03*
X2532Y537D03*
X2532Y143D03*
X2536Y1751D03*
X2536Y1357D03*
X2688Y488D03*
X2688Y193D03*
X2695Y1407D03*
Y1701D03*
X3858Y193D03*
Y488D03*
X3866Y1701D03*
X3866Y1407D03*
X4017Y537D03*
X4017Y143D03*
X4021Y1751D03*
X4021Y1357D03*
X4173Y488D03*
X4173Y193D03*
X4181Y1407D03*
Y1701D03*
X5343Y193D03*
Y488D03*
X5351Y1701D03*
X5351Y1407D03*
X5502Y537D03*
X5503Y143D03*
X5506Y1751D03*
X5506Y1357D03*
X5658Y488D03*
X5658Y193D03*
X5666Y1407D03*
Y1701D03*
X6822Y196D03*
Y491D03*
X6830Y1704D03*
X6830Y1410D03*
X6981Y540D03*
X6981Y146D03*
X6985Y1755D03*
X6985Y1361D03*
X7137Y491D03*
X7137Y196D03*
X7144Y1410D03*
Y1705D03*
D02*
D70*
X863Y890D03*
X893Y1100D03*
X938Y895D03*
X983Y1090D03*
X1768Y382D03*
X2347Y886D03*
X2377Y1096D03*
X2422Y891D03*
X2467Y1086D03*
X3252Y378D03*
X3832Y886D03*
X3862Y1096D03*
X3907Y891D03*
X3952Y1086D03*
X4737Y378D03*
X5317Y886D03*
X5347Y1096D03*
X5392Y891D03*
X5437Y1086D03*
X6222Y378D03*
X6796Y889D03*
X6826Y1099D03*
X6871Y894D03*
X6916Y1089D03*
X7701Y381D03*
D02*
D71*
X1656Y374D03*
X1706D03*
X3140Y370D03*
X3190D03*
X4625D03*
X4675D03*
X6110D03*
X6160D03*
X7589Y374D03*
X7639D03*
D02*
D20*
X1681Y375D03*
X3165Y371D03*
X4650D03*
X6135D03*
X7614Y374D03*
X000Y000D02*
M02*
