%FSLAX23Y23*%
%MOIN*%
%ADD10C,0.00500*%
X000Y000D02*
D02*
D10*
X050Y1896D02*
X7326D01*
Y1220*
X8036Y510*
Y048*
X7996Y008*
X6786*
X6641Y153*
Y721*
X5935Y1426*
Y1806*
X5936Y1806*
X5847*
Y1220*
X6560Y506*
X6557Y503*
Y044*
X6517Y004*
X5307*
X5162Y149*
Y718*
X4457Y1423*
Y1807*
X4457Y1807*
X4362*
Y1219*
X5073Y508*
Y044*
X5032Y003*
X3822*
X3677Y148*
Y718*
X2972Y1423*
Y1806*
X2974Y1808*
X2878*
Y1217*
X3587Y508*
Y043*
X3547Y003*
X2337*
X2192Y148*
Y718*
X1487Y1423*
Y1806*
X1487Y1806*
X1394*
Y1222*
X2103Y512*
Y047*
X2063Y007*
X854*
X708Y153*
Y722*
X003Y1428*
Y1848*
X009Y1855*
X050Y1896*
X663Y1892D02*
X053D01*
Y1380*
X663*
Y1892*
X648Y1173D02*
X651Y1170D01*
X654Y1163*
Y1154*
X651Y1148*
X648Y1145*
X641Y1142*
X629*
X623Y1145*
X619Y1148*
X616Y1154*
Y1163*
X619Y1170*
X623Y1173*
X641Y1192D02*
X629D01*
X623Y1195*
X619Y1198*
X616Y1204*
Y1210*
X619Y1217*
X623Y1220*
X629Y1223*
X641*
X648Y1220*
X651Y1217*
X654Y1210*
Y1204*
X651Y1198*
X648Y1195*
X641Y1192*
X654Y1242D02*
X616D01*
X654Y1273*
X616*
X654Y1292D02*
X616D01*
X654Y1323*
X616*
X654Y1348D02*
Y1360D01*
Y1354D02*
X616D01*
X623Y1348*
X713Y1556D02*
X714Y1524D01*
X719Y1492*
X726Y1461*
X737Y1430*
X750Y1401*
X766Y1373*
X785Y1346*
X806Y1322*
X830Y1300*
X855Y1280*
X882Y1262*
X911Y1248*
X941Y1236*
X972Y1226*
X1004Y1220*
X1036Y1217*
X1068Y1217*
X1100Y1220*
X1132Y1226*
X1163Y1235*
X1193Y1247*
X1221Y1262*
X1249Y1280*
X1274Y1300*
X1297Y1322*
X1319Y1346*
X1337Y1373*
X1353Y1401*
X1367Y1430*
X1377Y1460*
X1385Y1492*
X1390Y1524*
X1391Y1556*
X1390Y1588*
X1385Y1620*
X1377Y1652*
X1367Y1682*
X1353Y1712*
X1337Y1740*
X1319Y1766*
X1297Y1790*
X1274Y1813*
X1249Y1833*
X1222Y1850*
X1193Y1865*
X1163Y1877*
X1132Y1886*
X1100Y1892*
X1068Y1895*
X1036Y1895*
X1004Y1892*
X972Y1886*
X941Y1877*
X911Y1865*
X882Y1850*
X855Y1833*
X830Y1813*
X806Y1790*
X785Y1766*
X766Y1740*
X750Y1712*
X737Y1682*
X726Y1652*
X719Y1620*
X714Y1588*
X713Y1556*
X770Y257D02*
X808D01*
X770Y226*
X808*
X783Y207D02*
X795D01*
X801Y204*
X804Y201*
X808Y195*
Y188*
X804Y182*
X801Y179*
X795Y176*
X783*
X776Y179*
X773Y182*
X770Y188*
Y195*
X773Y201*
X776Y204*
X783Y207*
X770Y507D02*
X808D01*
X770Y476*
X808*
X776Y426D02*
X773Y429D01*
X770Y435*
Y445*
X773Y451*
X776Y454*
X783Y457*
X795*
X801Y454*
X804Y451*
X808Y445*
Y435*
X804Y429*
X801Y426*
X818Y1382D02*
X780D01*
X818Y1413*
X780*
X805Y1432D02*
X793D01*
X786Y1435*
X783Y1438*
X780Y1445*
Y1451*
X783Y1457*
X786Y1460*
X793Y1463*
X805*
X811Y1460*
X815Y1457*
X818Y1451*
Y1445*
X815Y1438*
X811Y1435*
X805Y1432*
X818Y1657D02*
X780D01*
X818Y1688*
X780*
X811Y1738D02*
X815Y1735D01*
X818Y1729*
Y1720*
X815Y1713*
X811Y1710*
X805Y1707*
X793*
X786Y1710*
X783Y1713*
X780Y1720*
Y1729*
X783Y1735*
X786Y1738*
X809Y642D02*
X816Y645D01*
X819Y651*
Y663*
X816Y670*
X809Y673*
X803Y670*
X800Y663*
Y651*
X797Y645*
X791Y642*
X784Y645*
X781Y651*
Y663*
X784Y670*
X791Y673*
X781Y692D02*
X819Y695D01*
X800Y707*
X819Y720*
X781Y723*
X819Y748D02*
Y760D01*
Y754D02*
X781D01*
X788Y748*
X1048Y407D02*
X1018D01*
Y382*
Y367D02*
X1048D01*
Y342*
X1033Y347D02*
Y367D01*
X1018D02*
Y342D01*
Y327D02*
X1048D01*
Y312*
X1046Y307*
X1043Y305*
X1038Y302*
X1028*
X1023Y305*
X1021Y307*
X1018Y312*
Y327*
X1021Y287D02*
X1018Y282D01*
Y272*
X1021Y267*
X1026*
X1028Y272*
Y282*
X1031Y287*
X1036*
X1038Y282*
Y272*
X1036Y267*
X1088Y807D02*
Y907D01*
X1188*
Y807*
X1088*
Y907D02*
Y1007D01*
X1188*
Y907*
X1088*
Y1007D02*
Y1107D01*
X1188*
Y1007*
X1088*
X1052Y1495D02*
X1082D01*
Y1520*
Y1535D02*
X1052D01*
Y1560*
X1067Y1555D02*
Y1535D01*
X1082D02*
Y1560D01*
Y1575D02*
X1052D01*
Y1590*
X1055Y1595*
X1057Y1597*
X1062Y1600*
X1072*
X1077Y1597*
X1080Y1595*
X1082Y1590*
Y1575*
X1080Y1615D02*
X1082Y1620D01*
Y1630*
X1080Y1635*
X1075*
X1072Y1630*
Y1620*
X1070Y1615*
X1065*
X1062Y1620*
Y1630*
X1065Y1635*
X1093Y807D02*
X1076Y808D01*
X1059Y813*
X1043Y820*
X1029Y830*
X1017Y842*
X1007Y857*
X999Y872*
X995Y889*
X993Y907*
Y1022*
X994Y1037*
X999Y1052*
X1005Y1067*
X1014Y1079*
X1025Y1090*
X1038Y1099*
X1052Y1106*
X1068Y1110*
X1083Y1112*
X1283Y245D02*
X1320D01*
X1283Y213*
X1320*
X1289Y163D02*
X1286Y166D01*
X1283Y173*
Y182*
X1286Y188*
X1289Y191*
X1295Y195*
X1308*
X1314Y191*
X1317Y188*
X1320Y182*
Y173*
X1317Y166*
X1314Y163*
X1283Y520D02*
X1320D01*
X1283Y488*
X1320*
X1295Y470D02*
X1308D01*
X1314Y466*
X1317Y463*
X1320Y457*
Y451*
X1317Y445*
X1314Y441*
X1308Y438*
X1295*
X1289Y441*
X1286Y445*
X1283Y451*
Y457*
X1286Y463*
X1289Y466*
X1295Y470*
X1330Y1395D02*
X1293D01*
X1330Y1426*
X1293*
X1324Y1476D02*
X1327Y1473D01*
X1330Y1467*
Y1457*
X1327Y1451*
X1324Y1448*
X1318Y1445*
X1305*
X1299Y1448*
X1296Y1451*
X1293Y1457*
Y1467*
X1296Y1473*
X1299Y1476*
X1330Y1645D02*
X1293D01*
X1330Y1676*
X1293*
X1318Y1695D02*
X1305D01*
X1299Y1698*
X1296Y1701*
X1293Y1707*
Y1713*
X1296Y1720*
X1299Y1723*
X1305Y1726*
X1318*
X1324Y1723*
X1327Y1720*
X1330Y1713*
Y1707*
X1327Y1701*
X1324Y1698*
X1318Y1695*
X1359Y1227D02*
X1366Y1230D01*
X1369Y1236*
Y1248*
X1366Y1255*
X1359Y1258*
X1353Y1255*
X1350Y1248*
Y1236*
X1347Y1230*
X1341Y1227*
X1334Y1230*
X1331Y1236*
Y1248*
X1334Y1255*
X1341Y1258*
X1331Y1277D02*
X1369Y1280D01*
X1350Y1292*
X1369Y1305*
X1331Y1308*
X1369Y1352D02*
Y1327D01*
X1347Y1348*
X1341Y1352*
X1334Y1348*
X1331Y1342*
Y1333*
X1334Y1327*
X1388Y346D02*
X1386Y378D01*
X1381Y410*
X1374Y441*
X1363Y472*
X1350Y501*
X1334Y529*
X1315Y555*
X1294Y580*
X1271Y602*
X1245Y622*
X1218Y639*
X1189Y654*
X1159Y666*
X1128Y675*
X1097Y681*
X1064Y685*
X1032Y685*
X1000Y681*
X968Y675*
X937Y666*
X907Y654*
X879Y639*
X852Y622*
X826Y602*
X803Y580*
X782Y555*
X763Y529*
X747Y501*
X733Y472*
X723Y441*
X715Y410*
X711Y378*
X709Y346*
X711Y313*
X715Y281*
X723Y250*
X733Y220*
X747Y190*
X763Y162*
X782Y136*
X803Y111*
X826Y089*
X851Y069*
X879Y052*
X907Y037*
X937Y025*
X968Y016*
X1000Y010*
X1032Y007*
X1064Y007*
X1097Y010*
X1128Y016*
X1159Y025*
X1189Y037*
X1218Y052*
X1245Y069*
X1270Y089*
X1294Y111*
X1315Y136*
X1334Y162*
X1350Y190*
X1363Y219*
X1374Y250*
X1381Y281*
X1386Y313*
X1388Y346*
X1444Y011D02*
X2054D01*
Y523*
X1444*
Y011*
X1473Y568D02*
X1476Y565D01*
X1479Y558*
Y549*
X1476Y543*
X1473Y540*
X1466Y537*
X1454*
X1448Y540*
X1444Y543*
X1441Y549*
Y558*
X1444Y565*
X1448Y568*
X1466Y587D02*
X1454D01*
X1448Y590*
X1444Y593*
X1441Y599*
Y605*
X1444Y612*
X1448Y615*
X1454Y618*
X1466*
X1473Y615*
X1476Y612*
X1479Y605*
Y599*
X1476Y593*
X1473Y590*
X1466Y587*
X1479Y637D02*
X1441D01*
X1479Y668*
X1441*
X1479Y687D02*
X1441D01*
X1479Y718*
X1441*
X1479Y762D02*
Y737D01*
X1457Y758*
X1451Y762*
X1444Y758*
X1441Y752*
Y743*
X1444Y737*
X2147Y1888D02*
X1537D01*
Y1376*
X2147*
Y1888*
X2132Y1169D02*
X2135Y1166D01*
X2138Y1160*
Y1150*
X2135Y1144*
X2132Y1141*
X2125Y1138*
X2113*
X2107Y1141*
X2103Y1144*
X2100Y1150*
Y1160*
X2103Y1166*
X2107Y1169*
X2125Y1188D02*
X2113D01*
X2107Y1191*
X2103Y1194*
X2100Y1200*
Y1206*
X2103Y1213*
X2107Y1216*
X2113Y1219*
X2125*
X2132Y1216*
X2135Y1213*
X2138Y1206*
Y1200*
X2135Y1194*
X2132Y1191*
X2125Y1188*
X2138Y1238D02*
X2100D01*
X2138Y1269*
X2100*
X2138Y1288D02*
X2100D01*
X2138Y1319*
X2100*
X2135Y1341D02*
X2138Y1347D01*
Y1353*
X2135Y1360*
X2128Y1363*
X2122Y1360*
X2119Y1353*
Y1347*
Y1353D02*
X2116Y1360D01*
X2110Y1363*
X2103Y1360*
X2100Y1353*
Y1347*
X2103Y1341*
X2197Y1552D02*
X2198Y1520D01*
X2203Y1488*
X2210Y1457*
X2221Y1426*
X2234Y1397*
X2251Y1369*
X2269Y1343*
X2290Y1318*
X2314Y1296*
X2339Y1276*
X2366Y1258*
X2395Y1244*
X2425Y1232*
X2456Y1223*
X2488Y1216*
X2520Y1213*
X2552Y1213*
X2584Y1216*
X2616Y1223*
X2647Y1232*
X2677Y1244*
X2706Y1258*
X2733Y1276*
X2758Y1296*
X2782Y1318*
X2803Y1343*
X2821Y1369*
X2838Y1397*
X2851Y1426*
X2862Y1457*
X2869Y1488*
X2874Y1520*
X2875Y1552*
X2874Y1585*
X2869Y1617*
X2862Y1648*
X2851Y1678*
X2838Y1708*
X2821Y1736*
X2803Y1762*
X2782Y1786*
X2758Y1809*
X2733Y1829*
X2706Y1846*
X2677Y1861*
X2647Y1873*
X2616Y1882*
X2584Y1888*
X2552Y1891*
X2520Y1891*
X2488Y1888*
X2456Y1882*
X2425Y1873*
X2395Y1861*
X2366Y1846*
X2339Y1829*
X2314Y1809*
X2290Y1787*
X2269Y1762*
X2251Y1736*
X2234Y1708*
X2221Y1679*
X2210Y1648*
X2203Y1617*
X2198Y1585*
X2197Y1552*
X2254Y253D02*
X2292D01*
X2254Y222*
X2292*
X2267Y203D02*
X2279D01*
X2285Y200*
X2288Y197*
X2292Y191*
Y185*
X2288Y178*
X2285Y175*
X2279Y172*
X2267*
X2260Y175*
X2257Y178*
X2254Y185*
Y191*
X2257Y197*
X2260Y200*
X2267Y203*
X2254Y503D02*
X2292D01*
X2254Y472*
X2292*
X2260Y422D02*
X2257Y425D01*
X2254Y431*
Y441*
X2257Y447*
X2260Y450*
X2267Y453*
X2279*
X2285Y450*
X2288Y447*
X2292Y441*
Y431*
X2288Y425*
X2285Y422*
X2302Y1378D02*
X2264D01*
X2302Y1410*
X2264*
X2289Y1428D02*
X2277D01*
X2271Y1431*
X2267Y1435*
X2264Y1441*
Y1447*
X2267Y1453*
X2271Y1456*
X2277Y1460*
X2289*
X2296Y1456*
X2299Y1453*
X2302Y1447*
Y1441*
X2299Y1435*
X2296Y1431*
X2289Y1428*
X2302Y1653D02*
X2264D01*
X2302Y1685*
X2264*
X2296Y1735D02*
X2299Y1731D01*
X2302Y1725*
Y1716*
X2299Y1710*
X2296Y1706*
X2289Y1703*
X2277*
X2271Y1706*
X2267Y1710*
X2264Y1716*
Y1725*
X2267Y1731*
X2271Y1735*
X2293Y638D02*
X2300Y641D01*
X2303Y647*
Y660*
X2300Y666*
X2293Y669*
X2287Y666*
X2284Y660*
Y647*
X2281Y641*
X2275Y638*
X2268Y641*
X2265Y647*
Y660*
X2268Y666*
X2275Y669*
X2265Y688D02*
X2303Y691D01*
X2284Y703*
X2303Y716*
X2265Y719*
X2300Y741D02*
X2303Y747D01*
Y753*
X2300Y760*
X2293Y763*
X2287Y760*
X2284Y753*
Y747*
Y753D02*
X2281Y760D01*
X2275Y763*
X2268Y760*
X2265Y753*
Y747*
X2268Y741*
X2532Y403D02*
X2502D01*
Y378*
Y363D02*
X2532D01*
Y338*
X2517Y343D02*
Y363D01*
X2502D02*
Y338D01*
Y323D02*
X2532D01*
Y308*
X2530Y303*
X2527Y301*
X2522Y298*
X2512*
X2507Y301*
X2505Y303*
X2502Y308*
Y323*
X2505Y283D02*
X2502Y278D01*
Y268*
X2505Y263*
X2510*
X2512Y268*
Y278*
X2515Y283*
X2520*
X2522Y278*
Y268*
X2520Y263*
X2572Y803D02*
Y903D01*
X2672*
Y803*
X2572*
Y903D02*
Y1003D01*
X2672*
Y903*
X2572*
Y1003D02*
Y1103D01*
X2672*
Y1003*
X2572*
X2536Y1491D02*
X2566D01*
Y1516*
Y1531D02*
X2536D01*
Y1556*
X2551Y1551D02*
Y1531D01*
X2566D02*
Y1556D01*
Y1571D02*
X2536D01*
Y1586*
X2539Y1591*
X2541Y1593*
X2546Y1596*
X2556*
X2561Y1593*
X2564Y1591*
X2566Y1586*
Y1571*
X2564Y1611D02*
X2566Y1616D01*
Y1626*
X2564Y1631*
X2559*
X2556Y1626*
Y1616*
X2554Y1611*
X2549*
X2546Y1616*
Y1626*
X2549Y1631*
X2577Y803D02*
X2560Y804D01*
X2543Y809*
X2527Y816*
X2513Y826*
X2501Y838*
X2491Y853*
X2483Y869*
X2479Y885*
X2477Y903*
Y1018*
X2479Y1033*
X2483Y1048*
X2489Y1063*
X2498Y1076*
X2509Y1087*
X2522Y1096*
X2536Y1102*
X2552Y1106*
X2567Y1108*
X2767Y241D02*
X2804D01*
X2767Y210*
X2804*
X2773Y160D02*
X2770Y163D01*
X2767Y169*
Y178*
X2770Y185*
X2773Y188*
X2779Y191*
X2792*
X2798Y188*
X2801Y185*
X2804Y178*
Y169*
X2801Y163*
X2798Y160*
X2767Y516D02*
X2804D01*
X2767Y485*
X2804*
X2779Y466D02*
X2792D01*
X2798Y463*
X2801Y460*
X2804Y453*
Y447*
X2801Y441*
X2798Y438*
X2792Y435*
X2779*
X2773Y438*
X2770Y441*
X2767Y447*
Y453*
X2770Y460*
X2773Y463*
X2779Y466*
X2814Y1391D02*
X2777D01*
X2814Y1422*
X2777*
X2808Y1472D02*
X2811Y1469D01*
X2814Y1463*
Y1453*
X2811Y1447*
X2808Y1444*
X2802Y1441*
X2789*
X2783Y1444*
X2780Y1447*
X2777Y1453*
Y1463*
X2780Y1469*
X2783Y1472*
X2814Y1641D02*
X2777D01*
X2814Y1672*
X2777*
X2802Y1691D02*
X2789D01*
X2783Y1694*
X2780Y1697*
X2777Y1703*
Y1710*
X2780Y1716*
X2783Y1719*
X2789Y1722*
X2802*
X2808Y1719*
X2811Y1716*
X2814Y1710*
Y1703*
X2811Y1697*
X2808Y1694*
X2802Y1691*
X2843Y1223D02*
X2850Y1226D01*
X2853Y1232*
Y1245*
X2850Y1251*
X2843Y1254*
X2837Y1251*
X2834Y1245*
Y1232*
X2831Y1226*
X2825Y1223*
X2818Y1226*
X2815Y1232*
Y1245*
X2818Y1251*
X2825Y1254*
X2815Y1273D02*
X2853Y1276D01*
X2834Y1288*
X2853Y1301*
X2815Y1304*
X2853Y1338D02*
X2815D01*
X2840Y1323*
Y1348*
X2872Y342D02*
X2870Y374D01*
X2866Y406*
X2858Y437*
X2847Y468*
X2834Y497*
X2818Y525*
X2799Y552*
X2778Y576*
X2755Y598*
X2729Y618*
X2702Y636*
X2673Y650*
X2643Y662*
X2612Y672*
X2581Y678*
X2549Y681*
X2516Y681*
X2484Y678*
X2452Y672*
X2421Y662*
X2391Y650*
X2363Y636*
X2336Y618*
X2310Y598*
X2287Y576*
X2266Y552*
X2247Y525*
X2231Y497*
X2217Y468*
X2207Y437*
X2199Y406*
X2195Y374*
X2193Y342*
X2195Y310*
X2199Y278*
X2207Y246*
X2217Y216*
X2231Y186*
X2247Y158*
X2266Y132*
X2287Y108*
X2310Y085*
X2336Y065*
X2363Y048*
X2391Y033*
X2421Y021*
X2452Y012*
X2484Y006*
X2516Y003*
X2548Y003*
X2581Y006*
X2612Y012*
X2643Y021*
X2673Y033*
X2702Y048*
X2729Y065*
X2755Y085*
X2778Y108*
X2799Y132*
X2818Y158*
X2834Y186*
X2847Y216*
X2858Y246*
X2866Y277*
X2870Y309*
X2872Y342*
X2928Y007D02*
X3538D01*
Y519*
X2928*
Y007*
X2957Y564D02*
X2960Y561D01*
X2963Y555*
Y545*
X2960Y539*
X2957Y536*
X2950Y533*
X2938*
X2932Y536*
X2928Y539*
X2925Y545*
Y555*
X2928Y561*
X2932Y564*
X2950Y583D02*
X2938D01*
X2932Y586*
X2928Y589*
X2925Y595*
Y601*
X2928Y608*
X2932Y611*
X2938Y614*
X2950*
X2957Y611*
X2960Y608*
X2963Y601*
Y595*
X2960Y589*
X2957Y586*
X2950Y583*
X2963Y633D02*
X2925D01*
X2963Y664*
X2925*
X2963Y683D02*
X2925D01*
X2963Y714*
X2925*
X2963Y748D02*
X2925D01*
X2950Y733*
Y758*
X3632Y1888D02*
X3022D01*
Y1376*
X3632*
Y1888*
X3617Y1169D02*
X3620Y1166D01*
X3623Y1160*
Y1150*
X3620Y1144*
X3617Y1141*
X3610Y1138*
X3598*
X3592Y1141*
X3589Y1144*
X3585Y1150*
Y1160*
X3589Y1166*
X3592Y1169*
X3610Y1188D02*
X3598D01*
X3592Y1191*
X3589Y1194*
X3585Y1200*
Y1206*
X3589Y1213*
X3592Y1216*
X3598Y1219*
X3610*
X3617Y1216*
X3620Y1213*
X3623Y1206*
Y1200*
X3620Y1194*
X3617Y1191*
X3610Y1188*
X3623Y1238D02*
X3585D01*
X3623Y1269*
X3585*
X3623Y1288D02*
X3585D01*
X3623Y1319*
X3585*
X3620Y1338D02*
X3623Y1344D01*
Y1353*
X3620Y1360*
X3614Y1363*
X3610*
X3604Y1360*
X3601Y1353*
Y1338*
X3585*
Y1363*
X3682Y1552D02*
X3683Y1520D01*
X3688Y1488*
X3695Y1457*
X3706Y1426*
X3719Y1397*
X3736Y1369*
X3754Y1343*
X3775Y1318*
X3799Y1296*
X3824Y1276*
X3851Y1258*
X3880Y1244*
X3910Y1232*
X3941Y1223*
X3973Y1216*
X4005Y1213*
X4037Y1213*
X4069Y1216*
X4101Y1223*
X4132Y1232*
X4162Y1244*
X4191Y1258*
X4218Y1276*
X4243Y1296*
X4267Y1318*
X4288Y1343*
X4306Y1369*
X4323Y1397*
X4336Y1426*
X4347Y1457*
X4354Y1488*
X4359Y1520*
X4360Y1552*
X4359Y1585*
X4354Y1617*
X4347Y1648*
X4336Y1678*
X4323Y1708*
X4307Y1736*
X4288Y1762*
X4267Y1786*
X4243Y1809*
X4218Y1829*
X4191Y1846*
X4162Y1861*
X4132Y1873*
X4101Y1882*
X4069Y1888*
X4037Y1891*
X4005Y1891*
X3973Y1888*
X3941Y1882*
X3910Y1873*
X3880Y1861*
X3851Y1846*
X3824Y1829*
X3799Y1809*
X3776Y1787*
X3754Y1762*
X3736Y1736*
X3720Y1708*
X3706Y1679*
X3696Y1648*
X3688Y1617*
X3683Y1585*
X3682Y1552*
X3739Y253D02*
X3777D01*
X3739Y222*
X3777*
X3752Y203D02*
X3764D01*
X3770Y200*
X3774Y197*
X3777Y191*
Y185*
X3774Y178*
X3770Y175*
X3764Y172*
X3752*
X3745Y175*
X3742Y178*
X3739Y185*
Y191*
X3742Y197*
X3745Y200*
X3752Y203*
X3739Y503D02*
X3777D01*
X3739Y472*
X3777*
X3745Y422D02*
X3742Y425D01*
X3739Y431*
Y441*
X3742Y447*
X3745Y450*
X3752Y453*
X3764*
X3770Y450*
X3774Y447*
X3777Y441*
Y431*
X3774Y425*
X3770Y422*
X3787Y1378D02*
X3749D01*
X3787Y1410*
X3749*
X3774Y1428D02*
X3762D01*
X3756Y1431*
X3752Y1435*
X3749Y1441*
Y1447*
X3752Y1453*
X3756Y1456*
X3762Y1460*
X3774*
X3781Y1456*
X3784Y1453*
X3787Y1447*
Y1441*
X3784Y1435*
X3781Y1431*
X3774Y1428*
X3787Y1653D02*
X3749D01*
X3787Y1685*
X3749*
X3781Y1735D02*
X3784Y1731D01*
X3787Y1725*
Y1716*
X3784Y1710*
X3781Y1706*
X3774Y1703*
X3762*
X3756Y1706*
X3752Y1710*
X3749Y1716*
Y1725*
X3752Y1731*
X3756Y1735*
X3779Y638D02*
X3785Y641D01*
X3788Y647*
Y660*
X3785Y666*
X3779Y669*
X3772Y666*
X3769Y660*
Y647*
X3766Y641*
X3760Y638*
X3754Y641*
X3750Y647*
Y660*
X3754Y666*
X3760Y669*
X3750Y688D02*
X3788Y691D01*
X3769Y703*
X3788Y716*
X3750Y719*
X3785Y738D02*
X3788Y744D01*
Y753*
X3785Y760*
X3779Y763*
X3775*
X3769Y760*
X3766Y753*
Y738*
X3750*
Y763*
X4017Y403D02*
X3987D01*
Y378*
Y363D02*
X4017D01*
Y338*
X4002Y343D02*
Y363D01*
X3987D02*
Y338D01*
Y323D02*
X4017D01*
Y308*
X4015Y303*
X4012Y301*
X4007Y298*
X3997*
X3992Y301*
X3990Y303*
X3987Y308*
Y323*
X3990Y283D02*
X3987Y278D01*
Y268*
X3990Y263*
X3995*
X3997Y268*
Y278*
X4000Y283*
X4005*
X4007Y278*
Y268*
X4005Y263*
X4057Y803D02*
Y903D01*
X4157*
Y803*
X4057*
Y903D02*
Y1003D01*
X4157*
Y903*
X4057*
Y1003D02*
Y1103D01*
X4157*
Y1003*
X4057*
X4021Y1491D02*
X4051D01*
Y1516*
Y1531D02*
X4021D01*
Y1556*
X4036Y1551D02*
Y1531D01*
X4051D02*
Y1556D01*
Y1571D02*
X4021D01*
Y1586*
X4024Y1591*
X4026Y1593*
X4031Y1596*
X4041*
X4046Y1593*
X4049Y1591*
X4051Y1586*
Y1571*
X4049Y1611D02*
X4051Y1616D01*
Y1626*
X4049Y1631*
X4044*
X4041Y1626*
Y1616*
X4039Y1611*
X4034*
X4031Y1616*
Y1626*
X4034Y1631*
X4062Y803D02*
X4045Y804D01*
X4028Y809*
X4012Y816*
X3998Y826*
X3986Y838*
X3976Y853*
X3968Y869*
X3964Y885*
X3962Y903*
Y1018*
X3964Y1033*
X3968Y1048*
X3974Y1063*
X3983Y1076*
X3994Y1087*
X4007Y1096*
X4022Y1102*
X4037Y1106*
X4052Y1108*
X4252Y241D02*
X4289D01*
X4252Y210*
X4289*
X4258Y160D02*
X4255Y163D01*
X4252Y169*
Y178*
X4255Y185*
X4258Y188*
X4264Y191*
X4277*
X4283Y188*
X4286Y185*
X4289Y178*
Y169*
X4286Y163*
X4283Y160*
X4252Y516D02*
X4289D01*
X4252Y485*
X4289*
X4264Y466D02*
X4277D01*
X4283Y463*
X4286Y460*
X4289Y453*
Y447*
X4286Y441*
X4283Y438*
X4277Y435*
X4264*
X4258Y438*
X4255Y441*
X4252Y447*
Y453*
X4255Y460*
X4258Y463*
X4264Y466*
X4299Y1391D02*
X4262D01*
X4299Y1422*
X4262*
X4293Y1472D02*
X4296Y1469D01*
X4299Y1463*
Y1453*
X4296Y1447*
X4293Y1444*
X4287Y1441*
X4274*
X4268Y1444*
X4265Y1447*
X4262Y1453*
Y1463*
X4265Y1469*
X4268Y1472*
X4299Y1641D02*
X4262D01*
X4299Y1672*
X4262*
X4287Y1691D02*
X4274D01*
X4268Y1694*
X4265Y1697*
X4262Y1703*
Y1710*
X4265Y1716*
X4268Y1719*
X4274Y1722*
X4287*
X4293Y1719*
X4296Y1716*
X4299Y1710*
Y1703*
X4296Y1697*
X4293Y1694*
X4287Y1691*
X4329Y1223D02*
X4335Y1226D01*
X4338Y1232*
Y1245*
X4335Y1251*
X4329Y1254*
X4322Y1251*
X4319Y1245*
Y1232*
X4316Y1226*
X4310Y1223*
X4304Y1226*
X4300Y1232*
Y1245*
X4304Y1251*
X4310Y1254*
X4300Y1273D02*
X4338Y1276D01*
X4319Y1288*
X4338Y1301*
X4300Y1304*
X4329Y1323D02*
X4322Y1326D01*
X4319Y1332*
Y1338*
X4322Y1345*
X4329Y1348*
X4335Y1345*
X4338Y1338*
Y1332*
X4335Y1326*
X4329Y1323*
X4319*
X4310Y1326*
X4304Y1332*
X4300Y1338*
X4357Y342D02*
X4355Y374D01*
X4351Y406*
X4343Y437*
X4332Y468*
X4319Y497*
X4303Y525*
X4284Y552*
X4263Y576*
X4240Y598*
X4214Y618*
X4187Y636*
X4158Y650*
X4128Y662*
X4097Y672*
X4066Y678*
X4034Y681*
X4001Y681*
X3969Y678*
X3938Y672*
X3907Y662*
X3877Y650*
X3848Y636*
X3821Y618*
X3795Y598*
X3772Y576*
X3751Y552*
X3732Y525*
X3716Y497*
X3702Y468*
X3692Y437*
X3684Y406*
X3680Y374*
X3678Y342*
X3680Y310*
X3684Y278*
X3692Y246*
X3702Y216*
X3716Y186*
X3732Y158*
X3751Y132*
X3772Y108*
X3795Y085*
X3821Y065*
X3848Y048*
X3876Y033*
X3906Y021*
X3937Y012*
X3969Y006*
X4001Y003*
X4034Y003*
X4066Y006*
X4097Y012*
X4128Y021*
X4158Y033*
X4187Y048*
X4214Y065*
X4240Y085*
X4263Y108*
X4284Y132*
X4303Y158*
X4319Y186*
X4332Y216*
X4343Y246*
X4351Y277*
X4355Y309*
X4357Y342*
X4413Y007D02*
X5023D01*
Y519*
X4413*
Y007*
X4442Y564D02*
X4445Y561D01*
X4448Y555*
Y545*
X4445Y539*
X4442Y536*
X4435Y533*
X4423*
X4417Y536*
X4414Y539*
X4410Y545*
Y555*
X4414Y561*
X4417Y564*
X4435Y583D02*
X4423D01*
X4417Y586*
X4414Y589*
X4410Y595*
Y601*
X4414Y608*
X4417Y611*
X4423Y614*
X4435*
X4442Y611*
X4445Y608*
X4448Y601*
Y595*
X4445Y589*
X4442Y586*
X4435Y583*
X4448Y633D02*
X4410D01*
X4448Y664*
X4410*
X4448Y683D02*
X4410D01*
X4448Y714*
X4410*
X4439Y733D02*
X4432Y736D01*
X4429Y742*
Y748*
X4432Y755*
X4439Y758*
X4445Y755*
X4448Y748*
Y742*
X4445Y736*
X4439Y733*
X4429*
X4420Y736*
X4414Y742*
X4410Y748*
X5117Y1888D02*
X4507D01*
Y1376*
X5117*
Y1888*
X5102Y1169D02*
X5105Y1166D01*
X5108Y1160*
Y1150*
X5105Y1144*
X5102Y1141*
X5095Y1138*
X5083*
X5077Y1141*
X5074Y1144*
X5070Y1150*
Y1160*
X5074Y1166*
X5077Y1169*
X5095Y1188D02*
X5083D01*
X5077Y1191*
X5074Y1194*
X5070Y1200*
Y1206*
X5074Y1213*
X5077Y1216*
X5083Y1219*
X5095*
X5102Y1216*
X5105Y1213*
X5108Y1206*
Y1200*
X5105Y1194*
X5102Y1191*
X5095Y1188*
X5108Y1238D02*
X5070D01*
X5108Y1269*
X5070*
X5108Y1288D02*
X5070D01*
X5108Y1319*
X5070*
X5108Y1338D02*
X5070Y1363D01*
Y1338*
X5167Y1552D02*
X5168Y1520D01*
X5173Y1488*
X5181Y1457*
X5191Y1426*
X5205Y1397*
X5221Y1369*
X5239Y1343*
X5261Y1318*
X5284Y1296*
X5309Y1276*
X5336Y1258*
X5365Y1244*
X5395Y1232*
X5426Y1223*
X5458Y1216*
X5490Y1213*
X5522Y1213*
X5554Y1216*
X5586Y1223*
X5617Y1232*
X5647Y1244*
X5676Y1258*
X5703Y1276*
X5728Y1296*
X5752Y1318*
X5773Y1343*
X5792Y1369*
X5808Y1397*
X5821Y1426*
X5832Y1457*
X5839Y1488*
X5844Y1520*
X5845Y1552*
X5844Y1585*
X5839Y1617*
X5832Y1648*
X5821Y1678*
X5808Y1708*
X5792Y1736*
X5773Y1762*
X5752Y1786*
X5728Y1809*
X5703Y1829*
X5676Y1846*
X5647Y1861*
X5617Y1873*
X5586Y1882*
X5554Y1888*
X5522Y1891*
X5490Y1891*
X5458Y1888*
X5426Y1882*
X5395Y1873*
X5365Y1861*
X5337Y1846*
X5309Y1829*
X5284Y1809*
X5261Y1787*
X5239Y1762*
X5221Y1736*
X5205Y1708*
X5191Y1679*
X5181Y1648*
X5173Y1617*
X5168Y1585*
X5167Y1552*
X5224Y253D02*
X5262D01*
X5224Y222*
X5262*
X5237Y203D02*
X5249D01*
X5255Y200*
X5259Y197*
X5262Y191*
Y185*
X5259Y178*
X5255Y175*
X5249Y172*
X5237*
X5230Y175*
X5227Y178*
X5224Y185*
Y191*
X5227Y197*
X5230Y200*
X5237Y203*
X5224Y503D02*
X5262D01*
X5224Y472*
X5262*
X5230Y422D02*
X5227Y425D01*
X5224Y431*
Y441*
X5227Y447*
X5230Y450*
X5237Y453*
X5249*
X5255Y450*
X5259Y447*
X5262Y441*
Y431*
X5259Y425*
X5255Y422*
X5272Y1378D02*
X5234D01*
X5272Y1410*
X5234*
X5259Y1428D02*
X5247D01*
X5241Y1431*
X5238Y1435*
X5234Y1441*
Y1447*
X5238Y1453*
X5241Y1456*
X5247Y1460*
X5259*
X5266Y1456*
X5269Y1453*
X5272Y1447*
Y1441*
X5269Y1435*
X5266Y1431*
X5259Y1428*
X5272Y1653D02*
X5234D01*
X5272Y1685*
X5234*
X5266Y1735D02*
X5269Y1731D01*
X5272Y1725*
Y1716*
X5269Y1710*
X5266Y1706*
X5259Y1703*
X5247*
X5241Y1706*
X5238Y1710*
X5234Y1716*
Y1725*
X5238Y1731*
X5241Y1735*
X5264Y638D02*
X5270Y641D01*
X5273Y647*
Y660*
X5270Y666*
X5264Y669*
X5257Y666*
X5254Y660*
Y647*
X5251Y641*
X5245Y638*
X5239Y641*
X5235Y647*
Y660*
X5239Y666*
X5245Y669*
X5235Y688D02*
X5273Y691D01*
X5254Y703*
X5273Y716*
X5235Y719*
X5273Y738D02*
X5235Y763D01*
Y738*
X5502Y403D02*
X5472D01*
Y378*
Y363D02*
X5502D01*
Y338*
X5487Y343D02*
Y363D01*
X5472D02*
Y338D01*
Y323D02*
X5502D01*
Y308*
X5500Y303*
X5497Y301*
X5492Y298*
X5482*
X5477Y301*
X5475Y303*
X5472Y308*
Y323*
X5475Y283D02*
X5472Y278D01*
Y268*
X5475Y263*
X5480*
X5482Y268*
Y278*
X5485Y283*
X5490*
X5492Y278*
Y268*
X5490Y263*
X5542Y803D02*
Y903D01*
X5642*
Y803*
X5542*
Y903D02*
Y1003D01*
X5642*
Y903*
X5542*
Y1003D02*
Y1103D01*
X5642*
Y1003*
X5542*
X5506Y1491D02*
X5536D01*
Y1516*
Y1531D02*
X5506D01*
Y1556*
X5521Y1551D02*
Y1531D01*
X5536D02*
Y1556D01*
Y1571D02*
X5506D01*
Y1586*
X5509Y1591*
X5511Y1593*
X5516Y1596*
X5526*
X5531Y1593*
X5534Y1591*
X5536Y1586*
Y1571*
X5534Y1611D02*
X5536Y1616D01*
Y1626*
X5534Y1631*
X5529*
X5526Y1626*
Y1616*
X5524Y1611*
X5519*
X5516Y1616*
Y1626*
X5519Y1631*
X5547Y803D02*
X5530Y804D01*
X5513Y809*
X5497Y816*
X5483Y826*
X5471Y838*
X5461Y853*
X5453Y869*
X5449Y885*
X5447Y903*
Y1018*
X5449Y1033*
X5453Y1048*
X5459Y1063*
X5468Y1076*
X5480Y1087*
X5492Y1096*
X5507Y1102*
X5522Y1106*
X5537Y1108*
X5737Y241D02*
X5774D01*
X5737Y210*
X5774*
X5743Y160D02*
X5740Y163D01*
X5737Y169*
Y178*
X5740Y185*
X5743Y188*
X5749Y191*
X5762*
X5768Y188*
X5771Y185*
X5774Y178*
Y169*
X5771Y163*
X5768Y160*
X5737Y516D02*
X5774D01*
X5737Y485*
X5774*
X5749Y466D02*
X5762D01*
X5768Y463*
X5771Y460*
X5774Y453*
Y447*
X5771Y441*
X5768Y438*
X5762Y435*
X5749*
X5743Y438*
X5740Y441*
X5737Y447*
Y453*
X5740Y460*
X5743Y463*
X5749Y466*
X5784Y1391D02*
X5747D01*
X5784Y1422*
X5747*
X5778Y1472D02*
X5781Y1469D01*
X5784Y1463*
Y1453*
X5781Y1447*
X5778Y1444*
X5772Y1441*
X5759*
X5753Y1444*
X5750Y1447*
X5747Y1453*
Y1463*
X5750Y1469*
X5753Y1472*
X5784Y1641D02*
X5747D01*
X5784Y1672*
X5747*
X5772Y1691D02*
X5759D01*
X5753Y1694*
X5750Y1697*
X5747Y1703*
Y1710*
X5750Y1716*
X5753Y1719*
X5759Y1722*
X5772*
X5778Y1719*
X5781Y1716*
X5784Y1710*
Y1703*
X5781Y1697*
X5778Y1694*
X5772Y1691*
X5814Y1223D02*
X5820Y1226D01*
X5823Y1232*
Y1245*
X5820Y1251*
X5814Y1254*
X5807Y1251*
X5804Y1245*
Y1232*
X5801Y1226*
X5795Y1223*
X5789Y1226*
X5785Y1232*
Y1245*
X5789Y1251*
X5795Y1254*
X5785Y1273D02*
X5823Y1276D01*
X5804Y1288*
X5823Y1301*
X5785Y1304*
X5804Y1332D02*
Y1338D01*
X5801Y1345*
X5795Y1348*
X5789Y1345*
X5785Y1338*
Y1332*
X5789Y1326*
X5795Y1323*
X5801Y1326*
X5804Y1332*
X5807Y1326*
X5814Y1323*
X5820Y1326*
X5823Y1332*
Y1338*
X5820Y1345*
X5814Y1348*
X5807Y1345*
X5804Y1338*
X5842Y342D02*
X5840Y374D01*
X5836Y406*
X5828Y437*
X5818Y468*
X5804Y497*
X5788Y525*
X5769Y552*
X5748Y576*
X5725Y598*
X5699Y618*
X5672Y636*
X5644Y650*
X5614Y662*
X5583Y672*
X5551Y678*
X5519Y681*
X5486Y681*
X5454Y678*
X5423Y672*
X5392Y662*
X5362Y650*
X5333Y636*
X5306Y618*
X5280Y598*
X5257Y576*
X5236Y552*
X5217Y525*
X5201Y497*
X5188Y468*
X5177Y437*
X5169Y406*
X5165Y374*
X5163Y342*
X5165Y310*
X5169Y278*
X5177Y246*
X5188Y216*
X5201Y186*
X5217Y158*
X5236Y132*
X5257Y108*
X5280Y085*
X5306Y065*
X5333Y048*
X5362Y033*
X5392Y021*
X5422Y012*
X5454Y006*
X5486Y003*
X5519Y003*
X5551Y006*
X5582Y012*
X5613Y021*
X5643Y033*
X5672Y048*
X5699Y065*
X5725Y085*
X5748Y108*
X5769Y132*
X5788Y158*
X5804Y186*
X5817Y216*
X5828Y246*
X5836Y277*
X5840Y309*
X5842Y342*
X5898Y007D02*
X6508D01*
Y519*
X5898*
Y007*
X5927Y564D02*
X5930Y561D01*
X5933Y555*
Y545*
X5930Y539*
X5927Y536*
X5920Y533*
X5908*
X5902Y536*
X5899Y539*
X5895Y545*
Y555*
X5899Y561*
X5902Y564*
X5920Y583D02*
X5908D01*
X5902Y586*
X5899Y589*
X5895Y595*
Y601*
X5899Y608*
X5902Y611*
X5908Y614*
X5920*
X5927Y611*
X5930Y608*
X5933Y601*
Y595*
X5930Y589*
X5927Y586*
X5920Y583*
X5933Y633D02*
X5895D01*
X5933Y664*
X5895*
X5933Y683D02*
X5895D01*
X5933Y714*
X5895*
X5914Y742D02*
Y748D01*
X5911Y755*
X5905Y758*
X5899Y755*
X5895Y748*
Y742*
X5899Y736*
X5905Y733*
X5911Y736*
X5914Y742*
X5917Y736*
X5924Y733*
X5930Y736*
X5933Y742*
Y748*
X5930Y755*
X5924Y758*
X5917Y755*
X5914Y748*
X6596Y1891D02*
X5986D01*
Y1379*
X6596*
Y1891*
X6581Y1172D02*
X6584Y1169D01*
X6587Y1163*
Y1154*
X6584Y1147*
X6581Y1144*
X6574Y1141*
X6562*
X6556Y1144*
X6552Y1147*
X6549Y1154*
Y1163*
X6552Y1169*
X6556Y1172*
X6574Y1191D02*
X6562D01*
X6556Y1194*
X6552Y1197*
X6549Y1204*
Y1210*
X6552Y1216*
X6556Y1219*
X6562Y1222*
X6574*
X6581Y1219*
X6584Y1216*
X6587Y1210*
Y1204*
X6584Y1197*
X6581Y1194*
X6574Y1191*
X6587Y1241D02*
X6549D01*
X6587Y1272*
X6549*
X6587Y1291D02*
X6549D01*
X6587Y1322*
X6549*
X6587Y1350D02*
X6584Y1357D01*
X6577Y1363*
X6568Y1366*
X6559*
X6552Y1363*
X6549Y1357*
Y1350*
X6552Y1344*
X6559Y1341*
X6565Y1344*
X6568Y1350*
Y1357*
X6565Y1363*
X6559Y1366*
X6646Y1556D02*
X6647Y1523D01*
X6652Y1491*
X6659Y1460*
X6670Y1430*
X6683Y1400*
X6699Y1372*
X6718Y1346*
X6739Y1321*
X6763Y1299*
X6788Y1279*
X6815Y1262*
X6844Y1247*
X6874Y1235*
X6905Y1226*
X6937Y1220*
X6969Y1217*
X7001Y1217*
X7033Y1220*
X7065Y1226*
X7096Y1235*
X7126Y1247*
X7154Y1262*
X7182Y1279*
X7207Y1299*
X7230Y1321*
X7252Y1346*
X7270Y1372*
X7286Y1400*
X7300Y1429*
X7310Y1460*
X7318Y1491*
X7323Y1523*
X7324Y1556*
X7323Y1588*
X7318Y1620*
X7310Y1651*
X7300Y1682*
X7287Y1711*
X7270Y1739*
X7252Y1765*
X7230Y1790*
X7207Y1812*
X7182Y1832*
X7155Y1849*
X7126Y1864*
X7096Y1876*
X7065Y1885*
X7033Y1891*
X7001Y1895*
X6969Y1895*
X6937Y1891*
X6905Y1885*
X6874Y1876*
X6844Y1864*
X6815Y1850*
X6788Y1832*
X6763Y1812*
X6739Y1790*
X6718Y1765*
X6699Y1739*
X6683Y1711*
X6670Y1682*
X6659Y1651*
X6652Y1620*
X6647Y1588*
X6646Y1556*
X6703Y257D02*
X6741D01*
X6703Y225*
X6741*
X6716Y207D02*
X6728D01*
X6734Y203*
X6737Y200*
X6741Y194*
Y188*
X6737Y182*
X6734Y178*
X6728Y175*
X6716*
X6709Y178*
X6706Y182*
X6703Y188*
Y194*
X6706Y200*
X6709Y203*
X6716Y207*
X6703Y507D02*
X6741D01*
X6703Y475*
X6741*
X6709Y425D02*
X6706Y428D01*
X6703Y435*
Y444*
X6706Y450*
X6709Y453*
X6716Y457*
X6728*
X6734Y453*
X6737Y450*
X6741Y444*
Y435*
X6737Y428*
X6734Y425*
X6751Y1382D02*
X6713D01*
X6751Y1413*
X6713*
X6738Y1432D02*
X6726D01*
X6719Y1435*
X6716Y1438*
X6713Y1444*
Y1450*
X6716Y1457*
X6719Y1460*
X6726Y1463*
X6738*
X6744Y1460*
X6748Y1457*
X6751Y1450*
Y1444*
X6748Y1438*
X6744Y1435*
X6738Y1432*
X6751Y1657D02*
X6713D01*
X6751Y1688*
X6713*
X6744Y1738D02*
X6748Y1735D01*
X6751Y1729*
Y1719*
X6748Y1713*
X6744Y1710*
X6738Y1707*
X6726*
X6719Y1710*
X6716Y1713*
X6713Y1719*
Y1729*
X6716Y1735*
X6719Y1738*
X6742Y641D02*
X6749Y644D01*
X6752Y650*
Y663*
X6749Y669*
X6742Y672*
X6736Y669*
X6733Y663*
Y650*
X6730Y644*
X6724Y641*
X6717Y644*
X6714Y650*
Y663*
X6717Y669*
X6724Y672*
X6714Y691D02*
X6752Y694D01*
X6733Y707*
X6752Y719*
X6714Y722*
X6752Y750D02*
X6749Y757D01*
X6742Y763*
X6733Y766*
X6724*
X6717Y763*
X6714Y757*
Y750*
X6717Y744*
X6724Y741*
X6730Y744*
X6733Y750*
Y757*
X6730Y763*
X6724Y766*
X6981Y407D02*
X6951D01*
Y382*
Y367D02*
X6981D01*
Y342*
X6966Y347D02*
Y367D01*
X6951D02*
Y342D01*
Y327D02*
X6981D01*
Y312*
X6979Y307*
X6976Y304*
X6971Y302*
X6961*
X6956Y304*
X6954Y307*
X6951Y312*
Y327*
X6954Y287D02*
X6951Y282D01*
Y272*
X6954Y267*
X6959*
X6961Y272*
Y282*
X6964Y287*
X6969*
X6971Y282*
Y272*
X6969Y267*
X7021Y806D02*
Y906D01*
X7121*
Y806*
X7021*
Y906D02*
Y1006D01*
X7121*
Y906*
X7021*
Y1006D02*
Y1106D01*
X7121*
Y1006*
X7021*
X6985Y1494D02*
X7015D01*
Y1519*
Y1534D02*
X6985D01*
Y1559*
X7000Y1554D02*
Y1534D01*
X7015D02*
Y1559D01*
Y1574D02*
X6985D01*
Y1589*
X6988Y1594*
X6990Y1597*
X6995Y1599*
X7005*
X7010Y1597*
X7013Y1594*
X7015Y1589*
Y1574*
X7013Y1614D02*
X7015Y1619D01*
Y1629*
X7013Y1634*
X7008*
X7005Y1629*
Y1619*
X7003Y1614*
X6998*
X6995Y1619*
Y1629*
X6998Y1634*
X7026Y806D02*
X7009Y808D01*
X6992Y812*
X6976Y819*
X6962Y829*
X6950Y842*
X6940Y856*
X6932Y872*
X6928Y889*
X6926Y906*
Y1021*
X6927Y1037*
X6932Y1052*
X6938Y1066*
X6947Y1079*
X6958Y1090*
X6971Y1099*
X6985Y1106*
X7001Y1110*
X7016Y1111*
X7216Y244D02*
X7253D01*
X7216Y213*
X7253*
X7222Y163D02*
X7219Y166D01*
X7216Y172*
Y182*
X7219Y188*
X7222Y191*
X7228Y194*
X7241*
X7247Y191*
X7250Y188*
X7253Y182*
Y172*
X7250Y166*
X7247Y163*
X7216Y519D02*
X7253D01*
X7216Y488*
X7253*
X7228Y469D02*
X7241D01*
X7247Y466*
X7250Y463*
X7253Y457*
Y450*
X7250Y444*
X7247Y441*
X7241Y438*
X7228*
X7222Y441*
X7219Y444*
X7216Y450*
Y457*
X7219Y463*
X7222Y466*
X7228Y469*
X7263Y1394D02*
X7226D01*
X7263Y1425*
X7226*
X7257Y1475D02*
X7260Y1472D01*
X7263Y1466*
Y1457*
X7260Y1450*
X7257Y1447*
X7251Y1444*
X7238*
X7232Y1447*
X7229Y1450*
X7226Y1457*
Y1466*
X7229Y1472*
X7232Y1475*
X7263Y1644D02*
X7226D01*
X7263Y1675*
X7226*
X7251Y1694D02*
X7238D01*
X7232Y1697*
X7229Y1700*
X7226Y1707*
Y1713*
X7229Y1719*
X7232Y1722*
X7238Y1725*
X7251*
X7257Y1722*
X7260Y1719*
X7263Y1713*
Y1707*
X7260Y1700*
X7257Y1697*
X7251Y1694*
X7292Y1226D02*
X7299Y1229D01*
X7302Y1235*
Y1248*
X7299Y1254*
X7292Y1257*
X7286Y1254*
X7283Y1248*
Y1235*
X7280Y1229*
X7274Y1226*
X7267Y1229*
X7264Y1235*
Y1248*
X7267Y1254*
X7274Y1257*
X7264Y1276D02*
X7302Y1279D01*
X7283Y1292*
X7302Y1304*
X7264Y1307*
X7302Y1332D02*
Y1345D01*
Y1339D02*
X7264D01*
X7271Y1332*
X7299Y1379D02*
X7302Y1385D01*
Y1392*
X7299Y1398*
X7292Y1401*
X7274*
X7267Y1398*
X7264Y1392*
Y1385*
X7267Y1379*
X7274Y1376*
X7292*
X7299Y1379*
X7267Y1398*
X7321Y345D02*
X7319Y377D01*
X7314Y409*
X7307Y441*
X7296Y471*
X7283Y501*
X7267Y529*
X7248Y555*
X7227Y579*
X7204Y602*
X7178Y621*
X7151Y639*
X7122Y654*
X7092Y666*
X7061Y675*
X7030Y681*
X6997Y684*
X6965Y684*
X6933Y681*
X6901Y675*
X6870Y666*
X6840Y654*
X6812Y639*
X6785Y622*
X6759Y602*
X6736Y579*
X6715Y555*
X6696Y529*
X6680Y501*
X6666Y471*
X6656Y441*
X6648Y409*
X6644Y377*
X6642Y345*
X6644Y313*
X6648Y281*
X6656Y250*
X6666Y219*
X6680Y190*
X6696Y162*
X6715Y135*
X6736Y111*
X6759Y089*
X6784Y069*
X6812Y051*
X6840Y036*
X6870Y024*
X6901Y015*
X6933Y009*
X6965Y006*
X6997Y006*
X7030Y009*
X7061Y015*
X7092Y024*
X7122Y036*
X7151Y051*
X7178Y069*
X7203Y089*
X7227Y111*
X7248Y135*
X7267Y162*
X7283Y190*
X7296Y219*
X7307Y249*
X7314Y281*
X7319Y313*
X7321Y345*
X7377Y011D02*
X7987D01*
Y523*
X7377*
Y011*
X7406Y567D02*
X7409Y564D01*
X7412Y558*
Y548*
X7409Y542*
X7406Y539*
X7399Y536*
X7387*
X7381Y539*
X7377Y542*
X7374Y548*
Y558*
X7377Y564*
X7381Y567*
X7399Y586D02*
X7387D01*
X7381Y589*
X7377Y592*
X7374Y599*
Y605*
X7377Y611*
X7381Y614*
X7387Y617*
X7399*
X7406Y614*
X7409Y611*
X7412Y605*
Y599*
X7409Y592*
X7406Y589*
X7399Y586*
X7412Y636D02*
X7374D01*
X7412Y667*
X7374*
X7412Y686D02*
X7374D01*
X7412Y717*
X7374*
X7412Y742D02*
Y755D01*
Y749D02*
X7374D01*
X7381Y742*
X7409Y789D02*
X7412Y795D01*
Y802*
X7409Y808*
X7402Y811*
X7384*
X7377Y808*
X7374Y802*
Y795*
X7377Y789*
X7384Y786*
X7402*
X7409Y789*
X7377Y808*
X000Y000D02*
M02*
