M48
T1C00.024
T2C00.024
T3C00.035
T4C00.094
T5C00.118
%
T001
X00210Y01807
X00249Y01706
X00289Y01806
X00329Y01707
X00369Y01807
X00409Y01706
X00450Y01806
X00489Y01706
X01617Y00197
X01657Y00097
X01694Y01803
X01697Y00197
X01733Y01702
X01737Y00096
X01773Y01803
X01778Y00196
X01813Y01703
X01818Y00097
X01853Y01803
X01857Y00197
X01893Y01703
X01896Y00096
X01934Y01803
X01973Y01703
X03101Y00193
X03141Y00093
X03179Y01803
X03181Y00193
X03218Y01702
X03221Y00092
X03258Y01803
X03262Y00192
X03298Y01703
X03302Y00093
X03338Y01803
X03341Y00193
X03378Y01703
X03380Y00092
X03419Y01803
X03458Y01703
X04586Y00193
X04626Y00093
X04664Y01803
X04666Y00193
X04703Y01702
X04706Y00092
X04743Y01803
X04747Y00192
X04783Y01703
X04787Y00093
X04823Y01803
X04826Y00193
X04863Y01703
X04865Y00092
X04904Y01803
X04943Y01703
X06071Y00193
X06111Y00093
X06143Y01806
X06152Y00193
X06182Y01706
X06191Y00092
X06222Y01806
X06232Y00192
X06262Y01706
X06272Y00093
X06302Y01806
X06311Y00193
X06342Y01706
X06351Y00092
X06383Y01806
X06422Y01706
X07550Y00196
X07590Y00096
X07630Y00196
X07670Y00096
X07711Y00196
X07751Y00096
X07790Y00196
X07829Y00096
T002
X00863Y00890
X00893Y01100
X00938Y00895
X00983Y01090
X01768Y00382
X02347Y00886
X02377Y01096
X02422Y00891
X02467Y01086
X03252Y00378
X03832Y00886
X03862Y01096
X03907Y00891
X03952Y01086
X04737Y00378
X05317Y00886
X05347Y01096
X05392Y00891
X05437Y01086
X06222Y00378
X06796Y00889
X06826Y01099
X06871Y00894
X06916Y01089
X07701Y00381
T003
X01138Y00857
X01138Y00957
X01138Y01057
X02622Y00853
X02622Y00953
X02622Y01053
X04107Y00853
X04107Y00953
X04107Y01053
X05592Y00853
X05592Y00953
X05592Y01053
X07071Y00856
X07071Y00956
X07071Y01056
T004
X00053Y01615
X00663Y01615
X01444Y00288
X01537Y01612
X02054Y00288
X02147Y01612
X02928Y00284
X03022Y01612
X03538Y00284
X03632Y01612
X04413Y00284
X04507Y01612
X05023Y00284
X05117Y01612
X05898Y00284
X05986Y01615
X06508Y00284
X06596Y01615
X07377Y00287
X07987Y00287
T005
X00889Y00196
X00889Y00491
X00897Y01705
X00897Y01410
X01048Y00541
X01048Y00147
X01052Y01755
X01052Y01361
X01204Y00491
X01204Y00197
X01211Y01410
X01211Y01705
X02373Y00193
X02373Y00488
X02381Y01701
X02381Y01407
X02532Y00537
X02532Y00143
X02536Y01751
X02536Y01357
X02688Y00488
X02688Y00193
X02695Y01407
X02695Y01701
X03858Y00193
X03858Y00488
X03866Y01701
X03866Y01407
X04017Y00537
X04017Y00143
X04021Y01751
X04021Y01357
X04173Y00488
X04173Y00193
X04181Y01407
X04181Y01701
X05343Y00193
X05343Y00488
X05351Y01701
X05351Y01407
X05502Y00537
X05503Y00143
X05506Y01751
X05506Y01357
X05658Y00488
X05658Y00193
X05666Y01407
X05666Y01701
X06822Y00196
X06822Y00491
X06830Y01704
X06830Y01410
X06981Y00540
X06981Y00146
X06985Y01755
X06985Y01361
X07137Y00491
X07137Y00196
X07144Y01410
X07144Y01705
M30
