  0
SECTION
  2
HEADER
  9
$ACADVER
  1
AC1009
  9
$INSBASE
 10
0.0
 20
0.0
 30
0.0
  9
$EXTMIN
 10
0.0
 20
-0.630593
 30
0.0
  9
$EXTMAX
 10
6.181102
 20
5.708662
 30
0.0
  9
$LIMMIN
 10
0.0
 20
0.0
  9
$LIMMAX
 10
0.0
 20
0.0
  9
$ORTHOMODE
 70
     0
  9
$REGENMODE
 70
     1
  9
$FILLMODE
 70
     1
  9
$QTEXTMODE
 70
     0
  9
$MIRRTEXT
 70
     1
  9
$DRAGMODE
 70
     2
  9
$LTSCALE
 40
1.0
  9
$OSMODE
 70
     0
  9
$ATTMODE
 70
     1
  9
$TEXTSIZE
 40
0.2
  9
$TRACEWID
 40
0.05
  9
$TEXTSTYLE
  7
STANDARD
  9
$CLAYER
  8
0
  9
$CELTYPE
  6
CONTINUOUS
  9
$CECOLOR
 62
   256
  9
$DIMSCALE
 40
1.0
  9
$DIMASZ
 40
0.18
  9
$DIMEXO
 40
0.0625
  9
$DIMDLI
 40
0.38
  9
$DIMRND
 40
0.0
  9
$DIMDLE
 40
0.0
  9
$DIMEXE
 40
0.18
  9
$DIMTP
 40
0.0
  9
$DIMTM
 40
0.0
  9
$DIMTXT
 40
0.18
  9
$DIMCEN
 40
0.09
  9
$DIMTSZ
 40
0.0
  9
$DIMTOL
 70
     0
  9
$DIMLIM
 70
     0
  9
$DIMTIH
 70
     1
  9
$DIMTOH
 70
     1
  9
$DIMSE1
 70
     0
  9
$DIMSE2
 70
     0
  9
$DIMTAD
 70
     0
  9
$DIMZIN
 70
     0
  9
$DIMBLK
  1

  9
$DIMASO
 70
     1
  9
$DIMSHO
 70
     1
  9
$DIMPOST
  1

  9
$DIMAPOST
  1

  9
$DIMALT
 70
     1
  9
$DIMALTD
 70
     2
  9
$DIMALTF
 40
25.4
  9
$DIMLFAC
 40
1.0
  9
$DIMTOFL
 70
     0
  9
$DIMTVP
 40
0.0
  9
$DIMTIX
 70
     0
  9
$DIMSOXD
 70
     0
  9
$DIMSAH
 70
     0
  9
$DIMBLK1
  1

  9
$DIMBLK2
  1

  9
$DIMSTYLE
  2
STANDARD
  9
$DIMCLRD
 70
     0
  9
$DIMCLRE
 70
     0
  9
$DIMCLRT
 70
     0
  9
$DIMTFAC
 40
1.0
  9
$DIMGAP
 40
0.09
  9
$LUNITS
 70
     2
  9
$LUPREC
 70
     4
  9
$AXISMODE
 70
     0
  9
$AXISUNIT
 10
0.0
 20
0.0
  9
$SKETCHINC
 40
0.1
  9
$FILLETRAD
 40
0.0
  9
$AUNITS
 70
     0
  9
$AUPREC
 70
     0
  9
$MENU
  1
acad
  9
$ELEVATION
 40
0.0
  9
$PELEVATION
 40
0.0
  9
$THICKNESS
 40
0.0
  9
$LIMCHECK
 70
     0
  9
$BLIPMODE
 70
     1
  9
$CHAMFERA
 40
0.0
  9
$CHAMFERB
 40
0.0
  9
$SKPOLY
 70
     0
  9
$TDCREATE
 40
0.000000000
  9
$TDUPDATE
 40
0.000000000
  9
$TDINDWG
 40
0.0000000000
  9
$TDUSRTIMER
 40
0.0000000000
  9
$USRTIMER
 70
     1
  9
$ANGBASE
 50
0.0
  9
$ANGDIR
 70
     0
  9
$PDMODE
 70
     2
  9
$PDSIZE
 40
0.0
  9
$PLINEWID
 40
0.0
  9
$COORDS
 70
     0
  9
$SPLFRAME
 70
     0
  9
$SPLINETYPE
 70
     6
  9
$SPLINESEGS
 70
     8
  9
$ATTDIA
 70
     0
  9
$ATTREQ
 70
     1
  9
$HANDLING
 70
     0
  9
$HANDSEED
  5
              AD
  9
$SURFTAB1
 70
     6
  9
$SURFTAB2
 70
     6
  9
$SURFTYPE
 70
     6
  9
$SURFU
 70
     6
  9
$SURFV
 70
     6
  9
$UCSNAME
  2

  9
$UCSORG
 10
0.0
 20
0.0
 30
0.0
  9
$UCSXDIR
 10
1.0
 20
0.0
 30
0.0
  9
$UCSYDIR
 10
0.0
 20
1.0
 30
0.0
  9
$PUCSNAME
  2

  9
$PUCSORG
 10
0.0
 20
0.0
 30
0.0
  9
$PUCSXDIR
 10
1.0
 20
0.0
 30
0.0
  9
$PUCSYDIR
 10
0.0
 20
1.0
 30
0.0
  9
$USERI1
 70
     0
  9
$USERI2
 70
     0
  9
$USERI3
 70
     0
  9
$USERI4
 70
     0
  9
$USERI5
 70
     0
  9
$USERR1
 40
0.0
  9
$USERR2
 40
0.0
  9
$USERR3
 40
0.0
  9
$USERR4
 40
0.0
  9
$USERR5
 40
0.0
  9
$WORLDVIEW
 70
     1
  9
$SHADEDGE
 70
     3
  9
$SHADEDIF
 70
    70
  9
$TILEMODE
 70
     1
  9
$MAXACTVP
 70
    16
  9
$PINSBASE
 10
0.0
 20
0.0
 30
0.0
  9
$PLIMCHECK
 70
     0
  9
$PEXTMIN
 10
1.000000E+20
 20
1.000000E+20
 30
1.000000E+20
  9
$PEXTMAX
 10
-1.000000E+20
 20
-1.000000E+20
 30
-1.000000E+20
  9
$PLIMMIN
 10
0.0
 20
0.0
  9
$PLIMMAX
 10
12.0
 20
9.0
  9
$UNITMODE
 70
     0
  9
$VISRETAIN
 70
     0
  0
ENDSEC
  0
SECTION
  2
TABLES
  0
TABLE
  2
VPORT
 70
     1
  0
VPORT
  2
*ACTIVE
 70
     0
 10
0.0
 20
0.0
 11
1.0
 21
1.0
 12
36.0
 22
36.0
 13
0.0
 23
0.0
 14
1.0
 24
1.0
 15
0.0
 25
0.0
 16
0.0
 26
0.0
 36
1.0
 17
0.0
 27
0.0
 37
0.0
 40
76.0
 41
1.604229
 42
50.0
 43
0.0
 44
0.0
 50
0.0
 51
0.0
 71
     0
 72
   100
 73
     1
 74
     1
 75
     0
 76
     0
 77
     0
 78
     0
  0
ENDTAB
  0
TABLE
  2
LTYPE
 70
     2
  0
LTYPE
  2
CONTINUOUS
 70
     0
  3
IMSI Visual CADD Translation
 72
    65
 73
     0
 40
0.0
  0
LTYPE
  2
SOLID
 70
     0
  3
IMSI Visual CADD Translation
 72
    65
 73
     2
 40
1.0
 49
1.0
 49
0.0
  0
ENDTAB
  0
TABLE
  2
LAYER
 70
     1
  0
LAYER
  2
Layer-0
 70
     0
 62
    12
  6
CONTINUOUS
  0
ENDTAB
  0
TABLE
  2
STYLE
 70
     1
  0
STYLE
  2
VC-TEXTSTYLE0
 70
     0
 40
0.2
 41
1.0
 50
0.0
 71
     0
 42
0.2
  3
TXT
  4

  0
ENDTAB
  0
TABLE
  2
APPID
 70
     0
  0
ENDTAB
  0
TABLE
  2
VIEW
 70
     0
  0
ENDTAB
  0
ENDSEC
  0
SECTION
  2
BLOCKS
  0
BLOCK
  8
Layer-0
  6
CONTINUOUS
  2
*D0
 70
     1
 10
0.0
 20
0.0
 30
0.0
  3
*D0
  0
LINE
  8
Layer-0
  6
CONTINUOUS
 10
137.405893
 20
0.0
 30
0.0
 11
135.824759
 21
4.743418
 31
0.0
  0
LINE
  8
Layer-0
  6
CONTINUOUS
 10
135.824759
 20
4.743418
 30
0.0
 11
137.405893
 21
2.371709
 31
0.0
  0
LINE
  8
Layer-0
  6
CONTINUOUS
 10
137.405893
 20
2.371709
 30
0.0
 11
138.987028
 21
4.743418
 31
0.0
  0
LINE
  8
Layer-0
  6
CONTINUOUS
 10
138.987028
 20
4.743418
 30
0.0
 11
137.405893
 21
0.0
 31
0.0
  0
LINE
  8
Layer-0
  6
CONTINUOUS
 10
137.405893
 20
15.0
 30
0.0
 11
138.987028
 21
10.256582
 31
0.0
  0
LINE
  8
Layer-0
  6
CONTINUOUS
 10
138.987028
 20
10.256582
 30
0.0
 11
137.405893
 21
12.628291
 31
0.0
  0
LINE
  8
Layer-0
  6
CONTINUOUS
 10
137.405893
 20
12.628291
 30
0.0
 11
135.824759
 21
10.256582
 31
0.0
  0
LINE
  8
Layer-0
  6
CONTINUOUS
 10
135.824759
 20
10.256582
 30
0.0
 11
137.405893
 21
15.0
 31
0.0
  0
LINE
  8
Layer-0
  6
CONTINUOUS
 10
146.0
 20
0.0
 30
0.0
 11
136.905893
 21
0.0
 31
0.0
  0
LINE
  8
Layer-0
  6
CONTINUOUS
 10
146.0
 20
15.0
 30
0.0
 11
136.905893
 21
15.0
 31
0.0
  0
TEXT
  8
Layer-0
  6
CONTINUOUS
 10
130.657133
 20
5.983345
 30
0.0
 40
3.0
  1
15.0mm
  7
VC-TEXTSTYLE0
  0
ENDBLK
  8
Layer-0
  6
CONTINUOUS
  0
BLOCK
  8
Layer-0
  6
CONTINUOUS
  2
*D1
 70
     1
 10
0.0
 20
0.0
 30
0.0
  3
*D1
  0
LINE
  8
Layer-0
  6
CONTINUOUS
 10
10.0
 20
10.799865
 30
0.0
 11
14.743418
 21
12.380999
 31
0.0
  0
LINE
  8
Layer-0
  6
CONTINUOUS
 10
14.743418
 20
12.380999
 30
0.0
 11
12.371709
 21
10.799865
 31
0.0
  0
LINE
  8
Layer-0
  6
CONTINUOUS
 10
12.371709
 20
10.799865
 30
0.0
 11
14.743418
 21
9.21873
 31
0.0
  0
LINE
  8
Layer-0
  6
CONTINUOUS
 10
14.743418
 20
9.21873
 30
0.0
 11
10.0
 21
10.799865
 31
0.0
  0
LINE
  8
Layer-0
  6
CONTINUOUS
 10
147.0
 20
10.799865
 30
0.0
 11
142.256582
 21
9.21873
 31
0.0
  0
LINE
  8
Layer-0
  6
CONTINUOUS
 10
142.256582
 20
9.21873
 30
0.0
 11
144.628291
 21
10.799865
 31
0.0
  0
LINE
  8
Layer-0
  6
CONTINUOUS
 10
144.628291
 20
10.799865
 30
0.0
 11
142.256582
 21
12.380999
 31
0.0
  0
LINE
  8
Layer-0
  6
CONTINUOUS
 10
142.256582
 20
12.380999
 30
0.0
 11
147.0
 21
10.799865
 31
0.0
  0
LINE
  8
Layer-0
  6
CONTINUOUS
 10
10.0
 20
14.0
 30
0.0
 11
10.0
 21
10.299865
 31
0.0
  0
LINE
  8
Layer-0
  6
CONTINUOUS
 10
147.0
 20
14.0
 30
0.0
 11
147.0
 21
10.299865
 31
0.0
  0
TEXT
  8
Layer-0
  6
CONTINUOUS
 10
70.724471
 20
9.283209
 30
0.0
 40
3.0
  1
137.0mm
  7
VC-TEXTSTYLE0
  0
LINE
  8
Layer-0
  6
CONTINUOUS
 10
10.0
 20
10.799865
 30
0.0
 11
45.324471
 21
10.799865
 31
0.0
  0
LINE
  8
Layer-0
  6
CONTINUOUS
 10
111.675529
 20
10.799865
 30
0.0
 11
147.0
 21
10.799865
 31
0.0
  0
ENDBLK
  8
Layer-0
  6
CONTINUOUS
  0
BLOCK
  8
Layer-0
  6
CONTINUOUS
  2
*D2
 70
     1
 10
0.0
 20
0.0
 30
0.0
  3
*D2
  0
LINE
  8
Layer-0
  6
CONTINUOUS
 10
35.246474
 20
20.0
 30
0.0
 11
33.665339
 21
24.743418
 31
0.0
  0
LINE
  8
Layer-0
  6
CONTINUOUS
 10
33.665339
 20
24.743418
 30
0.0
 11
35.246474
 21
22.371709
 31
0.0
  0
LINE
  8
Layer-0
  6
CONTINUOUS
 10
35.246474
 20
22.371709
 30
0.0
 11
36.827609
 21
24.743418
 31
0.0
  0
LINE
  8
Layer-0
  6
CONTINUOUS
 10
36.827609
 20
24.743418
 30
0.0
 11
35.246474
 21
20.0
 31
0.0
  0
LINE
  8
Layer-0
  6
CONTINUOUS
 10
35.246474
 20
35.0
 30
0.0
 11
36.827609
 21
30.256582
 31
0.0
  0
LINE
  8
Layer-0
  6
CONTINUOUS
 10
36.827609
 20
30.256582
 30
0.0
 11
35.246474
 21
32.628291
 31
0.0
  0
LINE
  8
Layer-0
  6
CONTINUOUS
 10
35.246474
 20
32.628291
 30
0.0
 11
33.665339
 21
30.256582
 31
0.0
  0
LINE
  8
Layer-0
  6
CONTINUOUS
 10
33.665339
 20
30.256582
 30
0.0
 11
35.246474
 21
35.0
 31
0.0
  0
LINE
  8
Layer-0
  6
CONTINUOUS
 10
24.0
 20
20.0
 30
0.0
 11
35.746474
 21
20.0
 31
0.0
  0
LINE
  8
Layer-0
  6
CONTINUOUS
 10
24.0
 20
35.0
 30
0.0
 11
35.746474
 21
35.0
 31
0.0
  0
TEXT
  8
Layer-0
  6
CONTINUOUS
 10
28.497713
 20
25.983345
 30
0.0
 40
3.0
  1
15.0mm
  7
VC-TEXTSTYLE0
  0
ENDBLK
  8
Layer-0
  6
CONTINUOUS
  0
BLOCK
  8
Layer-0
  6
CONTINUOUS
  2
*D3
 70
     1
 10
0.0
 20
0.0
 30
0.0
  3
*D3
  0
LINE
  8
Layer-0
  6
CONTINUOUS
 10
0.0
 20
-10.997406
 30
0.0
 11
4.743418
 21
-9.416271
 31
0.0
  0
LINE
  8
Layer-0
  6
CONTINUOUS
 10
4.743418
 20
-9.416271
 30
0.0
 11
2.371709
 21
-10.997406
 31
0.0
  0
LINE
  8
Layer-0
  6
CONTINUOUS
 10
2.371709
 20
-10.997406
 30
0.0
 11
4.743418
 21
-12.57854
 31
0.0
  0
LINE
  8
Layer-0
  6
CONTINUOUS
 10
4.743418
 20
-12.57854
 30
0.0
 11
0.0
 21
-10.997406
 31
0.0
  0
LINE
  8
Layer-0
  6
CONTINUOUS
 10
6.0
 20
-10.997406
 30
0.0
 11
1.256582
 21
-12.57854
 31
0.0
  0
LINE
  8
Layer-0
  6
CONTINUOUS
 10
1.256582
 20
-12.57854
 30
0.0
 11
3.628291
 21
-10.997406
 31
0.0
  0
LINE
  8
Layer-0
  6
CONTINUOUS
 10
3.628291
 20
-10.997406
 30
0.0
 11
1.256582
 21
-9.416271
 31
0.0
  0
LINE
  8
Layer-0
  6
CONTINUOUS
 10
1.256582
 20
-9.416271
 30
0.0
 11
6.0
 21
-10.997406
 31
0.0
  0
LINE
  8
Layer-0
  6
CONTINUOUS
 10
0.0
 20
21.0
 30
0.0
 11
0.0
 21
-11.497406
 31
0.0
  0
LINE
  8
Layer-0
  6
CONTINUOUS
 10
6.0
 20
21.0
 30
0.0
 11
6.0
 21
-11.497406
 31
0.0
  0
TEXT
  8
Layer-0
  6
CONTINUOUS
 10
7.769484
 20
-15.457811
 30
0.0
 40
3.0
  1
6.0mm
  7
VC-TEXTSTYLE0
  0
LINE
  8
Layer-0
  6
CONTINUOUS
 10
0.0
 20
-10.997406
 30
0.0
 11
6.0
 21
-10.997406
 31
0.0
  0
ENDBLK
  8
Layer-0
  6
CONTINUOUS
  0
BLOCK
  8
Layer-0
  6
CONTINUOUS
  2
*D4
 70
     1
 10
0.0
 20
0.0
 30
0.0
  3
*D4
  0
LINE
  8
Layer-0
  6
CONTINUOUS
 10
6.0
 20
42.94264
 30
0.0
 11
10.743418
 21
44.523775
 31
0.0
  0
LINE
  8
Layer-0
  6
CONTINUOUS
 10
10.743418
 20
44.523775
 30
0.0
 11
8.371709
 21
42.94264
 31
0.0
  0
LINE
  8
Layer-0
  6
CONTINUOUS
 10
8.371709
 20
42.94264
 30
0.0
 11
10.743418
 21
41.361506
 31
0.0
  0
LINE
  8
Layer-0
  6
CONTINUOUS
 10
10.743418
 20
41.361506
 30
0.0
 11
6.0
 21
42.94264
 31
0.0
  0
LINE
  8
Layer-0
  6
CONTINUOUS
 10
23.0
 20
42.94264
 30
0.0
 11
18.256582
 21
41.361506
 31
0.0
  0
LINE
  8
Layer-0
  6
CONTINUOUS
 10
18.256582
 20
41.361506
 30
0.0
 11
20.628291
 21
42.94264
 31
0.0
  0
LINE
  8
Layer-0
  6
CONTINUOUS
 10
20.628291
 20
42.94264
 30
0.0
 11
18.256582
 21
44.523775
 31
0.0
  0
LINE
  8
Layer-0
  6
CONTINUOUS
 10
18.256582
 20
44.523775
 30
0.0
 11
23.0
 21
42.94264
 31
0.0
  0
LINE
  8
Layer-0
  6
CONTINUOUS
 10
6.0
 20
36.0
 30
0.0
 11
6.0
 21
43.44264
 31
0.0
  0
LINE
  8
Layer-0
  6
CONTINUOUS
 10
23.0
 20
36.0
 30
0.0
 11
23.0
 21
43.44264
 31
0.0
  0
TEXT
  8
Layer-0
  6
CONTINUOUS
 10
7.849647
 20
45.986027
 30
0.0
 40
3.0
  1
17.0mm
  7
VC-TEXTSTYLE0
  0
LINE
  8
Layer-0
  6
CONTINUOUS
 10
6.0
 20
42.94264
 30
0.0
 11
23.0
 21
42.94264
 31
0.0
  0
ENDBLK
  8
Layer-0
  6
CONTINUOUS
  0
BLOCK
  8
Layer-0
  6
CONTINUOUS
  2
*D5
 70
     1
 10
0.0
 20
0.0
 30
0.0
  3
*D5
  0
LINE
  8
Layer-0
  6
CONTINUOUS
 10
108.0
 20
119.518295
 30
0.0
 11
112.743418
 21
121.099429
 31
0.0
  0
LINE
  8
Layer-0
  6
CONTINUOUS
 10
112.743418
 20
121.099429
 30
0.0
 11
110.371709
 21
119.518295
 31
0.0
  0
LINE
  8
Layer-0
  6
CONTINUOUS
 10
110.371709
 20
119.518295
 30
0.0
 11
112.743418
 21
117.93716
 31
0.0
  0
LINE
  8
Layer-0
  6
CONTINUOUS
 10
112.743418
 20
117.93716
 30
0.0
 11
108.0
 21
119.518295
 31
0.0
  0
LINE
  8
Layer-0
  6
CONTINUOUS
 10
120.0
 20
119.518295
 30
0.0
 11
115.256582
 21
117.93716
 31
0.0
  0
LINE
  8
Layer-0
  6
CONTINUOUS
 10
115.256582
 20
117.93716
 30
0.0
 11
117.628291
 21
119.518295
 31
0.0
  0
LINE
  8
Layer-0
  6
CONTINUOUS
 10
117.628291
 20
119.518295
 30
0.0
 11
115.256582
 21
121.099429
 31
0.0
  0
LINE
  8
Layer-0
  6
CONTINUOUS
 10
115.256582
 20
121.099429
 30
0.0
 11
120.0
 21
119.518295
 31
0.0
  0
LINE
  8
Layer-0
  6
CONTINUOUS
 10
108.0
 20
111.0
 30
0.0
 11
108.0
 21
120.018295
 31
0.0
  0
LINE
  8
Layer-0
  6
CONTINUOUS
 10
120.0
 20
111.0
 30
0.0
 11
120.0
 21
120.018295
 31
0.0
  0
TEXT
  8
Layer-0
  6
CONTINUOUS
 10
106.521809
 20
127.093027
 30
0.0
 40
3.0
  1
12.0mm
  7
VC-TEXTSTYLE0
  0
LINE
  8
Layer-0
  6
CONTINUOUS
 10
108.0
 20
119.518295
 30
0.0
 11
120.0
 21
119.518295
 31
0.0
  0
ENDBLK
  8
Layer-0
  6
CONTINUOUS
  0
BLOCK
  8
Layer-0
  6
CONTINUOUS
  2
*D6
 70
     1
 10
0.0
 20
0.0
 30
0.0
  3
*D6
  0
LINE
  8
Layer-0
  6
CONTINUOUS
 10
132.43027
 20
92.0
 30
0.0
 11
130.849135
 21
96.743418
 31
0.0
  0
LINE
  8
Layer-0
  6
CONTINUOUS
 10
130.849135
 20
96.743418
 30
0.0
 11
132.43027
 21
94.371709
 31
0.0
  0
LINE
  8
Layer-0
  6
CONTINUOUS
 10
132.43027
 20
94.371709
 30
0.0
 11
134.011405
 21
96.743418
 31
0.0
  0
LINE
  8
Layer-0
  6
CONTINUOUS
 10
134.011405
 20
96.743418
 30
0.0
 11
132.43027
 21
92.0
 31
0.0
  0
LINE
  8
Layer-0
  6
CONTINUOUS
 10
132.43027
 20
110.0
 30
0.0
 11
134.011405
 21
105.256582
 31
0.0
  0
LINE
  8
Layer-0
  6
CONTINUOUS
 10
134.011405
 20
105.256582
 30
0.0
 11
132.43027
 21
107.628291
 31
0.0
  0
LINE
  8
Layer-0
  6
CONTINUOUS
 10
132.43027
 20
107.628291
 30
0.0
 11
130.849135
 21
105.256582
 31
0.0
  0
LINE
  8
Layer-0
  6
CONTINUOUS
 10
130.849135
 20
105.256582
 30
0.0
 11
132.43027
 21
110.0
 31
0.0
  0
LINE
  8
Layer-0
  6
CONTINUOUS
 10
121.0
 20
92.0
 30
0.0
 11
132.93027
 21
92.0
 31
0.0
  0
LINE
  8
Layer-0
  6
CONTINUOUS
 10
121.0
 20
110.0
 30
0.0
 11
132.93027
 21
110.0
 31
0.0
  0
TEXT
  8
Layer-0
  6
CONTINUOUS
 10
125.68151
 20
99.483345
 30
0.0
 40
3.0
  1
18.0mm
  7
VC-TEXTSTYLE0
  0
ENDBLK
  8
Layer-0
  6
CONTINUOUS
  0
BLOCK
  8
Layer-0
  6
CONTINUOUS
  2
*D7
 70
     1
 10
0.0
 20
0.0
 30
0.0
  3
*D7
  0
LINE
  8
Layer-0
  6
CONTINUOUS
 10
0.0
 20
96.590453
 30
0.0
 11
4.743418
 21
98.171588
 31
0.0
  0
LINE
  8
Layer-0
  6
CONTINUOUS
 10
4.743418
 20
98.171588
 30
0.0
 11
2.371709
 21
96.590453
 31
0.0
  0
LINE
  8
Layer-0
  6
CONTINUOUS
 10
2.371709
 20
96.590453
 30
0.0
 11
4.743418
 21
95.009318
 31
0.0
  0
LINE
  8
Layer-0
  6
CONTINUOUS
 10
4.743418
 20
95.009318
 30
0.0
 11
0.0
 21
96.590453
 31
0.0
  0
LINE
  8
Layer-0
  6
CONTINUOUS
 10
108.0
 20
96.590453
 30
0.0
 11
103.256582
 21
95.009318
 31
0.0
  0
LINE
  8
Layer-0
  6
CONTINUOUS
 10
103.256582
 20
95.009318
 30
0.0
 11
105.628291
 21
96.590453
 31
0.0
  0
LINE
  8
Layer-0
  6
CONTINUOUS
 10
105.628291
 20
96.590453
 30
0.0
 11
103.256582
 21
98.171588
 31
0.0
  0
LINE
  8
Layer-0
  6
CONTINUOUS
 10
103.256582
 20
98.171588
 30
0.0
 11
108.0
 21
96.590453
 31
0.0
  0
LINE
  8
Layer-0
  6
CONTINUOUS
 10
0.0
 20
93.0
 30
0.0
 11
0.0
 21
97.090453
 31
0.0
  0
LINE
  8
Layer-0
  6
CONTINUOUS
 10
108.0
 20
93.0
 30
0.0
 11
108.0
 21
97.090453
 31
0.0
  0
TEXT
  8
Layer-0
  6
CONTINUOUS
 10
46.224471
 20
95.073797
 30
0.0
 40
3.0
  1
108.0mm
  7
VC-TEXTSTYLE0
  0
LINE
  8
Layer-0
  6
CONTINUOUS
 10
0.0
 20
96.590453
 30
0.0
 11
20.824471
 21
96.590453
 31
0.0
  0
LINE
  8
Layer-0
  6
CONTINUOUS
 10
87.175529
 20
96.590453
 30
0.0
 11
108.0
 21
96.590453
 31
0.0
  0
ENDBLK
  8
Layer-0
  6
CONTINUOUS
  0
BLOCK
  8
Layer-0
  6
CONTINUOUS
  2
*D8
 70
     1
 10
0.0
 20
0.0
 30
0.0
  3
*D8
  0
LINE
  8
Layer-0
  6
CONTINUOUS
 10
98.517002
 20
80.0
 30
0.0
 11
96.935867
 21
84.743418
 31
0.0
  0
LINE
  8
Layer-0
  6
CONTINUOUS
 10
96.935867
 20
84.743418
 30
0.0
 11
98.517002
 21
82.371709
 31
0.0
  0
LINE
  8
Layer-0
  6
CONTINUOUS
 10
98.517002
 20
82.371709
 30
0.0
 11
100.098136
 21
84.743418
 31
0.0
  0
LINE
  8
Layer-0
  6
CONTINUOUS
 10
100.098136
 20
84.743418
 30
0.0
 11
98.517002
 21
80.0
 31
0.0
  0
LINE
  8
Layer-0
  6
CONTINUOUS
 10
98.517002
 20
92.0
 30
0.0
 11
100.098136
 21
87.256582
 31
0.0
  0
LINE
  8
Layer-0
  6
CONTINUOUS
 10
100.098136
 20
87.256582
 30
0.0
 11
98.517002
 21
89.628291
 31
0.0
  0
LINE
  8
Layer-0
  6
CONTINUOUS
 10
98.517002
 20
89.628291
 30
0.0
 11
96.935867
 21
87.256582
 31
0.0
  0
LINE
  8
Layer-0
  6
CONTINUOUS
 10
96.935867
 20
87.256582
 30
0.0
 11
98.517002
 21
92.0
 31
0.0
  0
LINE
  8
Layer-0
  6
CONTINUOUS
 10
107.0
 20
80.0
 30
0.0
 11
98.017002
 21
80.0
 31
0.0
  0
LINE
  8
Layer-0
  6
CONTINUOUS
 10
107.0
 20
92.0
 30
0.0
 11
98.017002
 21
92.0
 31
0.0
  0
TEXT
  8
Layer-0
  6
CONTINUOUS
 10
80.30432
 20
84.546928
 30
0.0
 40
3.0
  1
12.0mm
  7
VC-TEXTSTYLE0
  0
LINE
  8
Layer-0
  6
CONTINUOUS
 10
98.517002
 20
80.0
 30
0.0
 11
98.517002
 21
92.0
 31
0.0
  0
ENDBLK
  8
Layer-0
  6
CONTINUOUS
  0
ENDSEC
  0
SECTION
  2
ENTITIES
  0
LINE
  8
Layer-0
  6
CONTINUOUS
 62
     7
 10
0.0
 20
0.0
 30
0.0
 11
157.0
 21
0.0
 31
0.0
  0
LINE
  8
Layer-0
  6
CONTINUOUS
 62
     7
 10
0.0
 20
0.0
 30
0.0
 11
0.0
 21
50.0
 31
0.0
  0
LINE
  8
Layer-0
  6
CONTINUOUS
 62
     7
 10
0.0
 20
50.0
 30
0.0
 11
157.0
 21
50.0
 31
0.0
  0
LINE
  8
Layer-0
  6
CONTINUOUS
 62
     7
 10
157.0
 20
50.0
 30
0.0
 11
157.0
 21
0.0
 31
0.0
  0
LINE
  8
Layer-0
  6
CONTINUOUS
 62
     8
 10
0.0
 20
40.0
 30
0.0
 11
157.0
 21
40.0
 31
0.0
  0
LINE
  8
Layer-0
  6
CONTINUOUS
 62
     8
 10
0.0
 20
20.0
 30
0.0
 11
157.0
 21
20.0
 31
0.0
  0
LINE
  8
Layer-0
  6
CONTINUOUS
 62
    12
 10
10.0
 20
0.0
 30
0.0
 11
10.0
 21
15.0
 31
0.0
  0
LINE
  8
Layer-0
  6
CONTINUOUS
 62
    12
 10
147.0
 20
0.0
 30
0.0
 11
147.0
 21
15.0
 31
0.0
  0
LINE
  8
Layer-0
  6
CONTINUOUS
 62
    12
 10
10.0
 20
15.0
 30
0.0
 11
147.0
 21
15.0
 31
0.0
  0
POLYLINE
  8
Layer-0
  6
CONTINUOUS
 62
    12
 66
     1
 10
0.0
 20
0.0
 30
0.0
 70
   129
  0
VERTEX
  8
Layer-0
  6
CONTINUOUS
 62
    12
 10
6.0
 20
20.0
 30
0.0
  0
VERTEX
  8
Layer-0
  6
CONTINUOUS
 62
    12
 10
6.0
 20
35.0
 30
0.0
  0
VERTEX
  8
Layer-0
  6
CONTINUOUS
 62
    12
 10
23.0
 20
35.0
 30
0.0
  0
VERTEX
  8
Layer-0
  6
CONTINUOUS
 62
    12
 10
23.0
 20
20.0
 30
0.0
  0
VERTEX
  8
Layer-0
  6
CONTINUOUS
 62
    12
 10
6.0
 20
20.0
 30
0.0
  0
SEQEND
  8
Layer-0
  6
CONTINUOUS
 62
    12
  0
DIMENSION
  8
Layer-0
  6
CONTINUOUS
 62
    12
  2
*D0
 10
137.405893
 20
7.609917
 30
0.0
 11
137.405893
 21
7.609917
 31
0.0
 13
147.0
 23
0.0
 33
0.0
 14
147.0
 24
15.0
 34
0.0
 50
90.0
  0
DIMENSION
  8
Layer-0
  6
CONTINUOUS
 62
    12
  2
*D1
 10
74.404431
 20
10.799865
 30
0.0
 11
74.404431
 21
10.799865
 31
0.0
 13
10.0
 23
15.0
 33
0.0
 14
147.0
 24
15.0
 34
0.0
  0
DIMENSION
  8
Layer-0
  6
CONTINUOUS
 62
    12
  2
*D2
 10
35.246474
 20
26.438717
 30
0.0
 11
35.246474
 21
26.438717
 31
0.0
 13
23.0
 23
35.0
 33
0.0
 14
23.0
 24
20.0
 34
0.0
 50
90.0
  0
LINE
  8
Layer-0
  6
CONTINUOUS
 62
    17
 10
0.0
 20
22.0
 30
0.0
 11
6.0
 21
22.0
 31
0.0
  0
DIMENSION
  8
Layer-0
  6
CONTINUOUS
 62
    12
  2
*D3
 10
6.183726
 20
-10.997406
 30
0.0
 11
6.183726
 21
-10.997406
 31
0.0
 13
0.0
 23
22.0
 33
0.0
 14
6.0
 24
22.0
 34
0.0
  0
DIMENSION
  8
Layer-0
  6
CONTINUOUS
 62
    12
  2
*D4
 10
14.592916
 20
42.94264
 30
0.0
 11
14.592916
 21
42.94264
 31
0.0
 13
6.0
 23
35.0
 33
0.0
 14
23.0
 24
35.0
 34
0.0
  0
TEXT
  8
Layer-0
  6
CONTINUOUS
 10
40.508962
 20
-10.53918
 30
0.0
 40
4.0
  1
Enclosure viewed from RJ45 side
  7
VC-TEXTSTYLE0
  0
POLYLINE
  8
Layer-0
  6
CONTINUOUS
 62
     7
 66
     1
 10
0.0
 20
0.0
 30
0.0
 70
   129
  0
VERTEX
  8
Layer-0
  6
CONTINUOUS
 62
     7
 10
0.0
 20
60.0
 30
0.0
  0
VERTEX
  8
Layer-0
  6
CONTINUOUS
 62
     7
 10
157.0
 20
60.0
 30
0.0
  0
VERTEX
  8
Layer-0
  6
CONTINUOUS
 62
     7
 10
157.0
 20
145.0
 30
0.0
  0
VERTEX
  8
Layer-0
  6
CONTINUOUS
 62
     7
 10
0.0
 20
145.0
 30
0.0
  0
VERTEX
  8
Layer-0
  6
CONTINUOUS
 62
     7
 10
0.0
 20
60.0
 30
0.0
  0
SEQEND
  8
Layer-0
  6
CONTINUOUS
 62
     7
  0
LINE
  8
Layer-0
  6
CONTINUOUS
 62
     8
 10
0.0
 20
80.0
 30
0.0
 11
157.0
 21
80.0
 31
0.0
  0
LINE
  8
Layer-0
  6
CONTINUOUS
 62
     8
 10
0.0
 20
125.0
 30
0.0
 11
157.0
 21
125.0
 31
0.0
  0
POLYLINE
  8
Layer-0
  6
CONTINUOUS
 62
    12
 66
     1
 10
0.0
 20
0.0
 30
0.0
 70
   129
  0
VERTEX
  8
Layer-0
  6
CONTINUOUS
 62
    12
 10
108.0
 20
92.0
 30
0.0
  0
VERTEX
  8
Layer-0
  6
CONTINUOUS
 62
    12
 10
120.0
 20
92.0
 30
0.0
  0
VERTEX
  8
Layer-0
  6
CONTINUOUS
 62
    12
 10
120.0
 20
110.0
 30
0.0
  0
VERTEX
  8
Layer-0
  6
CONTINUOUS
 62
    12
 10
108.0
 20
110.0
 30
0.0
  0
VERTEX
  8
Layer-0
  6
CONTINUOUS
 62
    12
 10
108.0
 20
92.0
 30
0.0
  0
SEQEND
  8
Layer-0
  6
CONTINUOUS
 62
    12
  0
DIMENSION
  8
Layer-0
  6
CONTINUOUS
 62
    12
  2
*D5
 10
112.97151
 20
119.518295
 30
0.0
 11
112.97151
 21
119.518295
 31
0.0
 13
120.0
 23
110.0
 33
0.0
 14
108.0
 24
110.0
 34
0.0
  0
DIMENSION
  8
Layer-0
  6
CONTINUOUS
 62
    12
  2
*D6
 10
132.43027
 20
99.581041
 30
0.0
 11
132.43027
 21
99.581041
 31
0.0
 13
120.0
 23
92.0
 33
0.0
 14
120.0
 24
110.0
 34
0.0
 50
90.0
  0
LINE
  8
Layer-0
  6
CONTINUOUS
 62
     8
 10
0.0
 20
92.0
 30
0.0
 11
108.0
 21
92.0
 31
0.0
  0
DIMENSION
  8
Layer-0
  6
CONTINUOUS
 62
    12
  2
*D7
 10
49.391609
 20
96.590453
 30
0.0
 11
49.391609
 21
96.590453
 31
0.0
 13
0.0
 23
92.0
 33
0.0
 14
108.0
 24
92.0
 34
0.0
  0
LINE
  8
Layer-0
  6
CONTINUOUS
 62
     8
 10
108.0
 20
80.0
 30
0.0
 11
108.0
 21
92.0
 31
0.0
  0
DIMENSION
  8
Layer-0
  6
CONTINUOUS
 62
    12
  2
*D8
 10
98.517002
 20
84.348979
 30
0.0
 11
98.517002
 21
84.348979
 31
0.0
 13
108.0
 23
80.0
 33
0.0
 14
108.0
 24
92.0
 34
0.0
 50
90.0
  0
TEXT
  8
Layer-0
  6
CONTINUOUS
 10
52.202761
 20
53.565859
 30
0.0
 40
4.0
  1
Enclosure viewed from top
  7
VC-TEXTSTYLE0
  0
ENDSEC
  0
EOF
