M48
T1C00.024
T2C00.024
T3C00.031
T4C00.035
T5C00.037
T6C00.039
T7C00.040
T8C00.047
T9C00.055
T10C00.059
T11C00.106
T12C00.118
T13C00.126
%
T001
X02231Y01672
X02231Y01469
X02534Y01672
X02535Y01376
T002
X00400Y03173
X01768Y02267
X02009Y02223
X02825Y02077
X02825Y02195
T003
X00312Y01406
X00326Y01345
X00335Y02848
X00387Y02247
X00411Y02060
X00427Y01659
X00516Y01993
X00524Y01460
X00532Y01850
X00548Y01610
X00581Y02245
X00608Y00578
X00618Y01818
X00813Y01409
X00834Y01621
X00921Y01606
X00963Y02227
X00985Y01486
X01223Y02086
X01235Y00936
X01245Y01494
X01290Y01213
X01305Y00604
X01308Y01934
X01353Y01615
X01359Y01767
X01394Y02131
X01429Y00937
X01502Y01344
X01502Y01945
X01551Y01147
X01766Y01014
X01840Y00602
X01885Y01909
X01938Y02039
X01950Y01817
X02076Y01786
X02078Y01221
X02083Y02083
X02102Y02229
X02258Y02037
X02354Y01786
X02469Y01621
X02512Y01882
X02522Y02232
X02670Y02049
X02749Y01786
X02770Y02325
T004
X00206Y01458
X00206Y01558
X00206Y01658
X00206Y01758
X00206Y01858
X00206Y01958
X00206Y02058
X00206Y02158
X00206Y02480
X00206Y02580
X00206Y02680
X00206Y02780
X00206Y02880
X00206Y02980
T005
X03571Y00917
X03571Y01117
X03575Y01962
X03575Y02162
X03575Y01397
X03575Y01597
T006
X02320Y00708
X02620Y00708
T007
X00710Y02128
X01710Y02128
T008
X01194Y00321
X01332Y00321
X01470Y00321
X01608Y00321
X01746Y00321
X01883Y00321
X02021Y00321
X02159Y00321
X02297Y00321
X02435Y00321
X02572Y00321
X02710Y00321
T009
X00749Y03220
X01049Y03220
X01349Y03220
X01648Y03220
X01847Y02451
X01847Y02551
X01847Y02651
X01948Y03220
X02247Y02451
X02247Y02551
X02247Y02651
X02248Y03220
X02548Y03220
X02669Y02451
X02669Y02551
X02669Y02651
X02848Y03220
X03148Y03220
T010
X01026Y02402
X01341Y02402
X03029Y02380
X03029Y02695
T011
X01184Y02402
X03029Y02538
T012
X00253Y00793
X03639Y02754
T013
X01638Y02551
X02038Y02551
X02459Y02552
M30
