%FSLAX23Y23*%
%MOIN*%
%ADD146R,0.04000X0.08000*%
%ADD130R,0.08000X0.08000*%
%ADD118C,0.02953*%
%ADD25C,0.07874*%
%ADD28C,0.09843*%
X000Y000D02*
D02*
D25*
X847Y1143D03*
X1023D03*
X2085Y1141D03*
X2261D03*
X3335Y1143D03*
X3511D03*
X4572Y1141D03*
X4748D03*
X5810D03*
X5986D03*
X7035D03*
X7211D03*
X8272D03*
X8448D03*
X9510D03*
X9686D03*
X10747D03*
X10923D03*
X11985D03*
X12161D03*
D02*
D28*
X797Y1046D03*
X1073Y1046D03*
X2035Y1043D03*
X2311Y1043D03*
X3285Y1046D03*
X3561Y1046D03*
X4522Y1043D03*
X4798Y1043D03*
X5760Y1043D03*
X6036Y1043D03*
X6985Y1043D03*
X7261Y1043D03*
X8222Y1043D03*
X8498Y1043D03*
X9460Y1043D03*
X9736Y1043D03*
X10697Y1043D03*
X10973Y1043D03*
X11935Y1043D03*
X12211Y1043D03*
D02*
D118*
X163Y1028D02*
Y365D01*
X275Y253*
Y077*
X280Y080*
X180D02*
X177D01*
X175Y077*
Y215*
X063Y328*
Y1028*
X300D02*
Y340D01*
X375Y265*
Y090*
X370Y085*
X380Y080*
X480D02*
X477D01*
X475Y077*
Y280*
X400Y355*
Y1028*
X550D02*
Y320D01*
X580Y290*
Y080*
X650Y1028D02*
Y355D01*
X680Y325*
Y080*
X847Y1143D02*
X859D01*
X925Y1077*
Y390*
X780Y245*
Y080*
X1400Y1025D02*
Y362D01*
X1513Y250*
Y075*
X1518Y077*
X1418D02*
X1415D01*
X1413Y075*
Y212*
X1300Y325*
Y1025*
X1538D02*
Y338D01*
X1613Y263*
Y087*
X1607Y083*
X1617Y077*
X1718D02*
X1715D01*
X1712Y075*
Y278*
X1638Y352*
Y1025*
X1788D02*
Y318D01*
X1817Y287*
Y077*
X1888Y1025D02*
Y352D01*
X1918Y323*
Y077*
X2085Y1141D02*
X2097D01*
X2163Y1075*
Y388*
X2018Y242*
Y077*
X2650Y1028D02*
Y365D01*
X2763Y253*
Y077*
X2768Y080*
X2668D02*
X2665D01*
X2663Y077*
Y215*
X2550Y328*
Y1028*
X2788D02*
Y340D01*
X2862Y265*
Y090*
X2857Y085*
X2868Y080*
X2967D02*
X2965D01*
X2962Y077*
Y280*
X2888Y355*
Y1028*
X3038D02*
Y320D01*
X3067Y290*
Y080*
X3138Y1028D02*
Y355D01*
X3168Y325*
Y080*
X3335Y1143D02*
X3347D01*
X3413Y1077*
Y390*
X3268Y245*
Y080*
X3888Y1025D02*
Y362D01*
X4000Y250*
Y075*
X4005Y077*
X3905D02*
X3902D01*
X3900Y075*
Y212*
X3788Y325*
Y1025*
X4025D02*
Y338D01*
X4100Y263*
Y087*
X4095Y083*
X4105Y077*
X4205D02*
X4202D01*
X4200Y075*
Y278*
X4125Y352*
Y1025*
X4275D02*
Y318D01*
X4305Y287*
Y077*
X4375Y1025D02*
Y352D01*
X4405Y323*
Y077*
X4572Y1141D02*
X4584D01*
X4650Y1075*
Y388*
X4505Y242*
Y077*
X5125Y1025D02*
Y362D01*
X5237Y250*
Y075*
X5242Y077*
X5143D02*
X5140D01*
X5138Y075*
Y212*
X5025Y325*
Y1025*
X5263D02*
Y338D01*
X5338Y263*
Y087*
X5332Y083*
X5343Y077*
X5442D02*
X5440D01*
X5438Y075*
Y278*
X5362Y352*
Y1025*
X5513D02*
Y318D01*
X5543Y287*
Y077*
X5612Y1025D02*
Y352D01*
X5643Y323*
Y077*
X5810Y1141D02*
X5822D01*
X5888Y1075*
Y388*
X5742Y242*
Y077*
X6350Y1025D02*
Y362D01*
X6463Y250*
Y075*
X6468Y077*
X6367D02*
X6365D01*
X6362Y075*
Y212*
X6250Y325*
Y1025*
X6487D02*
Y338D01*
X6563Y263*
Y087*
X6558Y083*
X6567Y077*
X6668D02*
X6665D01*
X6662Y075*
Y278*
X6588Y352*
Y1025*
X6737D02*
Y318D01*
X6768Y287*
Y077*
X6838Y1025D02*
Y352D01*
X6867Y323*
Y077*
X7035Y1141D02*
X7047D01*
X7112Y1075*
Y388*
X6968Y242*
Y077*
X7588Y1025D02*
Y362D01*
X7700Y250*
Y075*
X7705Y077*
X7605D02*
X7603D01*
X7600Y075*
Y212*
X7487Y325*
Y1025*
X7725D02*
Y338D01*
X7800Y263*
Y087*
X7795Y083*
X7805Y077*
X7905D02*
X7902D01*
X7900Y075*
Y278*
X7825Y352*
Y1025*
X7975D02*
Y318D01*
X8005Y287*
Y077*
X8075Y1025D02*
Y352D01*
X8105Y323*
Y077*
X8272Y1141D02*
X8284D01*
X8350Y1075*
Y388*
X8205Y242*
Y077*
X8825Y1025D02*
Y362D01*
X8938Y250*
Y075*
X8943Y077*
X8842D02*
X8840D01*
X8838Y075*
Y212*
X8725Y325*
Y1025*
X8963D02*
Y338D01*
X9037Y263*
Y087*
X9033Y083*
X9043Y077*
X9143D02*
X9140D01*
X9137Y075*
Y278*
X9063Y352*
Y1025*
X9213D02*
Y318D01*
X9242Y287*
Y077*
X9313Y1025D02*
Y352D01*
X9342Y323*
Y077*
X9510Y1141D02*
X9522D01*
X9588Y1075*
Y388*
X9443Y242*
Y077*
X10063Y1025D02*
Y362D01*
X10175Y250*
Y075*
X10180Y077*
X10080D02*
X10078D01*
X10075Y075*
Y212*
X9963Y325*
Y1025*
X10200D02*
Y338D01*
X10275Y263*
Y087*
X10270Y083*
X10280Y077*
X10380D02*
X10378D01*
X10375Y075*
Y278*
X10300Y352*
Y1025*
X10450D02*
Y318D01*
X10480Y287*
Y077*
X10550Y1025D02*
Y352D01*
X10580Y323*
Y077*
X10747Y1141D02*
X10759D01*
X10825Y1075*
Y388*
X10680Y242*
Y077*
X11300Y1025D02*
Y362D01*
X11413Y250*
Y075*
X11418Y077*
X11318D02*
X11315D01*
X11313Y075*
Y212*
X11200Y325*
Y1025*
X11438D02*
Y338D01*
X11512Y263*
Y087*
X11508Y083*
X11518Y077*
X11618D02*
X11615D01*
X11613Y075*
Y278*
X11538Y352*
Y1025*
X11688D02*
Y318D01*
X11717Y287*
Y077*
X11788Y1025D02*
Y352D01*
X11818Y323*
Y077*
X11985Y1141D02*
X11997D01*
X12063Y1075*
Y388*
X11918Y242*
Y077*
D02*
D130*
X180Y080D03*
X280D03*
X380D03*
X480D03*
X580D03*
X680D03*
X780D03*
X880D03*
X1418Y077D03*
X1518D03*
X1617D03*
X1718D03*
X1817D03*
X1918D03*
X2018D03*
X2118D03*
X2668Y080D03*
X2768D03*
X2868D03*
X2967D03*
X3067D03*
X3168D03*
X3268D03*
X3368D03*
X3905Y077D03*
X4005D03*
X4105D03*
X4205D03*
X4305D03*
X4405D03*
X4505D03*
X4605D03*
X5143D03*
X5242D03*
X5343D03*
X5442D03*
X5543D03*
X5643D03*
X5742D03*
X5843D03*
X6367D03*
X6468D03*
X6567D03*
X6668D03*
X6768D03*
X6867D03*
X6968D03*
X7067D03*
X7605D03*
X7705D03*
X7805D03*
X7905D03*
X8005D03*
X8105D03*
X8205D03*
X8305D03*
X8842D03*
X8943D03*
X9043D03*
X9143D03*
X9242D03*
X9342D03*
X9443D03*
X9543D03*
X10080D03*
X10180D03*
X10280D03*
X10380D03*
X10480D03*
X10580D03*
X10680D03*
X10780D03*
X11318D03*
X11418D03*
X11518D03*
X11618D03*
X11717D03*
X11818D03*
X11918D03*
X12018D03*
D02*
D146*
X063Y1028D03*
X113D03*
X163D03*
X300D03*
X350D03*
X400D03*
X550D03*
X600D03*
X650D03*
X1300Y1025D03*
X1350D03*
X1400D03*
X1538D03*
X1587D03*
X1638D03*
X1788D03*
X1837D03*
X1888D03*
X2550Y1028D03*
X2600D03*
X2650D03*
X2788D03*
X2837D03*
X2888D03*
X3038D03*
X3087D03*
X3138D03*
X3788Y1025D03*
X3837D03*
X3888D03*
X4025D03*
X4075D03*
X4125D03*
X4275D03*
X4325D03*
X4375D03*
X5025D03*
X5075D03*
X5125D03*
X5263D03*
X5313D03*
X5362D03*
X5513D03*
X5563D03*
X5612D03*
X6250D03*
X6300D03*
X6350D03*
X6487D03*
X6537D03*
X6588D03*
X6737D03*
X6787D03*
X6838D03*
X7487D03*
X7537D03*
X7588D03*
X7725D03*
X7775D03*
X7825D03*
X7975D03*
X8025D03*
X8075D03*
X8725D03*
X8775D03*
X8825D03*
X8963D03*
X9012D03*
X9063D03*
X9213D03*
X9262D03*
X9313D03*
X9963D03*
X10012D03*
X10063D03*
X10200D03*
X10250D03*
X10300D03*
X10450D03*
X10500D03*
X10550D03*
X11200D03*
X11250D03*
X11300D03*
X11438D03*
X11488D03*
X11538D03*
X11688D03*
X11738D03*
X11788D03*
X000Y000D02*
M02*
