M48
T1C00.024
T2C00.031
T3C00.032
T4C00.035
T5C00.047
T6C00.118
%
T001
X00494Y00864
X00564Y01639
X00769Y00869
X00894Y01569
X00899Y01719
X00939Y01984
X00939Y02084
X01069Y02349
X01259Y01894
X01349Y01569
X01359Y01119
X01364Y01769
X01374Y00779
X01474Y02564
X01569Y01319
X01699Y01399
X01904Y00554
X02039Y00679
T002
X00234Y01129
X00234Y01744
X00874Y02499
T003
X01659Y03134
X01759Y03234
X01859Y03134
T004
X02189Y01809
X02189Y01909
X02189Y02009
X02189Y02109
X02189Y02209
X02189Y02309
T005
X00494Y00321
X00632Y00321
X00770Y00321
X00907Y00321
X01045Y00321
X01183Y00321
X01321Y00321
X01458Y00321
X01596Y00321
X01734Y00321
X01872Y00321
X02010Y00321
T006
X00253Y00771
X02223Y02732
M30
