%FSLAX23Y23*%
%MOIN*%
%ADD21O,0.07087X0.11811*%
%ADD18R,0.08000X0.02000*%
%ADD19R,0.08200X0.02000*%
%ADD71R,0.04000X0.04500*%
%ADD22R,0.04500X0.05118*%
%ADD20R,0.05118X0.04500*%
%ADD17R,0.05512X0.07874*%
%ADD24R,0.06000X0.08000*%
%ADD16R,0.15748X0.07874*%
%ADD70R,0.08000X0.08000*%
%ADD23R,0.08000X0.08000*%
%ADD10C,0.00500*%
%ADD29C,0.02500*%
%ADD27C,0.02520*%
%ADD73C,0.03937*%
%ADD28C,0.04000*%
%ADD26C,0.04800*%
%ADD72C,0.05000*%
%ADD75C,0.07500*%
%ADD15C,0.11811*%
X000Y000D02*
D02*
D10*
X028Y176D02*
X1229D01*
Y193*
X364*
X357Y194*
X351Y197*
X346Y201*
X081Y466*
X077Y471*
X074Y477*
X073Y484*
Y1169*
X074Y1175*
X077Y1181*
X081Y1186*
X215Y1321*
X221Y1325*
X227Y1327*
X233Y1328*
X758*
Y1338*
X813*
X823Y1349*
X758*
Y1359*
X619*
X612Y1359*
X606Y1362*
X601Y1366*
X563Y1404*
X522*
Y1484*
X522*
Y1554*
X538*
Y1618*
X534Y1624*
X532Y1631*
X531Y1639*
X532Y1648*
X536Y1656*
X542Y1663*
X550Y1668*
X559Y1671*
X568*
X577Y1668*
X585Y1663*
X591Y1656*
X595Y1648*
X596Y1639*
X595Y1631*
X593Y1624*
X589Y1618*
Y1554*
X599*
Y1484*
X522*
Y1474*
X599*
Y1439*
X629Y1409*
X758*
Y1419*
X766*
Y1488*
X753*
Y1558*
X830*
Y1488*
X817*
Y1419*
X835*
Y1360*
X961Y1486*
X966Y1490*
X971Y1493*
X978Y1494*
X1030Y1496*
Y1499*
X1003*
Y1544*
X1044*
X1051Y1546*
X979Y1543*
X979Y1543*
X914*
X906Y1538*
X896Y1536*
X886Y1537*
X877Y1541*
X869Y1547*
X864Y1555*
X861Y1565*
X862Y1575*
X858Y1578*
X830*
Y1569*
X753*
Y1639*
X830*
Y1629*
X869*
X875Y1628*
X881Y1625*
X886Y1621*
X909Y1599*
X985*
X978Y1604*
X953Y1628*
X879*
X872Y1629*
X866Y1632*
X861Y1636*
X778Y1718*
X260*
X253Y1712*
X244Y1709*
X234Y1707*
X225Y1708*
X216Y1712*
X208Y1718*
X202Y1725*
X198Y1734*
X197Y1744*
X198Y1753*
X202Y1762*
X208Y1770*
X216Y1775*
X225Y1779*
X234Y1780*
X244Y1779*
X253Y1775*
X260Y1769*
X789*
X795Y1768*
X801Y1765*
X806Y1761*
X889Y1679*
X964*
X970Y1678*
X976Y1675*
X981Y1671*
X1003Y1650*
Y1694*
X1044*
X1052Y1696*
X924Y1698*
X916Y1691*
X907Y1687*
X897Y1686*
X888Y1688*
X879Y1693*
X872Y1700*
X868Y1709*
X866Y1719*
X866Y1721*
X804Y1783*
X758*
Y1853*
X835*
Y1823*
X908Y1750*
X911Y1749*
X996*
X991Y1751*
X987Y1754*
X868Y1873*
X835Y1873*
Y1864*
X758*
Y1934*
X776*
Y2013*
X763*
Y2083*
X840*
X844Y2088*
X838Y2094*
X763*
Y2164*
X840*
Y2154*
X846Y2153*
X851Y2150*
X856Y2146*
X906Y2096*
X908Y2095*
X913Y2103*
X920Y2110*
X929Y2115*
X938Y2116*
X948Y2115*
X957Y2110*
X1049*
X1041Y2113*
X999*
Y2158*
X1028*
Y2334*
X1029Y2340*
X1032Y2347*
X1032Y2349*
X1033Y2358*
X1037Y2367*
X1043Y2374*
X1050Y2380*
X1059Y2384*
X1069Y2385*
Y2461*
X1049*
Y2537*
X1041*
Y2499*
X1040Y2492*
X1039Y2486*
Y2461*
X969*
Y2462*
X880*
X869Y2461*
X859Y2464*
X850Y2469*
X843Y2477*
X838Y2486*
X836Y2497*
X837Y2507*
X841Y2517*
X847Y2525*
X848Y2526*
X855Y2532*
X864Y2535*
X874Y2537*
X966*
Y2604*
X967Y2613*
X971Y2622*
X977Y2630*
X1017Y2670*
X1041Y2694*
Y2733*
X1310*
Y2704*
X1315Y2702*
X1319Y2699*
X1386Y2631*
X1390Y2626*
X1393Y2620*
X1394Y2614*
Y2549*
X1431Y2586*
X1436Y2590*
X1442Y2593*
X1449Y2594*
X1453*
X1462Y2598*
X1471Y2600*
X1481Y2599*
X1491Y2596*
X1499Y2590*
X1505Y2582*
X1509Y2573*
X1510Y2564*
X1509Y2553*
X1504Y2544*
X1498Y2536*
X1489Y2531*
X1480Y2528*
X1469Y2527*
X1459Y2530*
X1451Y2535*
X1409Y2493*
Y2444*
X1309*
Y2442*
X1224*
Y2547*
X1309*
Y2444*
X1324*
Y2549*
X1343*
Y2603*
X1310Y2637*
Y2629*
X1230*
Y2733*
X1215*
Y2629*
X1135*
Y2733*
X1121*
Y2874*
X1084*
Y2978*
X1266*
Y2874*
X1121*
Y2629*
X1082*
X1070Y2617*
X1070Y2617*
X1041Y2588*
Y2537*
X1119*
Y2461*
X1069*
Y2385*
X1079Y2384*
X1088Y2379*
X1096Y2372*
X1102Y2364*
X1105Y2354*
X1105Y2343*
X1102Y2333*
X1096Y2325*
X1088Y2318*
X1079Y2313*
Y2300*
X1159*
Y2300*
X1229*
Y2223*
X1159*
Y2300*
X1149*
Y2223*
X1094*
X1079Y2208*
Y2158*
X1104*
Y2113*
X1065*
X1060Y2111*
X1055Y2110*
X1063Y2108*
X1104*
Y2063*
X1063*
X1058Y2061*
X1054Y2060*
X1058Y2059*
X1063Y2058*
X1104*
Y2013*
X1063*
X1058Y2011*
X1054Y2010*
X1058Y2009*
X1063Y2008*
X1104*
Y1963*
X1063*
X1057Y1961*
X1052Y1960*
X972*
X968Y1959*
X964Y1958*
X959*
X951Y1954*
X942Y1951*
X933Y1952*
X924Y1954*
X917Y1960*
X911Y1967*
X907Y1975*
X906Y1984*
X908Y1993*
X912Y2002*
X918Y2009*
X909Y2008*
X902Y2009*
X896Y2012*
X891Y2016*
X871Y2036*
X867Y2041*
X864Y2047*
X863Y2054*
Y2068*
X844Y2088*
X840Y2083*
Y2013*
X827*
Y1934*
X835*
Y1924*
X879Y1924*
X885Y1923*
X891Y1920*
X896Y1916*
X1015Y1797*
X1056*
X1061Y1797*
X1067Y1795*
X1108*
Y1750*
X1067*
X1062Y1748*
X1066Y1746*
X1070Y1744*
X1108*
Y1699*
X1066*
X1058Y1696*
X1101*
X1107Y1696*
X1113Y1693*
X1119Y1689*
X1151Y1656*
X1155Y1651*
X1158Y1645*
X1159Y1639*
Y1184*
X1158Y1177*
X1155Y1171*
X1151Y1166*
X1099Y1114*
X1105*
Y1104*
X1191*
Y1109*
X1201*
X1203Y1113*
X1206Y1116*
X1226Y1136*
X1231Y1140*
X1237Y1143*
X1244Y1144*
X1338*
X1346Y1148*
X1355Y1151*
X1364Y1151*
X1372Y1148*
X1380Y1143*
X1386Y1136*
X1390Y1128*
X1391Y1119*
X1390Y1110*
X1386Y1101*
X1380Y1094*
X1372Y1089*
X1364Y1086*
X1355Y1086*
X1346Y1089*
X1338Y1093*
X1256*
Y1039*
X1296*
Y969*
X1231*
Y1039*
X1221*
Y969*
X1156*
Y1039*
X1191*
Y1054*
X1105*
Y1033*
X1105*
Y963*
X1028*
Y1033*
X1105*
Y1044*
X1028*
Y1114*
X1041*
Y1117*
X1042Y1123*
X1045Y1129*
X1049Y1134*
X1108Y1194*
Y1549*
X1066*
X1062Y1547*
X1057Y1546*
X1062Y1545*
X1066Y1544*
X1108*
Y1499*
X1080*
Y1494*
X1108*
Y1449*
X1066*
X1061Y1447*
X1056Y1446*
X989Y1444*
X835Y1289*
Y1268*
X758*
Y1278*
X244*
X164Y1198*
X207Y1155*
X215Y1161*
X224Y1165*
X234Y1166*
X709*
X718Y1165*
X727Y1161*
X735Y1155*
X965Y925*
X970Y919*
X974Y911*
X1065Y820*
X1069Y816*
X1072Y811*
X1091*
Y706*
X986*
Y793*
X912Y867*
X907Y873*
X903Y881*
X693Y1091*
X234*
X224Y1092*
X215Y1096*
X207Y1102*
X201Y1110*
X197Y1119*
X196Y1129*
X197Y1138*
X201Y1147*
X207Y1155*
X164Y1198*
X124Y1158*
Y771*
X182*
X183Y786*
X188Y800*
X195Y813*
X205Y824*
X218Y833*
X231Y839*
X246Y842*
X261*
X275Y839*
X289Y833*
X301Y824*
X311Y813*
X319Y800*
X323Y786*
X325Y771*
X323Y756*
X319Y742*
X311Y729*
X301Y718*
X289Y709*
X275Y703*
X261Y700*
X246*
X231Y703*
X218Y709*
X205Y718*
X195Y729*
X188Y742*
X183Y756*
X182Y771*
X124*
Y494*
X374Y244*
X494*
Y250*
X483Y251*
X473Y255*
X464Y260*
X456Y268*
X451Y277*
X447Y287*
X446Y298*
Y345*
X447Y356*
X451Y367*
X457Y376*
X465Y384*
Y629*
X452*
Y709*
X452*
Y779*
X468*
Y843*
X464Y849*
X462Y856*
X461Y864*
X462Y873*
X466Y881*
X472Y888*
X480Y893*
X489Y896*
X498*
X507Y893*
X515Y888*
X521Y881*
X525Y873*
X526Y864*
X525Y856*
X523Y849*
X519Y843*
Y779*
X529*
Y709*
X452*
Y699*
X529*
Y629*
X516*
Y388*
X524Y382*
X532Y374*
X537Y365*
X541Y355*
X542Y345*
Y298*
X541Y287*
X537Y277*
X531Y268*
X524Y260*
X515Y255*
X505Y251*
X494Y250*
Y244*
X632*
Y250*
X621Y251*
X611Y255*
X602Y260*
X594Y268*
X589Y277*
X585Y287*
X584Y298*
Y345*
X585Y356*
X589Y367*
X596Y377*
X604Y384*
X615Y390*
X626Y393*
X637*
X649Y390*
X659Y384*
X668Y377*
X674Y367*
X678Y356*
X680Y345*
Y298*
X678Y287*
X675Y277*
X669Y268*
X662Y260*
X653Y255*
X642Y251*
X632Y250*
Y244*
X770*
Y250*
X759Y251*
X749Y255*
X740Y260*
X732Y268*
X726Y277*
X723Y287*
X722Y298*
Y345*
X723Y355*
X726Y365*
X731Y374*
X738Y381*
X746Y387*
Y628*
X733*
Y709*
X733*
Y779*
X743*
Y848*
X739Y854*
X737Y861*
X736Y869*
X737Y878*
X741Y886*
X747Y893*
X755Y898*
X764Y901*
X773*
X782Y898*
X790Y893*
X796Y886*
X800Y878*
X801Y869*
X800Y861*
X798Y854*
X794Y848*
Y779*
X810*
Y709*
X733*
Y698*
X810*
Y628*
X797*
Y384*
X805Y377*
X812Y367*
X816Y356*
X817Y345*
Y298*
X816Y287*
X813Y277*
X807Y268*
X799Y260*
X790Y255*
X780Y251*
X770Y250*
Y244*
X907*
Y250*
X897Y251*
X887Y255*
X877Y260*
X870Y268*
X864Y277*
X861Y287*
X859Y298*
Y345*
X861Y356*
X865Y367*
X871Y377*
X880Y384*
X890Y390*
X902Y393*
X913*
X924Y390*
X935Y384*
X943Y377*
X950Y367*
X954Y356*
X955Y345*
Y298*
X954Y287*
X950Y277*
X945Y268*
X937Y260*
X928Y255*
X918Y251*
X907Y250*
Y244*
X1045*
Y250*
X1034Y251*
X1024Y255*
X1015Y260*
X1008Y268*
X1002Y277*
X998Y287*
X997Y298*
Y345*
X998Y355*
X1001Y364*
Y531*
X986*
Y636*
X1091*
Y531*
X1076*
Y382*
X1083Y374*
X1089Y365*
X1092Y355*
X1093Y345*
Y298*
X1092Y287*
X1088Y277*
X1083Y268*
X1075Y260*
X1066Y255*
X1056Y251*
X1045Y250*
Y244*
X1183*
Y250*
X1172Y251*
X1162Y255*
X1153Y260*
X1145Y268*
X1140Y277*
X1136Y287*
X1135Y298*
Y345*
X1136Y356*
X1140Y367*
X1147Y377*
X1156Y384*
X1166Y390*
X1177Y393*
X1189*
X1200Y390*
X1210Y384*
X1219Y377*
X1225Y367*
X1229Y356*
X1231Y345*
Y298*
X1230Y287*
X1226Y277*
X1220Y268*
X1213Y260*
X1204Y255*
X1194Y251*
X1183Y250*
Y244*
X1218*
X1273Y298*
Y345*
X1274Y356*
X1278Y367*
X1285Y377*
X1293Y384*
X1304Y390*
X1315Y393*
X1326*
X1338Y390*
X1348Y384*
X1357Y377*
X1363Y367*
X1367Y356*
X1369Y345*
X1411*
X1412Y356*
X1416Y367*
X1423Y377*
X1431Y384*
X1441Y390*
X1453Y393*
X1464*
X1475Y390*
X1486Y384*
X1494Y377*
X1501Y367*
X1505Y356*
X1506Y345*
X1548*
X1549Y355*
X1552Y364*
X1557Y373*
X1564Y380*
X1571Y386*
Y628*
X1558*
Y709*
X1558*
Y719*
X1409*
X1402Y719*
X1396Y722*
X1391Y726*
X1370Y746*
X1361Y749*
X1353Y753*
X1347Y761*
X1342Y769*
X1341Y779*
X1343Y788*
X1347Y797*
X1354Y804*
X1362Y809*
X1372Y811*
X1382Y810*
X1391Y806*
X1398Y800*
X1403Y791*
X1406Y782*
X1419Y769*
X1558*
Y779*
X1635*
Y709*
X1558*
Y698*
X1635*
Y628*
X1622*
Y386*
X1631Y378*
X1638Y368*
X1643Y357*
X1644Y345*
X1686*
X1688Y357*
X1692Y368*
X1699Y378*
X1709Y386*
X1709Y623*
X1693*
Y704*
X1693*
Y774*
X1706*
Y985*
X1643Y1048*
X1599*
Y1036*
X1639*
Y966*
X1574*
Y1036*
X1564*
Y966*
X1499*
Y1036*
X1534*
Y1106*
X1556*
X1673Y1224*
Y1378*
X1669Y1384*
X1667Y1391*
X1666Y1399*
X1667Y1408*
X1671Y1416*
X1677Y1423*
X1685Y1428*
X1694Y1431*
X1703*
X1712Y1428*
X1720Y1423*
X1726Y1416*
X1730Y1408*
X1731Y1399*
X1730Y1391*
X1728Y1384*
X1724Y1378*
Y1214*
X1723Y1207*
X1720Y1201*
X1716Y1196*
X1619Y1099*
X1654*
X1660Y1098*
X1666Y1095*
X1671Y1091*
X1749Y1013*
X1753Y1008*
X1756Y1002*
X1757Y996*
Y774*
X1770*
Y704*
X1693*
Y693*
X1770*
Y623*
X1759*
X1759Y386*
X1769Y378*
X1776Y368*
X1780Y357*
X1782Y345*
X1824*
X1825Y356*
X1829Y367*
X1836Y377*
X1845Y384*
X1855Y390*
X1866Y393*
X1878*
X1889Y390*
X1899Y384*
X1908Y377*
X1914Y367*
X1918Y356*
X1920Y345*
X1962*
X1963Y357*
X1968Y368*
X1974Y378*
X1984Y385*
Y449*
X1976*
Y519*
X1936*
Y528*
X1930*
X1923Y522*
X1914Y519*
X1904Y517*
X1895Y518*
X1886Y522*
X1878Y528*
X1872Y535*
X1868Y544*
X1867Y554*
X1868Y563*
X1872Y572*
X1878Y580*
X1886Y585*
X1895Y589*
X1904Y590*
X1914Y589*
X1923Y585*
X1930Y579*
X1936*
Y589*
X2001*
Y519*
X2011*
Y589*
X2013*
Y658*
X2009Y664*
X2007Y671*
X2006Y679*
X2007Y688*
X2011Y696*
X2017Y703*
X2025Y708*
X2034Y711*
X2043*
X2052Y708*
X2060Y703*
X2066Y696*
X2070Y688*
X2071Y679*
X2070Y671*
X2068Y664*
X2064Y658*
Y589*
X2076*
Y519*
X2041*
Y509*
X2201*
Y514*
X2161*
Y584*
X2226*
Y514*
X2236*
Y584*
X2301*
Y514*
X2266*
Y444*
X2201*
Y458*
X2041*
Y449*
X2034*
Y387*
X2042Y381*
X2048Y373*
X2053Y365*
X2057Y355*
X2058Y345*
Y298*
X2056Y286*
X2052Y275*
X2046Y266*
X2037Y258*
X2027Y253*
X2015Y250*
X2004*
X1993Y253*
X1982Y258*
X1974Y266*
X1967Y275*
X1963Y286*
X1962Y298*
Y345*
X1920*
Y298*
X1918Y286*
X1914Y275*
X1908Y266*
X1899Y258*
X1889Y253*
X1878Y250*
X1866*
X1855Y253*
X1845Y258*
X1836Y266*
X1829Y275*
X1825Y286*
X1824Y298*
Y345*
X1782*
Y298*
X1781Y286*
X1777Y275*
X1770Y266*
X1761Y258*
X1751Y253*
X1740Y250*
X1728*
X1717Y253*
X1707Y258*
X1698Y266*
X1692Y275*
X1688Y286*
X1686Y298*
Y345*
X1644*
Y298*
X1643Y286*
X1639Y275*
X1632Y266*
X1624Y258*
X1613Y253*
X1602Y250*
X1590*
X1579Y253*
X1569Y258*
X1560Y266*
X1554Y275*
X1550Y286*
X1548Y298*
Y345*
X1506*
Y298*
X1505Y286*
X1501Y275*
X1494Y266*
X1486Y258*
X1475Y253*
X1464Y250*
X1453*
X1441Y253*
X1431Y258*
X1423Y266*
X1416Y275*
X1412Y286*
X1411Y298*
Y345*
X1369*
Y298*
X1367Y286*
X1363Y275*
X1356Y265*
X1346Y257*
X1335Y252*
X1323Y250*
X1311Y251*
X1300Y255*
X1246Y201*
X1241Y197*
X1235Y194*
X1229Y193*
Y176*
X2478*
Y3169*
X2439*
Y1649*
X2438Y1642*
X2435Y1636*
X2431Y1631*
X2316Y1516*
X2311Y1512*
X2305Y1509*
X2299Y1508*
X1854*
X1847Y1509*
X1841Y1512*
X1836Y1516*
X1713Y1638*
X1610Y1639*
Y1618*
X1610*
Y1548*
X1533*
Y1514*
X1609*
Y1434*
X1609*
Y1364*
X1596*
Y1337*
X1600Y1328*
X1601Y1319*
X1600Y1309*
X1596Y1301*
X1590Y1294*
X1582Y1289*
X1573Y1286*
X1564*
X1555Y1289*
X1547Y1294*
X1541Y1301*
X1537Y1309*
X1536Y1319*
X1537Y1327*
X1540Y1335*
X1545Y1341*
Y1364*
X1532*
Y1434*
X1609*
Y1444*
X1532*
Y1514*
X1533*
Y1618*
X1610*
Y1629*
X1533*
Y1696*
X1429*
X1437Y1694*
X1444Y1689*
X1471Y1661*
X1475Y1656*
X1478Y1650*
X1479Y1644*
Y1549*
X1478Y1542*
X1475Y1536*
X1471Y1531*
X1446Y1506*
X1441Y1502*
X1435Y1499*
X1429Y1498*
X1324*
X1280Y1497*
Y1494*
X1308*
Y1449*
X1266*
X1259Y1446*
X1251*
X1244Y1449*
X1203*
Y1494*
X1230*
Y1499*
X1203*
Y1544*
X1239*
X1243Y1546*
X1240Y1549*
X1203*
Y1594*
X1244*
X1249Y1596*
X1255Y1596*
Y1599*
X1203*
Y1644*
X1308*
Y1599*
X1255*
Y1596*
X1261Y1596*
X1266Y1594*
X1308*
Y1594*
X1328*
X1336Y1599*
X1345Y1601*
X1355Y1601*
X1364Y1597*
X1371Y1592*
X1377Y1584*
X1380Y1576*
X1381Y1566*
X1379Y1557*
X1374Y1549*
X1418*
X1428Y1559*
Y1633*
X1415Y1646*
X1255*
X1249Y1647*
X1244Y1649*
X1203*
Y1694*
X1244*
X1248Y1695*
X1253Y1696*
X1248Y1697*
X1244Y1699*
X1203*
Y1744*
X1244*
X1247Y1745*
X1240Y1749*
X1203*
Y1794*
X1244*
X1251Y1796*
X1259*
X1266Y1794*
X1308*
Y1794*
X1343*
X1351Y1798*
X1359Y1801*
X1368*
X1377Y1798*
X1384Y1794*
X1393*
X1416Y1816*
X1421Y1820*
X1427Y1823*
X1434Y1824*
X1769*
X1775Y1823*
X1781Y1820*
X1786Y1816*
X1914Y1689*
X2253*
X2281Y1716*
X2241Y1756*
X2136*
Y1887*
X1715*
X1709Y1888*
X1703Y1890*
X1697Y1894*
X1578Y2013*
X1304*
Y2013*
X1263*
X1258Y2011*
X1254Y2010*
X1258Y2009*
X1263Y2008*
X1305*
Y1963*
X1277*
Y1920*
X1283Y1915*
X1287Y1909*
X1290Y1901*
X1291Y1894*
X1290Y1884*
X1286Y1876*
X1280Y1869*
X1272Y1864*
X1263Y1861*
X1254*
X1245Y1864*
X1237Y1869*
X1231Y1876*
X1227Y1884*
X1226Y1894*
X1227Y1899*
X1227Y1900*
Y1963*
X1198*
Y2008*
X1241*
X1245Y2009*
X1249Y2010*
X1245Y2011*
X1241Y2013*
X1199*
Y2058*
X1235*
X1242Y2062*
X1241Y2063*
X1199*
Y2108*
X1241*
X1246Y2110*
X1252Y2110*
Y2113*
X1199*
Y2158*
X1304*
Y2113*
X1252*
Y2110*
X2067*
X2073Y2109*
X2080Y2107*
X2085Y2103*
X2136Y2052*
Y2361*
X2241*
Y1756*
X2281Y1716*
X2298Y1734*
Y2438*
X2258Y2478*
X1984*
X1977Y2479*
X1971Y2482*
X1966Y2486*
X1641Y2811*
X1637Y2816*
X1634Y2822*
X1633Y2829*
Y3090*
X1624Y3097*
X1616Y3107*
X1611Y3117*
X1609Y3129*
X1609Y3141*
X1612Y3152*
X1618Y3163*
X1626Y3171*
X1636Y3178*
X1647Y3182*
X1659Y3184*
X1670Y3182*
X1681Y3178*
X1691Y3171*
X1699Y3163*
X1705Y3152*
X1708Y3141*
X1708Y3129*
X1706Y3117*
X1701Y3107*
X1693Y3097*
X1684Y3090*
Y2839*
X1994Y2529*
X2269*
X2275Y2528*
X2281Y2525*
X2286Y2521*
X2341Y2466*
X2345Y2461*
X2348Y2455*
X2349Y2449*
Y1724*
X2348Y1717*
X2345Y1711*
X2341Y1706*
X2281Y1646*
X2276Y1642*
X2270Y1639*
X2264Y1638*
X1904*
X1897Y1639*
X1891Y1642*
X1886Y1646*
X1758Y1773*
X1444*
X1421Y1751*
X1415Y1746*
X1566*
X1572Y1746*
X1578Y1743*
X1584Y1739*
X1591Y1731*
X1595Y1726*
X1598Y1719*
X1599Y1713*
X1598Y1699*
X1610*
Y1689*
X1724Y1689*
X1730Y1688*
X1736Y1685*
X1741Y1681*
X1864Y1559*
X2288*
X2388Y1659*
Y2732*
X2294*
X2293Y2718*
X2288Y2703*
X2281Y2690*
X2271Y2679*
X2258Y2670*
X2245Y2664*
X2230Y2661*
X2215*
X2201Y2664*
X2187Y2670*
X2175Y2679*
X2165Y2690*
X2157Y2703*
X2153Y2718*
X2151Y2732*
X2153Y2747*
X2157Y2761*
X2165Y2774*
X2175Y2786*
X2187Y2794*
X2201Y2800*
X2215Y2804*
X2230*
X2245Y2800*
X2258Y2794*
X2271Y2786*
X2281Y2774*
X2288Y2761*
X2293Y2747*
X2294Y2732*
X2388*
Y3158*
X2338Y3208*
X1819*
X1846Y3182*
X1852Y3183*
X1859Y3184*
X1871Y3182*
X1882Y3178*
X1892Y3171*
X1900Y3162*
X1905Y3151*
X1908Y3140*
Y3128*
X1905Y3116*
X1900Y3105*
X1892Y3096*
X1882Y3089*
X1871Y3085*
X1859Y3084*
X1847Y3085*
X1836Y3089*
X1827Y3095*
X1819Y3103*
X1813Y3113*
X1810Y3124*
X1809Y3135*
X1810Y3146*
X1771Y3185*
X1765Y3184*
X1759Y3184*
X1747Y3185*
X1735Y3189*
X1725Y3196*
X1717Y3205*
X1712Y3216*
X1709Y3228*
Y3240*
X1712Y3251*
X1717Y3262*
X1725Y3271*
X1735Y3278*
X1747Y3282*
X1759Y3284*
X1769Y3282*
X1779Y3279*
X1788Y3274*
X1796Y3267*
X1802Y3259*
X2349*
X2355Y3258*
X2361Y3255*
X2366Y3251*
X2431Y3186*
X2435Y3181*
X2438Y3175*
X2439Y3169*
X2478*
Y3352*
X028*
Y176*
G36*
X1229*
Y193*
X364*
X357Y194*
X351Y197*
X346Y201*
X081Y466*
X077Y471*
X074Y477*
X073Y484*
Y1169*
X074Y1175*
X077Y1181*
X081Y1186*
X215Y1321*
X221Y1325*
X227Y1327*
X233Y1328*
X758*
Y1338*
X813*
X823Y1349*
X758*
Y1359*
X619*
X612Y1359*
X606Y1362*
X601Y1366*
X563Y1404*
X522*
Y1484*
X522*
Y1554*
X538*
Y1618*
X534Y1624*
X532Y1631*
X531Y1639*
X532Y1648*
X536Y1656*
X542Y1663*
X550Y1668*
X559Y1671*
X568*
X577Y1668*
X585Y1663*
X591Y1656*
X595Y1648*
X596Y1639*
X595Y1631*
X593Y1624*
X589Y1618*
Y1554*
X599*
Y1484*
X522*
Y1474*
X599*
Y1439*
X629Y1409*
X758*
Y1419*
X766*
Y1488*
X753*
Y1558*
X830*
Y1488*
X817*
Y1419*
X835*
Y1360*
X961Y1486*
X966Y1490*
X971Y1493*
X978Y1494*
X1030Y1496*
Y1499*
X1003*
Y1544*
X1044*
X1051Y1546*
X979Y1543*
X979Y1543*
X914*
X906Y1538*
X896Y1536*
X886Y1537*
X877Y1541*
X869Y1547*
X864Y1555*
X861Y1565*
X862Y1575*
X858Y1578*
X830*
Y1569*
X753*
Y1639*
X830*
Y1629*
X869*
X875Y1628*
X881Y1625*
X886Y1621*
X909Y1599*
X985*
X978Y1604*
X953Y1628*
X879*
X872Y1629*
X866Y1632*
X861Y1636*
X778Y1718*
X260*
X253Y1712*
X244Y1709*
X234Y1707*
X225Y1708*
X216Y1712*
X208Y1718*
X202Y1725*
X198Y1734*
X197Y1744*
X198Y1753*
X202Y1762*
X208Y1770*
X216Y1775*
X225Y1779*
X234Y1780*
X244Y1779*
X253Y1775*
X260Y1769*
X789*
X795Y1768*
X801Y1765*
X806Y1761*
X889Y1679*
X964*
X970Y1678*
X976Y1675*
X981Y1671*
X1003Y1650*
Y1694*
X1044*
X1052Y1696*
X924Y1698*
X916Y1691*
X907Y1687*
X897Y1686*
X888Y1688*
X879Y1693*
X872Y1700*
X868Y1709*
X866Y1719*
X866Y1721*
X804Y1783*
X758*
Y1853*
X835*
Y1823*
X908Y1750*
X911Y1749*
X996*
X991Y1751*
X987Y1754*
X868Y1873*
X835Y1873*
Y1864*
X758*
Y1934*
X776*
Y2013*
X763*
Y2083*
X840*
X844Y2088*
X838Y2094*
X763*
Y2164*
X840*
Y2154*
X846Y2153*
X851Y2150*
X856Y2146*
X906Y2096*
X908Y2095*
X913Y2103*
X920Y2110*
X929Y2115*
X938Y2116*
X948Y2115*
X957Y2110*
X1049*
X1041Y2113*
X999*
Y2158*
X1028*
Y2334*
X1029Y2340*
X1032Y2347*
X1032Y2349*
X1033Y2358*
X1037Y2367*
X1043Y2374*
X1050Y2380*
X1059Y2384*
X1069Y2385*
Y2461*
X1049*
Y2537*
X1041*
Y2499*
X1040Y2492*
X1039Y2486*
Y2461*
X969*
Y2462*
X880*
X869Y2461*
X859Y2464*
X850Y2469*
X843Y2477*
X838Y2486*
X836Y2497*
X837Y2507*
X841Y2517*
X847Y2525*
X848Y2526*
X855Y2532*
X864Y2535*
X874Y2537*
X966*
Y2604*
X967Y2613*
X971Y2622*
X977Y2630*
X1017Y2670*
X1041Y2694*
Y2733*
X1310*
Y2704*
X1315Y2702*
X1319Y2699*
X1386Y2631*
X1390Y2626*
X1393Y2620*
X1394Y2614*
Y2549*
X1431Y2586*
X1436Y2590*
X1442Y2593*
X1449Y2594*
X1453*
X1462Y2598*
X1471Y2600*
X1481Y2599*
X1491Y2596*
X1499Y2590*
X1505Y2582*
X1509Y2573*
X1510Y2564*
X1509Y2553*
X1504Y2544*
X1498Y2536*
X1489Y2531*
X1480Y2528*
X1469Y2527*
X1459Y2530*
X1451Y2535*
X1409Y2493*
Y2444*
X1309*
Y2442*
X1224*
Y2547*
X1309*
Y2444*
X1324*
Y2549*
X1343*
Y2603*
X1310Y2637*
Y2629*
X1230*
Y2733*
X1215*
Y2629*
X1135*
Y2733*
X1121*
Y2874*
X1084*
Y2978*
X1266*
Y2874*
X1121*
Y2629*
X1082*
X1070Y2617*
X1070Y2617*
X1041Y2588*
Y2537*
X1119*
Y2461*
X1069*
Y2385*
X1079Y2384*
X1088Y2379*
X1096Y2372*
X1102Y2364*
X1105Y2354*
X1105Y2343*
X1102Y2333*
X1096Y2325*
X1088Y2318*
X1079Y2313*
Y2300*
X1159*
Y2300*
X1229*
Y2223*
X1159*
Y2300*
X1149*
Y2223*
X1094*
X1079Y2208*
Y2158*
X1104*
Y2113*
X1065*
X1060Y2111*
X1055Y2110*
X1063Y2108*
X1104*
Y2063*
X1063*
X1058Y2061*
X1054Y2060*
X1058Y2059*
X1063Y2058*
X1104*
Y2013*
X1063*
X1058Y2011*
X1054Y2010*
X1058Y2009*
X1063Y2008*
X1104*
Y1963*
X1063*
X1057Y1961*
X1052Y1960*
X972*
X968Y1959*
X964Y1958*
X959*
X951Y1954*
X942Y1951*
X933Y1952*
X924Y1954*
X917Y1960*
X911Y1967*
X907Y1975*
X906Y1984*
X908Y1993*
X912Y2002*
X918Y2009*
X909Y2008*
X902Y2009*
X896Y2012*
X891Y2016*
X871Y2036*
X867Y2041*
X864Y2047*
X863Y2054*
Y2068*
X844Y2088*
X840Y2083*
Y2013*
X827*
Y1934*
X835*
Y1924*
X879Y1924*
X885Y1923*
X891Y1920*
X896Y1916*
X1015Y1797*
X1056*
X1061Y1797*
X1067Y1795*
X1108*
Y1750*
X1067*
X1062Y1748*
X1066Y1746*
X1070Y1744*
X1108*
Y1699*
X1066*
X1058Y1696*
X1101*
X1107Y1696*
X1113Y1693*
X1119Y1689*
X1151Y1656*
X1155Y1651*
X1158Y1645*
X1159Y1639*
Y1184*
X1158Y1177*
X1155Y1171*
X1151Y1166*
X1099Y1114*
X1105*
Y1104*
X1191*
Y1109*
X1201*
X1203Y1113*
X1206Y1116*
X1226Y1136*
X1231Y1140*
X1237Y1143*
X1244Y1144*
X1338*
X1346Y1148*
X1355Y1151*
X1364Y1151*
X1372Y1148*
X1380Y1143*
X1386Y1136*
X1390Y1128*
X1391Y1119*
X1390Y1110*
X1386Y1101*
X1380Y1094*
X1372Y1089*
X1364Y1086*
X1355Y1086*
X1346Y1089*
X1338Y1093*
X1256*
Y1039*
X1296*
Y969*
X1231*
Y1039*
X1221*
Y969*
X1156*
Y1039*
X1191*
Y1054*
X1105*
Y1033*
X1105*
Y963*
X1028*
Y1033*
X1105*
Y1044*
X1028*
Y1114*
X1041*
Y1117*
X1042Y1123*
X1045Y1129*
X1049Y1134*
X1108Y1194*
Y1549*
X1066*
X1062Y1547*
X1057Y1546*
X1062Y1545*
X1066Y1544*
X1108*
Y1499*
X1080*
Y1494*
X1108*
Y1449*
X1066*
X1061Y1447*
X1056Y1446*
X989Y1444*
X835Y1289*
Y1268*
X758*
Y1278*
X244*
X164Y1198*
X207Y1155*
X215Y1161*
X224Y1165*
X234Y1166*
X709*
X718Y1165*
X727Y1161*
X735Y1155*
X965Y925*
X970Y919*
X974Y911*
X1065Y820*
X1069Y816*
X1072Y811*
X1091*
Y706*
X986*
Y793*
X912Y867*
X907Y873*
X903Y881*
X693Y1091*
X234*
X224Y1092*
X215Y1096*
X207Y1102*
X201Y1110*
X197Y1119*
X196Y1129*
X197Y1138*
X201Y1147*
X207Y1155*
X164Y1198*
X124Y1158*
Y771*
X182*
X183Y786*
X188Y800*
X195Y813*
X205Y824*
X218Y833*
X231Y839*
X246Y842*
X261*
X275Y839*
X289Y833*
X301Y824*
X311Y813*
X319Y800*
X323Y786*
X325Y771*
X323Y756*
X319Y742*
X311Y729*
X301Y718*
X289Y709*
X275Y703*
X261Y700*
X246*
X231Y703*
X218Y709*
X205Y718*
X195Y729*
X188Y742*
X183Y756*
X182Y771*
X124*
Y494*
X374Y244*
X494*
Y250*
X483Y251*
X473Y255*
X464Y260*
X456Y268*
X451Y277*
X447Y287*
X446Y298*
Y345*
X447Y356*
X451Y367*
X457Y376*
X465Y384*
Y629*
X452*
Y709*
X452*
Y779*
X468*
Y843*
X464Y849*
X462Y856*
X461Y864*
X462Y873*
X466Y881*
X472Y888*
X480Y893*
X489Y896*
X498*
X507Y893*
X515Y888*
X521Y881*
X525Y873*
X526Y864*
X525Y856*
X523Y849*
X519Y843*
Y779*
X529*
Y709*
X452*
Y699*
X529*
Y629*
X516*
Y388*
X524Y382*
X532Y374*
X537Y365*
X541Y355*
X542Y345*
Y298*
X541Y287*
X537Y277*
X531Y268*
X524Y260*
X515Y255*
X505Y251*
X494Y250*
Y244*
X632*
Y250*
X621Y251*
X611Y255*
X602Y260*
X594Y268*
X589Y277*
X585Y287*
X584Y298*
Y345*
X585Y356*
X589Y367*
X596Y377*
X604Y384*
X615Y390*
X626Y393*
X637*
X649Y390*
X659Y384*
X668Y377*
X674Y367*
X678Y356*
X680Y345*
Y298*
X678Y287*
X675Y277*
X669Y268*
X662Y260*
X653Y255*
X642Y251*
X632Y250*
Y244*
X770*
Y250*
X759Y251*
X749Y255*
X740Y260*
X732Y268*
X726Y277*
X723Y287*
X722Y298*
Y345*
X723Y355*
X726Y365*
X731Y374*
X738Y381*
X746Y387*
Y628*
X733*
Y709*
X733*
Y779*
X743*
Y848*
X739Y854*
X737Y861*
X736Y869*
X737Y878*
X741Y886*
X747Y893*
X755Y898*
X764Y901*
X773*
X782Y898*
X790Y893*
X796Y886*
X800Y878*
X801Y869*
X800Y861*
X798Y854*
X794Y848*
Y779*
X810*
Y709*
X733*
Y698*
X810*
Y628*
X797*
Y384*
X805Y377*
X812Y367*
X816Y356*
X817Y345*
Y298*
X816Y287*
X813Y277*
X807Y268*
X799Y260*
X790Y255*
X780Y251*
X770Y250*
Y244*
X907*
Y250*
X897Y251*
X887Y255*
X877Y260*
X870Y268*
X864Y277*
X861Y287*
X859Y298*
Y345*
X861Y356*
X865Y367*
X871Y377*
X880Y384*
X890Y390*
X902Y393*
X913*
X924Y390*
X935Y384*
X943Y377*
X950Y367*
X954Y356*
X955Y345*
Y298*
X954Y287*
X950Y277*
X945Y268*
X937Y260*
X928Y255*
X918Y251*
X907Y250*
Y244*
X1045*
Y250*
X1034Y251*
X1024Y255*
X1015Y260*
X1008Y268*
X1002Y277*
X998Y287*
X997Y298*
Y345*
X998Y355*
X1001Y364*
Y531*
X986*
Y636*
X1091*
Y531*
X1076*
Y382*
X1083Y374*
X1089Y365*
X1092Y355*
X1093Y345*
Y298*
X1092Y287*
X1088Y277*
X1083Y268*
X1075Y260*
X1066Y255*
X1056Y251*
X1045Y250*
Y244*
X1183*
Y250*
X1172Y251*
X1162Y255*
X1153Y260*
X1145Y268*
X1140Y277*
X1136Y287*
X1135Y298*
Y345*
X1136Y356*
X1140Y367*
X1147Y377*
X1156Y384*
X1166Y390*
X1177Y393*
X1189*
X1200Y390*
X1210Y384*
X1219Y377*
X1225Y367*
X1229Y356*
X1231Y345*
Y298*
X1230Y287*
X1226Y277*
X1220Y268*
X1213Y260*
X1204Y255*
X1194Y251*
X1183Y250*
Y244*
X1218*
X1273Y298*
Y345*
X1274Y356*
X1278Y367*
X1285Y377*
X1293Y384*
X1304Y390*
X1315Y393*
X1326*
X1338Y390*
X1348Y384*
X1357Y377*
X1363Y367*
X1367Y356*
X1369Y345*
X1411*
X1412Y356*
X1416Y367*
X1423Y377*
X1431Y384*
X1441Y390*
X1453Y393*
X1464*
X1475Y390*
X1486Y384*
X1494Y377*
X1501Y367*
X1505Y356*
X1506Y345*
X1548*
X1549Y355*
X1552Y364*
X1557Y373*
X1564Y380*
X1571Y386*
Y628*
X1558*
Y709*
X1558*
Y719*
X1409*
X1402Y719*
X1396Y722*
X1391Y726*
X1370Y746*
X1361Y749*
X1353Y753*
X1347Y761*
X1342Y769*
X1341Y779*
X1343Y788*
X1347Y797*
X1354Y804*
X1362Y809*
X1372Y811*
X1382Y810*
X1391Y806*
X1398Y800*
X1403Y791*
X1406Y782*
X1419Y769*
X1558*
Y779*
X1635*
Y709*
X1558*
Y698*
X1635*
Y628*
X1622*
Y386*
X1631Y378*
X1638Y368*
X1643Y357*
X1644Y345*
X1686*
X1688Y357*
X1692Y368*
X1699Y378*
X1709Y386*
X1709Y623*
X1693*
Y704*
X1693*
Y774*
X1706*
Y985*
X1643Y1048*
X1599*
Y1036*
X1639*
Y966*
X1574*
Y1036*
X1564*
Y966*
X1499*
Y1036*
X1534*
Y1106*
X1556*
X1673Y1224*
Y1378*
X1669Y1384*
X1667Y1391*
X1666Y1399*
X1667Y1408*
X1671Y1416*
X1677Y1423*
X1685Y1428*
X1694Y1431*
X1703*
X1712Y1428*
X1720Y1423*
X1726Y1416*
X1730Y1408*
X1731Y1399*
X1730Y1391*
X1728Y1384*
X1724Y1378*
Y1214*
X1723Y1207*
X1720Y1201*
X1716Y1196*
X1619Y1099*
X1654*
X1660Y1098*
X1666Y1095*
X1671Y1091*
X1749Y1013*
X1753Y1008*
X1756Y1002*
X1757Y996*
Y774*
X1770*
Y704*
X1693*
Y693*
X1770*
Y623*
X1759*
X1759Y386*
X1769Y378*
X1776Y368*
X1780Y357*
X1782Y345*
X1824*
X1825Y356*
X1829Y367*
X1836Y377*
X1845Y384*
X1855Y390*
X1866Y393*
X1878*
X1889Y390*
X1899Y384*
X1908Y377*
X1914Y367*
X1918Y356*
X1920Y345*
X1962*
X1963Y357*
X1968Y368*
X1974Y378*
X1984Y385*
Y449*
X1976*
Y519*
X1936*
Y528*
X1930*
X1923Y522*
X1914Y519*
X1904Y517*
X1895Y518*
X1886Y522*
X1878Y528*
X1872Y535*
X1868Y544*
X1867Y554*
X1868Y563*
X1872Y572*
X1878Y580*
X1886Y585*
X1895Y589*
X1904Y590*
X1914Y589*
X1923Y585*
X1930Y579*
X1936*
Y589*
X2001*
Y519*
X2011*
Y589*
X2013*
Y658*
X2009Y664*
X2007Y671*
X2006Y679*
X2007Y688*
X2011Y696*
X2017Y703*
X2025Y708*
X2034Y711*
X2043*
X2052Y708*
X2060Y703*
X2066Y696*
X2070Y688*
X2071Y679*
X2070Y671*
X2068Y664*
X2064Y658*
Y589*
X2076*
Y519*
X2041*
Y509*
X2201*
Y514*
X2161*
Y584*
X2226*
Y514*
X2236*
Y584*
X2301*
Y514*
X2266*
Y444*
X2201*
Y458*
X2041*
Y449*
X2034*
Y387*
X2042Y381*
X2048Y373*
X2053Y365*
X2057Y355*
X2058Y345*
Y298*
X2056Y286*
X2052Y275*
X2046Y266*
X2037Y258*
X2027Y253*
X2015Y250*
X2004*
X1993Y253*
X1982Y258*
X1974Y266*
X1967Y275*
X1963Y286*
X1962Y298*
Y345*
X1920*
Y298*
X1918Y286*
X1914Y275*
X1908Y266*
X1899Y258*
X1889Y253*
X1878Y250*
X1866*
X1855Y253*
X1845Y258*
X1836Y266*
X1829Y275*
X1825Y286*
X1824Y298*
Y345*
X1782*
Y298*
X1781Y286*
X1777Y275*
X1770Y266*
X1761Y258*
X1751Y253*
X1740Y250*
X1728*
X1717Y253*
X1707Y258*
X1698Y266*
X1692Y275*
X1688Y286*
X1686Y298*
Y345*
X1644*
Y298*
X1643Y286*
X1639Y275*
X1632Y266*
X1624Y258*
X1613Y253*
X1602Y250*
X1590*
X1579Y253*
X1569Y258*
X1560Y266*
X1554Y275*
X1550Y286*
X1548Y298*
Y345*
X1506*
Y298*
X1505Y286*
X1501Y275*
X1494Y266*
X1486Y258*
X1475Y253*
X1464Y250*
X1453*
X1441Y253*
X1431Y258*
X1423Y266*
X1416Y275*
X1412Y286*
X1411Y298*
Y345*
X1369*
Y298*
X1367Y286*
X1363Y275*
X1356Y265*
X1346Y257*
X1335Y252*
X1323Y250*
X1311Y251*
X1300Y255*
X1246Y201*
X1241Y197*
X1235Y194*
X1229Y193*
Y176*
X2478*
Y3169*
X2439*
Y1649*
X2438Y1642*
X2435Y1636*
X2431Y1631*
X2316Y1516*
X2311Y1512*
X2305Y1509*
X2299Y1508*
X1854*
X1847Y1509*
X1841Y1512*
X1836Y1516*
X1713Y1638*
X1610Y1639*
Y1618*
X1610*
Y1548*
X1533*
Y1514*
X1609*
Y1434*
X1609*
Y1364*
X1596*
Y1337*
X1600Y1328*
X1601Y1319*
X1600Y1309*
X1596Y1301*
X1590Y1294*
X1582Y1289*
X1573Y1286*
X1564*
X1555Y1289*
X1547Y1294*
X1541Y1301*
X1537Y1309*
X1536Y1319*
X1537Y1327*
X1540Y1335*
X1545Y1341*
Y1364*
X1532*
Y1434*
X1609*
Y1444*
X1532*
Y1514*
X1533*
Y1618*
X1610*
Y1629*
X1533*
Y1696*
X1429*
X1437Y1694*
X1444Y1689*
X1471Y1661*
X1475Y1656*
X1478Y1650*
X1479Y1644*
Y1549*
X1478Y1542*
X1475Y1536*
X1471Y1531*
X1446Y1506*
X1441Y1502*
X1435Y1499*
X1429Y1498*
X1324*
X1280Y1497*
Y1494*
X1308*
Y1449*
X1266*
X1259Y1446*
X1251*
X1244Y1449*
X1203*
Y1494*
X1230*
Y1499*
X1203*
Y1544*
X1239*
X1243Y1546*
X1240Y1549*
X1203*
Y1594*
X1244*
X1249Y1596*
X1255Y1596*
Y1599*
X1203*
Y1644*
X1308*
Y1599*
X1255*
Y1596*
X1261Y1596*
X1266Y1594*
X1308*
Y1594*
X1328*
X1336Y1599*
X1345Y1601*
X1355Y1601*
X1364Y1597*
X1371Y1592*
X1377Y1584*
X1380Y1576*
X1381Y1566*
X1379Y1557*
X1374Y1549*
X1418*
X1428Y1559*
Y1633*
X1415Y1646*
X1255*
X1249Y1647*
X1244Y1649*
X1203*
Y1694*
X1244*
X1248Y1695*
X1253Y1696*
X1248Y1697*
X1244Y1699*
X1203*
Y1744*
X1244*
X1247Y1745*
X1240Y1749*
X1203*
Y1794*
X1244*
X1251Y1796*
X1259*
X1266Y1794*
X1308*
Y1794*
X1343*
X1351Y1798*
X1359Y1801*
X1368*
X1377Y1798*
X1384Y1794*
X1393*
X1416Y1816*
X1421Y1820*
X1427Y1823*
X1434Y1824*
X1769*
X1775Y1823*
X1781Y1820*
X1786Y1816*
X1914Y1689*
X2253*
X2281Y1716*
X2241Y1756*
X2136*
Y1887*
X1715*
X1709Y1888*
X1703Y1890*
X1697Y1894*
X1578Y2013*
X1304*
Y2013*
X1263*
X1258Y2011*
X1254Y2010*
X1258Y2009*
X1263Y2008*
X1305*
Y1963*
X1277*
Y1920*
X1283Y1915*
X1287Y1909*
X1290Y1901*
X1291Y1894*
X1290Y1884*
X1286Y1876*
X1280Y1869*
X1272Y1864*
X1263Y1861*
X1254*
X1245Y1864*
X1237Y1869*
X1231Y1876*
X1227Y1884*
X1226Y1894*
X1227Y1899*
X1227Y1900*
Y1963*
X1198*
Y2008*
X1241*
X1245Y2009*
X1249Y2010*
X1245Y2011*
X1241Y2013*
X1199*
Y2058*
X1235*
X1242Y2062*
X1241Y2063*
X1199*
Y2108*
X1241*
X1246Y2110*
X1252Y2110*
Y2113*
X1199*
Y2158*
X1304*
Y2113*
X1252*
Y2110*
X2067*
X2073Y2109*
X2080Y2107*
X2085Y2103*
X2136Y2052*
Y2361*
X2241*
Y1756*
X2281Y1716*
X2298Y1734*
Y2438*
X2258Y2478*
X1984*
X1977Y2479*
X1971Y2482*
X1966Y2486*
X1641Y2811*
X1637Y2816*
X1634Y2822*
X1633Y2829*
Y3090*
X1624Y3097*
X1616Y3107*
X1611Y3117*
X1609Y3129*
X1609Y3141*
X1612Y3152*
X1618Y3163*
X1626Y3171*
X1636Y3178*
X1647Y3182*
X1659Y3184*
X1670Y3182*
X1681Y3178*
X1691Y3171*
X1699Y3163*
X1705Y3152*
X1708Y3141*
X1708Y3129*
X1706Y3117*
X1701Y3107*
X1693Y3097*
X1684Y3090*
Y2839*
X1994Y2529*
X2269*
X2275Y2528*
X2281Y2525*
X2286Y2521*
X2341Y2466*
X2345Y2461*
X2348Y2455*
X2349Y2449*
Y1724*
X2348Y1717*
X2345Y1711*
X2341Y1706*
X2281Y1646*
X2276Y1642*
X2270Y1639*
X2264Y1638*
X1904*
X1897Y1639*
X1891Y1642*
X1886Y1646*
X1758Y1773*
X1444*
X1421Y1751*
X1415Y1746*
X1566*
X1572Y1746*
X1578Y1743*
X1584Y1739*
X1591Y1731*
X1595Y1726*
X1598Y1719*
X1599Y1713*
X1598Y1699*
X1610*
Y1689*
X1724Y1689*
X1730Y1688*
X1736Y1685*
X1741Y1681*
X1864Y1559*
X2288*
X2388Y1659*
Y2732*
X2294*
X2293Y2718*
X2288Y2703*
X2281Y2690*
X2271Y2679*
X2258Y2670*
X2245Y2664*
X2230Y2661*
X2215*
X2201Y2664*
X2187Y2670*
X2175Y2679*
X2165Y2690*
X2157Y2703*
X2153Y2718*
X2151Y2732*
X2153Y2747*
X2157Y2761*
X2165Y2774*
X2175Y2786*
X2187Y2794*
X2201Y2800*
X2215Y2804*
X2230*
X2245Y2800*
X2258Y2794*
X2271Y2786*
X2281Y2774*
X2288Y2761*
X2293Y2747*
X2294Y2732*
X2388*
Y3158*
X2338Y3208*
X1819*
X1846Y3182*
X1852Y3183*
X1859Y3184*
X1871Y3182*
X1882Y3178*
X1892Y3171*
X1900Y3162*
X1905Y3151*
X1908Y3140*
Y3128*
X1905Y3116*
X1900Y3105*
X1892Y3096*
X1882Y3089*
X1871Y3085*
X1859Y3084*
X1847Y3085*
X1836Y3089*
X1827Y3095*
X1819Y3103*
X1813Y3113*
X1810Y3124*
X1809Y3135*
X1810Y3146*
X1771Y3185*
X1765Y3184*
X1759Y3184*
X1747Y3185*
X1735Y3189*
X1725Y3196*
X1717Y3205*
X1712Y3216*
X1709Y3228*
Y3240*
X1712Y3251*
X1717Y3262*
X1725Y3271*
X1735Y3278*
X1747Y3282*
X1759Y3284*
X1769Y3282*
X1779Y3279*
X1788Y3274*
X1796Y3267*
X1802Y3259*
X2349*
X2355Y3258*
X2361Y3255*
X2366Y3251*
X2431Y3186*
X2435Y3181*
X2438Y3175*
X2439Y3169*
X2478*
Y3352*
X028*
Y176*
G37*
X1602Y2060D02*
X1606Y2056D01*
X1726Y1937*
X2136*
Y1985*
X2131Y1987*
X2126Y1991*
X2057Y2060*
X1602*
G36*
X1606Y2056*
X1726Y1937*
X2136*
Y1985*
X2131Y1987*
X2126Y1991*
X2057Y2060*
X1602*
G37*
D02*
D15*
X253Y771D03*
X2223Y2732D03*
D02*
D16*
X1175Y2926D03*
D02*
D17*
X1081Y2681D03*
X1175D03*
X1270D03*
D02*
D18*
X1052Y1985D03*
Y2035D03*
Y2085D03*
Y2135D03*
X1055Y1471D03*
Y1521D03*
Y1621D03*
Y1671D03*
Y1721D03*
X1056Y1772D03*
X1252Y2035D03*
Y2085D03*
Y2135D03*
X1255Y1471D03*
Y1521D03*
Y1571D03*
Y1621D03*
Y1671D03*
Y1721D03*
Y1771D03*
D02*
D19*
X1055Y1571D03*
X1252Y1985D03*
D02*
D70*
X1039Y584D03*
Y759D03*
D02*
D71*
X1189Y1004D03*
X1224Y1074D03*
X1264Y1004D03*
X1531Y1001D03*
X1566Y1071D03*
X1606Y1001D03*
X1969Y554D03*
X2009Y484D03*
X2044Y554D03*
X2194Y549D03*
X2234Y479D03*
X2269Y549D03*
D02*
D20*
X491Y744D03*
X491Y664D03*
X561Y1519D03*
X561Y1439D03*
X772Y744D03*
X772Y663D03*
X792Y1604D03*
X792Y1523D03*
X797Y1384D03*
Y1899D03*
X797Y1303D03*
Y1818D03*
X802Y2129D03*
X802Y2048D03*
X1067Y1079D03*
X1067Y998D03*
X1571Y1479D03*
X1571Y1399D03*
X1572Y1664D03*
X1572Y1583D03*
X1597Y744D03*
X1597Y663D03*
X1732Y739D03*
X1732Y658D03*
D02*
D21*
X494Y321D03*
X632D03*
X770D03*
X907D03*
X1045D03*
X1183D03*
X1321D03*
X1458D03*
X1596D03*
X1734D03*
X1872D03*
X2010D03*
D02*
D22*
X1004Y2499D03*
X1084Y2499D03*
X1114Y2262D03*
X1194Y2262D03*
D02*
D23*
X2189Y1809D03*
Y1909D03*
Y2009D03*
Y2109D03*
Y2209D03*
Y2309D03*
D02*
D24*
X1266Y2494D03*
X1366Y2496D03*
D02*
D26*
X234Y1129D03*
Y1744D03*
X874Y2499D03*
X1069Y2349D03*
X1474Y2564D03*
X1904Y554D03*
D02*
D27*
X491Y664D02*
Y347D01*
X494Y344*
X494Y321*
X494Y864D02*
Y747D01*
X491Y744*
X564Y1639D02*
Y1544D01*
X554Y1534*
X561Y1519*
X769Y869D02*
Y749D01*
X772Y744*
X772Y663D02*
Y316D01*
X774Y314*
X770Y321*
X792Y1604D02*
Y1604D01*
X869*
X899Y1574*
X999*
X1055Y1571*
X792Y1523D02*
Y1391D01*
X799Y1384*
X797Y1384*
X619*
X569Y1434*
X561Y1439*
X797Y1303D02*
X233D01*
X099Y1169*
Y484*
X364Y219*
X1229*
X1304Y294*
X1324*
X1321Y321*
X797Y1303D02*
X813D01*
X979Y1469*
X1055Y1471*
X802Y2129D02*
X839D01*
X889Y2079*
Y2054*
X909Y2034*
X1052Y2035*
X802Y2048D02*
Y1904D01*
X797Y1899*
X894Y1569D02*
X979D01*
X1055Y1571*
X899Y1719D02*
Y1724D01*
X1055Y1721*
X1052Y1985D02*
X964D01*
Y1984*
X939*
X1052Y2085D02*
X940D01*
X939Y2084*
X1054Y2199D02*
Y2135D01*
X1052*
X1055Y1521D02*
Y1475D01*
X1054Y1474*
X1055Y1471*
Y1621D02*
X996D01*
X964Y1654*
X879*
X789Y1744*
X234*
X1055Y1671D02*
X1101D01*
X1134Y1639*
Y1184*
X1067Y1117*
Y1079*
X1055Y1721D02*
Y1724D01*
X899*
X802Y1820*
X797*
Y1818*
X1056Y1772D02*
X1005D01*
X879Y1899*
X797Y1899*
X1067Y1079D02*
X1219D01*
X1224Y1074*
X1069Y2349D02*
X1054Y2334D01*
Y2199*
X1114Y2262D02*
X1097D01*
X1054Y2219*
Y2199*
X1194Y2262D02*
Y2314D01*
X1264Y2384*
Y2494*
X1266Y2494*
X1194Y2262D02*
X1216D01*
X1249Y2229*
Y2139*
X1252Y2135*
Y1985D02*
Y1900D01*
X1259Y1894*
X1252Y2035D02*
Y2039D01*
X1589*
X1715Y1912*
X2189*
Y1909*
X1252Y2085D02*
X2067D01*
X2144Y2009*
X2189*
X1255Y1471D02*
Y1517D01*
X1254Y1519*
Y1524*
X1255Y1522*
Y1521*
Y1571D02*
Y1569D01*
X1349*
X1255Y1671D02*
X1426D01*
X1454Y1644*
Y1549*
X1429Y1524*
X1324*
X1255Y1521*
Y1721D02*
X1566D01*
X1574Y1714*
X1572Y1664*
X1255Y1771D02*
Y1769D01*
X1364*
X1270Y2681D02*
X1301D01*
X1369Y2614*
Y2499*
X1366Y2496*
X1359Y1119D02*
X1244D01*
X1224Y1099*
Y1074*
X1366Y2496D02*
X1376D01*
X1449Y2569*
X1469*
X1474Y2564*
X1566Y1071D02*
Y1081D01*
X1699Y1214*
Y1399*
X1566Y1071D02*
Y1074D01*
X1654*
X1732Y996*
Y739*
X1571Y1399D02*
Y1321D01*
X1569Y1319*
X1597Y744D02*
X1409D01*
X1374Y779*
X1597Y663D02*
Y326D01*
X1599Y324*
X1596Y321*
X1659Y3134D02*
Y2829D01*
X1984Y2504*
X2269*
X2324Y2449*
Y1724*
X2264Y1664*
X1904*
X1769Y1799*
X1434*
X1404Y1769*
X1364*
X1732Y658D02*
X1733D01*
X1734Y659*
X1734Y321*
X1759Y3234D02*
X2349D01*
X2414Y3169*
Y1649*
X2299Y1534*
X1854*
X1724Y1664*
X1572Y1664*
X1759Y3234D02*
X1859Y3134D01*
X1969Y554D02*
X1904D01*
X2009Y484D02*
X2224D01*
X2234Y474*
Y479*
X2044Y554D02*
Y549D01*
X2039*
Y679*
D02*
D28*
X494Y864D03*
X564Y1639D03*
X769Y869D03*
X894Y1569D03*
X899Y1719D03*
X939Y1984D03*
Y2084D03*
X1259Y1894D03*
X1349Y1569D03*
X1359Y1119D03*
X1364Y1769D03*
X1374Y779D03*
X1569Y1319D03*
X1699Y1399D03*
X2039Y679D03*
D02*
D29*
X2009Y484D02*
Y329D01*
X2010Y321*
D02*
D72*
X1004Y2499D02*
X874D01*
X874Y2499*
X1004Y2499D02*
Y2604D01*
X1044Y2644*
X1081Y2681*
X1039Y584D02*
Y314D01*
X1044Y309*
X1045Y321*
X1039Y759D02*
Y794D01*
X939Y894*
Y899*
X709Y1129*
X234*
D02*
D73*
X616Y321D02*
X567D01*
X616D02*
X567D01*
X632Y361D02*
Y410D01*
Y361D02*
Y410D01*
X647Y321D02*
X697D01*
X647D02*
X697D01*
X892D02*
X842D01*
X892D02*
X842D01*
X907Y361D02*
Y410D01*
Y361D02*
Y410D01*
X923Y321D02*
X972D01*
X923D02*
X972D01*
X1061Y998D02*
X1011D01*
X1061D02*
X1011D01*
X1067Y995D02*
Y946D01*
Y995D02*
Y946D01*
X1072Y998D02*
X1122D01*
X1072D02*
X1122D01*
X1084Y2493D02*
Y2444D01*
Y2493D02*
Y2444D01*
Y2505D02*
Y2554D01*
Y2505D02*
Y2554D01*
X1087Y2499D02*
X1136D01*
X1087D02*
X1136D01*
X1116Y2926D02*
X1067D01*
X1116D02*
X1067D01*
X1167Y321D02*
X1118D01*
X1167D02*
X1118D01*
X1175Y2906D02*
Y2857D01*
Y2906D02*
Y2857D01*
Y2946D02*
Y2995D01*
Y2946D02*
Y2995D01*
X1175Y2661D02*
Y2612D01*
Y2661D02*
Y2612D01*
Y2701D02*
Y2750D01*
Y2701D02*
Y2750D01*
X1183Y361D02*
Y410D01*
Y361D02*
Y410D01*
X1188Y1004D02*
X1139D01*
X1188D02*
X1139D01*
X1189Y1001D02*
Y951D01*
Y1001D02*
Y951D01*
X1194Y2256D02*
Y2206D01*
Y2256D02*
Y2206D01*
Y2267D02*
Y2317D01*
Y2267D02*
Y2317D01*
X1197Y2262D02*
X1246D01*
X1197D02*
X1246D01*
X1199Y321D02*
X1248D01*
X1199D02*
X1248D01*
X1231Y2135D02*
X1182D01*
X1231D02*
X1182D01*
X1234Y2926D02*
X1283D01*
X1234D02*
X1283D01*
X1235Y1621D02*
X1185D01*
X1235D02*
X1185D01*
X1252Y2125D02*
Y2175D01*
Y2125D02*
Y2175D01*
X1256Y2494D02*
X1206D01*
X1256D02*
X1206D01*
X1266Y2474D02*
Y2425D01*
Y2474D02*
Y2425D01*
Y2515D02*
Y2564D01*
Y2515D02*
Y2564D01*
X1272Y2135D02*
X1321D01*
X1272D02*
X1321D01*
X1275Y1621D02*
X1325D01*
X1275D02*
X1325D01*
X1443Y321D02*
X1393D01*
X1443D02*
X1393D01*
X1458Y282D02*
Y233D01*
Y282D02*
Y233D01*
Y361D02*
Y410D01*
Y361D02*
Y410D01*
X1474Y321D02*
X1524D01*
X1474D02*
X1524D01*
X1531Y1001D02*
X1481D01*
X1531D02*
X1481D01*
X1531Y998D02*
Y949D01*
Y998D02*
Y949D01*
X1565Y1479D02*
X1515D01*
X1565D02*
X1515D01*
X1566Y1583D02*
X1516D01*
X1566D02*
X1516D01*
X1576Y1479D02*
X1626D01*
X1576D02*
X1626D01*
X1577Y1583D02*
X1627D01*
X1577D02*
X1627D01*
X1856Y321D02*
X1807D01*
X1856D02*
X1807D01*
X1872Y282D02*
Y233D01*
Y282D02*
Y233D01*
Y361D02*
Y410D01*
Y361D02*
Y410D01*
X1888Y321D02*
X1937D01*
X1888D02*
X1937D01*
X2168Y2109D02*
X2119D01*
X2168D02*
X2119D01*
X2209D02*
X2258D01*
X2209D02*
X2258D01*
X2269Y551D02*
Y601D01*
Y551D02*
Y601D01*
X2269Y549D02*
X2318D01*
X2269D02*
X2318D01*
D02*
D75*
X1659Y3134D03*
X1759Y3234D03*
X1859Y3134D03*
X000Y000D02*
M02*
