%FSLAX23Y23*%
%MOIN*%
%ADD76C,0.00100*%
%ADD75C,0.00500*%
%ADD77C,0.00787*%
X000Y000D02*
D02*
D75*
X003Y147D02*
X2502D01*
Y3374*
X003*
Y147*
X401Y003D02*
X2105D01*
Y369*
X401*
Y003*
X463Y418D02*
Y551D01*
X522*
Y417*
X462*
X602Y418D02*
Y551D01*
X661*
Y417*
X601*
X742Y423D02*
Y555D01*
X801*
Y422*
X740*
X813Y1119D02*
Y1169D01*
X763*
Y1119*
X813Y1459D02*
Y1509D01*
X763*
Y1459*
X813Y1782D02*
Y1832D01*
X763*
Y1782*
X813Y2135D02*
Y2185D01*
X763*
Y2135*
X863Y1119D02*
Y1369D01*
X713*
Y1119*
X863*
Y1459D02*
Y1709D01*
X713*
Y1459*
X863*
Y1782D02*
Y2032D01*
X713*
Y1782*
X863*
Y2135D02*
Y2385D01*
X713*
Y2135*
X863*
X879Y419D02*
Y552D01*
X938*
Y418*
X878*
X1014Y415D02*
Y548D01*
X1073*
Y414*
X1013*
X1150Y416D02*
Y549D01*
X1209*
Y415*
X1149*
X1280Y414D02*
Y547D01*
X1339*
Y413*
X1279*
X1428Y415D02*
Y548D01*
X1487*
Y414*
X1427*
X1697Y1371D02*
Y1121D01*
X1847*
Y1371*
X1697*
X1698Y1707D02*
Y1457D01*
X1848*
Y1707*
X1698*
Y2387D02*
Y2137D01*
X1848*
Y2387*
X1698*
X1699Y2034D02*
Y1784D01*
X1849*
Y2034*
X1699*
X1747Y1371D02*
Y1321D01*
X1797*
Y1371*
X1748Y1707D02*
Y1657D01*
X1798*
Y1707*
X1748Y2387D02*
Y2337D01*
X1798*
Y2387*
X1749Y2034D02*
Y1984D01*
X1799*
Y2034*
X2268Y3543D02*
X220D01*
Y3065*
X2268*
Y3543*
D02*
D76*
X1709Y763D02*
X1708Y765D01*
X1706Y767*
X1704Y767*
X1701*
X1697*
Y757*
X1700*
X1704*
X1707Y759*
X1708Y761*
X1709Y763*
X1724Y737D02*
X1712D01*
X1702Y750*
X1697*
Y737*
X1687*
Y774*
X1704*
X1709Y774*
X1714Y773*
X1717Y769*
X1719Y767*
Y764*
X1718Y760*
X1717Y757*
X1714Y755*
X1711Y753*
X1724Y737*
X1755Y749D02*
X1735D01*
X1736Y746*
X1738Y744*
X1740Y743*
X1744Y742*
X1750Y743*
X1753Y745*
X1755*
Y738*
X1749Y737*
X1743Y736*
X1736Y737*
X1730Y740*
X1727Y744*
X1726Y751*
X1727Y757*
X1730Y762*
X1735Y765*
X1741Y766*
X1748Y766*
X1752Y762*
X1755Y758*
X1755Y752*
Y749*
X1746Y755D02*
X1744Y759D01*
X1743Y759*
X1741Y760*
X1737Y759*
X1736Y757*
X1735Y755*
X1746*
X1772Y737D02*
X1762D01*
Y776*
X1772*
Y737*
X1796Y744D02*
Y750D01*
X1792Y749*
X1790Y749*
X1788Y747*
X1787Y745*
Y744*
X1788Y743*
X1789Y742*
X1792*
X1794Y743*
X1796Y744*
Y740D02*
X1794Y738D01*
X1792Y737*
X1790Y736*
X1787*
X1784Y737*
X1780Y738*
X1778Y741*
X1778Y745*
X1778Y748*
X1779Y750*
X1783Y753*
X1789Y755*
X1796Y755*
X1795Y757*
X1794Y759*
X1792Y760*
X1789*
X1785Y759*
X1782Y759*
X1781Y758*
X1780*
Y765*
X1782*
X1785Y766*
X1791Y766*
X1798Y766*
X1802Y764*
X1805Y761*
X1806Y756*
Y737*
X1796*
Y740*
X1827Y747D02*
X1834Y766D01*
X1843*
X1828Y726*
X1818*
X1822Y737*
X1811Y766*
X1820*
X1827Y747*
X1899Y748D02*
X1898Y743D01*
X1894Y740*
X1890Y737*
X1887Y737*
X1883*
X1867*
Y774*
X1881*
X1885*
X1888Y774*
X1892Y773*
X1895Y770*
X1896Y766*
X1896Y763*
X1895Y761*
X1893Y759*
X1891Y757*
X1894Y756*
X1897Y754*
X1898Y752*
X1899Y748*
X1886Y764D02*
X1886Y766D01*
X1884Y767*
X1882Y767*
X1880*
X1877*
X1877*
Y759*
X1878*
X1882*
X1884Y760*
X1886Y761*
X1886Y764*
X1889Y749D02*
X1888Y751D01*
X1886Y752*
X1883Y753*
X1879*
X1877*
Y744*
X1877*
X1881*
X1883*
X1886Y744*
X1888Y746*
X1889Y749*
X1935Y751D02*
X1933Y745D01*
X1931Y740*
X1926Y737*
X1920Y736*
X1913Y737*
X1908Y740*
X1905Y745*
X1904Y751*
X1905Y757*
X1908Y762*
X1913Y765*
X1920Y766*
X1926Y765*
X1931Y762*
X1933Y757*
X1935Y751*
X1923Y744D02*
X1925Y747D01*
X1925Y749*
Y751*
X1925Y755*
X1923Y758*
X1921Y759*
X1920Y760*
X1917Y759*
X1915Y758*
X1914Y755*
X1913Y751*
X1914Y747*
X1915Y744*
X1917Y743*
X1920Y742*
X1921Y743*
X1923Y744*
X1972Y737D02*
X1961D01*
X1955Y745*
X1949Y737*
X1938*
X1949Y751*
X1938Y766*
X1949*
X1955Y757*
X1961Y766*
X1972*
X1961Y751*
X1972Y737*
X2025D02*
X1995D01*
Y743*
X2002Y748*
X2005Y750*
X2007Y753*
X2010Y755*
X2012Y758*
X2013Y760*
Y762*
X2012Y764*
X2011Y766*
X2009Y767*
X2007Y767*
X2002Y767*
X1997Y764*
X1996*
Y773*
X1999Y773*
X2001Y774*
X2008Y775*
X2015Y774*
X2019Y772*
X2022Y769*
X2023Y764*
X2022Y761*
X2021Y757*
X2019Y754*
X2016Y750*
X2011Y747*
X2009Y745*
X2008Y744*
X2025*
Y737*
X2061Y749D02*
X2060Y744D01*
X2057Y740*
X2052Y737*
X2044Y736*
X2041*
X2037Y737*
X2034Y737*
X2032Y738*
Y747*
X2033*
X2038Y744*
X2043Y744*
X2047*
X2049Y745*
X2051Y747*
X2051Y749*
X2051Y751*
X2049Y753*
X2046Y754*
X2042Y754*
X2038Y754*
X2034Y753*
X2033*
Y774*
X2060*
Y767*
X2042*
Y761*
X2044*
X2047*
X2052Y761*
X2056Y759*
X2060Y755*
X2061Y752*
Y749*
X2098Y755D02*
X2098Y747D01*
X2097Y744*
X2095Y741*
X2093Y738*
X2090Y737*
X2087Y736*
X2083*
X2079*
X2076Y737*
X2073Y738*
X2071Y741*
X2070Y744*
X2068Y747*
X2068Y751*
Y755*
Y760*
X2068Y764*
X2071Y770*
X2076Y774*
X2083Y775*
X2087Y774*
X2090Y774*
X2095Y770*
X2098Y764*
X2098Y755*
X2088D02*
Y761D01*
X2087Y765*
X2085Y767*
X2083Y768*
X2081Y767*
X2079Y765*
X2078Y761*
X2078Y755*
X2078Y750*
X2079Y746*
X2081Y744*
X2083Y743*
X2085Y744*
X2087Y746*
X2088Y750*
Y755*
X2141Y774D02*
X2127Y737D01*
X2116*
X2102Y774*
X2112*
X2122Y748*
X2131Y774*
X2141*
X2199Y737D02*
X2189D01*
X2186Y744*
X2172*
X2170Y737*
X2160*
X2173Y774*
X2185*
X2199Y737*
X2184Y751D02*
X2179Y764D01*
X2175Y751*
X2184*
X2221Y736D02*
X2213Y737D01*
X2210Y738*
X2207Y741*
X2205Y744*
X2203Y747*
X2202Y751*
X2202Y755*
X2202Y760*
X2203Y764*
X2207Y770*
X2213Y774*
X2217Y774*
X2221Y775*
X2226Y774*
X2229Y774*
X2232Y773*
X2235Y772*
Y762*
X2233*
X2231Y764*
X2229Y766*
X2226Y767*
X2223Y767*
X2219Y767*
X2215Y765*
X2213Y761*
X2212Y755*
X2213Y750*
X2216Y746*
X2219Y744*
X2223Y744*
X2226Y744*
X2230Y745*
X2232Y747*
X2233Y749*
X2235*
Y739*
X2232Y738*
X2229Y737*
X2226Y736*
X2221*
X2269Y776D02*
X2248Y728D01*
X2240*
X2260Y776*
X2269*
X2314Y755D02*
X2313Y750D01*
X2311Y746*
X2309Y742*
X2305Y740*
X2299Y737*
X2296Y737*
X2291*
X2278*
Y774*
X2292*
X2296*
X2300Y774*
X2306Y771*
X2309Y769*
X2311Y765*
X2313Y761*
X2314Y755*
X2304D02*
Y759D01*
X2303Y762*
X2301Y764*
X2298Y766*
X2295Y767*
X2293Y767*
X2291*
X2288*
Y744*
X2291*
X2294*
X2296*
X2299Y745*
X2301Y747*
X2303Y749*
X2304Y752*
Y755*
X2338Y736D02*
X2330Y737D01*
X2327Y738*
X2325Y741*
X2322Y744*
X2320Y747*
X2320Y751*
X2319Y755*
X2320Y760*
X2320Y764*
X2324Y770*
X2330Y774*
X2334Y774*
X2338Y775*
X2343Y774*
X2346Y774*
X2349Y773*
X2352Y772*
Y762*
X2350*
X2349Y764*
X2346Y766*
X2344Y767*
X2340Y767*
X2336Y767*
X2332Y765*
X2330Y761*
X2329Y755*
X2330Y750*
X2333Y746*
X2336Y744*
X2340Y744*
X2344Y744*
X2347Y745*
X2349Y747*
X2350Y749*
X2352*
Y739*
X2349Y738*
X2346Y737*
X2343Y736*
X2338*
X1818Y726D02*
X1828D01*
X1818Y727D02*
X1828D01*
X1818Y728D02*
X1828D01*
X1819Y729D02*
X1829D01*
X2240D02*
X2249D01*
X1819Y730D02*
X1829D01*
X2241D02*
X2249D01*
X1819Y731D02*
X1829D01*
X2241D02*
X2249D01*
X1820Y732D02*
X1830D01*
X2242D02*
X2250D01*
X1820Y732D02*
X1830D01*
X2242D02*
X2250D01*
X1821Y733D02*
X1831D01*
X2242D02*
X2250D01*
X1821Y734D02*
X1831D01*
X2243D02*
X2251D01*
X1821Y735D02*
X1831D01*
X2243D02*
X2251D01*
X1740Y736D02*
X1745D01*
X1786D02*
X1790D01*
X1822D02*
X1832D01*
X1918D02*
X1921D01*
X2039D02*
X2047D01*
X2078D02*
X2088D01*
X2220D02*
X2226D01*
X2243D02*
X2252D01*
X2337D02*
X2343D01*
X1687Y737D02*
X1697D01*
X1711D02*
X1723D01*
X1735D02*
X1750D01*
X1762D02*
X1772D01*
X1783D02*
X1792D01*
X1796D02*
X1806D01*
X1822D02*
X1832D01*
X1867D02*
X1890D01*
X1913D02*
X1925D01*
X1938D02*
X1949D01*
X1961D02*
X1971D01*
X1995D02*
X2025D01*
X2035D02*
X2053D01*
X2076D02*
X2090D01*
X2116D02*
X2127D01*
X2160D02*
X2170D01*
X2188D02*
X2198D01*
X2214D02*
X2229D01*
X2244D02*
X2252D01*
X2278D02*
X2299D01*
X2331D02*
X2346D01*
X1687Y738D02*
X1697D01*
X1711D02*
X1723D01*
X1733D02*
X1753D01*
X1762D02*
X1772D01*
X1781D02*
X1794D01*
X1796D02*
X1806D01*
X1821D02*
X1832D01*
X1867D02*
X1891D01*
X1911D02*
X1928D01*
X1939D02*
X1950D01*
X1960D02*
X1971D01*
X1995D02*
X2025D01*
X2033D02*
X2054D01*
X2074D02*
X2092D01*
X2116D02*
X2127D01*
X2160D02*
X2170D01*
X2188D02*
X2198D01*
X2211D02*
X2232D01*
X2244D02*
X2252D01*
X2278D02*
X2301D01*
X2328D02*
X2350D01*
X1687Y739D02*
X1697D01*
X1710D02*
X1722D01*
X1731D02*
X1755D01*
X1762D02*
X1772D01*
X1780D02*
X1795D01*
X1796D02*
X1806D01*
X1821D02*
X1833D01*
X1867D02*
X1893D01*
X1909D02*
X1929D01*
X1940D02*
X1950D01*
X1959D02*
X1970D01*
X1995D02*
X2025D01*
X2032D02*
X2056D01*
X2073D02*
X2093D01*
X2115D02*
X2128D01*
X2160D02*
X2170D01*
X2188D02*
X2198D01*
X2209D02*
X2234D01*
X2245D02*
X2253D01*
X2278D02*
X2303D01*
X2327D02*
X2351D01*
X1687Y740D02*
X1697D01*
X1709D02*
X1721D01*
X1730D02*
X1755D01*
X1762D02*
X1772D01*
X1779D02*
X1806D01*
X1821D02*
X1833D01*
X1867D02*
X1895D01*
X1908D02*
X1931D01*
X1940D02*
X1951D01*
X1959D02*
X1969D01*
X1995D02*
X2025D01*
X2032D02*
X2057D01*
X2072D02*
X2094D01*
X2115D02*
X2128D01*
X2161D02*
X2171D01*
X2187D02*
X2197D01*
X2209D02*
X2235D01*
X2245D02*
X2253D01*
X2278D02*
X2305D01*
X2326D02*
X2352D01*
X1687Y741D02*
X1697D01*
X1709D02*
X1720D01*
X1729D02*
X1755D01*
X1762D02*
X1772D01*
X1779D02*
X1806D01*
X1820D02*
X1834D01*
X1867D02*
X1896D01*
X1907D02*
X1931D01*
X1941D02*
X1952D01*
X1958D02*
X1969D01*
X1995D02*
X2025D01*
X2032D02*
X2058D01*
X2071D02*
X2095D01*
X2115D02*
X2128D01*
X2161D02*
X2171D01*
X2187D02*
X2197D01*
X2208D02*
X2235D01*
X2245D02*
X2254D01*
X2278D02*
X2307D01*
X2325D02*
X2352D01*
X1687Y742D02*
X1697D01*
X1708D02*
X1720D01*
X1728D02*
X1755D01*
X1762D02*
X1772D01*
X1778D02*
X1806D01*
X1820D02*
X1834D01*
X1867D02*
X1896D01*
X1907D02*
X1932D01*
X1942D02*
X1952D01*
X1957D02*
X1968D01*
X1995D02*
X2025D01*
X2032D02*
X2058D01*
X2071D02*
X2095D01*
X2114D02*
X2129D01*
X2161D02*
X2171D01*
X2187D02*
X2197D01*
X2207D02*
X2235D01*
X2246D02*
X2254D01*
X2278D02*
X2308D01*
X2324D02*
X2352D01*
X1687Y743D02*
X1697D01*
X1707D02*
X1719D01*
X1728D02*
X1741D01*
X1748D02*
X1755D01*
X1762D02*
X1772D01*
X1778D02*
X1788D01*
X1794D02*
X1806D01*
X1820D02*
X1834D01*
X1867D02*
X1897D01*
X1906D02*
X1918D01*
X1921D02*
X1932D01*
X1943D02*
X1953D01*
X1957D02*
X1967D01*
X1995D02*
X2025D01*
X2032D02*
X2059D01*
X2070D02*
X2096D01*
X2114D02*
X2129D01*
X2162D02*
X2172D01*
X2187D02*
X2196D01*
X2206D02*
X2235D01*
X2246D02*
X2254D01*
X2278D02*
X2309D01*
X2323D02*
X2352D01*
X1687Y744D02*
X1697D01*
X1707D02*
X1718D01*
X1727D02*
X1738D01*
X1751D02*
X1755D01*
X1762D02*
X1772D01*
X1778D02*
X1788D01*
X1795D02*
X1806D01*
X1819D02*
X1835D01*
X1867D02*
X1877D01*
X1884D02*
X1898D01*
X1906D02*
X1916D01*
X1923D02*
X1933D01*
X1943D02*
X1954D01*
X1956D02*
X1966D01*
X1996D02*
X2025D01*
X2032D02*
X2042D01*
X2047D02*
X2060D01*
X2069D02*
X2081D01*
X2085D02*
X2097D01*
X2114D02*
X2129D01*
X2162D02*
X2172D01*
X2186D02*
X2196D01*
X2205D02*
X2222D01*
X2224D02*
X2235D01*
X2247D02*
X2255D01*
X2278D02*
X2288D01*
X2296D02*
X2310D01*
X2322D02*
X2339D01*
X2341D02*
X2352D01*
X1687Y745D02*
X1697D01*
X1706D02*
X1718D01*
X1727D02*
X1737D01*
X1752D02*
X1755D01*
X1762D02*
X1772D01*
X1778D02*
X1787D01*
X1796D02*
X1806D01*
X1819D02*
X1835D01*
X1867D02*
X1877D01*
X1887D02*
X1898D01*
X1905D02*
X1915D01*
X1924D02*
X1933D01*
X1944D02*
X1954D01*
X1955D02*
X1966D01*
X1998D02*
X2009D01*
X2032D02*
X2037D01*
X2048D02*
X2060D01*
X2069D02*
X2080D01*
X2086D02*
X2097D01*
X2113D02*
X2130D01*
X2163D02*
X2196D01*
X2204D02*
X2218D01*
X2228D02*
X2235D01*
X2247D02*
X2255D01*
X2278D02*
X2288D01*
X2298D02*
X2310D01*
X2321D02*
X2335D01*
X2345D02*
X2352D01*
X1687Y746D02*
X1697D01*
X1705D02*
X1717D01*
X1727D02*
X1736D01*
X1762D02*
X1772D01*
X1778D02*
X1787D01*
X1796D02*
X1806D01*
X1818D02*
X1835D01*
X1867D02*
X1877D01*
X1888D02*
X1898D01*
X1905D02*
X1914D01*
X1924D02*
X1934D01*
X1945D02*
X1965D01*
X1999D02*
X2010D01*
X2032D02*
X2035D01*
X2049D02*
X2060D01*
X2069D02*
X2079D01*
X2087D02*
X2097D01*
X2113D02*
X2130D01*
X2163D02*
X2195D01*
X2204D02*
X2216D01*
X2230D02*
X2235D01*
X2247D02*
X2256D01*
X2278D02*
X2288D01*
X2300D02*
X2311D01*
X2321D02*
X2334D01*
X2347D02*
X2352D01*
X1687Y747D02*
X1697D01*
X1705D02*
X1716D01*
X1726D02*
X1736D01*
X1762D02*
X1772D01*
X1778D02*
X1788D01*
X1796D02*
X1806D01*
X1818D02*
X1836D01*
X1867D02*
X1877D01*
X1888D02*
X1898D01*
X1905D02*
X1914D01*
X1925D02*
X1934D01*
X1946D02*
X1964D01*
X2000D02*
X2011D01*
X2032D02*
X2033D01*
X2050D02*
X2061D01*
X2069D02*
X2079D01*
X2087D02*
X2098D01*
X2112D02*
X2130D01*
X2163D02*
X2195D01*
X2203D02*
X2215D01*
X2231D02*
X2235D01*
X2248D02*
X2256D01*
X2278D02*
X2288D01*
X2301D02*
X2312D01*
X2320D02*
X2333D01*
X2348D02*
X2352D01*
X1687Y747D02*
X1697D01*
X1704D02*
X1715D01*
X1726D02*
X1735D01*
X1762D02*
X1772D01*
X1778D02*
X1788D01*
X1796D02*
X1806D01*
X1818D02*
X1827D01*
X1827D02*
X1836D01*
X1867D02*
X1877D01*
X1888D02*
X1899D01*
X1905D02*
X1914D01*
X1925D02*
X1934D01*
X1946D02*
X1963D01*
X2001D02*
X2012D01*
X2051D02*
X2061D01*
X2068D02*
X2079D01*
X2088D02*
X2098D01*
X2112D02*
X2131D01*
X2164D02*
X2195D01*
X2203D02*
X2215D01*
X2232D02*
X2235D01*
X2248D02*
X2256D01*
X2278D02*
X2288D01*
X2302D02*
X2312D01*
X2320D02*
X2332D01*
X2349D02*
X2352D01*
X1687Y748D02*
X1697D01*
X1703D02*
X1715D01*
X1726D02*
X1735D01*
X1762D02*
X1772D01*
X1779D02*
X1790D01*
X1796D02*
X1806D01*
X1817D02*
X1826D01*
X1828D02*
X1837D01*
X1867D02*
X1877D01*
X1889D02*
X1899D01*
X1904D02*
X1914D01*
X1925D02*
X1934D01*
X1947D02*
X1963D01*
X2003D02*
X2013D01*
X2051D02*
X2061D01*
X2068D02*
X2079D01*
X2088D02*
X2098D01*
X2112D02*
X2122D01*
X2122D02*
X2131D01*
X2164D02*
X2194D01*
X2203D02*
X2214D01*
X2233D02*
X2235D01*
X2249D02*
X2257D01*
X2278D02*
X2288D01*
X2302D02*
X2312D01*
X2320D02*
X2331D01*
X2350D02*
X2352D01*
X1687Y749D02*
X1697D01*
X1702D02*
X1714D01*
X1726D02*
X1755D01*
X1762D02*
X1772D01*
X1779D02*
X1793D01*
X1796D02*
X1806D01*
X1817D02*
X1826D01*
X1828D02*
X1837D01*
X1867D02*
X1877D01*
X1889D02*
X1899D01*
X1904D02*
X1914D01*
X1925D02*
X1934D01*
X1948D02*
X1962D01*
X2003D02*
X2014D01*
X2051D02*
X2061D01*
X2068D02*
X2078D01*
X2088D02*
X2098D01*
X2111D02*
X2121D01*
X2122D02*
X2131D01*
X2164D02*
X2194D01*
X2203D02*
X2213D01*
X2249D02*
X2257D01*
X2278D02*
X2288D01*
X2303D02*
X2313D01*
X2320D02*
X2331D01*
X1687Y750D02*
X1697D01*
X1702D02*
X1713D01*
X1726D02*
X1755D01*
X1762D02*
X1772D01*
X1780D02*
X1806D01*
X1817D02*
X1826D01*
X1828D02*
X1837D01*
X1867D02*
X1877D01*
X1888D02*
X1898D01*
X1904D02*
X1913D01*
X1925D02*
X1935D01*
X1949D02*
X1961D01*
X2004D02*
X2016D01*
X2051D02*
X2061D01*
X2068D02*
X2078D01*
X2088D02*
X2098D01*
X2111D02*
X2121D01*
X2123D02*
X2132D01*
X2165D02*
X2194D01*
X2203D02*
X2213D01*
X2249D02*
X2258D01*
X2278D02*
X2288D01*
X2303D02*
X2313D01*
X2320D02*
X2330D01*
X1687Y751D02*
X1712D01*
X1726D02*
X1755D01*
X1762D02*
X1772D01*
X1781D02*
X1806D01*
X1816D02*
X1825D01*
X1829D02*
X1838D01*
X1867D02*
X1877D01*
X1888D02*
X1898D01*
X1904D02*
X1913D01*
X1925D02*
X1935D01*
X1949D02*
X1961D01*
X2005D02*
X2017D01*
X2051D02*
X2061D01*
X2068D02*
X2078D01*
X2088D02*
X2098D01*
X2111D02*
X2121D01*
X2123D02*
X2132D01*
X2165D02*
X2175D01*
X2183D02*
X2193D01*
X2202D02*
X2213D01*
X2250D02*
X2258D01*
X2278D02*
X2288D01*
X2304D02*
X2313D01*
X2320D02*
X2330D01*
X1687Y752D02*
X1712D01*
X1726D02*
X1755D01*
X1762D02*
X1772D01*
X1782D02*
X1806D01*
X1816D02*
X1825D01*
X1829D02*
X1838D01*
X1867D02*
X1877D01*
X1886D02*
X1898D01*
X1904D02*
X1913D01*
X1925D02*
X1934D01*
X1948D02*
X1961D01*
X2006D02*
X2018D01*
X2050D02*
X2061D01*
X2068D02*
X2078D01*
X2088D02*
X2098D01*
X2110D02*
X2120D01*
X2123D02*
X2133D01*
X2165D02*
X2175D01*
X2183D02*
X2193D01*
X2202D02*
X2213D01*
X2250D02*
X2258D01*
X2278D02*
X2288D01*
X2304D02*
X2313D01*
X2319D02*
X2330D01*
X1687Y753D02*
X1711D01*
X1726D02*
X1755D01*
X1762D02*
X1772D01*
X1783D02*
X1806D01*
X1816D02*
X1825D01*
X1829D02*
X1838D01*
X1867D02*
X1897D01*
X1904D02*
X1914D01*
X1925D02*
X1934D01*
X1948D02*
X1962D01*
X2007D02*
X2019D01*
X2033D02*
X2035D01*
X2049D02*
X2061D01*
X2068D02*
X2078D01*
X2088D02*
X2098D01*
X2110D02*
X2120D01*
X2123D02*
X2133D01*
X2166D02*
X2175D01*
X2183D02*
X2193D01*
X2202D02*
X2212D01*
X2251D02*
X2259D01*
X2278D02*
X2288D01*
X2304D02*
X2314D01*
X2319D02*
X2330D01*
X1687Y754D02*
X1713D01*
X1726D02*
X1755D01*
X1762D02*
X1772D01*
X1786D02*
X1806D01*
X1815D02*
X1824D01*
X1830D02*
X1839D01*
X1867D02*
X1897D01*
X1904D02*
X1914D01*
X1925D02*
X1934D01*
X1947D02*
X1963D01*
X2008D02*
X2019D01*
X2033D02*
X2041D01*
X2044D02*
X2060D01*
X2068D02*
X2078D01*
X2088D02*
X2098D01*
X2110D02*
X2120D01*
X2124D02*
X2133D01*
X2166D02*
X2176D01*
X2183D02*
X2192D01*
X2202D02*
X2212D01*
X2251D02*
X2259D01*
X2278D02*
X2288D01*
X2304D02*
X2314D01*
X2319D02*
X2329D01*
X1687Y755D02*
X1714D01*
X1726D02*
X1735D01*
X1746D02*
X1755D01*
X1762D02*
X1772D01*
X1789D02*
X1806D01*
X1815D02*
X1824D01*
X1830D02*
X1839D01*
X1867D02*
X1896D01*
X1905D02*
X1914D01*
X1925D02*
X1934D01*
X1946D02*
X1964D01*
X2009D02*
X2020D01*
X2033D02*
X2060D01*
X2068D02*
X2078D01*
X2088D02*
X2098D01*
X2109D02*
X2119D01*
X2124D02*
X2134D01*
X2166D02*
X2176D01*
X2182D02*
X2192D01*
X2202D02*
X2212D01*
X2251D02*
X2260D01*
X2278D02*
X2288D01*
X2304D02*
X2314D01*
X2319D02*
X2329D01*
X1687Y756D02*
X1715D01*
X1727D02*
X1735D01*
X1745D02*
X1755D01*
X1762D02*
X1772D01*
X1796D02*
X1806D01*
X1814D02*
X1824D01*
X1830D02*
X1840D01*
X1867D02*
X1895D01*
X1905D02*
X1914D01*
X1924D02*
X1934D01*
X1945D02*
X1964D01*
X2010D02*
X2020D01*
X2033D02*
X2059D01*
X2068D02*
X2078D01*
X2088D02*
X2098D01*
X2109D02*
X2119D01*
X2124D02*
X2134D01*
X2167D02*
X2176D01*
X2182D02*
X2192D01*
X2202D02*
X2212D01*
X2252D02*
X2260D01*
X2278D02*
X2288D01*
X2304D02*
X2314D01*
X2319D02*
X2329D01*
X1687Y757D02*
X1716D01*
X1727D02*
X1736D01*
X1745D02*
X1755D01*
X1762D02*
X1772D01*
X1796D02*
X1805D01*
X1814D02*
X1823D01*
X1831D02*
X1840D01*
X1867D02*
X1892D01*
X1905D02*
X1915D01*
X1924D02*
X1934D01*
X1945D02*
X1955D01*
X1955D02*
X1965D01*
X2011D02*
X2021D01*
X2033D02*
X2058D01*
X2068D02*
X2078D01*
X2088D02*
X2098D01*
X2109D02*
X2119D01*
X2125D02*
X2134D01*
X2167D02*
X2177D01*
X2182D02*
X2191D01*
X2202D02*
X2212D01*
X2252D02*
X2260D01*
X2278D02*
X2288D01*
X2304D02*
X2314D01*
X2319D02*
X2329D01*
X1687Y758D02*
X1697D01*
X1705D02*
X1717D01*
X1727D02*
X1736D01*
X1745D02*
X1755D01*
X1762D02*
X1772D01*
X1795D02*
X1805D01*
X1814D02*
X1823D01*
X1831D02*
X1840D01*
X1867D02*
X1891D01*
X1905D02*
X1915D01*
X1923D02*
X1933D01*
X1944D02*
X1954D01*
X1956D02*
X1966D01*
X2011D02*
X2021D01*
X2033D02*
X2057D01*
X2068D02*
X2078D01*
X2088D02*
X2098D01*
X2108D02*
X2118D01*
X2125D02*
X2135D01*
X2167D02*
X2177D01*
X2181D02*
X2191D01*
X2202D02*
X2212D01*
X2253D02*
X2261D01*
X2278D02*
X2288D01*
X2304D02*
X2314D01*
X2319D02*
X2330D01*
X1687Y759D02*
X1697D01*
X1707D02*
X1717D01*
X1728D02*
X1737D01*
X1744D02*
X1754D01*
X1762D02*
X1772D01*
X1780D02*
X1782D01*
X1794D02*
X1805D01*
X1813D02*
X1823D01*
X1831D02*
X1841D01*
X1867D02*
X1893D01*
X1906D02*
X1916D01*
X1922D02*
X1933D01*
X1943D02*
X1953D01*
X1956D02*
X1966D01*
X2012D02*
X2022D01*
X2033D02*
X2056D01*
X2068D02*
X2078D01*
X2088D02*
X2098D01*
X2108D02*
X2118D01*
X2125D02*
X2135D01*
X2168D02*
X2177D01*
X2181D02*
X2191D01*
X2202D02*
X2213D01*
X2253D02*
X2261D01*
X2278D02*
X2288D01*
X2304D02*
X2314D01*
X2319D02*
X2330D01*
X1687Y760D02*
X1697D01*
X1707D02*
X1718D01*
X1728D02*
X1740D01*
X1742D02*
X1754D01*
X1762D02*
X1772D01*
X1780D02*
X1787D01*
X1793D02*
X1805D01*
X1813D02*
X1822D01*
X1832D02*
X1841D01*
X1867D02*
X1877D01*
X1883D02*
X1894D01*
X1906D02*
X1918D01*
X1920D02*
X1932D01*
X1943D02*
X1953D01*
X1957D02*
X1967D01*
X2013D02*
X2022D01*
X2033D02*
X2054D01*
X2068D02*
X2078D01*
X2088D02*
X2098D01*
X2108D02*
X2118D01*
X2126D02*
X2135D01*
X2168D02*
X2178D01*
X2181D02*
X2190D01*
X2202D02*
X2213D01*
X2253D02*
X2262D01*
X2278D02*
X2288D01*
X2303D02*
X2313D01*
X2320D02*
X2330D01*
X1687Y761D02*
X1697D01*
X1708D02*
X1718D01*
X1729D02*
X1753D01*
X1762D02*
X1772D01*
X1780D02*
X1805D01*
X1813D02*
X1822D01*
X1832D02*
X1841D01*
X1867D02*
X1877D01*
X1885D02*
X1895D01*
X1907D02*
X1932D01*
X1942D02*
X1952D01*
X1958D02*
X1968D01*
X2013D02*
X2022D01*
X2033D02*
X2052D01*
X2068D02*
X2078D01*
X2088D02*
X2098D01*
X2107D02*
X2117D01*
X2126D02*
X2136D01*
X2168D02*
X2178D01*
X2180D02*
X2190D01*
X2203D02*
X2213D01*
X2254D02*
X2262D01*
X2278D02*
X2288D01*
X2303D02*
X2313D01*
X2320D02*
X2330D01*
X1687Y761D02*
X1697D01*
X1708D02*
X1718D01*
X1730D02*
X1753D01*
X1762D02*
X1772D01*
X1780D02*
X1804D01*
X1812D02*
X1822D01*
X1832D02*
X1842D01*
X1867D02*
X1877D01*
X1886D02*
X1895D01*
X1908D02*
X1931D01*
X1941D02*
X1951D01*
X1958D02*
X1969D01*
X2013D02*
X2022D01*
X2033D02*
X2042D01*
X2068D02*
X2078D01*
X2088D02*
X2098D01*
X2107D02*
X2117D01*
X2126D02*
X2136D01*
X2169D02*
X2178D01*
X2180D02*
X2190D01*
X2203D02*
X2213D01*
X2254D02*
X2262D01*
X2278D02*
X2288D01*
X2303D02*
X2313D01*
X2320D02*
X2330D01*
X1687Y762D02*
X1697D01*
X1708D02*
X1718D01*
X1731D02*
X1752D01*
X1762D02*
X1772D01*
X1780D02*
X1803D01*
X1812D02*
X1821D01*
X1833D02*
X1842D01*
X1867D02*
X1877D01*
X1886D02*
X1895D01*
X1908D02*
X1930D01*
X1940D02*
X1951D01*
X1959D02*
X1969D01*
X2013D02*
X2023D01*
X2033D02*
X2042D01*
X2068D02*
X2079D01*
X2088D02*
X2098D01*
X2107D02*
X2117D01*
X2127D02*
X2136D01*
X2169D02*
X2178D01*
X2180D02*
X2189D01*
X2203D02*
X2214D01*
X2233D02*
X2235D01*
X2255D02*
X2263D01*
X2278D02*
X2288D01*
X2302D02*
X2312D01*
X2320D02*
X2331D01*
X2350D02*
X2352D01*
X1687Y763D02*
X1697D01*
X1708D02*
X1719D01*
X1732D02*
X1751D01*
X1762D02*
X1772D01*
X1780D02*
X1803D01*
X1811D02*
X1821D01*
X1833D02*
X1842D01*
X1867D02*
X1877D01*
X1886D02*
X1896D01*
X1910D02*
X1928D01*
X1940D02*
X1950D01*
X1960D02*
X1970D01*
X2012D02*
X2023D01*
X2033D02*
X2042D01*
X2068D02*
X2079D01*
X2088D02*
X2098D01*
X2106D02*
X2116D01*
X2127D02*
X2137D01*
X2169D02*
X2179D01*
X2179D02*
X2189D01*
X2203D02*
X2214D01*
X2232D02*
X2235D01*
X2255D02*
X2263D01*
X2278D02*
X2288D01*
X2301D02*
X2312D01*
X2320D02*
X2331D01*
X2349D02*
X2352D01*
X1687Y764D02*
X1697D01*
X1708D02*
X1719D01*
X1734D02*
X1749D01*
X1762D02*
X1772D01*
X1780D02*
X1801D01*
X1811D02*
X1821D01*
X1833D02*
X1843D01*
X1867D02*
X1877D01*
X1886D02*
X1896D01*
X1912D02*
X1927D01*
X1939D02*
X1949D01*
X1960D02*
X1971D01*
X1996D02*
X1997D01*
X2012D02*
X2023D01*
X2033D02*
X2042D01*
X2069D02*
X2079D01*
X2087D02*
X2098D01*
X2106D02*
X2116D01*
X2127D02*
X2137D01*
X2170D02*
X2188D01*
X2203D02*
X2215D01*
X2231D02*
X2235D01*
X2255D02*
X2264D01*
X2278D02*
X2288D01*
X2301D02*
X2312D01*
X2321D02*
X2332D01*
X2348D02*
X2352D01*
X1687Y765D02*
X1697D01*
X1708D02*
X1719D01*
X1737D02*
X1748D01*
X1762D02*
X1772D01*
X1783D02*
X1799D01*
X1811D02*
X1820D01*
X1834D02*
X1843D01*
X1867D02*
X1877D01*
X1886D02*
X1896D01*
X1914D02*
X1924D01*
X1938D02*
X1949D01*
X1961D02*
X1972D01*
X1996D02*
X1999D01*
X2012D02*
X2023D01*
X2033D02*
X2042D01*
X2069D02*
X2079D01*
X2087D02*
X2097D01*
X2106D02*
X2116D01*
X2128D02*
X2137D01*
X2170D02*
X2188D01*
X2204D02*
X2216D01*
X2229D02*
X2235D01*
X2256D02*
X2264D01*
X2278D02*
X2288D01*
X2299D02*
X2311D01*
X2321D02*
X2333D01*
X2346D02*
X2352D01*
X1687Y766D02*
X1697D01*
X1707D02*
X1719D01*
X1741D02*
X1742D01*
X1762D02*
X1772D01*
X1791D02*
X1791D01*
X1867D02*
X1877D01*
X1885D02*
X1896D01*
X1919D02*
X1920D01*
X1996D02*
X2001D01*
X2011D02*
X2023D01*
X2033D02*
X2042D01*
X2069D02*
X2080D01*
X2086D02*
X2097D01*
X2105D02*
X2115D01*
X2128D02*
X2138D01*
X2170D02*
X2188D01*
X2205D02*
X2217D01*
X2228D02*
X2235D01*
X2256D02*
X2264D01*
X2278D02*
X2288D01*
X2298D02*
X2311D01*
X2322D02*
X2335D01*
X2345D02*
X2352D01*
X1687Y767D02*
X1697D01*
X1705D02*
X1718D01*
X1762D02*
X1772D01*
X1867D02*
X1877D01*
X1883D02*
X1896D01*
X1996D02*
X2004D01*
X2008D02*
X2022D01*
X2033D02*
X2060D01*
X2070D02*
X2081D01*
X2086D02*
X2096D01*
X2105D02*
X2115D01*
X2128D02*
X2138D01*
X2171D02*
X2187D01*
X2205D02*
X2220D01*
X2225D02*
X2235D01*
X2257D02*
X2265D01*
X2278D02*
X2288D01*
X2294D02*
X2310D01*
X2322D02*
X2338D01*
X2342D02*
X2352D01*
X1687Y768D02*
X1718D01*
X1762D02*
X1772D01*
X1867D02*
X1896D01*
X1996D02*
X2022D01*
X2033D02*
X2060D01*
X2070D02*
X2083D01*
X2083D02*
X2096D01*
X2105D02*
X2115D01*
X2128D02*
X2138D01*
X2171D02*
X2187D01*
X2206D02*
X2235D01*
X2257D02*
X2265D01*
X2278D02*
X2309D01*
X2323D02*
X2352D01*
X1687Y769D02*
X1717D01*
X1762D02*
X1772D01*
X1867D02*
X1895D01*
X1996D02*
X2022D01*
X2033D02*
X2060D01*
X2071D02*
X2095D01*
X2104D02*
X2114D01*
X2129D02*
X2139D01*
X2171D02*
X2187D01*
X2206D02*
X2235D01*
X2257D02*
X2265D01*
X2278D02*
X2309D01*
X2323D02*
X2352D01*
X1687Y770D02*
X1716D01*
X1762D02*
X1772D01*
X1867D02*
X1895D01*
X1996D02*
X2021D01*
X2033D02*
X2060D01*
X2071D02*
X2095D01*
X2104D02*
X2114D01*
X2129D02*
X2139D01*
X2172D02*
X2186D01*
X2207D02*
X2235D01*
X2258D02*
X2266D01*
X2278D02*
X2307D01*
X2324D02*
X2352D01*
X1687Y771D02*
X1716D01*
X1762D02*
X1772D01*
X1867D02*
X1894D01*
X1996D02*
X2020D01*
X2033D02*
X2060D01*
X2072D02*
X2094D01*
X2104D02*
X2114D01*
X2129D02*
X2139D01*
X2172D02*
X2186D01*
X2208D02*
X2235D01*
X2258D02*
X2266D01*
X2278D02*
X2306D01*
X2325D02*
X2352D01*
X1687Y772D02*
X1715D01*
X1762D02*
X1772D01*
X1867D02*
X1893D01*
X1996D02*
X2019D01*
X2033D02*
X2060D01*
X2074D02*
X2093D01*
X2103D02*
X2113D01*
X2130D02*
X2140D01*
X2172D02*
X2186D01*
X2210D02*
X2235D01*
X2258D02*
X2267D01*
X2278D02*
X2304D01*
X2327D02*
X2352D01*
X1687Y773D02*
X1713D01*
X1762D02*
X1772D01*
X1867D02*
X1891D01*
X1997D02*
X2018D01*
X2033D02*
X2060D01*
X2075D02*
X2091D01*
X2103D02*
X2113D01*
X2130D02*
X2140D01*
X2173D02*
X2185D01*
X2211D02*
X2233D01*
X2259D02*
X2267D01*
X2278D02*
X2302D01*
X2329D02*
X2350D01*
X1687Y774D02*
X1710D01*
X1762D02*
X1772D01*
X1867D02*
X1888D01*
X2000D02*
X2016D01*
X2033D02*
X2060D01*
X2076D02*
X2090D01*
X2103D02*
X2113D01*
X2130D02*
X2140D01*
X2173D02*
X2185D01*
X2213D02*
X2229D01*
X2259D02*
X2267D01*
X2278D02*
X2300D01*
X2330D02*
X2346D01*
X1762Y775D02*
X1772D01*
X2004D02*
X2012D01*
X2081D02*
X2086D01*
X2218D02*
X2224D01*
X2260D02*
X2268D01*
X2336D02*
X2341D01*
X1762Y776D02*
X1772D01*
X2260D02*
X2268D01*
X1781Y853D02*
X1771Y815D01*
X1760*
X1753Y840*
X1747Y815*
X1735*
X1725Y853*
X1736*
X1742Y827*
X1749Y853*
X1758*
X1765Y827*
X1771Y853*
X1781*
X1815Y828D02*
X1795D01*
X1795Y825*
X1797Y823*
X1800Y822*
X1803Y821*
X1809Y822*
X1813Y824*
X1814*
Y817*
X1808Y815*
X1803Y815*
X1795Y815*
X1790Y818*
X1786Y823*
X1785Y830*
X1786Y836*
X1790Y841*
X1795Y844*
X1801Y845*
X1807Y844*
X1812Y841*
X1814Y837*
X1815Y831*
Y828*
X1805Y834D02*
X1804Y837D01*
X1803Y838*
X1800Y839*
X1797Y837*
X1795Y836*
X1795Y834*
X1805*
X1851Y830D02*
X1851Y824D01*
X1848Y819*
X1844Y816*
X1839Y815*
X1834Y815*
X1831Y817*
X1831Y815*
X1822*
Y855*
X1831*
Y841*
X1836Y844*
X1841Y845*
X1845Y844*
X1849Y841*
X1851Y836*
X1851Y830*
X1842D02*
Y833D01*
X1841Y836*
X1839Y837*
X1836Y838*
X1834Y837*
X1831Y836*
Y822*
X1833Y821*
X1835*
X1838Y822*
X1840Y823*
X1841Y826*
X1842Y830*
X1891Y827D02*
X1890Y822D01*
X1887Y818*
X1882Y816*
X1879Y815*
X1875*
X1859*
Y853*
X1873*
X1877*
X1880Y853*
X1884Y851*
X1887Y849*
X1888Y844*
X1888Y842*
X1887Y839*
X1885Y837*
X1883Y836*
X1887Y835*
X1889Y833*
X1890Y830*
X1891Y827*
X1878Y842D02*
X1878Y844D01*
X1877Y846*
X1874Y846*
X1872*
X1870*
X1869*
Y838*
X1870*
X1874*
X1877Y839*
X1878Y840*
X1878Y842*
X1881Y827D02*
X1880Y830D01*
X1878Y831*
X1875Y832*
X1871*
X1869*
Y822*
X1870*
X1873*
X1875*
X1878Y823*
X1880Y825*
X1881Y827*
X1919Y836D02*
X1918D01*
X1916Y837*
X1914*
X1911Y836*
X1907Y836*
Y815*
X1898*
Y844*
X1907*
Y840*
X1910Y842*
X1912Y844*
X1917Y844*
X1917*
X1919*
Y836*
X1933Y815D02*
X1924D01*
Y844*
X1933*
Y815*
Y848D02*
X1924D01*
Y855*
X1933*
Y848*
X1957Y815D02*
X1950Y815D01*
X1944Y818*
X1941Y823*
X1940Y826*
X1940Y830*
X1940Y834*
X1941Y837*
X1945Y841*
X1950Y844*
X1956Y845*
X1962Y844*
X1966Y842*
Y835*
X1965*
X1963Y836*
X1962Y837*
X1959Y837*
X1957Y838*
X1953Y837*
X1951Y836*
X1950Y833*
X1949Y830*
X1950Y826*
X1951Y824*
X1953Y822*
X1957Y822*
X1960*
X1962Y823*
X1963Y824*
X1965Y825*
X1966*
Y817*
X1962Y815*
X1957Y815*
X2003Y815D02*
X1992D01*
X1984Y828*
X1982Y825*
Y815*
X1972*
Y855*
X1982*
Y832*
X1992Y844*
X2002*
X1992Y832*
X2003Y815*
X2056Y827D02*
X2055Y822D01*
X2051Y818*
X2045Y815*
X2038Y815*
X2034*
X2030Y815*
X2023Y818*
Y827*
X2025*
X2031Y823*
X2035Y822*
X2038*
X2041*
X2043Y822*
X2045Y824*
X2046Y825*
X2045Y827*
X2042Y829*
X2037Y830*
X2033Y831*
X2028Y833*
X2025Y836*
X2024Y838*
X2023Y842*
X2025Y847*
X2028Y851*
X2034Y853*
X2041Y854*
X2048Y853*
X2055Y851*
Y842*
X2054*
X2048Y846*
X2041Y847*
X2038*
X2036Y846*
X2034Y845*
X2033Y843*
X2035Y841*
X2037Y840*
X2039Y839*
X2043Y839*
X2047Y837*
X2051Y836*
X2054Y834*
X2055Y830*
X2056Y827*
X2075Y825D02*
X2082Y844D01*
X2091*
X2076Y805*
X2065*
X2070Y815*
X2059Y844*
X2068*
X2075Y825*
X2121Y825D02*
X2120Y820D01*
X2117Y817*
X2112Y815*
X2106Y815*
X2100Y815*
X2096Y816*
X2094Y817*
Y825*
X2095*
X2097Y824*
X2100Y822*
X2103Y822*
X2106Y821*
X2108*
X2110Y822*
X2111Y822*
Y823*
X2111Y825*
X2110Y825*
X2108*
X2105Y826*
X2102Y827*
X2099Y828*
X2096Y830*
X2095Y832*
X2094Y836*
X2096Y839*
X2098Y842*
X2103Y844*
X2109Y845*
X2115Y844*
X2118Y844*
X2120Y843*
Y836*
X2119*
X2115Y838*
X2109Y839*
X2105Y838*
X2105Y837*
X2104Y836*
X2105Y835*
X2106Y834*
X2108Y834*
X2111Y833*
X2114Y832*
X2117Y831*
X2119Y830*
X2120Y827*
X2121Y825*
X2145Y815D02*
X2142Y815D01*
X2139*
X2134Y815*
X2130Y817*
X2128Y820*
X2128Y824*
Y838*
X2124*
Y844*
X2128*
Y853*
X2137*
Y844*
X2145*
Y838*
X2137*
Y828*
Y825*
X2138Y823*
X2139Y822*
X2142Y821*
X2143*
X2145Y822*
X2145*
Y815*
X2179Y828D02*
X2159D01*
X2159Y825*
X2161Y823*
X2164Y822*
X2168Y821*
X2173Y822*
X2177Y824*
X2178*
Y817*
X2173Y815*
X2167Y815*
X2159Y815*
X2154Y818*
X2151Y823*
X2149Y830*
X2151Y836*
X2154Y841*
X2159Y844*
X2165Y845*
X2171Y844*
X2176Y841*
X2178Y837*
X2179Y831*
Y828*
X2169Y834D02*
X2168Y837D01*
X2167Y838*
X2164Y839*
X2161Y837*
X2159Y836*
X2159Y834*
X2169*
X2214Y836D02*
Y815D01*
X2205*
Y830*
Y833*
X2204Y836*
X2203Y837*
X2200Y837*
X2198Y837*
X2195Y836*
Y815*
X2186*
Y844*
X2195*
Y841*
X2200Y844*
X2205Y845*
X2210Y844*
X2213Y840*
X2219Y844*
X2221Y844*
X2224Y845*
X2227Y844*
X2231Y842*
X2232Y839*
X2233Y834*
Y815*
X2224*
Y830*
Y833*
X2223Y836*
X2222Y837*
X2219Y837*
X2217Y837*
X2214Y836*
X2266Y825D02*
X2265Y820D01*
X2262Y817*
X2257Y815*
X2251Y815*
X2244Y815*
X2241Y816*
X2239Y817*
Y825*
X2240*
X2242Y824*
X2244Y822*
X2248Y822*
X2251Y821*
X2253*
X2255Y822*
X2256Y822*
Y823*
X2256Y825*
X2254Y825*
X2253*
X2250Y826*
X2247Y827*
X2244Y828*
X2241Y830*
X2240Y832*
X2239Y836*
X2241Y839*
X2243Y842*
X2248Y844*
X2254Y845*
X2260Y844*
X2263Y844*
X2265Y843*
Y836*
X2264*
X2260Y838*
X2254Y839*
X2250Y838*
X2249Y837*
X2249Y836*
X2249Y835*
X2251Y834*
X2253Y834*
X2256Y833*
X2259Y832*
X2262Y831*
X2264Y830*
X2265Y827*
X2266Y825*
X2065Y805D02*
X2076D01*
X2066Y806D02*
X2076D01*
X2066Y807D02*
X2076D01*
X2067Y807D02*
X2077D01*
X2067Y808D02*
X2077D01*
X2067Y809D02*
X2077D01*
X2068Y810D02*
X2078D01*
X2068Y811D02*
X2078D01*
X2069Y812D02*
X2079D01*
X2069Y813D02*
X2079D01*
X2069Y814D02*
X2079D01*
X1800Y815D02*
X1805D01*
X1837D02*
X1840D01*
X1954D02*
X1958D01*
X2033D02*
X2041D01*
X2070D02*
X2080D01*
X2104D02*
X2108D01*
X2137D02*
X2143D01*
X2164D02*
X2169D01*
X2249D02*
X2253D01*
X1735Y816D02*
X1747D01*
X1760D02*
X1771D01*
X1794D02*
X1810D01*
X1822D02*
X1831D01*
X1833D02*
X1843D01*
X1859D02*
X1882D01*
X1898D02*
X1907D01*
X1924D02*
X1933D01*
X1949D02*
X1963D01*
X1972D02*
X1982D01*
X1992D02*
X2003D01*
X2029D02*
X2047D01*
X2070D02*
X2080D01*
X2097D02*
X2114D01*
X2132D02*
X2145D01*
X2158D02*
X2174D01*
X2186D02*
X2195D01*
X2205D02*
X2214D01*
X2224D02*
X2233D01*
X2242D02*
X2258D01*
X1735Y817D02*
X1747D01*
X1760D02*
X1771D01*
X1793D02*
X1813D01*
X1822D02*
X1845D01*
X1859D02*
X1884D01*
X1898D02*
X1907D01*
X1924D02*
X1933D01*
X1947D02*
X1966D01*
X1972D02*
X1982D01*
X1991D02*
X2002D01*
X2026D02*
X2049D01*
X2069D02*
X2080D01*
X2095D02*
X2116D01*
X2130D02*
X2145D01*
X2157D02*
X2177D01*
X2186D02*
X2195D01*
X2205D02*
X2214D01*
X2224D02*
X2233D01*
X2240D02*
X2261D01*
X1735Y818D02*
X1747D01*
X1759D02*
X1771D01*
X1791D02*
X1814D01*
X1822D02*
X1846D01*
X1859D02*
X1885D01*
X1898D02*
X1907D01*
X1924D02*
X1933D01*
X1945D02*
X1966D01*
X1972D02*
X1982D01*
X1991D02*
X2001D01*
X2024D02*
X2051D01*
X2069D02*
X2081D01*
X2094D02*
X2118D01*
X2130D02*
X2145D01*
X2155D02*
X2178D01*
X2186D02*
X2195D01*
X2205D02*
X2214D01*
X2224D02*
X2233D01*
X2239D02*
X2262D01*
X1735Y819D02*
X1748D01*
X1759D02*
X1772D01*
X1789D02*
X1814D01*
X1822D02*
X1847D01*
X1859D02*
X1887D01*
X1898D02*
X1907D01*
X1924D02*
X1933D01*
X1944D02*
X1966D01*
X1972D02*
X1982D01*
X1990D02*
X2001D01*
X2023D02*
X2052D01*
X2069D02*
X2081D01*
X2094D02*
X2118D01*
X2129D02*
X2145D01*
X2154D02*
X2178D01*
X2186D02*
X2195D01*
X2205D02*
X2214D01*
X2224D02*
X2233D01*
X2239D02*
X2263D01*
X1734Y820D02*
X1748D01*
X1759D02*
X1772D01*
X1789D02*
X1814D01*
X1822D02*
X1848D01*
X1859D02*
X1888D01*
X1898D02*
X1907D01*
X1924D02*
X1933D01*
X1943D02*
X1966D01*
X1972D02*
X1982D01*
X1990D02*
X2000D01*
X2023D02*
X2053D01*
X2068D02*
X2082D01*
X2094D02*
X2119D01*
X2129D02*
X2145D01*
X2153D02*
X2178D01*
X2186D02*
X2195D01*
X2205D02*
X2214D01*
X2224D02*
X2233D01*
X2239D02*
X2264D01*
X1734Y821D02*
X1748D01*
X1759D02*
X1772D01*
X1788D02*
X1814D01*
X1822D02*
X1848D01*
X1859D02*
X1889D01*
X1898D02*
X1907D01*
X1924D02*
X1933D01*
X1942D02*
X1966D01*
X1972D02*
X1982D01*
X1989D02*
X2000D01*
X2023D02*
X2053D01*
X2068D02*
X2082D01*
X2094D02*
X2120D01*
X2128D02*
X2145D01*
X2152D02*
X2178D01*
X2186D02*
X2195D01*
X2205D02*
X2214D01*
X2224D02*
X2233D01*
X2239D02*
X2265D01*
X1734Y822D02*
X1748D01*
X1758D02*
X1772D01*
X1787D02*
X1801D01*
X1808D02*
X1814D01*
X1822D02*
X1832D01*
X1837D02*
X1849D01*
X1859D02*
X1890D01*
X1898D02*
X1907D01*
X1924D02*
X1933D01*
X1942D02*
X1966D01*
X1972D02*
X1982D01*
X1988D02*
X1999D01*
X2023D02*
X2054D01*
X2067D02*
X2082D01*
X2094D02*
X2104D01*
X2110D02*
X2120D01*
X2128D02*
X2140D01*
X2144D02*
X2145D01*
X2152D02*
X2165D01*
X2172D02*
X2178D01*
X2186D02*
X2195D01*
X2205D02*
X2214D01*
X2224D02*
X2233D01*
X2239D02*
X2248D01*
X2255D02*
X2265D01*
X1734Y822D02*
X1749D01*
X1758D02*
X1773D01*
X1787D02*
X1798D01*
X1810D02*
X1814D01*
X1822D02*
X1831D01*
X1839D02*
X1850D01*
X1859D02*
X1869D01*
X1876D02*
X1890D01*
X1898D02*
X1907D01*
X1924D02*
X1933D01*
X1941D02*
X1953D01*
X1961D02*
X1966D01*
X1972D02*
X1982D01*
X1988D02*
X1998D01*
X2023D02*
X2033D01*
X2044D02*
X2055D01*
X2067D02*
X2083D01*
X2094D02*
X2099D01*
X2111D02*
X2120D01*
X2128D02*
X2138D01*
X2151D02*
X2162D01*
X2174D02*
X2178D01*
X2186D02*
X2195D01*
X2205D02*
X2214D01*
X2224D02*
X2233D01*
X2239D02*
X2244D01*
X2256D02*
X2265D01*
X1733Y823D02*
X1749D01*
X1758D02*
X1773D01*
X1786D02*
X1797D01*
X1812D02*
X1814D01*
X1822D02*
X1831D01*
X1840D02*
X1850D01*
X1859D02*
X1869D01*
X1879D02*
X1890D01*
X1898D02*
X1907D01*
X1924D02*
X1933D01*
X1941D02*
X1951D01*
X1963D02*
X1966D01*
X1972D02*
X1982D01*
X1987D02*
X1998D01*
X2023D02*
X2031D01*
X2045D02*
X2055D01*
X2067D02*
X2083D01*
X2094D02*
X2097D01*
X2111D02*
X2121D01*
X2128D02*
X2138D01*
X2150D02*
X2161D01*
X2176D02*
X2178D01*
X2186D02*
X2195D01*
X2205D02*
X2214D01*
X2224D02*
X2233D01*
X2239D02*
X2242D01*
X2256D02*
X2265D01*
X1733Y824D02*
X1749D01*
X1757D02*
X1773D01*
X1786D02*
X1796D01*
X1822D02*
X1831D01*
X1841D02*
X1851D01*
X1859D02*
X1869D01*
X1880D02*
X1890D01*
X1898D02*
X1907D01*
X1924D02*
X1933D01*
X1940D02*
X1950D01*
X1964D02*
X1966D01*
X1972D02*
X1982D01*
X1987D02*
X1997D01*
X2023D02*
X2029D01*
X2046D02*
X2055D01*
X2066D02*
X2083D01*
X2094D02*
X2096D01*
X2111D02*
X2121D01*
X2128D02*
X2137D01*
X2150D02*
X2160D01*
X2186D02*
X2195D01*
X2205D02*
X2214D01*
X2224D02*
X2233D01*
X2239D02*
X2241D01*
X2256D02*
X2266D01*
X1733Y825D02*
X1749D01*
X1757D02*
X1773D01*
X1786D02*
X1795D01*
X1822D02*
X1831D01*
X1841D02*
X1851D01*
X1859D02*
X1869D01*
X1880D02*
X1891D01*
X1898D02*
X1907D01*
X1924D02*
X1933D01*
X1940D02*
X1950D01*
X1972D02*
X1982D01*
X1986D02*
X1996D01*
X2023D02*
X2027D01*
X2046D02*
X2056D01*
X2066D02*
X2084D01*
X2110D02*
X2121D01*
X2128D02*
X2137D01*
X2150D02*
X2159D01*
X2186D02*
X2195D01*
X2205D02*
X2214D01*
X2224D02*
X2233D01*
X2255D02*
X2266D01*
X1733Y826D02*
X1750D01*
X1757D02*
X1774D01*
X1786D02*
X1795D01*
X1822D02*
X1831D01*
X1841D02*
X1851D01*
X1859D02*
X1869D01*
X1881D02*
X1891D01*
X1898D02*
X1907D01*
X1924D02*
X1933D01*
X1940D02*
X1950D01*
X1972D02*
X1983D01*
X1985D02*
X1996D01*
X2023D02*
X2025D01*
X2045D02*
X2056D01*
X2066D02*
X2075D01*
X2075D02*
X2084D01*
X2105D02*
X2121D01*
X2128D02*
X2137D01*
X2150D02*
X2159D01*
X2186D02*
X2195D01*
X2205D02*
X2214D01*
X2224D02*
X2233D01*
X2249D02*
X2265D01*
X1732Y827D02*
X1750D01*
X1757D02*
X1774D01*
X1786D02*
X1795D01*
X1822D02*
X1831D01*
X1841D02*
X1851D01*
X1859D02*
X1869D01*
X1881D02*
X1891D01*
X1898D02*
X1907D01*
X1924D02*
X1933D01*
X1940D02*
X1949D01*
X1972D02*
X1984D01*
X1985D02*
X1995D01*
X2045D02*
X2056D01*
X2065D02*
X2074D01*
X2076D02*
X2084D01*
X2101D02*
X2120D01*
X2128D02*
X2137D01*
X2150D02*
X2159D01*
X2186D02*
X2195D01*
X2205D02*
X2214D01*
X2224D02*
X2233D01*
X2246D02*
X2265D01*
X1732Y828D02*
X1742D01*
X1742D02*
X1750D01*
X1756D02*
X1765D01*
X1765D02*
X1774D01*
X1785D02*
X1815D01*
X1822D02*
X1831D01*
X1842D02*
X1851D01*
X1859D02*
X1869D01*
X1881D02*
X1891D01*
X1898D02*
X1907D01*
X1924D02*
X1933D01*
X1940D02*
X1949D01*
X1972D02*
X1994D01*
X2043D02*
X2056D01*
X2065D02*
X2074D01*
X2076D02*
X2085D01*
X2099D02*
X2120D01*
X2128D02*
X2137D01*
X2150D02*
X2179D01*
X2186D02*
X2195D01*
X2205D02*
X2214D01*
X2224D02*
X2233D01*
X2244D02*
X2265D01*
X1732Y829D02*
X1741D01*
X1742D02*
X1750D01*
X1756D02*
X1765D01*
X1765D02*
X1774D01*
X1785D02*
X1815D01*
X1822D02*
X1831D01*
X1842D02*
X1851D01*
X1859D02*
X1869D01*
X1881D02*
X1891D01*
X1898D02*
X1907D01*
X1924D02*
X1933D01*
X1940D02*
X1949D01*
X1972D02*
X1994D01*
X2042D02*
X2056D01*
X2065D02*
X2074D01*
X2076D02*
X2085D01*
X2097D02*
X2119D01*
X2128D02*
X2137D01*
X2149D02*
X2179D01*
X2186D02*
X2195D01*
X2205D02*
X2214D01*
X2224D02*
X2233D01*
X2242D02*
X2264D01*
X1732Y830D02*
X1741D01*
X1742D02*
X1750D01*
X1756D02*
X1764D01*
X1766D02*
X1775D01*
X1785D02*
X1815D01*
X1822D02*
X1831D01*
X1842D02*
X1851D01*
X1859D02*
X1869D01*
X1880D02*
X1890D01*
X1898D02*
X1907D01*
X1924D02*
X1933D01*
X1940D02*
X1949D01*
X1972D02*
X1993D01*
X2037D02*
X2056D01*
X2064D02*
X2073D01*
X2077D02*
X2086D01*
X2096D02*
X2119D01*
X2128D02*
X2137D01*
X2149D02*
X2179D01*
X2186D02*
X2195D01*
X2205D02*
X2214D01*
X2224D02*
X2233D01*
X2241D02*
X2264D01*
X1731Y831D02*
X1741D01*
X1743D02*
X1751D01*
X1756D02*
X1764D01*
X1766D02*
X1775D01*
X1785D02*
X1815D01*
X1822D02*
X1831D01*
X1842D02*
X1851D01*
X1859D02*
X1869D01*
X1878D02*
X1890D01*
X1898D02*
X1907D01*
X1924D02*
X1933D01*
X1940D02*
X1949D01*
X1972D02*
X1992D01*
X2034D02*
X2055D01*
X2064D02*
X2073D01*
X2077D02*
X2086D01*
X2096D02*
X2117D01*
X2128D02*
X2137D01*
X2149D02*
X2179D01*
X2186D02*
X2195D01*
X2205D02*
X2214D01*
X2224D02*
X2233D01*
X2241D02*
X2262D01*
X1731Y832D02*
X1741D01*
X1743D02*
X1751D01*
X1755D02*
X1764D01*
X1766D02*
X1775D01*
X1786D02*
X1815D01*
X1822D02*
X1831D01*
X1842D02*
X1851D01*
X1859D02*
X1890D01*
X1898D02*
X1907D01*
X1924D02*
X1933D01*
X1940D02*
X1949D01*
X1972D02*
X1982D01*
X1982D02*
X1992D01*
X2031D02*
X2055D01*
X2063D02*
X2073D01*
X2077D02*
X2086D01*
X2095D02*
X2115D01*
X2128D02*
X2137D01*
X2150D02*
X2179D01*
X2186D02*
X2195D01*
X2205D02*
X2214D01*
X2224D02*
X2233D01*
X2240D02*
X2260D01*
X1731Y833D02*
X1741D01*
X1743D02*
X1751D01*
X1755D02*
X1764D01*
X1766D02*
X1775D01*
X1786D02*
X1815D01*
X1822D02*
X1831D01*
X1842D02*
X1851D01*
X1859D02*
X1889D01*
X1898D02*
X1907D01*
X1924D02*
X1933D01*
X1940D02*
X1950D01*
X1972D02*
X1982D01*
X1983D02*
X1993D01*
X2029D02*
X2054D01*
X2063D02*
X2072D01*
X2078D02*
X2087D01*
X2095D02*
X2112D01*
X2128D02*
X2137D01*
X2150D02*
X2179D01*
X2186D02*
X2195D01*
X2205D02*
X2214D01*
X2224D02*
X2233D01*
X2240D02*
X2257D01*
X1731Y834D02*
X1740D01*
X1743D02*
X1751D01*
X1755D02*
X1763D01*
X1766D02*
X1776D01*
X1786D02*
X1795D01*
X1805D02*
X1814D01*
X1822D02*
X1831D01*
X1842D02*
X1851D01*
X1859D02*
X1888D01*
X1898D02*
X1907D01*
X1924D02*
X1933D01*
X1940D02*
X1950D01*
X1972D02*
X1982D01*
X1983D02*
X1993D01*
X2027D02*
X2054D01*
X2063D02*
X2072D01*
X2078D02*
X2087D01*
X2095D02*
X2107D01*
X2128D02*
X2137D01*
X2150D02*
X2159D01*
X2169D02*
X2179D01*
X2186D02*
X2195D01*
X2205D02*
X2214D01*
X2223D02*
X2233D01*
X2240D02*
X2252D01*
X1730Y835D02*
X1740D01*
X1744D02*
X1752D01*
X1755D02*
X1763D01*
X1767D02*
X1776D01*
X1786D02*
X1795D01*
X1805D02*
X1814D01*
X1822D02*
X1831D01*
X1841D02*
X1851D01*
X1859D02*
X1887D01*
X1898D02*
X1907D01*
X1924D02*
X1933D01*
X1940D02*
X1950D01*
X1972D02*
X1982D01*
X1984D02*
X1994D01*
X2026D02*
X2052D01*
X2062D02*
X2072D01*
X2078D02*
X2087D01*
X2095D02*
X2105D01*
X2128D02*
X2137D01*
X2150D02*
X2159D01*
X2169D02*
X2178D01*
X2186D02*
X2195D01*
X2204D02*
X2214D01*
X2223D02*
X2233D01*
X2240D02*
X2250D01*
X1730Y836D02*
X1740D01*
X1744D02*
X1752D01*
X1754D02*
X1763D01*
X1767D02*
X1776D01*
X1786D02*
X1795D01*
X1805D02*
X1814D01*
X1822D02*
X1831D01*
X1841D02*
X1851D01*
X1859D02*
X1885D01*
X1898D02*
X1908D01*
X1924D02*
X1933D01*
X1941D02*
X1951D01*
X1963D02*
X1966D01*
X1972D02*
X1982D01*
X1985D02*
X1995D01*
X2025D02*
X2051D01*
X2062D02*
X2071D01*
X2079D02*
X2088D01*
X2094D02*
X2104D01*
X2119D02*
X2120D01*
X2128D02*
X2137D01*
X2150D02*
X2159D01*
X2169D02*
X2178D01*
X2186D02*
X2195D01*
X2204D02*
X2214D01*
X2223D02*
X2233D01*
X2239D02*
X2249D01*
X2264D02*
X2265D01*
X1730Y836D02*
X1740D01*
X1744D02*
X1752D01*
X1754D02*
X1763D01*
X1767D02*
X1776D01*
X1787D02*
X1796D01*
X1804D02*
X1814D01*
X1822D02*
X1832D01*
X1840D02*
X1851D01*
X1859D02*
X1884D01*
X1898D02*
X1912D01*
X1917D02*
X1919D01*
X1924D02*
X1933D01*
X1941D02*
X1952D01*
X1962D02*
X1966D01*
X1972D02*
X1982D01*
X1986D02*
X1996D01*
X2025D02*
X2049D01*
X2062D02*
X2071D01*
X2079D02*
X2088D01*
X2095D02*
X2104D01*
X2117D02*
X2120D01*
X2128D02*
X2137D01*
X2151D02*
X2160D01*
X2168D02*
X2178D01*
X2186D02*
X2197D01*
X2203D02*
X2216D01*
X2222D02*
X2233D01*
X2240D02*
X2249D01*
X2262D02*
X2265D01*
X1730Y837D02*
X1739D01*
X1744D02*
X1752D01*
X1754D02*
X1762D01*
X1767D02*
X1777D01*
X1787D02*
X1797D01*
X1804D02*
X1814D01*
X1822D02*
X1834D01*
X1839D02*
X1850D01*
X1859D02*
X1885D01*
X1898D02*
X1919D01*
X1924D02*
X1933D01*
X1941D02*
X1954D01*
X1959D02*
X1966D01*
X1972D02*
X1982D01*
X1986D02*
X1997D01*
X2024D02*
X2047D01*
X2061D02*
X2071D01*
X2079D02*
X2089D01*
X2095D02*
X2105D01*
X2116D02*
X2120D01*
X2128D02*
X2137D01*
X2151D02*
X2161D01*
X2168D02*
X2178D01*
X2186D02*
X2233D01*
X2240D02*
X2249D01*
X2261D02*
X2265D01*
X1729Y838D02*
X1739D01*
X1745D02*
X1753D01*
X1753D02*
X1762D01*
X1767D02*
X1777D01*
X1788D02*
X1799D01*
X1801D02*
X1813D01*
X1822D02*
X1850D01*
X1859D02*
X1869D01*
X1875D02*
X1886D01*
X1898D02*
X1919D01*
X1924D02*
X1933D01*
X1942D02*
X1966D01*
X1972D02*
X1982D01*
X1987D02*
X1997D01*
X2024D02*
X2044D01*
X2061D02*
X2070D01*
X2080D02*
X2089D01*
X2095D02*
X2107D01*
X2112D02*
X2120D01*
X2124D02*
X2145D01*
X2152D02*
X2164D01*
X2166D02*
X2177D01*
X2186D02*
X2232D01*
X2240D02*
X2252D01*
X2256D02*
X2265D01*
X1729Y839D02*
X1739D01*
X1745D02*
X1753D01*
X1753D02*
X1762D01*
X1768D02*
X1777D01*
X1789D02*
X1813D01*
X1822D02*
X1849D01*
X1859D02*
X1869D01*
X1877D02*
X1887D01*
X1898D02*
X1919D01*
X1924D02*
X1933D01*
X1943D02*
X1966D01*
X1972D02*
X1982D01*
X1988D02*
X1998D01*
X2024D02*
X2039D01*
X2061D02*
X2070D01*
X2080D02*
X2089D01*
X2096D02*
X2120D01*
X2124D02*
X2145D01*
X2153D02*
X2177D01*
X2186D02*
X2232D01*
X2241D02*
X2265D01*
X1729Y840D02*
X1739D01*
X1745D02*
X1762D01*
X1768D02*
X1777D01*
X1789D02*
X1812D01*
X1822D02*
X1849D01*
X1859D02*
X1869D01*
X1878D02*
X1887D01*
X1898D02*
X1907D01*
X1908D02*
X1919D01*
X1924D02*
X1933D01*
X1944D02*
X1966D01*
X1972D02*
X1982D01*
X1989D02*
X1999D01*
X2024D02*
X2036D01*
X2060D02*
X2070D01*
X2080D02*
X2090D01*
X2096D02*
X2120D01*
X2124D02*
X2145D01*
X2153D02*
X2176D01*
X2186D02*
X2213D01*
X2213D02*
X2231D01*
X2241D02*
X2265D01*
X1729Y841D02*
X1739D01*
X1745D02*
X1761D01*
X1768D02*
X1778D01*
X1791D02*
X1812D01*
X1822D02*
X1831D01*
X1831D02*
X1849D01*
X1859D02*
X1869D01*
X1878D02*
X1888D01*
X1898D02*
X1907D01*
X1909D02*
X1919D01*
X1924D02*
X1933D01*
X1945D02*
X1966D01*
X1972D02*
X1982D01*
X1989D02*
X2000D01*
X2023D02*
X2034D01*
X2060D02*
X2069D01*
X2081D02*
X2090D01*
X2097D02*
X2120D01*
X2124D02*
X2145D01*
X2155D02*
X2176D01*
X2186D02*
X2195D01*
X2195D02*
X2212D01*
X2215D02*
X2231D01*
X2242D02*
X2265D01*
X1728Y842D02*
X1738D01*
X1746D02*
X1761D01*
X1768D02*
X1778D01*
X1792D02*
X1810D01*
X1822D02*
X1831D01*
X1833D02*
X1847D01*
X1859D02*
X1869D01*
X1878D02*
X1888D01*
X1898D02*
X1907D01*
X1910D02*
X1919D01*
X1924D02*
X1933D01*
X1946D02*
X1966D01*
X1972D02*
X1982D01*
X1990D02*
X2001D01*
X2023D02*
X2034D01*
X2059D02*
X2069D01*
X2081D02*
X2090D01*
X2098D02*
X2120D01*
X2124D02*
X2145D01*
X2156D02*
X2174D01*
X2186D02*
X2195D01*
X2197D02*
X2211D01*
X2216D02*
X2230D01*
X2243D02*
X2265D01*
X1728Y843D02*
X1738D01*
X1746D02*
X1761D01*
X1768D02*
X1778D01*
X1794D02*
X1809D01*
X1822D02*
X1831D01*
X1834D02*
X1846D01*
X1859D02*
X1869D01*
X1878D02*
X1888D01*
X1898D02*
X1907D01*
X1911D02*
X1919D01*
X1924D02*
X1933D01*
X1948D02*
X1965D01*
X1972D02*
X1982D01*
X1991D02*
X2001D01*
X2024D02*
X2033D01*
X2052D02*
X2055D01*
X2059D02*
X2068D01*
X2081D02*
X2091D01*
X2100D02*
X2120D01*
X2124D02*
X2145D01*
X2158D02*
X2173D01*
X2186D02*
X2195D01*
X2199D02*
X2210D01*
X2218D02*
X2229D01*
X2245D02*
X2265D01*
X1728Y844D02*
X1738D01*
X1746D02*
X1761D01*
X1769D02*
X1778D01*
X1796D02*
X1808D01*
X1822D02*
X1831D01*
X1837D02*
X1844D01*
X1859D02*
X1869D01*
X1878D02*
X1888D01*
X1898D02*
X1907D01*
X1915D02*
X1919D01*
X1924D02*
X1933D01*
X1949D02*
X1962D01*
X1972D02*
X1982D01*
X1992D02*
X2002D01*
X2024D02*
X2034D01*
X2051D02*
X2055D01*
X2059D02*
X2068D01*
X2082D02*
X2091D01*
X2102D02*
X2117D01*
X2124D02*
X2145D01*
X2160D02*
X2172D01*
X2186D02*
X2195D01*
X2201D02*
X2209D01*
X2220D02*
X2228D01*
X2247D02*
X2261D01*
X1728Y845D02*
X1738D01*
X1746D02*
X1760D01*
X1769D02*
X1779D01*
X1801D02*
X1801D01*
X1822D02*
X1831D01*
X1841D02*
X1841D01*
X1859D02*
X1869D01*
X1877D02*
X1888D01*
X1956D02*
X1956D01*
X1972D02*
X1982D01*
X2024D02*
X2034D01*
X2049D02*
X2055D01*
X2109D02*
X2109D01*
X2128D02*
X2137D01*
X2165D02*
X2165D01*
X2205D02*
X2205D01*
X2224D02*
X2224D01*
X2254D02*
X2254D01*
X1727Y846D02*
X1738D01*
X1747D02*
X1760D01*
X1769D02*
X1779D01*
X1822D02*
X1831D01*
X1859D02*
X1869D01*
X1875D02*
X1888D01*
X1972D02*
X1982D01*
X2024D02*
X2035D01*
X2046D02*
X2055D01*
X2128D02*
X2137D01*
X1727Y847D02*
X1737D01*
X1747D02*
X1760D01*
X1769D02*
X1779D01*
X1822D02*
X1831D01*
X1859D02*
X1888D01*
X1972D02*
X1982D01*
X2025D02*
X2038D01*
X2041D02*
X2055D01*
X2128D02*
X2137D01*
X1727Y848D02*
X1737D01*
X1747D02*
X1760D01*
X1770D02*
X1779D01*
X1822D02*
X1831D01*
X1859D02*
X1888D01*
X1972D02*
X1982D01*
X2025D02*
X2055D01*
X2128D02*
X2137D01*
X1727Y849D02*
X1737D01*
X1747D02*
X1759D01*
X1770D02*
X1780D01*
X1822D02*
X1831D01*
X1859D02*
X1887D01*
X1924D02*
X1933D01*
X1972D02*
X1982D01*
X2026D02*
X2055D01*
X2128D02*
X2137D01*
X1726Y850D02*
X1737D01*
X1748D02*
X1759D01*
X1770D02*
X1780D01*
X1822D02*
X1831D01*
X1859D02*
X1886D01*
X1924D02*
X1933D01*
X1972D02*
X1982D01*
X2027D02*
X2055D01*
X2128D02*
X2137D01*
X1726Y851D02*
X1737D01*
X1748D02*
X1759D01*
X1770D02*
X1780D01*
X1822D02*
X1831D01*
X1859D02*
X1885D01*
X1924D02*
X1933D01*
X1972D02*
X1982D01*
X2028D02*
X2055D01*
X2128D02*
X2137D01*
X1726Y851D02*
X1736D01*
X1748D02*
X1759D01*
X1770D02*
X1780D01*
X1822D02*
X1831D01*
X1859D02*
X1883D01*
X1924D02*
X1933D01*
X1972D02*
X1982D01*
X2030D02*
X2054D01*
X2128D02*
X2137D01*
X1726Y852D02*
X1736D01*
X1748D02*
X1758D01*
X1771D02*
X1781D01*
X1822D02*
X1831D01*
X1859D02*
X1881D01*
X1924D02*
X1933D01*
X1972D02*
X1982D01*
X2032D02*
X2051D01*
X2128D02*
X2137D01*
X1822Y853D02*
X1831D01*
X1924D02*
X1933D01*
X1972D02*
X1982D01*
X2036D02*
X2046D01*
X1822Y854D02*
X1831D01*
X1924D02*
X1933D01*
X1972D02*
X1982D01*
X1785Y674D02*
X1785Y676D01*
X1783Y678*
X1780Y679*
X1778*
X1774*
Y669*
X1777*
X1781*
X1783Y670*
X1785Y672*
X1785Y674*
X1800Y648D02*
X1788D01*
X1778Y662*
X1774*
Y648*
X1764*
Y686*
X1780*
X1786Y685*
X1791Y684*
X1794Y680*
X1795Y678*
Y675*
X1795Y671*
X1794Y669*
X1791Y666*
X1788Y664*
X1800Y648*
X1837Y659D02*
X1836Y654D01*
X1833Y651*
X1828Y649*
X1825Y648*
X1821*
X1805*
Y686*
X1819*
X1823*
X1826Y685*
X1830Y684*
X1833Y681*
X1834Y677*
X1834Y674*
X1833Y672*
X1831Y670*
X1829Y669*
X1833Y668*
X1835Y666*
X1836Y663*
X1837Y659*
X1824Y675D02*
X1824Y677D01*
X1822Y678*
X1820Y679*
X1818*
X1816*
X1815*
Y671*
X1816*
X1820*
X1822Y671*
X1824Y673*
X1824Y675*
X1827Y660D02*
X1826Y663D01*
X1824Y664*
X1821Y664*
X1817*
X1815*
Y655*
X1816*
X1819*
X1821*
X1824Y656*
X1826Y657*
X1827Y660*
X1892Y648D02*
X1862D01*
Y654*
X1869Y659*
X1872Y662*
X1874Y664*
X1877Y667*
X1879Y669*
X1880Y671*
Y674*
X1879Y676*
X1878Y678*
X1876Y678*
X1874Y679*
X1869Y678*
X1864Y676*
X1863*
Y684*
X1866Y685*
X1868Y686*
X1875Y686*
X1882Y686*
X1886Y683*
X1889Y680*
X1890Y675*
X1889Y672*
X1888Y668*
X1886Y665*
X1883Y662*
X1878Y658*
X1876Y656*
X1875Y656*
X1892*
Y648*
X1928Y661D02*
X1927Y656D01*
X1924Y651*
X1919Y648*
X1911Y647*
X1908*
X1904Y648*
X1901Y649*
X1899Y650*
Y658*
X1900*
X1905Y656*
X1910Y655*
X1914*
X1916Y657*
X1918Y658*
X1918Y661*
X1918Y663*
X1916Y664*
X1913Y665*
X1909Y666*
X1905Y665*
X1901Y664*
X1900*
Y686*
X1927*
Y678*
X1909*
Y673*
X1911*
X1914*
X1919Y672*
X1923Y670*
X1927Y666*
X1928Y664*
Y661*
X1965Y667D02*
X1965Y658D01*
X1964Y655*
X1962Y652*
X1960Y650*
X1957Y649*
X1954Y647*
X1950*
X1946*
X1943Y649*
X1940Y650*
X1938Y652*
X1937Y655*
X1935Y659*
X1935Y663*
Y667*
Y671*
X1935Y675*
X1938Y681*
X1943Y685*
X1950Y686*
X1954Y686*
X1957Y685*
X1962Y681*
X1965Y675*
X1965Y667*
X1955D02*
Y673D01*
X1954Y676*
X1952Y679*
X1950Y680*
X1948Y679*
X1946Y676*
X1945Y673*
X1945Y667*
X1945Y661*
X1946Y657*
X1948Y655*
X1950Y654*
X1952Y655*
X1954Y657*
X1955Y661*
Y667*
X1991Y662D02*
X1971D01*
Y669*
X1991*
Y662*
X2028Y659D02*
X2027Y654D01*
X2024Y651*
X2019Y648*
X2012Y647*
X2005Y648*
X2000Y651*
X1998Y654*
X1996Y658*
X1997Y661*
X1998Y663*
X2000Y665*
X2004Y667*
X2001Y669*
X1999Y671*
X1998Y673*
X1998Y676*
X1999Y680*
X2002Y683*
X2006Y686*
X2013Y686*
X2018Y686*
X2023Y684*
X2026Y681*
X2027Y677*
X2027Y674*
X2026Y672*
X2023Y670*
X2021Y669*
X2024Y667*
X2027Y664*
X2028Y662*
X2028Y659*
X2018Y676D02*
Y677D01*
X2017Y678*
X2013Y680*
X2011*
X2010Y679*
X2008Y678*
X2008Y676*
X2008Y674*
X2011Y673*
X2013Y672*
X2016Y671*
X2017Y673*
X2018Y676*
X2018Y659D02*
X2018Y661D01*
X2016Y662*
X2014Y663*
X2011Y664*
X2009Y665*
X2007Y663*
X2006Y660*
X2006Y657*
X2008Y656*
X2010Y654*
X2013*
X2015*
X2017Y655*
X2018Y656*
X2018Y659*
X2074Y648D02*
X2052D01*
Y655*
X2058*
Y679*
X2052*
Y686*
X2074*
Y679*
X2068*
Y655*
X2074*
Y648*
X2106Y657D02*
X2105Y653D01*
X2102Y650*
X2097Y648*
X2091Y647*
X2085Y648*
X2081Y649*
X2080Y650*
Y657*
X2080*
X2082Y656*
X2085Y655*
X2088Y654*
X2091Y654*
X2093*
X2095Y654*
X2097Y655*
Y656*
X2096Y657*
X2095Y658*
X2093*
X2090Y659*
X2087Y659*
X2084Y661*
X2081Y663*
X2080Y665*
X2080Y668*
X2081Y672*
X2083Y675*
X2088Y677*
X2094Y678*
X2100Y677*
X2103Y676*
X2105Y676*
Y668*
X2104*
X2100Y671*
X2094Y671*
X2090Y671*
X2090Y670*
X2089Y669*
X2090Y668*
X2091Y667*
X2093Y666*
X2096Y666*
X2099Y665*
X2102Y664*
X2104Y663*
X2105Y660*
X2106Y657*
X2137D02*
X2136Y653D01*
X2133Y650*
X2128Y648*
X2122Y647*
X2115Y648*
X2112Y649*
X2110Y650*
Y657*
X2111*
X2113Y656*
X2115Y655*
X2119Y654*
X2122Y654*
X2124*
X2126Y654*
X2127Y655*
Y656*
X2127Y657*
X2125Y658*
X2124*
X2121Y659*
X2118Y659*
X2115Y661*
X2112Y663*
X2111Y665*
X2110Y668*
X2112Y672*
X2114Y675*
X2119Y677*
X2125Y678*
X2131Y677*
X2134Y676*
X2136Y676*
Y668*
X2135*
X2131Y671*
X2125Y671*
X2121Y671*
X2120Y670*
X2120Y669*
X2120Y668*
X2122Y667*
X2124Y666*
X2127Y666*
X2130Y665*
X2133Y664*
X2135Y663*
X2136Y660*
X2137Y657*
X2171Y648D02*
X2162D01*
Y651*
X2158Y649*
X2153Y647*
X2149Y648*
X2146Y650*
X2144Y654*
X2143Y658*
Y677*
X2153*
Y663*
Y659*
X2153Y657*
X2154Y656*
X2157Y655*
X2160Y656*
X2162Y657*
Y677*
X2171*
Y648*
X2208Y661D02*
X2188D01*
X2188Y657*
X2190Y656*
X2193Y654*
X2197Y654*
X2202Y654*
X2206Y657*
X2207*
Y650*
X2202Y648*
X2196Y647*
X2188Y648*
X2183Y651*
X2180Y656*
X2178Y663*
X2180Y669*
X2183Y673*
X2188Y676*
X2194Y678*
X2200Y677*
X2205Y674*
X2207Y669*
X2208Y664*
Y661*
X2199Y666D02*
X2197Y670D01*
X2196Y671*
X2194Y671*
X2190Y670*
X2188Y669*
X2188Y666*
X2199*
X2261Y648D02*
X2235D01*
Y655*
X2243*
Y674*
X2235*
Y681*
X2239*
X2241Y681*
X2243Y683*
X2245Y686*
X2253*
Y655*
X2261*
Y648*
X1906Y648D02*
X1914D01*
X1945D02*
X1955D01*
X2010D02*
X2015D01*
X2089D02*
X2094D01*
X2120D02*
X2124D01*
X2151D02*
X2153D01*
X2193D02*
X2198D01*
X1764Y649D02*
X1774D01*
X1788D02*
X1800D01*
X1805D02*
X1828D01*
X1862D02*
X1892D01*
X1902D02*
X1920D01*
X1943D02*
X1957D01*
X2004D02*
X2020D01*
X2052D02*
X2074D01*
X2082D02*
X2099D01*
X2113D02*
X2129D01*
X2148D02*
X2157D01*
X2162D02*
X2171D01*
X2188D02*
X2203D01*
X2235D02*
X2261D01*
X1764Y649D02*
X1774D01*
X1787D02*
X1799D01*
X1805D02*
X1830D01*
X1862D02*
X1892D01*
X1900D02*
X1921D01*
X1941D02*
X1959D01*
X2002D02*
X2022D01*
X2052D02*
X2074D01*
X2080D02*
X2101D01*
X2111D02*
X2132D01*
X2146D02*
X2159D01*
X2162D02*
X2171D01*
X2186D02*
X2206D01*
X2235D02*
X2261D01*
X1764Y650D02*
X1774D01*
X1787D02*
X1799D01*
X1805D02*
X1831D01*
X1862D02*
X1892D01*
X1899D02*
X1923D01*
X1940D02*
X1960D01*
X2000D02*
X2024D01*
X2052D02*
X2074D01*
X2080D02*
X2103D01*
X2110D02*
X2133D01*
X2145D02*
X2161D01*
X2162D02*
X2171D01*
X2184D02*
X2207D01*
X2235D02*
X2261D01*
X1764Y651D02*
X1774D01*
X1786D02*
X1798D01*
X1805D02*
X1833D01*
X1862D02*
X1892D01*
X1899D02*
X1924D01*
X1939D02*
X1961D01*
X1999D02*
X2025D01*
X2052D02*
X2074D01*
X2080D02*
X2103D01*
X2110D02*
X2134D01*
X2145D02*
X2171D01*
X2183D02*
X2207D01*
X2235D02*
X2261D01*
X1764Y652D02*
X1774D01*
X1785D02*
X1797D01*
X1805D02*
X1834D01*
X1862D02*
X1892D01*
X1899D02*
X1925D01*
X1938D02*
X1962D01*
X1999D02*
X2026D01*
X2052D02*
X2074D01*
X2080D02*
X2104D01*
X2110D02*
X2135D01*
X2144D02*
X2171D01*
X2182D02*
X2207D01*
X2235D02*
X2261D01*
X1764Y653D02*
X1774D01*
X1785D02*
X1796D01*
X1805D02*
X1835D01*
X1862D02*
X1892D01*
X1899D02*
X1925D01*
X1938D02*
X1962D01*
X1998D02*
X2026D01*
X2052D02*
X2074D01*
X2080D02*
X2105D01*
X2110D02*
X2136D01*
X2144D02*
X2171D01*
X2181D02*
X2207D01*
X2235D02*
X2261D01*
X1764Y654D02*
X1774D01*
X1784D02*
X1796D01*
X1805D02*
X1836D01*
X1862D02*
X1892D01*
X1899D02*
X1926D01*
X1937D02*
X1963D01*
X1997D02*
X2027D01*
X2052D02*
X2074D01*
X2080D02*
X2089D01*
X2095D02*
X2105D01*
X2110D02*
X2119D01*
X2126D02*
X2136D01*
X2144D02*
X2171D01*
X2181D02*
X2194D01*
X2201D02*
X2207D01*
X2235D02*
X2261D01*
X1764Y655D02*
X1774D01*
X1783D02*
X1795D01*
X1805D02*
X1815D01*
X1822D02*
X1836D01*
X1863D02*
X1892D01*
X1899D02*
X1909D01*
X1914D02*
X1927D01*
X1936D02*
X1948D01*
X1952D02*
X1964D01*
X1997D02*
X2008D01*
X2017D02*
X2027D01*
X2058D02*
X2068D01*
X2080D02*
X2084D01*
X2097D02*
X2105D01*
X2110D02*
X2115D01*
X2127D02*
X2136D01*
X2144D02*
X2156D01*
X2158D02*
X2171D01*
X2180D02*
X2191D01*
X2204D02*
X2207D01*
X2243D02*
X2253D01*
X1764Y656D02*
X1774D01*
X1783D02*
X1794D01*
X1805D02*
X1815D01*
X1825D02*
X1836D01*
X1865D02*
X1876D01*
X1899D02*
X1904D01*
X1915D02*
X1927D01*
X1936D02*
X1947D01*
X1953D02*
X1964D01*
X1997D02*
X2007D01*
X2018D02*
X2028D01*
X2058D02*
X2068D01*
X2080D02*
X2082D01*
X2096D02*
X2106D01*
X2110D02*
X2113D01*
X2127D02*
X2136D01*
X2143D02*
X2154D01*
X2160D02*
X2171D01*
X2180D02*
X2190D01*
X2205D02*
X2207D01*
X2243D02*
X2253D01*
X1764Y657D02*
X1774D01*
X1782D02*
X1794D01*
X1805D02*
X1815D01*
X1826D02*
X1836D01*
X1866D02*
X1877D01*
X1899D02*
X1902D01*
X1917D02*
X1927D01*
X1936D02*
X1946D01*
X1954D02*
X1964D01*
X1997D02*
X2007D01*
X2018D02*
X2028D01*
X2058D02*
X2068D01*
X2080D02*
X2081D01*
X2096D02*
X2106D01*
X2110D02*
X2112D01*
X2127D02*
X2137D01*
X2143D02*
X2153D01*
X2162D02*
X2171D01*
X2179D02*
X2189D01*
X2243D02*
X2253D01*
X1764Y658D02*
X1774D01*
X1781D02*
X1793D01*
X1805D02*
X1815D01*
X1826D02*
X1837D01*
X1867D02*
X1878D01*
X1899D02*
X1900D01*
X1917D02*
X1928D01*
X1936D02*
X1946D01*
X1954D02*
X1965D01*
X1996D02*
X2006D01*
X2018D02*
X2028D01*
X2058D02*
X2068D01*
X2095D02*
X2106D01*
X2126D02*
X2137D01*
X2143D02*
X2153D01*
X2162D02*
X2171D01*
X2179D02*
X2188D01*
X2243D02*
X2253D01*
X1764Y659D02*
X1774D01*
X1781D02*
X1792D01*
X1805D02*
X1815D01*
X1827D02*
X1837D01*
X1868D02*
X1879D01*
X1918D02*
X1928D01*
X1935D02*
X1946D01*
X1955D02*
X1965D01*
X1997D02*
X2006D01*
X2018D02*
X2028D01*
X2058D02*
X2068D01*
X2090D02*
X2106D01*
X2120D02*
X2136D01*
X2143D02*
X2153D01*
X2162D02*
X2171D01*
X2179D02*
X2188D01*
X2243D02*
X2253D01*
X1764Y660D02*
X1774D01*
X1780D02*
X1791D01*
X1805D02*
X1815D01*
X1827D02*
X1837D01*
X1870D02*
X1880D01*
X1918D02*
X1928D01*
X1935D02*
X1946D01*
X1955D02*
X1965D01*
X1997D02*
X2006D01*
X2018D02*
X2028D01*
X2058D02*
X2068D01*
X2086D02*
X2105D01*
X2117D02*
X2136D01*
X2143D02*
X2153D01*
X2162D02*
X2171D01*
X2179D02*
X2188D01*
X2243D02*
X2253D01*
X1764Y661D02*
X1774D01*
X1779D02*
X1791D01*
X1805D02*
X1815D01*
X1827D02*
X1837D01*
X1870D02*
X1881D01*
X1918D02*
X1928D01*
X1935D02*
X1945D01*
X1955D02*
X1965D01*
X1997D02*
X2006D01*
X2018D02*
X2028D01*
X2058D02*
X2068D01*
X2084D02*
X2105D01*
X2115D02*
X2136D01*
X2143D02*
X2153D01*
X2162D02*
X2171D01*
X2179D02*
X2208D01*
X2243D02*
X2253D01*
X1764Y662D02*
X1774D01*
X1779D02*
X1790D01*
X1805D02*
X1815D01*
X1826D02*
X1837D01*
X1871D02*
X1883D01*
X1918D02*
X1928D01*
X1935D02*
X1945D01*
X1955D02*
X1965D01*
X1998D02*
X2007D01*
X2016D02*
X2028D01*
X2058D02*
X2068D01*
X2083D02*
X2104D01*
X2113D02*
X2135D01*
X2143D02*
X2153D01*
X2162D02*
X2171D01*
X2179D02*
X2208D01*
X2243D02*
X2253D01*
X1764Y663D02*
X1789D01*
X1805D02*
X1815D01*
X1826D02*
X1836D01*
X1872D02*
X1884D01*
X1918D02*
X1928D01*
X1935D02*
X1945D01*
X1955D02*
X1965D01*
X1971D02*
X1991D01*
X1998D02*
X2007D01*
X2015D02*
X2027D01*
X2058D02*
X2068D01*
X2081D02*
X2104D01*
X2112D02*
X2135D01*
X2143D02*
X2153D01*
X2162D02*
X2171D01*
X2178D02*
X2208D01*
X2243D02*
X2253D01*
X1764Y664D02*
X1789D01*
X1805D02*
X1815D01*
X1824D02*
X1836D01*
X1873D02*
X1885D01*
X1917D02*
X1928D01*
X1935D02*
X1945D01*
X1955D02*
X1965D01*
X1971D02*
X1991D01*
X1999D02*
X2008D01*
X2012D02*
X2027D01*
X2058D02*
X2068D01*
X2081D02*
X2103D01*
X2112D02*
X2133D01*
X2143D02*
X2153D01*
X2162D02*
X2171D01*
X2179D02*
X2208D01*
X2243D02*
X2253D01*
X1764Y664D02*
X1788D01*
X1805D02*
X1836D01*
X1874D02*
X1886D01*
X1900D02*
X1902D01*
X1916D02*
X1928D01*
X1935D02*
X1945D01*
X1955D02*
X1965D01*
X1971D02*
X1991D01*
X2000D02*
X2009D01*
X2010D02*
X2027D01*
X2058D02*
X2068D01*
X2080D02*
X2100D01*
X2111D02*
X2131D01*
X2143D02*
X2153D01*
X2162D02*
X2171D01*
X2179D02*
X2208D01*
X2243D02*
X2253D01*
X1764Y665D02*
X1790D01*
X1805D02*
X1835D01*
X1875D02*
X1886D01*
X1900D02*
X1908D01*
X1911D02*
X1927D01*
X1935D02*
X1945D01*
X1955D02*
X1965D01*
X1971D02*
X1991D01*
X2001D02*
X2026D01*
X2058D02*
X2068D01*
X2080D02*
X2097D01*
X2111D02*
X2128D01*
X2143D02*
X2153D01*
X2162D02*
X2171D01*
X2179D02*
X2208D01*
X2243D02*
X2253D01*
X1764Y666D02*
X1791D01*
X1805D02*
X1834D01*
X1876D02*
X1887D01*
X1900D02*
X1927D01*
X1935D02*
X1945D01*
X1955D02*
X1965D01*
X1971D02*
X1991D01*
X2003D02*
X2025D01*
X2058D02*
X2068D01*
X2080D02*
X2093D01*
X2111D02*
X2123D01*
X2143D02*
X2153D01*
X2162D02*
X2171D01*
X2179D02*
X2188D01*
X2199D02*
X2208D01*
X2243D02*
X2253D01*
X1764Y667D02*
X1792D01*
X1805D02*
X1833D01*
X1877D02*
X1887D01*
X1900D02*
X1926D01*
X1935D02*
X1945D01*
X1955D02*
X1965D01*
X1971D02*
X1991D01*
X2003D02*
X2023D01*
X2058D02*
X2068D01*
X2080D02*
X2090D01*
X2111D02*
X2121D01*
X2143D02*
X2153D01*
X2162D02*
X2171D01*
X2179D02*
X2188D01*
X2198D02*
X2208D01*
X2243D02*
X2253D01*
X1764Y668D02*
X1793D01*
X1805D02*
X1831D01*
X1878D02*
X1888D01*
X1900D02*
X1925D01*
X1935D02*
X1945D01*
X1955D02*
X1965D01*
X1971D02*
X1991D01*
X2002D02*
X2022D01*
X2058D02*
X2068D01*
X2080D02*
X2089D01*
X2104D02*
X2105D01*
X2110D02*
X2120D01*
X2135D02*
X2136D01*
X2143D02*
X2153D01*
X2162D02*
X2171D01*
X2180D02*
X2188D01*
X2198D02*
X2208D01*
X2243D02*
X2253D01*
X1764Y669D02*
X1774D01*
X1782D02*
X1794D01*
X1805D02*
X1830D01*
X1878D02*
X1888D01*
X1900D02*
X1924D01*
X1935D02*
X1945D01*
X1955D02*
X1965D01*
X2001D02*
X2022D01*
X2058D02*
X2068D01*
X2080D02*
X2089D01*
X2102D02*
X2105D01*
X2111D02*
X2120D01*
X2133D02*
X2136D01*
X2143D02*
X2153D01*
X2162D02*
X2171D01*
X2180D02*
X2189D01*
X2198D02*
X2207D01*
X2243D02*
X2253D01*
X1764Y670D02*
X1774D01*
X1783D02*
X1794D01*
X1805D02*
X1831D01*
X1879D02*
X1889D01*
X1900D02*
X1923D01*
X1935D02*
X1945D01*
X1955D02*
X1965D01*
X2000D02*
X2023D01*
X2058D02*
X2068D01*
X2080D02*
X2090D01*
X2101D02*
X2105D01*
X2111D02*
X2120D01*
X2132D02*
X2136D01*
X2143D02*
X2153D01*
X2162D02*
X2171D01*
X2181D02*
X2190D01*
X2197D02*
X2207D01*
X2243D02*
X2253D01*
X1764Y671D02*
X1774D01*
X1784D02*
X1795D01*
X1805D02*
X1815D01*
X1821D02*
X1832D01*
X1880D02*
X1889D01*
X1900D02*
X1921D01*
X1935D02*
X1945D01*
X1955D02*
X1965D01*
X1999D02*
X2015D01*
X2016D02*
X2025D01*
X2058D02*
X2068D01*
X2080D02*
X2092D01*
X2097D02*
X2105D01*
X2111D02*
X2123D01*
X2127D02*
X2136D01*
X2143D02*
X2153D01*
X2162D02*
X2171D01*
X2181D02*
X2193D01*
X2195D02*
X2206D01*
X2243D02*
X2253D01*
X1764Y672D02*
X1774D01*
X1785D02*
X1795D01*
X1805D02*
X1815D01*
X1823D02*
X1833D01*
X1880D02*
X1889D01*
X1900D02*
X1919D01*
X1935D02*
X1945D01*
X1955D02*
X1965D01*
X1999D02*
X2013D01*
X2017D02*
X2026D01*
X2058D02*
X2068D01*
X2081D02*
X2105D01*
X2112D02*
X2136D01*
X2143D02*
X2153D01*
X2162D02*
X2171D01*
X2182D02*
X2206D01*
X2243D02*
X2253D01*
X1764Y673D02*
X1774D01*
X1785D02*
X1795D01*
X1805D02*
X1815D01*
X1824D02*
X1833D01*
X1880D02*
X1889D01*
X1900D02*
X1909D01*
X1935D02*
X1945D01*
X1955D02*
X1965D01*
X1998D02*
X2011D01*
X2017D02*
X2026D01*
X2058D02*
X2068D01*
X2082D02*
X2105D01*
X2112D02*
X2136D01*
X2143D02*
X2153D01*
X2162D02*
X2171D01*
X2183D02*
X2205D01*
X2243D02*
X2253D01*
X1764Y674D02*
X1774D01*
X1785D02*
X1795D01*
X1805D02*
X1815D01*
X1824D02*
X1834D01*
X1880D02*
X1890D01*
X1900D02*
X1909D01*
X1935D02*
X1946D01*
X1955D02*
X1965D01*
X1998D02*
X2008D01*
X2017D02*
X2026D01*
X2058D02*
X2068D01*
X2082D02*
X2105D01*
X2113D02*
X2136D01*
X2143D02*
X2153D01*
X2162D02*
X2171D01*
X2184D02*
X2205D01*
X2243D02*
X2253D01*
X1764Y675D02*
X1774D01*
X1785D02*
X1795D01*
X1805D02*
X1815D01*
X1824D02*
X1834D01*
X1880D02*
X1890D01*
X1900D02*
X1909D01*
X1935D02*
X1946D01*
X1955D02*
X1965D01*
X1998D02*
X2008D01*
X2018D02*
X2027D01*
X2058D02*
X2068D01*
X2083D02*
X2105D01*
X2114D02*
X2136D01*
X2143D02*
X2153D01*
X2162D02*
X2171D01*
X2185D02*
X2204D01*
X2235D02*
X2253D01*
X1764Y676D02*
X1774D01*
X1785D02*
X1795D01*
X1805D02*
X1815D01*
X1824D02*
X1834D01*
X1863D02*
X1864D01*
X1879D02*
X1890D01*
X1900D02*
X1909D01*
X1936D02*
X1946D01*
X1954D02*
X1965D01*
X1998D02*
X2008D01*
X2018D02*
X2027D01*
X2058D02*
X2068D01*
X2085D02*
X2105D01*
X2116D02*
X2136D01*
X2143D02*
X2153D01*
X2162D02*
X2171D01*
X2187D02*
X2202D01*
X2235D02*
X2253D01*
X1764Y677D02*
X1774D01*
X1784D02*
X1795D01*
X1805D02*
X1815D01*
X1824D02*
X1834D01*
X1863D02*
X1866D01*
X1879D02*
X1890D01*
X1900D02*
X1909D01*
X1936D02*
X1946D01*
X1954D02*
X1964D01*
X1998D02*
X2008D01*
X2018D02*
X2027D01*
X2058D02*
X2068D01*
X2087D02*
X2102D01*
X2118D02*
X2132D01*
X2143D02*
X2153D01*
X2162D02*
X2171D01*
X2189D02*
X2201D01*
X2235D02*
X2253D01*
X1764Y678D02*
X1774D01*
X1783D02*
X1795D01*
X1805D02*
X1815D01*
X1823D02*
X1834D01*
X1863D02*
X1868D01*
X1878D02*
X1890D01*
X1900D02*
X1909D01*
X1937D02*
X1947D01*
X1953D02*
X1964D01*
X1998D02*
X2008D01*
X2017D02*
X2027D01*
X2058D02*
X2068D01*
X2094D02*
X2094D01*
X2125D02*
X2125D01*
X2194D02*
X2194D01*
X2235D02*
X2253D01*
X1764Y679D02*
X1774D01*
X1782D02*
X1795D01*
X1805D02*
X1815D01*
X1821D02*
X1834D01*
X1863D02*
X1871D01*
X1875D02*
X1889D01*
X1900D02*
X1927D01*
X1937D02*
X1948D01*
X1953D02*
X1963D01*
X1998D02*
X2009D01*
X2016D02*
X2027D01*
X2058D02*
X2068D01*
X2235D02*
X2253D01*
X1764Y679D02*
X1795D01*
X1805D02*
X1834D01*
X1863D02*
X1889D01*
X1900D02*
X1927D01*
X1937D02*
X1950D01*
X1950D02*
X1963D01*
X1999D02*
X2011D01*
X2013D02*
X2026D01*
X2052D02*
X2074D01*
X2235D02*
X2253D01*
X1764Y680D02*
X1794D01*
X1805D02*
X1833D01*
X1863D02*
X1889D01*
X1900D02*
X1927D01*
X1938D02*
X1962D01*
X1999D02*
X2026D01*
X2052D02*
X2074D01*
X2235D02*
X2253D01*
X1764Y681D02*
X1793D01*
X1805D02*
X1833D01*
X1863D02*
X1888D01*
X1900D02*
X1927D01*
X1938D02*
X1962D01*
X2000D02*
X2026D01*
X2052D02*
X2074D01*
X2241D02*
X2253D01*
X1764Y682D02*
X1792D01*
X1805D02*
X1832D01*
X1863D02*
X1887D01*
X1900D02*
X1927D01*
X1939D02*
X1961D01*
X2001D02*
X2025D01*
X2052D02*
X2074D01*
X2242D02*
X2253D01*
X1764Y683D02*
X1792D01*
X1805D02*
X1831D01*
X1863D02*
X1886D01*
X1900D02*
X1927D01*
X1941D02*
X1960D01*
X2002D02*
X2024D01*
X2052D02*
X2074D01*
X2243D02*
X2253D01*
X1764Y684D02*
X1790D01*
X1805D02*
X1829D01*
X1864D02*
X1885D01*
X1900D02*
X1927D01*
X1942D02*
X1958D01*
X2004D02*
X2023D01*
X2052D02*
X2074D01*
X2244D02*
X2253D01*
X1764Y685D02*
X1786D01*
X1805D02*
X1827D01*
X1867D02*
X1883D01*
X1900D02*
X1927D01*
X1943D02*
X1957D01*
X2005D02*
X2020D01*
X2052D02*
X2074D01*
X2244D02*
X2253D01*
X1871Y686D02*
X1880D01*
X1948D02*
X1953D01*
X2009D02*
X2016D01*
D02*
D77*
X440Y439D02*
X402D01*
Y461*
X405Y467*
X412Y470*
X418Y467*
X421Y461*
Y439*
Y461D02*
X440Y470D01*
Y495D02*
Y508D01*
Y502D02*
X402D01*
X408Y495*
X578Y439D02*
X541D01*
Y461*
X544Y467*
X550Y470*
X557Y467*
X560Y461*
Y439*
Y461D02*
X578Y470D01*
Y514D02*
Y489D01*
X557Y511*
X550Y514*
X544Y511*
X541Y505*
Y495*
X544Y489*
X732Y1414D02*
X744D01*
X738D02*
Y1452D01*
X732D02*
X744D01*
X804Y1421D02*
X801Y1418D01*
X794Y1414*
X785*
X779Y1418*
X776Y1421*
X772Y1427*
Y1439*
X776Y1446*
X779Y1449*
X785Y1452*
X794*
X801Y1449*
X804Y1446*
X847Y1414D02*
X822D01*
X844Y1436*
X847Y1443*
X844Y1449*
X838Y1452*
X829*
X822Y1449*
X737Y2089D02*
X749D01*
X743D02*
Y2126D01*
X737D02*
X749D01*
X809Y2095D02*
X806Y2092D01*
X799Y2089*
X790*
X784Y2092*
X781Y2095*
X777Y2101*
Y2114*
X781Y2120*
X784Y2123*
X790Y2126*
X799*
X806Y2123*
X809Y2120*
X843Y2089D02*
Y2126D01*
X827Y2101*
X852*
X718Y444D02*
X681D01*
Y466*
X684Y472*
X690Y475*
X696Y472*
X699Y466*
Y444*
Y466D02*
X718Y475D01*
X715Y497D02*
X718Y503D01*
Y510*
X715Y516*
X709Y519*
X703Y516*
X699Y510*
Y503*
Y510D02*
X696Y516D01*
X690Y519*
X684Y516*
X681Y510*
Y503*
X684Y497*
X738Y1735D02*
X750D01*
X744D02*
Y1773D01*
X738D02*
X750D01*
X810Y1742D02*
X806Y1738D01*
X800Y1735*
X791*
X785Y1738*
X781Y1742*
X778Y1748*
Y1760*
X781Y1767*
X785Y1770*
X791Y1773*
X800*
X806Y1770*
X810Y1767*
X831Y1738D02*
X838Y1735D01*
X844*
X850Y1738*
X853Y1745*
X850Y1751*
X844Y1754*
X838*
X844D02*
X850Y1757D01*
X853Y1763*
X850Y1770*
X844Y1773*
X838*
X831Y1770*
X740Y1077D02*
X752D01*
X746D02*
Y1114D01*
X740D02*
X752D01*
X812Y1083D02*
X808Y1080D01*
X802Y1077*
X793*
X787Y1080*
X783Y1083*
X780Y1089*
Y1102*
X783Y1108*
X787Y1111*
X793Y1114*
X802*
X808Y1111*
X812Y1108*
X837Y1077D02*
X849D01*
X843D02*
Y1114D01*
X837Y1108*
X856Y440D02*
X819D01*
Y462*
X822Y468*
X828Y471*
X834Y468*
X837Y462*
Y440*
Y462D02*
X856Y471D01*
Y506D02*
X819D01*
X844Y490*
Y515*
X991Y436D02*
X953D01*
Y458*
X956Y464*
X963Y467*
X969Y464*
X972Y458*
Y436*
Y458D02*
X991Y467D01*
X988Y486D02*
X991Y492D01*
Y502*
X988Y508*
X981Y511*
X978*
X972Y508*
X969Y502*
Y486*
X953*
Y511*
X1160Y2999D02*
X1157Y2996D01*
X1151Y2993*
X1141*
X1135Y2996*
X1132Y2999*
X1129Y3006*
Y3018*
X1132Y3024*
X1135Y3028*
X1141Y3031*
X1151*
X1157Y3028*
X1160Y3024*
X1179Y3006D02*
Y3018D01*
X1182Y3024*
X1185Y3028*
X1191Y3031*
X1198*
X1204Y3028*
X1207Y3024*
X1210Y3018*
Y3006*
X1207Y2999*
X1204Y2996*
X1198Y2993*
X1191*
X1185Y2996*
X1182Y2999*
X1179Y3006*
X1229Y2993D02*
Y3031D01*
X1260Y2993*
Y3031*
X1279Y2993D02*
Y3031D01*
X1310Y2993*
Y3031*
X1354Y2993D02*
X1329D01*
X1351Y3015*
X1354Y3021*
X1351Y3028*
X1345Y3031*
X1335*
X1329Y3028*
X1127Y437D02*
X1089D01*
Y459*
X1092Y465*
X1099Y468*
X1105Y465*
X1108Y459*
Y437*
Y459D02*
X1127Y468D01*
X1117Y487D02*
X1111Y490D01*
X1108Y497*
Y503*
X1111Y509*
X1117Y512*
X1124Y509*
X1127Y503*
Y497*
X1124Y490*
X1117Y487*
X1108*
X1099Y490*
X1092Y497*
X1089Y503*
X1257Y435D02*
X1219D01*
Y457*
X1222Y463*
X1228Y466*
X1235Y463*
X1238Y457*
Y435*
Y457D02*
X1257Y466D01*
Y485D02*
X1219Y510D01*
Y485*
X1404Y436D02*
X1367D01*
Y458*
X1370Y464*
X1376Y467*
X1382Y464*
X1385Y458*
Y436*
Y458D02*
X1404Y467D01*
X1385Y496D02*
Y502D01*
X1382Y508*
X1376Y511*
X1370Y508*
X1367Y502*
Y496*
X1370Y489*
X1376Y486*
X1382Y489*
X1385Y496*
X1389Y489*
X1395Y486*
X1401Y489*
X1404Y496*
Y502*
X1401Y508*
X1395Y511*
X1389Y508*
X1385Y502*
X1710Y2411D02*
X1723D01*
X1716D02*
Y2449D01*
X1710D02*
X1723D01*
X1782Y2418D02*
X1779Y2415D01*
X1773Y2411*
X1763*
X1757Y2415*
X1754Y2418*
X1751Y2424*
Y2436*
X1754Y2443*
X1757Y2446*
X1763Y2449*
X1773*
X1779Y2446*
X1782Y2443*
X1801Y2415D02*
X1807Y2411D01*
X1816*
X1823Y2415*
X1826Y2421*
Y2424*
X1823Y2430*
X1816Y2433*
X1801*
Y2449*
X1826*
X1716Y1382D02*
X1729D01*
X1722D02*
Y1419D01*
X1716D02*
X1729D01*
X1788Y1388D02*
X1785Y1385D01*
X1779Y1382*
X1769*
X1763Y1385*
X1760Y1388*
X1757Y1394*
Y1407*
X1760Y1413*
X1763Y1416*
X1769Y1419*
X1779*
X1785Y1416*
X1788Y1413*
X1816Y1401D02*
X1822D01*
X1829Y1404*
X1832Y1410*
X1829Y1416*
X1822Y1419*
X1816*
X1810Y1416*
X1807Y1410*
X1810Y1404*
X1816Y1401*
X1810Y1398*
X1807Y1391*
X1810Y1385*
X1816Y1382*
X1822*
X1829Y1385*
X1832Y1391*
X1829Y1398*
X1822Y1401*
X1719Y1726D02*
X1732D01*
X1725D02*
Y1764D01*
X1719D02*
X1732D01*
X1791Y1733D02*
X1788Y1730D01*
X1782Y1726*
X1772*
X1766Y1730*
X1763Y1733*
X1760Y1739*
Y1751*
X1763Y1758*
X1766Y1761*
X1772Y1764*
X1782*
X1788Y1761*
X1791Y1758*
X1810Y1726D02*
X1835Y1764D01*
X1810*
X1724Y2053D02*
X1736D01*
X1730D02*
Y2091D01*
X1724D02*
X1736D01*
X1796Y2059D02*
X1793Y2056D01*
X1786Y2053*
X1777*
X1771Y2056*
X1768Y2059*
X1765Y2066*
Y2078*
X1768Y2084*
X1771Y2088*
X1777Y2091*
X1786*
X1793Y2088*
X1796Y2084*
X1815Y2063D02*
X1818Y2069D01*
X1824Y2072*
X1830*
X1836Y2069*
X1840Y2063*
X1836Y2056*
X1830Y2053*
X1824*
X1818Y2056*
X1815Y2063*
Y2072*
X1818Y2081*
X1824Y2088*
X1830Y2091*
X1766Y413D02*
X1762Y410D01*
X1756Y407*
X1747*
X1741Y410*
X1737Y413*
X1734Y419*
Y432*
X1737Y438*
X1741Y441*
X1747Y444*
X1756*
X1762Y441*
X1766Y438*
X1784Y419D02*
Y432D01*
X1787Y438*
X1791Y441*
X1797Y444*
X1803*
X1809Y441*
X1812Y438*
X1816Y432*
Y419*
X1812Y413*
X1809Y410*
X1803Y407*
X1797*
X1791Y410*
X1787Y413*
X1784Y419*
X1834Y407D02*
Y444D01*
X1866Y407*
Y444*
X1884Y407D02*
Y444D01*
X1916Y407*
Y444*
X1941Y407D02*
X1953D01*
X1947D02*
Y444D01*
X1941Y438*
X000Y000D02*
M02*
