%FSLAX23Y23*%
%MOIN*%
%ADD70O,0.07087X0.11811*%
%ADD91O,0.07874X0.15748*%
%ADD144R,0.05118X0.04500*%
%ADD92R,0.06299X0.07087*%
%ADD96C,0.01800*%
%ADD188C,0.01969*%
%ADD98C,0.04800*%
%ADD93C,0.07500*%
%ADD97C,0.11811*%
X000Y000D02*
D02*
D70*
X496Y321D03*
X634D03*
X772D03*
X909D03*
X1047D03*
X1185D03*
X1323D03*
X1461D03*
X1598D03*
X1736D03*
X1874D03*
X2012D03*
D02*
D91*
X345Y3147D03*
X545D03*
X745D03*
X945D03*
X1145D03*
X1345D03*
X1545D03*
X1745D03*
X1945D03*
X2145D03*
D02*
D92*
X613Y1144D03*
Y1244D03*
Y1344D03*
Y1484D03*
Y1584D03*
Y1684D03*
Y1807D03*
Y1907D03*
Y2007D03*
Y2160D03*
Y2260D03*
Y2360D03*
X963Y1144D03*
Y1244D03*
Y1344D03*
Y1484D03*
Y1584D03*
Y1684D03*
Y1807D03*
Y1907D03*
Y2007D03*
Y2160D03*
Y2260D03*
Y2360D03*
X1597Y1146D03*
Y1246D03*
Y1346D03*
X1598Y1482D03*
Y1582D03*
Y1682D03*
Y2162D03*
Y2262D03*
Y2362D03*
X1599Y1809D03*
Y1909D03*
Y2009D03*
X1947Y1146D03*
Y1246D03*
Y1346D03*
X1948Y1482D03*
Y1582D03*
Y1682D03*
Y2162D03*
Y2262D03*
Y2362D03*
X1949Y1809D03*
Y1909D03*
Y2009D03*
D02*
D93*
X613Y2503D03*
X1064Y2264D03*
X1508D03*
D02*
D96*
X345Y3147D02*
Y3060D01*
X158Y2873*
Y1477*
X490Y1145*
X613Y1144*
X493Y443D02*
Y328D01*
X497Y324*
X496*
Y321*
X545Y3147D02*
X545D01*
Y3079*
X285Y2819*
Y1644*
X450Y1480*
X601*
X603Y1478*
X604Y1485*
X613*
Y1484*
Y2007D02*
Y2008D01*
X540*
Y2006*
X632Y524D02*
Y615D01*
X1045Y1028*
Y1458*
X1028Y1476*
X1004*
X963Y1484*
X632Y443D02*
Y346D01*
X657Y321*
X634*
X745Y3147D02*
Y3072D01*
X390Y2716*
Y1965*
X549Y1806*
X553*
X613Y1807*
X772Y529D02*
Y644D01*
X1118Y991*
Y1761*
X1067Y1813*
X1064*
X963Y1814*
Y1807*
X772Y448D02*
Y322D01*
X772Y321*
X909Y444D02*
Y322D01*
X909Y321*
X945Y3147D02*
X946D01*
Y3058*
X494Y2606*
Y2251*
X583Y2161*
Y2163*
X613Y2160*
X963Y1144D02*
Y1077D01*
X492Y606*
X493Y524*
X963Y2160D02*
X1008Y2157D01*
X1090*
X1185Y2062*
Y948*
X909Y673*
Y525*
X1044Y440D02*
Y350D01*
X1073Y321*
X1047*
X1180Y522D02*
Y587D01*
X1322Y729*
Y1816*
X1324Y1826*
Y1898*
X1435Y2009*
X1599*
X1180Y441D02*
Y350D01*
X1204Y326*
X1185Y321*
X1310Y439D02*
X1317D01*
X1317Y439*
Y325*
X1319Y323*
Y320*
X1323Y321*
X1458Y521D02*
Y617D01*
X1460Y619*
X1458*
Y1277*
X1527Y1346*
X1600*
Y1352*
X1597Y1346*
X1458Y440D02*
Y324D01*
X1461Y321*
X1598Y1682D02*
X1493D01*
X1388Y1577*
Y667*
X1314Y593*
X1309*
X1310Y520*
X1598Y2362D02*
X1389D01*
X1249Y2222*
Y813*
X1042Y607*
Y524*
X1044Y521*
X1745Y3147D02*
Y3138D01*
X1744*
Y3105*
X1870Y2979*
X2388*
X2455Y2912*
Y1498*
X2297Y1340*
X1947Y1346*
X1948Y1682D02*
X1996Y1682D01*
X2237*
X2382Y1826*
Y2815*
X2301Y2896*
X1708*
X1554Y3050*
Y3147*
X1545*
X1948Y2362D02*
X1948Y2363D01*
X1950Y2365*
Y2458*
X1812Y2596*
X1502*
X1145Y2952*
Y3147*
X1949Y2009D02*
X1958D01*
X1958Y2009*
X2123*
X2173Y2060*
Y2414*
X1902Y2686*
X1658*
X1345Y2999*
Y3147*
D02*
D97*
X253Y767D03*
X2223Y2729D03*
D02*
D98*
X539Y1346D03*
X540Y2006D03*
X546Y1685D03*
X2015Y1804D03*
X2019Y1143D03*
X2023Y1481D03*
Y2164D03*
D02*
D144*
X493Y524D03*
X493Y443D03*
X632Y524D03*
X632Y443D03*
X772Y529D03*
X772Y448D03*
X909Y525D03*
X909Y444D03*
X1044Y521D03*
X1044Y440D03*
X1180Y522D03*
X1180Y441D03*
X1310Y520D03*
X1310Y439D03*
X1458Y521D03*
X1458Y440D03*
D02*
D188*
X539Y1346D02*
X611D01*
X613Y1344*
X613Y2503D02*
Y2376D01*
X613Y2376*
Y2360*
Y1684D02*
X565D01*
X564Y1685*
X546*
X963Y1584D02*
X913D01*
X885Y1556*
Y1257*
X899Y1244*
X963*
Y1907D02*
X902D01*
X882Y1887*
Y1603*
X902Y1583*
X963Y1584*
Y2260D02*
X898D01*
X880Y2243*
Y1922*
X894Y1908*
X906*
X963Y1907*
X1064Y2264D02*
X1063Y2265D01*
X962*
X963Y2260*
X1597Y1246D02*
X1538D01*
X1517Y1224*
Y1025*
X1597Y944*
Y688*
X1598Y313*
Y321*
X1598Y1582D02*
X1652D01*
X1675Y1559*
Y1264*
X1655Y1244*
X1634*
X1597Y1246*
X1598Y2262D02*
X1661D01*
X1672Y2251*
Y1947*
X1634Y1909*
X1599*
X1598Y2262D02*
X1510D01*
X1508Y2264*
X1599Y1909D02*
X1654D01*
X1671Y1891*
Y1603*
X1653Y1584*
X1636*
X1598Y1582*
X1736Y321D02*
X1595D01*
X1595Y322*
X1596*
X1597Y321*
X1598*
X1874D02*
X1740D01*
X1739Y320*
X1736Y322*
X1736Y322*
Y321*
X1947Y1146D02*
X2016D01*
X2019Y1143*
X2012Y321D02*
Y321D01*
X2011Y322*
X1872*
X1874Y321*
X2015Y1804D02*
X1954D01*
X1949Y1809*
X2023Y1481D02*
X1949D01*
X1948Y1482*
X2023Y2164D02*
X1948Y2162D01*
X000Y000D02*
M02*
