%FSLAX23Y23*%
%MOIN*%
%ADD70O,0.07087X0.11811*%
%ADD91O,0.07874X0.15748*%
%ADD96C,0.01800*%
%ADD188C,0.01969*%
%ADD99C,0.02756*%
%ADD73C,0.03937*%
%ADD98C,0.04800*%
%ADD93C,0.07500*%
%ADD97C,0.11811*%
X000Y000D02*
D02*
D70*
X496Y321D03*
X634D03*
X772D03*
X909D03*
X1047D03*
X1185D03*
X1323D03*
X1461D03*
X1598D03*
X1736D03*
X1874D03*
X2012D03*
D02*
D73*
X1576Y2489D02*
X855D01*
X747Y2380*
Y1057*
X681Y991*
X028*
X1576Y2489D02*
X1732D01*
X1823Y2398*
Y1062*
X1884Y1000*
X2478*
X2145Y3147D02*
Y3020D01*
X1849Y2724*
X1772*
X1576Y2528*
Y2489*
D02*
D91*
X345Y3147D03*
X545D03*
X745D03*
X945D03*
X1145D03*
X1345D03*
X1545D03*
X1745D03*
X1945D03*
X2145D03*
D02*
D93*
X613Y2503D03*
X1064Y2264D03*
X1508D03*
D02*
D96*
X540Y2006D02*
X523D01*
X478Y2051*
Y2369*
X613Y2503*
D02*
D97*
X253Y767D03*
X2223Y2729D03*
D02*
D98*
X539Y1346D03*
X540Y2006D03*
X546Y1685D03*
X2015Y1804D03*
X2019Y1143D03*
X2023Y1481D03*
Y2164D03*
D02*
D99*
X613Y2503D02*
X614D01*
X965Y2854*
X1705*
X1945Y3094*
Y3147*
Y3181*
X2067Y3302*
X2331*
X2404Y3229*
Y2951*
X2405Y2950*
Y2546*
X2023Y2164*
D02*
D188*
X540Y2006D02*
X530D01*
X474Y1951*
Y1756*
X546Y1685*
X525*
X477Y1637*
Y1408*
X539Y1346*
X1508Y2264D02*
X1064D01*
X2015Y1804D02*
Y1807D01*
X2044*
X2090Y1852*
Y2118*
X2043Y2164*
X2023*
X2019Y1143D02*
X2050D01*
X2091Y1184*
Y1445*
X2055Y1481*
X2023*
X2052*
X2098Y1527*
Y1743*
X2039Y1802*
Y1804*
X2015*
X000Y000D02*
M02*
