M48
T1C00.024
T2C00.032
T3C00.047
T4C00.051
T5C00.118
%
T001
X00539Y01346
X00540Y02006
X00546Y01685
X02015Y01804
X02019Y01143
X02023Y01481
X02023Y02164
T002
X00613Y02503
X01064Y02264
X01508Y02264
T003
X00496Y00321
X00634Y00321
X00772Y00321
X00909Y00321
X01047Y00321
X01185Y00321
X01323Y00321
X01461Y00321
X01598Y00321
X01736Y00321
X01874Y00321
X02012Y00321
T004
X00345Y03147
X00545Y03147
X00745Y03147
X00945Y03147
X01145Y03147
X01345Y03147
X01545Y03147
X01745Y03147
X01945Y03147
X02145Y03147
T005
X00253Y00767
X02223Y02729
M30
